M48
; DRILL file {KiCad 8.0.5} date 2024-10-31T21:19:45+0700
; FORMAT={-:-/ absolute / inch / decimal}
; #@! TF.CreationDate,2024-10-31T21:19:45+07:00
; #@! TF.GenerationSoftware,Kicad,Pcbnew,8.0.5
; #@! TF.FileFunction,Plated,1,2,PTH
FMAT,2
INCH
; #@! TA.AperFunction,Plated,PTH,ViaDrill
T1C0.0157
; #@! TA.AperFunction,Plated,PTH,ComponentDrill
T2C0.0300
; #@! TA.AperFunction,Plated,PTH,ComponentDrill
T3C0.0315
; #@! TA.AperFunction,Plated,PTH,ComponentDrill
T4C0.0433
; #@! TA.AperFunction,Plated,PTH,ComponentDrill
T5C0.0472
%
G90
G05
T1
X2.5591Y-3.8976
X4.6047Y-4.5405
X5.3878Y-4.7055
X7.9958Y-1.7494
T2
X1.3213Y-1.9488
X1.3213Y-2.0488
X1.3213Y-2.1488
X1.3213Y-2.2488
X1.3213Y-2.3488
X1.3213Y-2.4488
X1.3213Y-2.5488
X1.3213Y-2.6488
X1.3213Y-2.7488
X1.3213Y-2.8488
X1.3213Y-2.9488
X1.3213Y-3.0488
X1.3213Y-3.1488
X1.3213Y-3.2488
X1.3213Y-3.3488
X2.4213Y-1.9488
X2.4213Y-2.0488
X2.4213Y-2.1488
X2.4213Y-2.2488
X2.4213Y-2.3488
X2.4213Y-2.4488
X2.4213Y-2.5488
X2.4213Y-2.6488
X2.4213Y-2.7488
X2.4213Y-2.8488
X2.4213Y-2.9488
X2.4213Y-3.0488
X2.4213Y-3.1488
X2.4213Y-3.2488
X2.4213Y-3.3488
T3
X1.3268Y-4.5945
X1.3268Y-4.6945
X1.3268Y-4.7945
X1.3268Y-4.8945
X1.6268Y-4.5945
X1.6268Y-4.6945
X1.6268Y-4.7945
X1.6268Y-4.8945
X3.7606Y-4.5866
X3.7606Y-4.8866
X3.8606Y-4.5866
X3.8606Y-4.8866
X3.9606Y-4.5866
X3.9606Y-4.8866
X4.0606Y-4.5866
X4.0606Y-4.8866
X4.1606Y-4.5866
X4.1606Y-4.8866
X4.2606Y-4.5866
X4.2606Y-4.8866
X4.3606Y-4.5866
X4.3606Y-4.8866
X4.4606Y-4.5866
X4.4606Y-4.8866
X4.5606Y-4.5866
X4.5606Y-4.8866
X4.6606Y-4.5866
X4.6606Y-4.8866
X4.7606Y-4.5866
X4.7606Y-4.8866
X4.8606Y-4.5866
X4.8606Y-4.8866
X4.9606Y-4.5866
X4.9606Y-4.8866
X5.0606Y-4.5866
X5.0606Y-4.8866
X7.6386Y-4.5866
X7.6386Y-4.8866
X7.7386Y-4.5866
X7.7386Y-4.8866
X7.8386Y-4.5866
X7.8386Y-4.8866
X7.9386Y-4.5866
X7.9386Y-4.8866
X8.0386Y-4.5866
X8.0386Y-4.8866
X8.1386Y-4.5866
X8.1386Y-4.8866
X8.2386Y-4.5866
X8.2386Y-4.8866
X8.3386Y-4.5866
X8.3386Y-4.8866
X8.4386Y-4.5866
X8.4386Y-4.8866
X8.5386Y-4.5866
X8.5386Y-4.8866
X8.6386Y-4.5866
X8.6386Y-4.8866
X8.7386Y-4.5866
X8.7386Y-4.8866
X8.8386Y-4.5866
X8.8386Y-4.8866
X8.9386Y-4.5866
X8.9386Y-4.8866
T4
X3.2087Y-1.6339
X3.2087Y-2.0339
X3.2087Y-2.3425
X3.2087Y-2.7425
X3.2087Y-3.1102
X3.2087Y-3.5102
X3.2087Y-3.8583
X3.2087Y-4.2583
X3.376Y-1.6339
X3.376Y-2.0339
X3.376Y-2.3425
X3.376Y-2.7425
X3.376Y-3.1102
X3.376Y-3.5102
X3.376Y-3.8583
X3.376Y-4.2583
X4.0945Y-1.6339
X4.0945Y-2.0339
X4.0945Y-2.3425
X4.0945Y-2.7425
X4.0945Y-3.1102
X4.0945Y-3.5102
X4.0945Y-3.8583
X4.0945Y-4.2583
X4.2618Y-1.6339
X4.2618Y-2.0339
X4.2618Y-2.3425
X4.2618Y-2.7425
X4.2618Y-3.1102
X4.2618Y-3.5102
X4.2618Y-3.8583
X4.2618Y-4.2583
X4.9705Y-1.6339
X4.9705Y-2.0339
X4.9803Y-2.3425
X4.9803Y-2.7425
X4.9803Y-3.1102
X4.9803Y-3.5102
X4.9803Y-3.8583
X4.9803Y-4.2583
X5.1378Y-1.6339
X5.1378Y-2.0339
X5.1476Y-2.3425
X5.1476Y-2.7425
X5.1476Y-3.1102
X5.1476Y-3.5102
X5.1476Y-3.8583
X5.1476Y-4.2583
X5.8799Y-3.8583
X5.8799Y-4.2583
X5.8858Y-1.6339
X5.8858Y-2.0339
X5.8858Y-2.3425
X5.8858Y-2.7425
X5.8858Y-3.1102
X5.8858Y-3.5102
X6.0472Y-3.8583
X6.0472Y-4.2583
X6.0531Y-1.6339
X6.0531Y-2.0339
X6.0531Y-2.3425
X6.0531Y-2.7425
X6.0531Y-3.1102
X6.0531Y-3.5102
X7.0866Y-1.6339
X7.0866Y-2.0339
X7.0866Y-2.3622
X7.0866Y-2.7622
X7.0866Y-3.0906
X7.0866Y-3.4906
X7.2539Y-1.6339
X7.2539Y-2.0339
X7.2539Y-2.3622
X7.2539Y-2.7622
X7.2539Y-3.0906
X7.2539Y-3.4906
X7.9724Y-1.6339
X7.9724Y-2.0339
X7.9724Y-2.3622
X7.9724Y-2.7622
X7.9724Y-3.0906
X7.9724Y-3.4906
X8.1398Y-1.6339
X8.1398Y-2.0339
X8.1398Y-2.3622
X8.1398Y-2.7622
X8.1398Y-3.0906
X8.1398Y-3.4906
X8.8583Y-1.6339
X8.8583Y-2.0339
X8.8583Y-2.3622
X8.8583Y-2.7622
X8.8583Y-3.0906
X8.8583Y-3.4906
X9.0256Y-1.6339
X9.0256Y-2.0339
X9.0256Y-2.3622
X9.0256Y-2.7622
X9.0256Y-3.0906
X9.0256Y-3.4906
X9.7638Y-1.6339
X9.7638Y-2.0339
X9.7638Y-2.3622
X9.7638Y-2.7622
X9.7638Y-3.0906
X9.7638Y-3.4906
X9.9311Y-1.6339
X9.9311Y-2.0339
X9.9311Y-2.3622
X9.9311Y-2.7622
X9.9311Y-3.0906
X9.9311Y-3.4906
T5
X1.3583Y-1.1811
X1.4961Y-1.1811
X1.9803Y-4.2717
X1.9803Y-4.4744
X1.9803Y-4.6772
X1.9803Y-4.8799
X2.4803Y-4.2717
X2.4803Y-4.4744
X2.4803Y-4.6772
X2.4803Y-4.8799
X2.8091Y-3.8189
X2.8091Y-4.3189
X2.815Y-1.1614
X2.815Y-1.5945
X2.815Y-2.0945
X2.815Y-2.3031
X2.815Y-2.8031
X2.815Y-3.0709
X2.815Y-3.5709
X2.9528Y-1.1614
X3.0118Y-3.8189
X3.0118Y-4.3189
X3.0177Y-1.5945
X3.0177Y-2.0945
X3.0177Y-2.3031
X3.0177Y-2.8031
X3.0177Y-3.0709
X3.0177Y-3.5709
X3.0906Y-1.1614
X3.2283Y-1.1614
X3.3661Y-1.1614
X3.5039Y-1.1614
X3.6417Y-1.1614
X3.6949Y-2.3031
X3.6949Y-2.8031
X3.7008Y-1.5945
X3.7008Y-2.0945
X3.7008Y-3.0709
X3.7008Y-3.5709
X3.7008Y-3.8189
X3.7008Y-4.3189
X3.7795Y-1.1614
X3.8976Y-2.3031
X3.8976Y-2.8031
X3.9035Y-1.5945
X3.9035Y-2.0945
X3.9035Y-3.0709
X3.9035Y-3.5709
X3.9035Y-3.8189
X3.9035Y-4.3189
X4.5807Y-1.6004
X4.5807Y-2.1004
X4.5807Y-2.3031
X4.5807Y-2.8031
X4.5866Y-1.1614
X4.5866Y-3.0709
X4.5866Y-3.5709
X4.5866Y-3.8189
X4.5866Y-4.3189
X4.7244Y-1.1614
X4.7835Y-1.6004
X4.7835Y-2.1004
X4.7835Y-2.3031
X4.7835Y-2.8031
X4.7894Y-3.0709
X4.7894Y-3.5709
X4.7894Y-3.8189
X4.7894Y-4.3189
X4.8622Y-1.1614
X5.0Y-1.1614
X5.1378Y-1.1614
X5.2756Y-1.1614
X5.4134Y-1.1614
X5.4862Y-3.0709
X5.4862Y-3.5709
X5.4862Y-3.8189
X5.4862Y-4.3189
X5.4921Y-1.5945
X5.4921Y-2.0945
X5.4921Y-2.3031
X5.4921Y-2.8031
X5.5512Y-1.1614
X5.689Y-3.0709
X5.689Y-3.5709
X5.689Y-3.8189
X5.689Y-4.3189
X5.6949Y-1.5945
X5.6949Y-2.0945
X5.6949Y-2.3031
X5.6949Y-2.8031
X6.3583Y-1.1614
X6.4961Y-1.1614
X6.6339Y-1.1614
X6.687Y-1.5945
X6.687Y-2.0945
X6.6929Y-2.3228
X6.6929Y-2.8228
X6.6929Y-3.0512
X6.6929Y-3.5512
X6.7717Y-1.1614
X6.8898Y-1.5945
X6.8898Y-2.0945
X6.8957Y-2.3228
X6.8957Y-2.8228
X6.8957Y-3.0512
X6.8957Y-3.5512
X6.9094Y-1.1614
X7.0472Y-1.1614
X7.185Y-1.1614
X7.3228Y-1.1614
X7.5728Y-2.3228
X7.5728Y-2.8228
X7.5787Y-1.5945
X7.5787Y-2.0945
X7.5787Y-3.0512
X7.5787Y-3.5512
X7.7756Y-2.3228
X7.7756Y-2.8228
X7.7815Y-1.5945
X7.7815Y-2.0945
X7.7815Y-3.0512
X7.7815Y-3.5512
X8.1299Y-1.1614
X8.2677Y-1.1614
X8.4055Y-1.1614
X8.4587Y-2.3228
X8.4587Y-2.8228
X8.4646Y-1.5945
X8.4646Y-2.0945
X8.4646Y-3.0512
X8.4646Y-3.5512
X8.5433Y-1.1614
X8.6614Y-2.3228
X8.6614Y-2.8228
X8.6673Y-1.5945
X8.6673Y-2.0945
X8.6673Y-3.0512
X8.6673Y-3.5512
X8.6811Y-1.1614
X8.8189Y-1.1614
X8.9567Y-1.1614
X9.0945Y-1.1614
X9.3642Y-2.3228
X9.3642Y-2.8228
X9.3642Y-3.0512
X9.3642Y-3.5512
X9.3701Y-1.5945
X9.3701Y-2.0945
X9.5669Y-2.3228
X9.5669Y-2.8228
X9.5669Y-3.0512
X9.5669Y-3.5512
X9.5728Y-1.5945
X9.5728Y-2.0945
M30
