%TF.GenerationSoftware,KiCad,Pcbnew,8.0.5*%
%TF.CreationDate,2024-10-31T21:20:55+07:00*%
%TF.ProjectId,pcb,7063622e-6b69-4636-9164-5f7063625858,rev?*%
%TF.SameCoordinates,Original*%
%TF.FileFunction,OtherDrawing,Comment*%
%FSLAX46Y46*%
G04 Gerber Fmt 4.6, Leading zero omitted, Abs format (unit mm)*
G04 Created by KiCad (PCBNEW 8.0.5) date 2024-10-31 21:20:55*
%MOMM*%
%LPD*%
G01*
G04 APERTURE LIST*
%TA.AperFunction,ComponentPad*%
%ADD10R,2.200000X2.200000*%
%TD*%
%TA.AperFunction,ComponentPad*%
%ADD11O,2.200000X2.200000*%
%TD*%
%TA.AperFunction,ComponentPad*%
%ADD12C,2.400000*%
%TD*%
%TA.AperFunction,ComponentPad*%
%ADD13O,2.400000X2.400000*%
%TD*%
%TA.AperFunction,ComponentPad*%
%ADD14C,1.524000*%
%TD*%
%TA.AperFunction,ComponentPad*%
%ADD15R,2.400000X2.400000*%
%TD*%
%TA.AperFunction,ComponentPad*%
%ADD16R,1.600000X1.600000*%
%TD*%
%TA.AperFunction,ComponentPad*%
%ADD17O,1.600000X1.600000*%
%TD*%
%TA.AperFunction,ViaPad*%
%ADD18C,0.800000*%
%TD*%
%TA.AperFunction,Conductor*%
%ADD19C,0.250000*%
%TD*%
%TA.AperFunction,NonConductor*%
%ADD20C,0.200000*%
%TD*%
G04 APERTURE END LIST*
D10*
%TO.P,D31,1,K*%
%TO.N,/Sensor_16*%
X153600000Y-98000000D03*
D11*
%TO.P,D31,2,A*%
%TO.N,/GND*%
X153600000Y-108160000D03*
%TD*%
D10*
%TO.P,D13,1,K*%
%TO.N,/Sensor_7*%
X130750000Y-59500000D03*
D11*
%TO.P,D13,2,A*%
%TO.N,/GND*%
X130750000Y-69660000D03*
%TD*%
D12*
%TO.P,R8,1*%
%TO.N,/5V*%
X139500000Y-40500000D03*
D13*
%TO.P,R8,2*%
%TO.N,Net-(D8-A)*%
X139500000Y-53200000D03*
%TD*%
D12*
%TO.P,R17,1*%
%TO.N,/Sensor_9*%
X76650000Y-78000000D03*
D13*
%TO.P,R17,2*%
%TO.N,/GND*%
X76650000Y-90700000D03*
%TD*%
D10*
%TO.P,D28,1,K*%
%TO.N,/Sensor_14*%
X104000000Y-98000000D03*
D11*
%TO.P,D28,2,A*%
%TO.N,Net-(D28-A)*%
X104000000Y-108160000D03*
%TD*%
D12*
%TO.P,R27,1*%
%TO.N,/Sensor_14*%
X99150000Y-97000000D03*
D13*
%TO.P,R27,2*%
%TO.N,/GND*%
X99150000Y-109700000D03*
%TD*%
D12*
%TO.P,R54,1*%
%TO.N,/5V*%
X215000000Y-77500000D03*
D13*
%TO.P,R54,2*%
%TO.N,Net-(D54-A)*%
X215000000Y-90200000D03*
%TD*%
D14*
%TO.P,U4,1,A0(ADC0)*%
%TO.N,unconnected-(U4-A0(ADC0)-Pad1)*%
X33560000Y-49500000D03*
%TO.P,U4,2,RSV*%
%TO.N,unconnected-(U4-RSV-Pad2)*%
X33560000Y-52040000D03*
%TO.P,U4,3,RSV*%
%TO.N,unconnected-(U4-RSV-Pad3)*%
X33560000Y-54580000D03*
%TO.P,U4,4,SD3(GPIO10)*%
%TO.N,unconnected-(U4-SD3(GPIO10)-Pad4)*%
X33560000Y-57120000D03*
%TO.P,U4,5,SD2(GPIO9)*%
%TO.N,unconnected-(U4-SD2(GPIO9)-Pad5)*%
X33560000Y-59660000D03*
%TO.P,U4,6,SD1(MOSI)*%
%TO.N,unconnected-(U4-SD1(MOSI)-Pad6)*%
X33560000Y-62200000D03*
%TO.P,U4,7,CMD(CS)*%
%TO.N,unconnected-(U4-CMD(CS)-Pad7)*%
X33560000Y-64740000D03*
%TO.P,U4,8,SDO(MISO)*%
%TO.N,unconnected-(U4-SDO(MISO)-Pad8)*%
X33560000Y-67280000D03*
%TO.P,U4,9,CLK(SCLK)*%
%TO.N,unconnected-(U4-CLK(SCLK)-Pad9)*%
X33560000Y-69820000D03*
%TO.P,U4,10,GND*%
%TO.N,unconnected-(U4-GND-Pad10)*%
X33560000Y-72360000D03*
%TO.P,U4,11,3.3V*%
%TO.N,unconnected-(U4-3.3V-Pad11)*%
X33560000Y-74900000D03*
%TO.P,U4,12,EN*%
%TO.N,unconnected-(U4-EN-Pad12)*%
X33560000Y-77440000D03*
%TO.P,U4,13,RST*%
%TO.N,unconnected-(U4-RST-Pad13)*%
X33560000Y-79980000D03*
%TO.P,U4,14,GND*%
%TO.N,/GND*%
X33560000Y-82520000D03*
%TO.P,U4,15,VIN*%
%TO.N,/5V*%
X33560000Y-85060000D03*
%TO.P,U4,16,3.3V*%
%TO.N,unconnected-(U4-3.3V-Pad16)*%
X61500000Y-85060000D03*
%TO.P,U4,17,GND*%
%TO.N,unconnected-(U4-GND-Pad17)*%
X61500000Y-82520000D03*
%TO.P,U4,18,TX(GPIO1)*%
%TO.N,unconnected-(U4-TX(GPIO1)-Pad18)*%
X61500000Y-79980000D03*
%TO.P,U4,19,RX(DPIO3)*%
%TO.N,unconnected-(U4-RX(DPIO3)-Pad19)*%
X61500000Y-77440000D03*
%TO.P,U4,20,D8(GPIO15)*%
%TO.N,unconnected-(U4-D8(GPIO15)-Pad20)*%
X61500000Y-74900000D03*
%TO.P,U4,21,D7(GPIO13)*%
%TO.N,Net-(U1-SI)*%
X61500000Y-72360000D03*
%TO.P,U4,22,D6(GPIO12)*%
%TO.N,Net-(U1-SO)*%
X61500000Y-69820000D03*
%TO.P,U4,23,D5(GPIO14)*%
%TO.N,Net-(U1-SCK)*%
X61500000Y-67280000D03*
%TO.P,U4,24,GND*%
%TO.N,unconnected-(U4-GND-Pad24)*%
X61500000Y-64740000D03*
%TO.P,U4,25,3.3V*%
%TO.N,unconnected-(U4-3.3V-Pad25)*%
X61500000Y-62200000D03*
%TO.P,U4,26,D4(GPIO2)*%
%TO.N,unconnected-(U4-D4(GPIO2)-Pad26)*%
X61500000Y-59660000D03*
%TO.P,U4,27,D3(GPIO0)*%
%TO.N,unconnected-(U4-D3(GPIO0)-Pad27)*%
X61500000Y-57120000D03*
%TO.P,U4,28,D2(GPIO4)*%
%TO.N,Net-(U1-~{CS})*%
X61500000Y-54580000D03*
%TO.P,U4,29,D1(GPIO5)*%
%TO.N,Net-(U2-~{CS})*%
X61500000Y-52040000D03*
%TO.P,U4,30,D0(GPIO16)*%
%TO.N,unconnected-(U4-D0(GPIO16)-Pad30)*%
X61500000Y-49500000D03*
%TD*%
D10*
%TO.P,D34,1,K*%
%TO.N,/Sensor_17*%
X180000000Y-41500000D03*
D11*
%TO.P,D34,2,A*%
%TO.N,Net-(D34-A)*%
X180000000Y-51660000D03*
%TD*%
D10*
%TO.P,D37,1,K*%
%TO.N,/Sensor_19*%
X229250000Y-41500000D03*
D11*
%TO.P,D37,2,A*%
%TO.N,/GND*%
X229250000Y-51660000D03*
%TD*%
D12*
%TO.P,R42,1*%
%TO.N,/5V*%
X170000000Y-59000000D03*
D13*
%TO.P,R42,2*%
%TO.N,Net-(D42-A)*%
X170000000Y-71700000D03*
%TD*%
D15*
%TO.P,J1,1,Pin_1*%
%TO.N,/5V*%
X38000000Y-30000000D03*
D12*
%TO.P,J1,2,Pin_2*%
%TO.N,/GND*%
X34500000Y-30000000D03*
%TD*%
D16*
%TO.P,U2,1,GPB0*%
%TO.N,Net-(D34-A)*%
X194020000Y-124120000D03*
D17*
%TO.P,U2,2,GPB1*%
%TO.N,Net-(D36-A)*%
X196560000Y-124120000D03*
%TO.P,U2,3,GPB2*%
%TO.N,Net-(D38-A)*%
X199100000Y-124120000D03*
%TO.P,U2,4,GPB3*%
%TO.N,Net-(D40-A)*%
X201640000Y-124120000D03*
%TO.P,U2,5,GPB4*%
%TO.N,Net-(D42-A)*%
X204180000Y-124120000D03*
%TO.P,U2,6,GPB5*%
%TO.N,Net-(D44-A)*%
X206720000Y-124120000D03*
%TO.P,U2,7,GPB6*%
%TO.N,Net-(D46-A)*%
X209260000Y-124120000D03*
%TO.P,U2,8,GPB7*%
%TO.N,Net-(D48-A)*%
X211800000Y-124120000D03*
%TO.P,U2,9,VDD*%
%TO.N,/5V*%
X214340000Y-124120000D03*
%TO.P,U2,10,VSS*%
%TO.N,/GND*%
X216880000Y-124120000D03*
%TO.P,U2,11,~{CS}*%
%TO.N,Net-(U2-~{CS})*%
X219420000Y-124120000D03*
%TO.P,U2,12,SCK*%
%TO.N,Net-(U1-SCK)*%
X221960000Y-124120000D03*
%TO.P,U2,13,SI*%
%TO.N,Net-(U1-SI)*%
X224500000Y-124120000D03*
%TO.P,U2,14,SO*%
%TO.N,Net-(U1-SO)*%
X227040000Y-124120000D03*
%TO.P,U2,15,A0*%
%TO.N,/GND*%
X227040000Y-116500000D03*
%TO.P,U2,16,A1*%
X224500000Y-116500000D03*
%TO.P,U2,17,A2*%
X221960000Y-116500000D03*
%TO.P,U2,18,~{RESET}*%
%TO.N,/5V*%
X219420000Y-116500000D03*
%TO.P,U2,19,INTB*%
%TO.N,unconnected-(U2-INTB-Pad19)*%
X216880000Y-116500000D03*
%TO.P,U2,20,INTA*%
%TO.N,unconnected-(U2-INTA-Pad20)*%
X214340000Y-116500000D03*
%TO.P,U2,21,GPA0*%
%TO.N,Net-(D50-A)*%
X211800000Y-116500000D03*
%TO.P,U2,22,GPA1*%
%TO.N,Net-(D52-A)*%
X209260000Y-116500000D03*
%TO.P,U2,23,GPA2*%
%TO.N,Net-(D54-A)*%
X206720000Y-116500000D03*
%TO.P,U2,24,GPA3*%
%TO.N,Net-(D56-A)*%
X204180000Y-116500000D03*
%TO.P,U2,25,GPA4*%
%TO.N,Net-(U2-GPA4)*%
X201640000Y-116500000D03*
%TO.P,U2,26,GPA5*%
%TO.N,Net-(U2-GPA5)*%
X199100000Y-116500000D03*
%TO.P,U2,27,GPA6*%
%TO.N,Net-(U2-GPA6)*%
X196560000Y-116500000D03*
%TO.P,U2,28,GPA7*%
%TO.N,Net-(U2-GPA7)*%
X194020000Y-116500000D03*
%TD*%
D12*
%TO.P,R45,1*%
%TO.N,/Sensor_23*%
X220000000Y-59000000D03*
D13*
%TO.P,R45,2*%
%TO.N,/GND*%
X220000000Y-71700000D03*
%TD*%
D12*
%TO.P,R4,1*%
%TO.N,/5V*%
X94000000Y-40500000D03*
D13*
%TO.P,R4,2*%
%TO.N,Net-(D4-A)*%
X94000000Y-53200000D03*
%TD*%
D10*
%TO.P,D26,1,K*%
%TO.N,/Sensor_13*%
X81500000Y-98000000D03*
D11*
%TO.P,D26,2,A*%
%TO.N,Net-(D26-A)*%
X81500000Y-108160000D03*
%TD*%
D12*
%TO.P,R38,1*%
%TO.N,/5V*%
X215000000Y-40500000D03*
D13*
%TO.P,R38,2*%
%TO.N,Net-(D38-A)*%
X215000000Y-53200000D03*
%TD*%
D10*
%TO.P,D6,1,K*%
%TO.N,/Sensor_3*%
X126250000Y-41500000D03*
D11*
%TO.P,D6,2,A*%
%TO.N,Net-(D6-A)*%
X126250000Y-51660000D03*
%TD*%
D10*
%TO.P,D12,1,K*%
%TO.N,/Sensor_6*%
X104000000Y-59500000D03*
D11*
%TO.P,D12,2,A*%
%TO.N,Net-(D12-A)*%
X104000000Y-69660000D03*
%TD*%
D12*
%TO.P,R47,1*%
%TO.N,/Sensor_24*%
X243000000Y-59000000D03*
D13*
%TO.P,R47,2*%
%TO.N,/GND*%
X243000000Y-71700000D03*
%TD*%
D12*
%TO.P,R18,1*%
%TO.N,/5V*%
X71500000Y-78000000D03*
D13*
%TO.P,R18,2*%
%TO.N,Net-(D18-A)*%
X71500000Y-90700000D03*
%TD*%
D10*
%TO.P,D1,1,K*%
%TO.N,/Sensor_1*%
X85750000Y-41500000D03*
D11*
%TO.P,D1,2,A*%
%TO.N,/GND*%
X85750000Y-51660000D03*
%TD*%
D12*
%TO.P,R34,1*%
%TO.N,/5V*%
X169850000Y-40500000D03*
D13*
%TO.P,R34,2*%
%TO.N,Net-(D34-A)*%
X169850000Y-53200000D03*
%TD*%
D12*
%TO.P,R15,1*%
%TO.N,/Sensor_8*%
X144650000Y-58500000D03*
D13*
%TO.P,R15,2*%
%TO.N,/GND*%
X144650000Y-71200000D03*
%TD*%
D16*
%TO.P,U1,1,GPB0*%
%TO.N,Net-(D2-A)*%
X95520000Y-124120000D03*
D17*
%TO.P,U1,2,GPB1*%
%TO.N,Net-(D4-A)*%
X98060000Y-124120000D03*
%TO.P,U1,3,GPB2*%
%TO.N,Net-(D6-A)*%
X100600000Y-124120000D03*
%TO.P,U1,4,GPB3*%
%TO.N,Net-(D8-A)*%
X103140000Y-124120000D03*
%TO.P,U1,5,GPB4*%
%TO.N,Net-(D10-A)*%
X105680000Y-124120000D03*
%TO.P,U1,6,GPB5*%
%TO.N,Net-(D12-A)*%
X108220000Y-124120000D03*
%TO.P,U1,7,GPB6*%
%TO.N,Net-(D14-A)*%
X110760000Y-124120000D03*
%TO.P,U1,8,GPB7*%
%TO.N,Net-(D16-A)*%
X113300000Y-124120000D03*
%TO.P,U1,9,VDD*%
%TO.N,/5V*%
X115840000Y-124120000D03*
%TO.P,U1,10,VSS*%
%TO.N,/GND*%
X118380000Y-124120000D03*
%TO.P,U1,11,~{CS}*%
%TO.N,Net-(U1-~{CS})*%
X120920000Y-124120000D03*
%TO.P,U1,12,SCK*%
%TO.N,Net-(U1-SCK)*%
X123460000Y-124120000D03*
%TO.P,U1,13,SI*%
%TO.N,Net-(U1-SI)*%
X126000000Y-124120000D03*
%TO.P,U1,14,SO*%
%TO.N,Net-(U1-SO)*%
X128540000Y-124120000D03*
%TO.P,U1,15,A0*%
%TO.N,/GND*%
X128540000Y-116500000D03*
%TO.P,U1,16,A1*%
X126000000Y-116500000D03*
%TO.P,U1,17,A2*%
X123460000Y-116500000D03*
%TO.P,U1,18,~{RESET}*%
%TO.N,/5V*%
X120920000Y-116500000D03*
%TO.P,U1,19,INTB*%
%TO.N,unconnected-(U1-INTB-Pad19)*%
X118380000Y-116500000D03*
%TO.P,U1,20,INTA*%
%TO.N,unconnected-(U1-INTA-Pad20)*%
X115840000Y-116500000D03*
%TO.P,U1,21,GPA0*%
%TO.N,Net-(D18-A)*%
X113300000Y-116500000D03*
%TO.P,U1,22,GPA1*%
%TO.N,Net-(D20-A)*%
X110760000Y-116500000D03*
%TO.P,U1,23,GPA2*%
%TO.N,Net-(D22-A)*%
X108220000Y-116500000D03*
%TO.P,U1,24,GPA3*%
%TO.N,Net-(D24-A)*%
X105680000Y-116500000D03*
%TO.P,U1,25,GPA4*%
%TO.N,Net-(D26-A)*%
X103140000Y-116500000D03*
%TO.P,U1,26,GPA5*%
%TO.N,Net-(D28-A)*%
X100600000Y-116500000D03*
%TO.P,U1,27,GPA6*%
%TO.N,Net-(D30-A)*%
X98060000Y-116500000D03*
%TO.P,U1,28,GPA7*%
%TO.N,Net-(D32-A)*%
X95520000Y-116500000D03*
%TD*%
D12*
%TO.P,R52,1*%
%TO.N,/5V*%
X192500000Y-77500000D03*
D13*
%TO.P,R52,2*%
%TO.N,Net-(D52-A)*%
X192500000Y-90200000D03*
%TD*%
D12*
%TO.P,R33,1*%
%TO.N,/Sensor_17*%
X175000000Y-40500000D03*
D13*
%TO.P,R33,2*%
%TO.N,/GND*%
X175000000Y-53200000D03*
%TD*%
D12*
%TO.P,R53,1*%
%TO.N,/Sensor_27*%
X220150000Y-77500000D03*
D13*
%TO.P,R53,2*%
%TO.N,/GND*%
X220150000Y-90200000D03*
%TD*%
D12*
%TO.P,R26,1*%
%TO.N,/5V*%
X71350000Y-97000000D03*
D13*
%TO.P,R26,2*%
%TO.N,Net-(D26-A)*%
X71350000Y-109700000D03*
%TD*%
D12*
%TO.P,R12,1*%
%TO.N,/5V*%
X93850000Y-58500000D03*
D13*
%TO.P,R12,2*%
%TO.N,Net-(D12-A)*%
X93850000Y-71200000D03*
%TD*%
D12*
%TO.P,R9,1*%
%TO.N,/Sensor_5*%
X76650000Y-58500000D03*
D13*
%TO.P,R9,2*%
%TO.N,/GND*%
X76650000Y-71200000D03*
%TD*%
D10*
%TO.P,D24,1,K*%
%TO.N,/Sensor_12*%
X149500000Y-79000000D03*
D11*
%TO.P,D24,2,A*%
%TO.N,Net-(D24-A)*%
X149500000Y-89160000D03*
%TD*%
D10*
%TO.P,D35,1,K*%
%TO.N,/Sensor_18*%
X206750000Y-41500000D03*
D11*
%TO.P,D35,2,A*%
%TO.N,/GND*%
X206750000Y-51660000D03*
%TD*%
D12*
%TO.P,R44,1*%
%TO.N,/5V*%
X192350000Y-59000000D03*
D13*
%TO.P,R44,2*%
%TO.N,Net-(D44-A)*%
X192350000Y-71700000D03*
%TD*%
D15*
%TO.P,J2,1,Pin_1*%
%TO.N,/Sensor_1*%
X96000000Y-29500000D03*
D12*
%TO.P,J2,2,Pin_2*%
%TO.N,/Sensor_2*%
X92500000Y-29500000D03*
%TO.P,J2,3,Pin_3*%
%TO.N,/Sensor_3*%
X89000000Y-29500000D03*
%TO.P,J2,4,Pin_4*%
%TO.N,/Sensor_4*%
X85500000Y-29500000D03*
%TO.P,J2,5,Pin_5*%
%TO.N,/Sensor_5*%
X82000000Y-29500000D03*
%TO.P,J2,6,Pin_6*%
%TO.N,/Sensor_6*%
X78500000Y-29500000D03*
%TO.P,J2,7,Pin_7*%
%TO.N,/Sensor_7*%
X75000000Y-29500000D03*
%TO.P,J2,8,Pin_8*%
%TO.N,/Sensor_8*%
X71500000Y-29500000D03*
%TD*%
D10*
%TO.P,D46,1,K*%
%TO.N,/Sensor_23*%
X225000000Y-60000000D03*
D11*
%TO.P,D46,2,A*%
%TO.N,Net-(D46-A)*%
X225000000Y-70160000D03*
%TD*%
D12*
%TO.P,R51,1*%
%TO.N,/Sensor_26*%
X197650000Y-77500000D03*
D13*
%TO.P,R51,2*%
%TO.N,/GND*%
X197650000Y-90200000D03*
%TD*%
D12*
%TO.P,R49,1*%
%TO.N,/Sensor_25*%
X175150000Y-77500000D03*
D13*
%TO.P,R49,2*%
%TO.N,/GND*%
X175150000Y-90200000D03*
%TD*%
D12*
%TO.P,R19,1*%
%TO.N,/Sensor_10*%
X99150000Y-78000000D03*
D13*
%TO.P,R19,2*%
%TO.N,/GND*%
X99150000Y-90700000D03*
%TD*%
D12*
%TO.P,R32,1*%
%TO.N,/5V*%
X139350000Y-97000000D03*
D13*
%TO.P,R32,2*%
%TO.N,Net-(D32-A)*%
X139350000Y-109700000D03*
%TD*%
D10*
%TO.P,D27,1,K*%
%TO.N,/Sensor_14*%
X108250000Y-98000000D03*
D11*
%TO.P,D27,2,A*%
%TO.N,/GND*%
X108250000Y-108160000D03*
%TD*%
D15*
%TO.P,J5,1,Pin_1*%
%TO.N,/Sensor_25*%
X231000000Y-29500000D03*
D12*
%TO.P,J5,2,Pin_2*%
%TO.N,/Sensor_26*%
X227500000Y-29500000D03*
%TO.P,J5,3,Pin_3*%
%TO.N,/Sensor_27*%
X224000000Y-29500000D03*
%TO.P,J5,4,Pin_4*%
%TO.N,/Sensor_28*%
X220500000Y-29500000D03*
%TO.P,J5,5,Pin_5*%
%TO.N,/Sensor_29*%
X217000000Y-29500000D03*
%TO.P,J5,6,Pin_6*%
%TO.N,/Sensor_30*%
X213500000Y-29500000D03*
%TO.P,J5,7,Pin_7*%
%TO.N,/Sensor_31*%
X210000000Y-29500000D03*
%TO.P,J5,8,Pin_8*%
%TO.N,/Sensor_32*%
X206500000Y-29500000D03*
%TD*%
D10*
%TO.P,D30,1,K*%
%TO.N,/Sensor_15*%
X126500000Y-98000000D03*
D11*
%TO.P,D30,2,A*%
%TO.N,Net-(D30-A)*%
X126500000Y-108160000D03*
%TD*%
D10*
%TO.P,D56,1,K*%
%TO.N,/Sensor_28*%
X248000000Y-78500000D03*
D11*
%TO.P,D56,2,A*%
%TO.N,Net-(D56-A)*%
X248000000Y-88660000D03*
%TD*%
D10*
%TO.P,D55,1,K*%
%TO.N,/Sensor_28*%
X252250000Y-78500000D03*
D11*
%TO.P,D55,2,A*%
%TO.N,/GND*%
X252250000Y-88660000D03*
%TD*%
D10*
%TO.P,D15,1,K*%
%TO.N,/Sensor_8*%
X153750000Y-59500000D03*
D11*
%TO.P,D15,2,A*%
%TO.N,/GND*%
X153750000Y-69660000D03*
%TD*%
D10*
%TO.P,D45,1,K*%
%TO.N,/Sensor_23*%
X229250000Y-60000000D03*
D11*
%TO.P,D45,2,A*%
%TO.N,/GND*%
X229250000Y-70160000D03*
%TD*%
D10*
%TO.P,D32,1,K*%
%TO.N,/Sensor_16*%
X149350000Y-98000000D03*
D11*
%TO.P,D32,2,A*%
%TO.N,Net-(D32-A)*%
X149350000Y-108160000D03*
%TD*%
D10*
%TO.P,D38,1,K*%
%TO.N,/Sensor_19*%
X225000000Y-41500000D03*
D11*
%TO.P,D38,2,A*%
%TO.N,Net-(D38-A)*%
X225000000Y-51660000D03*
%TD*%
D10*
%TO.P,D51,1,K*%
%TO.N,/Sensor_26*%
X206750000Y-78500000D03*
D11*
%TO.P,D51,2,A*%
%TO.N,/GND*%
X206750000Y-88660000D03*
%TD*%
D15*
%TO.P,J3,1,Pin_1*%
%TO.N,/Sensor_9*%
X141000000Y-29500000D03*
D12*
%TO.P,J3,2,Pin_2*%
%TO.N,/Sensor_10*%
X137500000Y-29500000D03*
%TO.P,J3,3,Pin_3*%
%TO.N,/Sensor_11*%
X134000000Y-29500000D03*
%TO.P,J3,4,Pin_4*%
%TO.N,/Sensor_12*%
X130500000Y-29500000D03*
%TO.P,J3,5,Pin_5*%
%TO.N,/Sensor_13*%
X127000000Y-29500000D03*
%TO.P,J3,6,Pin_6*%
%TO.N,/Sensor_14*%
X123500000Y-29500000D03*
%TO.P,J3,7,Pin_7*%
%TO.N,/Sensor_15*%
X120000000Y-29500000D03*
%TO.P,J3,8,Pin_8*%
%TO.N,/Sensor_16*%
X116500000Y-29500000D03*
%TD*%
D10*
%TO.P,D40,1,K*%
%TO.N,/Sensor_20*%
X248000000Y-41500000D03*
D11*
%TO.P,D40,2,A*%
%TO.N,Net-(D40-A)*%
X248000000Y-51660000D03*
%TD*%
D10*
%TO.P,D44,1,K*%
%TO.N,/Sensor_22*%
X202500000Y-60000000D03*
D11*
%TO.P,D44,2,A*%
%TO.N,Net-(D44-A)*%
X202500000Y-70160000D03*
%TD*%
D10*
%TO.P,D42,1,K*%
%TO.N,/Sensor_21*%
X180000000Y-60000000D03*
D11*
%TO.P,D42,2,A*%
%TO.N,Net-(D42-A)*%
X180000000Y-70160000D03*
%TD*%
D12*
%TO.P,R22,1*%
%TO.N,/5V*%
X116500000Y-78000000D03*
D13*
%TO.P,R22,2*%
%TO.N,Net-(D22-A)*%
X116500000Y-90700000D03*
%TD*%
D10*
%TO.P,D19,1,K*%
%TO.N,/Sensor_10*%
X108250000Y-79000000D03*
D11*
%TO.P,D19,2,A*%
%TO.N,/GND*%
X108250000Y-89160000D03*
%TD*%
D12*
%TO.P,R5,1*%
%TO.N,/Sensor_3*%
X116350000Y-53350000D03*
D13*
%TO.P,R5,2*%
%TO.N,/GND*%
X116350000Y-40650000D03*
%TD*%
D12*
%TO.P,R16,1*%
%TO.N,/5V*%
X139500000Y-58500000D03*
D13*
%TO.P,R16,2*%
%TO.N,Net-(D16-A)*%
X139500000Y-71200000D03*
%TD*%
D10*
%TO.P,D14,1,K*%
%TO.N,/Sensor_7*%
X126500000Y-59500000D03*
D11*
%TO.P,D14,2,A*%
%TO.N,Net-(D14-A)*%
X126500000Y-69660000D03*
%TD*%
D12*
%TO.P,R11,1*%
%TO.N,/Sensor_6*%
X99000000Y-58500000D03*
D13*
%TO.P,R11,2*%
%TO.N,/GND*%
X99000000Y-71200000D03*
%TD*%
D12*
%TO.P,R6,1*%
%TO.N,/5V*%
X121500000Y-53350000D03*
D13*
%TO.P,R6,2*%
%TO.N,Net-(D6-A)*%
X121500000Y-40650000D03*
%TD*%
D12*
%TO.P,R14,1*%
%TO.N,/5V*%
X116350000Y-58500000D03*
D13*
%TO.P,R14,2*%
%TO.N,Net-(D14-A)*%
X116350000Y-71200000D03*
%TD*%
D12*
%TO.P,R36,1*%
%TO.N,/5V*%
X192500000Y-40500000D03*
D13*
%TO.P,R36,2*%
%TO.N,Net-(D36-A)*%
X192500000Y-53200000D03*
%TD*%
D12*
%TO.P,R37,1*%
%TO.N,/Sensor_19*%
X220150000Y-40500000D03*
D13*
%TO.P,R37,2*%
%TO.N,/GND*%
X220150000Y-53200000D03*
%TD*%
D12*
%TO.P,R23,1*%
%TO.N,/Sensor_12*%
X144500000Y-78000000D03*
D13*
%TO.P,R23,2*%
%TO.N,/GND*%
X144500000Y-90700000D03*
%TD*%
D10*
%TO.P,D8,1,K*%
%TO.N,/Sensor_4*%
X149500000Y-41500000D03*
D11*
%TO.P,D8,2,A*%
%TO.N,Net-(D8-A)*%
X149500000Y-51660000D03*
%TD*%
D12*
%TO.P,R30,1*%
%TO.N,/5V*%
X116500000Y-97000000D03*
D13*
%TO.P,R30,2*%
%TO.N,Net-(D30-A)*%
X116500000Y-109700000D03*
%TD*%
D10*
%TO.P,D33,1,K*%
%TO.N,/Sensor_17*%
X184250000Y-41500000D03*
D11*
%TO.P,D33,2,A*%
%TO.N,/GND*%
X184250000Y-51660000D03*
%TD*%
D10*
%TO.P,D53,1,K*%
%TO.N,/Sensor_27*%
X229250000Y-78500000D03*
D11*
%TO.P,D53,2,A*%
%TO.N,/GND*%
X229250000Y-88660000D03*
%TD*%
D10*
%TO.P,D21,1,K*%
%TO.N,/Sensor_11*%
X130750000Y-79000000D03*
D11*
%TO.P,D21,2,A*%
%TO.N,/GND*%
X130750000Y-89160000D03*
%TD*%
D12*
%TO.P,R25,1*%
%TO.N,/Sensor_13*%
X76500000Y-97000000D03*
D13*
%TO.P,R25,2*%
%TO.N,/GND*%
X76500000Y-109700000D03*
%TD*%
D12*
%TO.P,R31,1*%
%TO.N,/Sensor_16*%
X144500000Y-97000000D03*
D13*
%TO.P,R31,2*%
%TO.N,/GND*%
X144500000Y-109700000D03*
%TD*%
D12*
%TO.P,R50,1*%
%TO.N,/5V*%
X170000000Y-77500000D03*
D13*
%TO.P,R50,2*%
%TO.N,Net-(D50-A)*%
X170000000Y-90200000D03*
%TD*%
D10*
%TO.P,D10,1,K*%
%TO.N,/Sensor_5*%
X81500000Y-59500000D03*
D11*
%TO.P,D10,2,A*%
%TO.N,Net-(D10-A)*%
X81500000Y-69660000D03*
%TD*%
D12*
%TO.P,R24,1*%
%TO.N,/5V*%
X139350000Y-78000000D03*
D13*
%TO.P,R24,2*%
%TO.N,Net-(D24-A)*%
X139350000Y-90700000D03*
%TD*%
D10*
%TO.P,D23,1,K*%
%TO.N,/Sensor_12*%
X153750000Y-79000000D03*
D11*
%TO.P,D23,2,A*%
%TO.N,/GND*%
X153750000Y-89160000D03*
%TD*%
D10*
%TO.P,D43,1,K*%
%TO.N,/Sensor_22*%
X206750000Y-60000000D03*
D11*
%TO.P,D43,2,A*%
%TO.N,/GND*%
X206750000Y-70160000D03*
%TD*%
D12*
%TO.P,R48,1*%
%TO.N,/5V*%
X237850000Y-59000000D03*
D13*
%TO.P,R48,2*%
%TO.N,Net-(D48-A)*%
X237850000Y-71700000D03*
%TD*%
D12*
%TO.P,R28,1*%
%TO.N,/5V*%
X94000000Y-97000000D03*
D13*
%TO.P,R28,2*%
%TO.N,Net-(D28-A)*%
X94000000Y-109700000D03*
%TD*%
D10*
%TO.P,D17,1,K*%
%TO.N,/Sensor_9*%
X85750000Y-79000000D03*
D11*
%TO.P,D17,2,A*%
%TO.N,/GND*%
X85750000Y-89160000D03*
%TD*%
D12*
%TO.P,R2,1*%
%TO.N,/5V*%
X71500000Y-40500000D03*
D13*
%TO.P,R2,2*%
%TO.N,Net-(D2-A)*%
X71500000Y-53200000D03*
%TD*%
D12*
%TO.P,R21,1*%
%TO.N,/Sensor_11*%
X121650000Y-78000000D03*
D13*
%TO.P,R21,2*%
%TO.N,/GND*%
X121650000Y-90700000D03*
%TD*%
D12*
%TO.P,R10,1*%
%TO.N,/5V*%
X71500000Y-58500000D03*
D13*
%TO.P,R10,2*%
%TO.N,Net-(D10-A)*%
X71500000Y-71200000D03*
%TD*%
D10*
%TO.P,D29,1,K*%
%TO.N,/Sensor_15*%
X130750000Y-98000000D03*
D11*
%TO.P,D29,2,A*%
%TO.N,/GND*%
X130750000Y-108160000D03*
%TD*%
D12*
%TO.P,R13,1*%
%TO.N,/Sensor_7*%
X121500000Y-58500000D03*
D13*
%TO.P,R13,2*%
%TO.N,/GND*%
X121500000Y-71200000D03*
%TD*%
D10*
%TO.P,D18,1,K*%
%TO.N,/Sensor_9*%
X81500000Y-79000000D03*
D11*
%TO.P,D18,2,A*%
%TO.N,Net-(D18-A)*%
X81500000Y-89160000D03*
%TD*%
D10*
%TO.P,D36,1,K*%
%TO.N,/Sensor_18*%
X202500000Y-41500000D03*
D11*
%TO.P,D36,2,A*%
%TO.N,Net-(D36-A)*%
X202500000Y-51660000D03*
%TD*%
D10*
%TO.P,D50,1,K*%
%TO.N,/Sensor_25*%
X180000000Y-78500000D03*
D11*
%TO.P,D50,2,A*%
%TO.N,Net-(D50-A)*%
X180000000Y-88660000D03*
%TD*%
D10*
%TO.P,D48,1,K*%
%TO.N,/Sensor_24*%
X248000000Y-60000000D03*
D11*
%TO.P,D48,2,A*%
%TO.N,Net-(D48-A)*%
X248000000Y-70160000D03*
%TD*%
D12*
%TO.P,R7,1*%
%TO.N,/Sensor_4*%
X144650000Y-40500000D03*
D13*
%TO.P,R7,2*%
%TO.N,/GND*%
X144650000Y-53200000D03*
%TD*%
D10*
%TO.P,D2,1,K*%
%TO.N,/Sensor_1*%
X81500000Y-41500000D03*
D11*
%TO.P,D2,2,A*%
%TO.N,Net-(D2-A)*%
X81500000Y-51660000D03*
%TD*%
D10*
%TO.P,D49,1,K*%
%TO.N,/Sensor_25*%
X184250000Y-78500000D03*
D11*
%TO.P,D49,2,A*%
%TO.N,/GND*%
X184250000Y-88660000D03*
%TD*%
D15*
%TO.P,J4,1,Pin_1*%
%TO.N,/Sensor_17*%
X186000000Y-29500000D03*
D12*
%TO.P,J4,2,Pin_2*%
%TO.N,/Sensor_18*%
X182500000Y-29500000D03*
%TO.P,J4,3,Pin_3*%
%TO.N,/Sensor_19*%
X179000000Y-29500000D03*
%TO.P,J4,4,Pin_4*%
%TO.N,/Sensor_20*%
X175500000Y-29500000D03*
%TO.P,J4,5,Pin_5*%
%TO.N,/Sensor_21*%
X172000000Y-29500000D03*
%TO.P,J4,6,Pin_6*%
%TO.N,/Sensor_22*%
X168500000Y-29500000D03*
%TO.P,J4,7,Pin_7*%
%TO.N,/Sensor_23*%
X165000000Y-29500000D03*
%TO.P,J4,8,Pin_8*%
%TO.N,/Sensor_24*%
X161500000Y-29500000D03*
%TD*%
%TO.P,R40,1*%
%TO.N,/5V*%
X238000000Y-40500000D03*
D13*
%TO.P,R40,2*%
%TO.N,Net-(D40-A)*%
X238000000Y-53200000D03*
%TD*%
D10*
%TO.P,D5,1,K*%
%TO.N,/Sensor_3*%
X130500000Y-41500000D03*
D11*
%TO.P,D5,2,A*%
%TO.N,/GND*%
X130500000Y-51660000D03*
%TD*%
D10*
%TO.P,D11,1,K*%
%TO.N,/Sensor_6*%
X108250000Y-59500000D03*
D11*
%TO.P,D11,2,A*%
%TO.N,/GND*%
X108250000Y-69660000D03*
%TD*%
D10*
%TO.P,D4,1,K*%
%TO.N,/Sensor_2*%
X104000000Y-41500000D03*
D11*
%TO.P,D4,2,A*%
%TO.N,Net-(D4-A)*%
X104000000Y-51660000D03*
%TD*%
D12*
%TO.P,R35,1*%
%TO.N,/Sensor_18*%
X197650000Y-40500000D03*
D13*
%TO.P,R35,2*%
%TO.N,/GND*%
X197650000Y-53200000D03*
%TD*%
D10*
%TO.P,D47,1,K*%
%TO.N,/Sensor_24*%
X252250000Y-60000000D03*
D11*
%TO.P,D47,2,A*%
%TO.N,/GND*%
X252250000Y-70160000D03*
%TD*%
D12*
%TO.P,R29,1*%
%TO.N,/Sensor_15*%
X121650000Y-97000000D03*
D13*
%TO.P,R29,2*%
%TO.N,/GND*%
X121650000Y-109700000D03*
%TD*%
D12*
%TO.P,R1,1*%
%TO.N,/Sensor_1*%
X76650000Y-40500000D03*
D13*
%TO.P,R1,2*%
%TO.N,/GND*%
X76650000Y-53200000D03*
%TD*%
D10*
%TO.P,D25,1,K*%
%TO.N,/Sensor_13*%
X85750000Y-98000000D03*
D11*
%TO.P,D25,2,A*%
%TO.N,/GND*%
X85750000Y-108160000D03*
%TD*%
D10*
%TO.P,D41,1,K*%
%TO.N,/Sensor_21*%
X184250000Y-60000000D03*
D11*
%TO.P,D41,2,A*%
%TO.N,/GND*%
X184250000Y-70160000D03*
%TD*%
D10*
%TO.P,D7,1,K*%
%TO.N,/Sensor_4*%
X153750000Y-41500000D03*
D11*
%TO.P,D7,2,A*%
%TO.N,/GND*%
X153750000Y-51660000D03*
%TD*%
D10*
%TO.P,D22,1,K*%
%TO.N,/Sensor_11*%
X126500000Y-79000000D03*
D11*
%TO.P,D22,2,A*%
%TO.N,Net-(D22-A)*%
X126500000Y-89160000D03*
%TD*%
D12*
%TO.P,R46,1*%
%TO.N,/5V*%
X214850000Y-59000000D03*
D13*
%TO.P,R46,2*%
%TO.N,Net-(D46-A)*%
X214850000Y-71700000D03*
%TD*%
D12*
%TO.P,R41,1*%
%TO.N,/Sensor_21*%
X175150000Y-59000000D03*
D13*
%TO.P,R41,2*%
%TO.N,/GND*%
X175150000Y-71700000D03*
%TD*%
D10*
%TO.P,D54,1,K*%
%TO.N,/Sensor_27*%
X225000000Y-78500000D03*
D11*
%TO.P,D54,2,A*%
%TO.N,Net-(D54-A)*%
X225000000Y-88660000D03*
%TD*%
D12*
%TO.P,R39,1*%
%TO.N,/Sensor_20*%
X243150000Y-40500000D03*
D13*
%TO.P,R39,2*%
%TO.N,/GND*%
X243150000Y-53200000D03*
%TD*%
D12*
%TO.P,R56,1*%
%TO.N,/5V*%
X237850000Y-77500000D03*
D13*
%TO.P,R56,2*%
%TO.N,Net-(D56-A)*%
X237850000Y-90200000D03*
%TD*%
D12*
%TO.P,R55,1*%
%TO.N,/Sensor_28*%
X243000000Y-77500000D03*
D13*
%TO.P,R55,2*%
%TO.N,/GND*%
X243000000Y-90200000D03*
%TD*%
D10*
%TO.P,D9,1,K*%
%TO.N,/Sensor_5*%
X85750000Y-59500000D03*
D11*
%TO.P,D9,2,A*%
%TO.N,/GND*%
X85750000Y-69660000D03*
%TD*%
D10*
%TO.P,D20,1,K*%
%TO.N,/Sensor_10*%
X104000000Y-79000000D03*
D11*
%TO.P,D20,2,A*%
%TO.N,Net-(D20-A)*%
X104000000Y-89160000D03*
%TD*%
D10*
%TO.P,D3,1,K*%
%TO.N,/Sensor_2*%
X108250000Y-41500000D03*
D11*
%TO.P,D3,2,A*%
%TO.N,/GND*%
X108250000Y-51660000D03*
%TD*%
D12*
%TO.P,R20,1*%
%TO.N,/5V*%
X94000000Y-78000000D03*
D13*
%TO.P,R20,2*%
%TO.N,Net-(D20-A)*%
X94000000Y-90700000D03*
%TD*%
D12*
%TO.P,R43,1*%
%TO.N,/Sensor_22*%
X197500000Y-59000000D03*
D13*
%TO.P,R43,2*%
%TO.N,/GND*%
X197500000Y-71700000D03*
%TD*%
D10*
%TO.P,D39,1,K*%
%TO.N,/Sensor_20*%
X252250000Y-41500000D03*
D11*
%TO.P,D39,2,A*%
%TO.N,/GND*%
X252250000Y-51660000D03*
%TD*%
D10*
%TO.P,D16,1,K*%
%TO.N,/Sensor_8*%
X149500000Y-59500000D03*
D11*
%TO.P,D16,2,A*%
%TO.N,Net-(D16-A)*%
X149500000Y-69660000D03*
%TD*%
D10*
%TO.P,D52,1,K*%
%TO.N,/Sensor_26*%
X202500000Y-78500000D03*
D11*
%TO.P,D52,2,A*%
%TO.N,Net-(D52-A)*%
X202500000Y-88660000D03*
%TD*%
D12*
%TO.P,R3,1*%
%TO.N,/Sensor_2*%
X99150000Y-40500000D03*
D13*
%TO.P,R3,2*%
%TO.N,/GND*%
X99150000Y-53200000D03*
%TD*%
D12*
%TO.P,R59,1*%
%TO.N,Net-(U2-GPA5)*%
X50300000Y-118800000D03*
D13*
%TO.P,R59,2*%
%TO.N,/5V*%
X63000000Y-118800000D03*
%TD*%
D12*
%TO.P,R60,1*%
%TO.N,Net-(U2-GPA4)*%
X50300000Y-123950000D03*
D13*
%TO.P,R60,2*%
%TO.N,/5V*%
X63000000Y-123950000D03*
%TD*%
D12*
%TO.P,R57,1*%
%TO.N,Net-(U2-GPA7)*%
X50300000Y-108500000D03*
D13*
%TO.P,R57,2*%
%TO.N,/5V*%
X63000000Y-108500000D03*
%TD*%
D16*
%TO.P,SW1,1*%
%TO.N,/GND*%
X33700000Y-116700000D03*
D17*
%TO.P,SW1,2*%
X33700000Y-119240000D03*
%TO.P,SW1,3*%
X33700000Y-121780000D03*
%TO.P,SW1,4*%
X33700000Y-124320000D03*
%TO.P,SW1,5*%
%TO.N,Net-(U2-GPA4)*%
X41320000Y-124320000D03*
%TO.P,SW1,6*%
%TO.N,Net-(U2-GPA5)*%
X41320000Y-121780000D03*
%TO.P,SW1,7*%
%TO.N,Net-(U2-GPA6)*%
X41320000Y-119240000D03*
%TO.P,SW1,8*%
%TO.N,Net-(U2-GPA7)*%
X41320000Y-116700000D03*
%TD*%
D12*
%TO.P,R58,1*%
%TO.N,Net-(U2-GPA6)*%
X50300000Y-113650000D03*
D13*
%TO.P,R58,2*%
%TO.N,/5V*%
X63000000Y-113650000D03*
%TD*%
D18*
%TO.N,/5V*%
X65000000Y-99000000D03*
%TO.N,/Sensor_23*%
X203094000Y-44434600D03*
%TO.N,Net-(D8-A)*%
X136849000Y-119520000D03*
%TO.N,Net-(D6-A)*%
X116960000Y-115329000D03*
%TD*%
D19*
%TO.N,Net-(U2-GPA4)*%
X55315800Y-128966000D02*
X50300000Y-123950000D01*
X193370000Y-128966000D02*
X55315800Y-128966000D01*
X197830000Y-124506000D02*
X193370000Y-128966000D01*
X197830000Y-123751000D02*
X197830000Y-124506000D01*
X201640000Y-119941000D02*
X197830000Y-123751000D01*
X201640000Y-116500000D02*
X201640000Y-119941000D01*
%TO.N,Net-(U2-GPA5)*%
X47320000Y-121780000D02*
X41320000Y-121780000D01*
X50300000Y-118800000D02*
X47320000Y-121780000D01*
%TO.N,Net-(U2-GPA6)*%
X50300000Y-114096000D02*
X50300000Y-113650000D01*
X64716100Y-128512000D02*
X50300000Y-114096000D01*
X130358000Y-128512000D02*
X64716100Y-128512000D01*
X145389000Y-113482000D02*
X130358000Y-128512000D01*
X149534000Y-117627000D02*
X145389000Y-113482000D01*
X194570000Y-117627000D02*
X149534000Y-117627000D01*
X195433000Y-116764000D02*
X194570000Y-117627000D01*
X195433000Y-116500000D02*
X195433000Y-116764000D01*
X196560000Y-116500000D02*
X195433000Y-116500000D01*
X48036700Y-113650000D02*
X50300000Y-113650000D01*
X42446700Y-119240000D02*
X48036700Y-113650000D01*
X41320000Y-119240000D02*
X42446700Y-119240000D01*
%TO.N,Net-(U2-GPA7)*%
X42446700Y-116700000D02*
X41320000Y-116700000D01*
X50004600Y-109142000D02*
X42446700Y-116700000D01*
X50300000Y-109142000D02*
X50004600Y-109142000D01*
X58235800Y-117078000D02*
X50300000Y-109142000D01*
X58235800Y-121347000D02*
X58235800Y-117078000D01*
X64940800Y-128052000D02*
X58235800Y-121347000D01*
X129814000Y-128052000D02*
X64940800Y-128052000D01*
X145004000Y-112862000D02*
X129814000Y-128052000D01*
X189255000Y-112862000D02*
X145004000Y-112862000D01*
X192893000Y-116500000D02*
X189255000Y-112862000D01*
X194020000Y-116500000D02*
X192893000Y-116500000D01*
X50300000Y-109142000D02*
X50300000Y-108500000D01*
%TO.N,Net-(U1-SCK)*%
X122333000Y-124120000D02*
X123460000Y-124120000D01*
X122333000Y-124402000D02*
X122333000Y-124120000D01*
X120093000Y-126642000D02*
X122333000Y-124402000D01*
X94659100Y-126642000D02*
X120093000Y-126642000D01*
X94171400Y-126154000D02*
X94659100Y-126642000D01*
X94171400Y-126152000D02*
X94171400Y-126154000D01*
X79658300Y-111639000D02*
X94171400Y-126152000D01*
X79658300Y-109292000D02*
X79658300Y-111639000D01*
X63458700Y-93092100D02*
X79658300Y-109292000D01*
X63458700Y-69238700D02*
X63458700Y-93092100D01*
X61500000Y-67280000D02*
X63458700Y-69238700D01*
%TO.N,Net-(U1-~{CS})*%
X118850000Y-126190000D02*
X120920000Y-124120000D01*
X94846200Y-126190000D02*
X118850000Y-126190000D01*
X94623100Y-125967000D02*
X94846200Y-126190000D01*
X94623100Y-125962000D02*
X94623100Y-125967000D01*
X82926700Y-114266000D02*
X94623100Y-125962000D01*
X82926700Y-107147000D02*
X82926700Y-114266000D01*
X74075000Y-98295100D02*
X82926700Y-107147000D01*
X74075000Y-67155000D02*
X74075000Y-98295100D01*
X61500000Y-54580000D02*
X74075000Y-67155000D01*
%TO.N,Net-(U1-SI)*%
X124873000Y-124120000D02*
X126000000Y-124120000D01*
X124873000Y-124402000D02*
X124873000Y-124120000D01*
X122182000Y-127093000D02*
X124873000Y-124402000D01*
X94472000Y-127093000D02*
X122182000Y-127093000D01*
X93719700Y-126341000D02*
X94472000Y-127093000D01*
X93719700Y-126340000D02*
X93719700Y-126341000D01*
X79127100Y-111748000D02*
X93719700Y-126340000D01*
X79127100Y-109522000D02*
X79127100Y-111748000D01*
X62952800Y-93347800D02*
X79127100Y-109522000D01*
X62952800Y-73812800D02*
X62952800Y-93347800D01*
X61500000Y-72360000D02*
X62952800Y-73812800D01*
%TO.N,Net-(U1-SO)*%
X127413000Y-124120000D02*
X128540000Y-124120000D01*
X127413000Y-124402000D02*
X127413000Y-124120000D01*
X124243000Y-127572000D02*
X127413000Y-124402000D01*
X94312100Y-127572000D02*
X124243000Y-127572000D01*
X78304700Y-111565000D02*
X94312100Y-127572000D01*
X78304700Y-109346000D02*
X78304700Y-111565000D01*
X60410400Y-91451200D02*
X78304700Y-109346000D01*
X60410400Y-70909600D02*
X60410400Y-91451200D01*
X61500000Y-69820000D02*
X60410400Y-70909600D01*
%TO.N,/5V*%
X116350000Y-58500000D02*
X121500000Y-53350000D01*
X115840000Y-122993000D02*
X115840000Y-124120000D01*
X120920000Y-117913000D02*
X115840000Y-122993000D01*
X120920000Y-116500000D02*
X120920000Y-117913000D01*
X141027000Y-42026700D02*
X139500000Y-40500000D01*
X141027000Y-56973300D02*
X141027000Y-42026700D01*
X139500000Y-58500000D02*
X141027000Y-56973300D01*
X118033000Y-79533100D02*
X116500000Y-78000000D01*
X118033000Y-95466900D02*
X118033000Y-79533100D01*
X116500000Y-97000000D02*
X118033000Y-95466900D01*
X93850000Y-57700000D02*
X93850000Y-58500000D01*
X95439800Y-76560200D02*
X94000000Y-78000000D01*
X95439800Y-60089800D02*
X95439800Y-76560200D01*
X93850000Y-58500000D02*
X95439800Y-60089800D01*
X120920000Y-115373000D02*
X120920000Y-116500000D01*
X120123000Y-114577000D02*
X120920000Y-115373000D01*
X120123000Y-109067000D02*
X120123000Y-114577000D01*
X123202000Y-105988000D02*
X120123000Y-109067000D01*
X130235000Y-105988000D02*
X123202000Y-105988000D01*
X139223000Y-97000000D02*
X130235000Y-105988000D01*
X139350000Y-97000000D02*
X139223000Y-97000000D01*
X171529000Y-60528900D02*
X170000000Y-59000000D01*
X171529000Y-75971100D02*
X171529000Y-60528900D01*
X170000000Y-77500000D02*
X171529000Y-75971100D01*
X219420000Y-117627000D02*
X219420000Y-116500000D01*
X214340000Y-122707000D02*
X219420000Y-117627000D01*
X214340000Y-124120000D02*
X214340000Y-122707000D01*
X218293000Y-80793300D02*
X215000000Y-77500000D01*
X218293000Y-114247000D02*
X218293000Y-80793300D01*
X219420000Y-115373000D02*
X218293000Y-114247000D01*
X219420000Y-116500000D02*
X219420000Y-115373000D01*
X216430000Y-60579700D02*
X214850000Y-59000000D01*
X216430000Y-76070300D02*
X216430000Y-60579700D01*
X215000000Y-77500000D02*
X216430000Y-76070300D01*
X213465000Y-42035200D02*
X215000000Y-40500000D01*
X213465000Y-57614800D02*
X213465000Y-42035200D01*
X214850000Y-59000000D02*
X213465000Y-57614800D01*
X239416000Y-60565600D02*
X237850000Y-59000000D01*
X239416000Y-75934400D02*
X239416000Y-60565600D01*
X237850000Y-77500000D02*
X239416000Y-75934400D01*
X63000000Y-118800000D02*
X63000000Y-123950000D01*
X32000000Y-99000000D02*
X61730400Y-99000000D01*
X30500000Y-97500000D02*
X32000000Y-99000000D01*
X30500000Y-86000000D02*
X30500000Y-97500000D01*
X31440000Y-85060000D02*
X30500000Y-86000000D01*
X33560000Y-85060000D02*
X31440000Y-85060000D01*
X61730400Y-99000000D02*
X65000000Y-99000000D01*
X63000000Y-100270000D02*
X63000000Y-108500000D01*
X61730400Y-99000000D02*
X63000000Y-100270000D01*
X73543200Y-58500000D02*
X71500000Y-58500000D01*
X78178800Y-53864400D02*
X73543200Y-58500000D01*
X78178800Y-47178800D02*
X78178800Y-53864400D01*
X71500000Y-40500000D02*
X78178800Y-47178800D01*
X63000000Y-108500000D02*
X63000000Y-113650000D01*
X63000000Y-113650000D02*
X63000000Y-118800000D01*
%TO.N,/Sensor_28*%
X241002000Y-50002100D02*
X220500000Y-29500000D01*
X241002000Y-75502100D02*
X241002000Y-50002100D01*
X243000000Y-77500000D02*
X241002000Y-75502100D01*
%TO.N,Net-(D54-A)*%
X206720000Y-117627000D02*
X206720000Y-116500000D01*
X207847000Y-118753000D02*
X206720000Y-117627000D01*
X207847000Y-124316000D02*
X207847000Y-118753000D01*
X208786000Y-125255000D02*
X207847000Y-124316000D01*
X209725000Y-125255000D02*
X208786000Y-125255000D01*
X210665000Y-124316000D02*
X209725000Y-125255000D01*
X210665000Y-123287000D02*
X210665000Y-124316000D01*
X215467000Y-118485000D02*
X210665000Y-123287000D01*
X215467000Y-92193700D02*
X215467000Y-118485000D01*
X215000000Y-91726700D02*
X215467000Y-92193700D01*
X215000000Y-90200000D02*
X215000000Y-91726700D01*
%TO.N,/Sensor_27*%
X222459000Y-27958800D02*
X224000000Y-29500000D01*
X219841000Y-27958800D02*
X222459000Y-27958800D01*
X218750000Y-29050200D02*
X219841000Y-27958800D01*
X218750000Y-38986800D02*
X218750000Y-29050200D01*
X217991000Y-39746200D02*
X218750000Y-38986800D01*
X217991000Y-75340600D02*
X217991000Y-39746200D01*
X220150000Y-77500000D02*
X217991000Y-75340600D01*
%TO.N,Net-(D52-A)*%
X209260000Y-96846700D02*
X209260000Y-116500000D01*
X202500000Y-90086700D02*
X209260000Y-96846700D01*
X202500000Y-88660000D02*
X202500000Y-90086700D01*
%TO.N,/Sensor_26*%
X225479000Y-27479200D02*
X227500000Y-29500000D01*
X216858000Y-27479200D02*
X225479000Y-27479200D01*
X215250000Y-29087200D02*
X216858000Y-27479200D01*
X215250000Y-36298800D02*
X215250000Y-29087200D01*
X209352000Y-42196700D02*
X215250000Y-36298800D01*
X209352000Y-74471200D02*
X209352000Y-42196700D01*
X206750000Y-77073300D02*
X209352000Y-74471200D01*
X206750000Y-78500000D02*
X206750000Y-77073300D01*
%TO.N,/Sensor_25*%
X184250000Y-77073300D02*
X184250000Y-78500000D01*
X199665000Y-61658500D02*
X184250000Y-77073300D01*
X199665000Y-51247300D02*
X199665000Y-61658500D01*
X208900000Y-42011700D02*
X199665000Y-51247300D01*
X208900000Y-42009600D02*
X208900000Y-42011700D01*
X211750000Y-39160000D02*
X208900000Y-42009600D01*
X211750000Y-29039200D02*
X211750000Y-39160000D01*
X213790000Y-26999000D02*
X211750000Y-29039200D01*
X227163000Y-26999000D02*
X213790000Y-26999000D01*
X229473000Y-29309200D02*
X227163000Y-26999000D01*
X229473000Y-29500000D02*
X229473000Y-29309200D01*
X231000000Y-29500000D02*
X229473000Y-29500000D01*
%TO.N,Net-(D48-A)*%
X212927000Y-124120000D02*
X211800000Y-124120000D01*
X212927000Y-124402000D02*
X212927000Y-124120000D01*
X213772000Y-125247000D02*
X212927000Y-124402000D01*
X214853000Y-125247000D02*
X213772000Y-125247000D01*
X215524000Y-124576000D02*
X214853000Y-125247000D01*
X215524000Y-123075000D02*
X215524000Y-124576000D01*
X220690000Y-117909000D02*
X215524000Y-123075000D01*
X220690000Y-108887000D02*
X220690000Y-117909000D01*
X232715000Y-96861400D02*
X220690000Y-108887000D01*
X232715000Y-78361400D02*
X232715000Y-96861400D01*
X237850000Y-73226700D02*
X232715000Y-78361400D01*
X237850000Y-71700000D02*
X237850000Y-73226700D01*
%TO.N,Net-(D46-A)*%
X209260000Y-123180000D02*
X209260000Y-124120000D01*
X213070000Y-119370000D02*
X209260000Y-123180000D01*
X213070000Y-75006700D02*
X213070000Y-119370000D01*
X214850000Y-73226700D02*
X213070000Y-75006700D01*
X214850000Y-71700000D02*
X214850000Y-73226700D01*
%TO.N,/Sensor_23*%
X202727000Y-44434600D02*
X203094000Y-44434600D01*
X200410000Y-42117900D02*
X202727000Y-44434600D01*
X200410000Y-41039200D02*
X200410000Y-42117900D01*
X186854000Y-27482800D02*
X200410000Y-41039200D01*
X167017000Y-27482800D02*
X186854000Y-27482800D01*
X165000000Y-29500000D02*
X167017000Y-27482800D01*
%TO.N,Net-(D44-A)*%
X195407000Y-73230000D02*
X201069000Y-73230000D01*
X193877000Y-71700000D02*
X195407000Y-73230000D01*
X192350000Y-71700000D02*
X193877000Y-71700000D01*
X201069000Y-92218000D02*
X201069000Y-73230000D01*
X205593000Y-96742700D02*
X201069000Y-92218000D01*
X205593000Y-121867000D02*
X205593000Y-96742700D01*
X206720000Y-122993000D02*
X205593000Y-121867000D01*
X206720000Y-124120000D02*
X206720000Y-122993000D01*
X202500000Y-71586700D02*
X202500000Y-70160000D01*
X201069000Y-73018100D02*
X202500000Y-71586700D01*
X201069000Y-73230000D02*
X201069000Y-73018100D01*
%TO.N,/Sensor_22*%
X194827000Y-59000000D02*
X197500000Y-59000000D01*
X177531000Y-41704000D02*
X194827000Y-59000000D01*
X177531000Y-38530700D02*
X177531000Y-41704000D01*
X168500000Y-29500000D02*
X177531000Y-38530700D01*
%TO.N,Net-(D42-A)*%
X180000000Y-71586700D02*
X180000000Y-70160000D01*
X182412000Y-73998400D02*
X180000000Y-71586700D01*
X182412000Y-88852400D02*
X182412000Y-73998400D01*
X202992000Y-109432000D02*
X182412000Y-88852400D01*
X202992000Y-121805000D02*
X202992000Y-109432000D01*
X204180000Y-122993000D02*
X202992000Y-121805000D01*
X204180000Y-124120000D02*
X204180000Y-122993000D01*
%TO.N,/Sensor_21*%
X170458000Y-27958500D02*
X172000000Y-29500000D01*
X167877000Y-27958500D02*
X170458000Y-27958500D01*
X166961000Y-28873800D02*
X167877000Y-27958500D01*
X166961000Y-47318300D02*
X166961000Y-28873800D01*
X172425000Y-52782000D02*
X166961000Y-47318300D01*
X172425000Y-56275000D02*
X172425000Y-52782000D01*
X175150000Y-59000000D02*
X172425000Y-56275000D01*
%TO.N,Net-(D40-A)*%
X238000000Y-54726700D02*
X238000000Y-53200000D01*
X239908000Y-56634300D02*
X238000000Y-54726700D01*
X239908000Y-92894400D02*
X239908000Y-56634300D01*
X223230000Y-109572000D02*
X239908000Y-92894400D01*
X223230000Y-118102000D02*
X223230000Y-109572000D01*
X218150000Y-123182000D02*
X223230000Y-118102000D01*
X218150000Y-124470000D02*
X218150000Y-123182000D01*
X216888000Y-125733000D02*
X218150000Y-124470000D01*
X204098000Y-125733000D02*
X216888000Y-125733000D01*
X202767000Y-124402000D02*
X204098000Y-125733000D01*
X202767000Y-124120000D02*
X202767000Y-124402000D01*
X201640000Y-124120000D02*
X202767000Y-124120000D01*
%TO.N,Net-(D38-A)*%
X200227000Y-124120000D02*
X199100000Y-124120000D01*
X200227000Y-124402000D02*
X200227000Y-124120000D01*
X202042000Y-126217000D02*
X200227000Y-124402000D01*
X218940000Y-126217000D02*
X202042000Y-126217000D01*
X220690000Y-124467000D02*
X218940000Y-126217000D01*
X220690000Y-123639000D02*
X220690000Y-124467000D01*
X225770000Y-118559000D02*
X220690000Y-123639000D01*
X225770000Y-115375000D02*
X225770000Y-118559000D01*
X240401000Y-100743000D02*
X225770000Y-115375000D01*
X240401000Y-53441400D02*
X240401000Y-100743000D01*
X237193000Y-50233300D02*
X240401000Y-53441400D01*
X227853000Y-50233300D02*
X237193000Y-50233300D01*
X226427000Y-51660000D02*
X227853000Y-50233300D01*
X225000000Y-51660000D02*
X226427000Y-51660000D01*
%TO.N,Net-(D36-A)*%
X194027000Y-53200000D02*
X192500000Y-53200000D01*
X199027000Y-58200000D02*
X194027000Y-53200000D01*
X199027000Y-59668900D02*
X199027000Y-58200000D01*
X187062000Y-71633900D02*
X199027000Y-59668900D01*
X183545000Y-71633900D02*
X187062000Y-71633900D01*
X180644000Y-68733300D02*
X183545000Y-71633900D01*
X179378000Y-68733300D02*
X180644000Y-68733300D01*
X178555000Y-69556400D02*
X179378000Y-68733300D01*
X178555000Y-71467200D02*
X178555000Y-69556400D01*
X181960000Y-74872300D02*
X178555000Y-71467200D01*
X181960000Y-89733700D02*
X181960000Y-74872300D01*
X200262000Y-108036000D02*
X181960000Y-89733700D01*
X200262000Y-119291000D02*
X200262000Y-108036000D01*
X196560000Y-122993000D02*
X200262000Y-119291000D01*
X196560000Y-124120000D02*
X196560000Y-122993000D01*
%TO.N,/Sensor_18*%
X192961000Y-35810800D02*
X197650000Y-40500000D01*
X188811000Y-35810800D02*
X192961000Y-35810800D01*
X182500000Y-29500000D02*
X188811000Y-35810800D01*
%TO.N,Net-(D34-A)*%
X174519000Y-60556200D02*
X175956000Y-60556200D01*
X169850000Y-55886900D02*
X174519000Y-60556200D01*
X169850000Y-53200000D02*
X169850000Y-55886900D01*
X180000000Y-56511900D02*
X175956000Y-60556200D01*
X180000000Y-51660000D02*
X180000000Y-56511900D01*
X194020000Y-122993000D02*
X194020000Y-124120000D01*
X197687000Y-119327000D02*
X194020000Y-122993000D01*
X197687000Y-106343000D02*
X197687000Y-119327000D01*
X181507000Y-90163100D02*
X197687000Y-106343000D01*
X181507000Y-75294400D02*
X181507000Y-90163100D01*
X175956000Y-69743300D02*
X181507000Y-75294400D01*
X175956000Y-60556200D02*
X175956000Y-69743300D01*
%TO.N,/Sensor_17*%
X184473000Y-29500000D02*
X186000000Y-29500000D01*
X184473000Y-29309200D02*
X184473000Y-29500000D01*
X183123000Y-27958500D02*
X184473000Y-29309200D01*
X181877000Y-27958500D02*
X183123000Y-27958500D01*
X180954000Y-28881500D02*
X181877000Y-27958500D01*
X180954000Y-39698200D02*
X180954000Y-28881500D01*
X180375000Y-39698200D02*
X180954000Y-39698200D01*
X180000000Y-40073300D02*
X180375000Y-39698200D01*
X180000000Y-41500000D02*
X180000000Y-40073300D01*
X182823000Y-41500000D02*
X184250000Y-41500000D01*
X181022000Y-39698200D02*
X182823000Y-41500000D01*
X180954000Y-39698200D02*
X181022000Y-39698200D01*
%TO.N,/Sensor_16*%
X143456000Y-97000000D02*
X144500000Y-97000000D01*
X128622000Y-82165700D02*
X143456000Y-97000000D01*
X128622000Y-37223600D02*
X128622000Y-82165700D01*
X121750000Y-30352000D02*
X128622000Y-37223600D01*
X121750000Y-29088200D02*
X121750000Y-30352000D01*
X120630000Y-27968400D02*
X121750000Y-29088200D01*
X118032000Y-27968400D02*
X120630000Y-27968400D01*
X116500000Y-29500000D02*
X118032000Y-27968400D01*
%TO.N,/Sensor_15*%
X114820000Y-34679800D02*
X120000000Y-29500000D01*
X114820000Y-61121100D02*
X114820000Y-34679800D01*
X118925000Y-65225900D02*
X114820000Y-61121100D01*
X118925000Y-71618000D02*
X118925000Y-65225900D01*
X119975000Y-72667800D02*
X118925000Y-71618000D01*
X119975000Y-95324800D02*
X119975000Y-72667800D01*
X121650000Y-97000000D02*
X119975000Y-95324800D01*
%TO.N,Net-(D28-A)*%
X98813400Y-112987000D02*
X100600000Y-112987000D01*
X95526700Y-109700000D02*
X98813400Y-112987000D01*
X94000000Y-109700000D02*
X95526700Y-109700000D01*
X104000000Y-109587000D02*
X100600000Y-112987000D01*
X104000000Y-108160000D02*
X104000000Y-109587000D01*
X100600000Y-112987000D02*
X100600000Y-116500000D01*
%TO.N,/Sensor_14*%
X121510000Y-27510100D02*
X123500000Y-29500000D01*
X116313000Y-27510100D02*
X121510000Y-27510100D01*
X110128000Y-33694700D02*
X116313000Y-27510100D01*
X110128000Y-94695000D02*
X110128000Y-33694700D01*
X108250000Y-96573300D02*
X110128000Y-94695000D01*
X108250000Y-98000000D02*
X108250000Y-96573300D01*
%TO.N,/Sensor_13*%
X124553000Y-27052600D02*
X127000000Y-29500000D01*
X116114000Y-27052600D02*
X124553000Y-27052600D01*
X105878000Y-37288100D02*
X116114000Y-27052600D01*
X105878000Y-45113900D02*
X105878000Y-37288100D01*
X101670000Y-49322400D02*
X105878000Y-45113900D01*
X101670000Y-79631100D02*
X101670000Y-49322400D01*
X85750000Y-95551000D02*
X101670000Y-79631100D01*
X85750000Y-98000000D02*
X85750000Y-95551000D01*
%TO.N,/Sensor_12*%
X132475000Y-31474800D02*
X130500000Y-29500000D01*
X132475000Y-53633900D02*
X132475000Y-31474800D01*
X142075000Y-63234100D02*
X132475000Y-53633900D01*
X142075000Y-75575000D02*
X142075000Y-63234100D01*
X144500000Y-78000000D02*
X142075000Y-75575000D01*
%TO.N,Net-(D22-A)*%
X109347000Y-116500000D02*
X108220000Y-116500000D01*
X109347000Y-116782000D02*
X109347000Y-116500000D01*
X110192000Y-117627000D02*
X109347000Y-116782000D01*
X111296000Y-117627000D02*
X110192000Y-117627000D01*
X112030000Y-116893000D02*
X111296000Y-117627000D01*
X112030000Y-96696700D02*
X112030000Y-116893000D01*
X116500000Y-92226700D02*
X112030000Y-96696700D01*
X116500000Y-90700000D02*
X116500000Y-92226700D01*
%TO.N,/Sensor_11*%
X132470000Y-27969800D02*
X134000000Y-29500000D01*
X129817000Y-27969800D02*
X132470000Y-27969800D01*
X128940000Y-28846600D02*
X129817000Y-27969800D01*
X128940000Y-30539800D02*
X128940000Y-28846600D01*
X129073000Y-30673300D02*
X128940000Y-30539800D01*
X129073000Y-75896600D02*
X129073000Y-30673300D01*
X130750000Y-77573300D02*
X129073000Y-75896600D01*
X130750000Y-79000000D02*
X130750000Y-77573300D01*
%TO.N,Net-(D20-A)*%
X110760000Y-107399000D02*
X110760000Y-116500000D01*
X105427000Y-102066000D02*
X110760000Y-107399000D01*
X105427000Y-92013400D02*
X105427000Y-102066000D01*
X104000000Y-90586700D02*
X105427000Y-92013400D01*
X104000000Y-89160000D02*
X104000000Y-90586700D01*
%TO.N,/Sensor_10*%
X134594000Y-26594100D02*
X137500000Y-29500000D01*
X115914000Y-26594100D02*
X134594000Y-26594100D01*
X101215000Y-41292700D02*
X115914000Y-26594100D01*
X101215000Y-75934700D02*
X101215000Y-41292700D01*
X99150000Y-78000000D02*
X101215000Y-75934700D01*
%TO.N,Net-(D18-A)*%
X81500000Y-90586700D02*
X81500000Y-89160000D01*
X83378400Y-92465100D02*
X81500000Y-90586700D01*
X83378400Y-112152000D02*
X83378400Y-92465100D01*
X94278200Y-123052000D02*
X83378400Y-112152000D01*
X94278200Y-124979000D02*
X94278200Y-123052000D01*
X95037600Y-125738000D02*
X94278200Y-124979000D01*
X108255000Y-125738000D02*
X95037600Y-125738000D01*
X109404000Y-124589000D02*
X108255000Y-125738000D01*
X109404000Y-121523000D02*
X109404000Y-124589000D01*
X113300000Y-117627000D02*
X109404000Y-121523000D01*
X113300000Y-116500000D02*
X113300000Y-117627000D01*
%TO.N,/Sensor_9*%
X87176700Y-79000000D02*
X85750000Y-79000000D01*
X87727000Y-79550300D02*
X87176700Y-79000000D01*
X94619600Y-79550300D02*
X87727000Y-79550300D01*
X100764000Y-73406300D02*
X94619600Y-79550300D01*
X100764000Y-41085800D02*
X100764000Y-73406300D01*
X115714000Y-26135600D02*
X100764000Y-41085800D01*
X136300000Y-26135600D02*
X115714000Y-26135600D01*
X139473000Y-29309200D02*
X136300000Y-26135600D01*
X139473000Y-29500000D02*
X139473000Y-29309200D01*
X141000000Y-29500000D02*
X139473000Y-29500000D01*
%TO.N,Net-(D16-A)*%
X114427000Y-124120000D02*
X113300000Y-124120000D01*
X114427000Y-124402000D02*
X114427000Y-124120000D01*
X115272000Y-125247000D02*
X114427000Y-124402000D01*
X118900000Y-125247000D02*
X115272000Y-125247000D01*
X119507000Y-124640000D02*
X118900000Y-125247000D01*
X119507000Y-123936000D02*
X119507000Y-124640000D01*
X124949000Y-118493000D02*
X119507000Y-123936000D01*
X125638000Y-118493000D02*
X124949000Y-118493000D01*
X127270000Y-116862000D02*
X125638000Y-118493000D01*
X127270000Y-109592000D02*
X127270000Y-116862000D01*
X130424000Y-106438000D02*
X127270000Y-109592000D01*
X137267000Y-106438000D02*
X130424000Y-106438000D01*
X146075000Y-97629900D02*
X137267000Y-106438000D01*
X146075000Y-88123600D02*
X146075000Y-97629900D01*
X142400000Y-84449300D02*
X146075000Y-88123600D01*
X142400000Y-78057200D02*
X142400000Y-84449300D01*
X139500000Y-75156900D02*
X142400000Y-78057200D01*
X139500000Y-71200000D02*
X139500000Y-75156900D01*
%TO.N,Net-(D14-A)*%
X116350000Y-72726700D02*
X116350000Y-71200000D01*
X118493000Y-74869300D02*
X116350000Y-72726700D01*
X118493000Y-103760000D02*
X118493000Y-74869300D01*
X114493000Y-107760000D02*
X118493000Y-103760000D01*
X114493000Y-119261000D02*
X114493000Y-107760000D01*
X110760000Y-122993000D02*
X114493000Y-119261000D01*
X110760000Y-124120000D02*
X110760000Y-122993000D01*
%TO.N,Net-(D12-A)*%
X104000000Y-71086700D02*
X104000000Y-69660000D01*
X102573000Y-72513400D02*
X104000000Y-71086700D01*
X102573000Y-102358000D02*
X102573000Y-72513400D01*
X106448000Y-106232000D02*
X102573000Y-102358000D01*
X106448000Y-114998000D02*
X106448000Y-106232000D01*
X107093000Y-115643000D02*
X106448000Y-114998000D01*
X107093000Y-121867000D02*
X107093000Y-115643000D01*
X108220000Y-122993000D02*
X107093000Y-121867000D01*
X108220000Y-124120000D02*
X108220000Y-122993000D01*
%TO.N,/Sensor_6*%
X84282200Y-35282200D02*
X78500000Y-29500000D01*
X84282200Y-45653900D02*
X84282200Y-35282200D01*
X97128300Y-58500000D02*
X84282200Y-45653900D01*
X99000000Y-58500000D02*
X97128300Y-58500000D01*
%TO.N,Net-(D10-A)*%
X104553000Y-124120000D02*
X105680000Y-124120000D01*
X104553000Y-124402000D02*
X104553000Y-124120000D01*
X103708000Y-125247000D02*
X104553000Y-124402000D01*
X97559600Y-125247000D02*
X103708000Y-125247000D01*
X96701200Y-124388000D02*
X97559600Y-125247000D01*
X96701200Y-120206000D02*
X96701200Y-124388000D01*
X89034200Y-112539000D02*
X96701200Y-120206000D01*
X89034200Y-106891000D02*
X89034200Y-112539000D01*
X84323300Y-102180000D02*
X89034200Y-106891000D01*
X84323300Y-73910000D02*
X84323300Y-102180000D01*
X81500000Y-71086700D02*
X84323300Y-73910000D01*
X81500000Y-69660000D02*
X81500000Y-71086700D01*
%TO.N,/Sensor_5*%
X80456400Y-27956400D02*
X82000000Y-29500000D01*
X77814200Y-27956400D02*
X80456400Y-27956400D01*
X76750100Y-29020500D02*
X77814200Y-27956400D01*
X76750100Y-30349900D02*
X76750100Y-29020500D01*
X78633900Y-56516100D02*
X76650000Y-58500000D01*
X78633900Y-36058900D02*
X78633900Y-56516100D01*
X76750100Y-34175100D02*
X76750100Y-30349900D01*
X78633900Y-36058900D02*
X76750100Y-34175100D01*
%TO.N,Net-(D8-A)*%
X147306000Y-109063000D02*
X136849000Y-119520000D01*
X147306000Y-55281100D02*
X147306000Y-109063000D01*
X149500000Y-53086700D02*
X147306000Y-55281100D01*
X149500000Y-51660000D02*
X149500000Y-53086700D01*
%TO.N,Net-(D6-A)*%
X119644000Y-112645000D02*
X116960000Y-115329000D01*
X119644000Y-108707000D02*
X119644000Y-112645000D01*
X123402000Y-104949000D02*
X119644000Y-108707000D01*
X123402000Y-55935200D02*
X123402000Y-104949000D01*
X126250000Y-53086700D02*
X123402000Y-55935200D01*
X126250000Y-51660000D02*
X126250000Y-53086700D01*
%TO.N,/Sensor_3*%
X116350000Y-52826700D02*
X116350000Y-53350000D01*
X126250000Y-42926700D02*
X116350000Y-52826700D01*
X126250000Y-41500000D02*
X126250000Y-42926700D01*
%TO.N,Net-(D4-A)*%
X98060000Y-122993000D02*
X98060000Y-124120000D01*
X101870000Y-119183000D02*
X98060000Y-122993000D01*
X101870000Y-114923000D02*
X101870000Y-119183000D01*
X105427000Y-111366000D02*
X101870000Y-114923000D01*
X105427000Y-107565000D02*
X105427000Y-111366000D01*
X102122000Y-104260000D02*
X105427000Y-107565000D01*
X102122000Y-54965100D02*
X102122000Y-104260000D01*
X104000000Y-53086700D02*
X102122000Y-54965100D01*
X104000000Y-51660000D02*
X104000000Y-53086700D01*
%TO.N,/Sensor_2*%
X99150000Y-36150000D02*
X99150000Y-40500000D01*
X92500000Y-29500000D02*
X99150000Y-36150000D01*
%TO.N,Net-(D2-A)*%
X95520000Y-122993000D02*
X95520000Y-124120000D01*
X83830100Y-111303000D02*
X95520000Y-122993000D01*
X83830100Y-77958900D02*
X83830100Y-111303000D01*
X78176700Y-72305500D02*
X83830100Y-77958900D01*
X78176700Y-59130300D02*
X78176700Y-72305500D01*
X81500000Y-55807000D02*
X78176700Y-59130300D01*
X81500000Y-51660000D02*
X81500000Y-55807000D01*
%TO.N,/GND*%
X144650000Y-69673300D02*
X144650000Y-71200000D01*
X143123000Y-68146600D02*
X144650000Y-69673300D01*
X143123000Y-56253400D02*
X143123000Y-68146600D01*
X144650000Y-54726700D02*
X143123000Y-56253400D01*
X144650000Y-53200000D02*
X144650000Y-54726700D01*
X141433000Y-108160000D02*
X130750000Y-108160000D01*
X142973000Y-109700000D02*
X141433000Y-108160000D01*
X144500000Y-109700000D02*
X142973000Y-109700000D01*
X118380000Y-122707000D02*
X118380000Y-124120000D01*
X123460000Y-117627000D02*
X118380000Y-122707000D01*
X123460000Y-116500000D02*
X123460000Y-117627000D01*
X130750000Y-113163000D02*
X130750000Y-108160000D01*
X128540000Y-115373000D02*
X130750000Y-113163000D01*
X128540000Y-116500000D02*
X128540000Y-115373000D01*
X130500000Y-54526500D02*
X130500000Y-51660000D01*
X132177000Y-56203200D02*
X130500000Y-54526500D01*
X132177000Y-66806600D02*
X132177000Y-56203200D01*
X130750000Y-68233300D02*
X132177000Y-66806600D01*
X130750000Y-69660000D02*
X130750000Y-68233300D01*
X108250000Y-68233300D02*
X108250000Y-69660000D01*
X106823000Y-66806600D02*
X108250000Y-68233300D01*
X106823000Y-54513400D02*
X106823000Y-66806600D01*
X108250000Y-53086700D02*
X106823000Y-54513400D01*
X108250000Y-51660000D02*
X108250000Y-53086700D01*
X153600000Y-106733000D02*
X153600000Y-108160000D01*
X155027000Y-105307000D02*
X153600000Y-106733000D01*
X155027000Y-91863400D02*
X155027000Y-105307000D01*
X153750000Y-90586700D02*
X155027000Y-91863400D01*
X153750000Y-89160000D02*
X153750000Y-90586700D01*
X123460000Y-113037000D02*
X123460000Y-116500000D01*
X121650000Y-111227000D02*
X123460000Y-113037000D01*
X121650000Y-109700000D02*
X121650000Y-111227000D01*
X221960000Y-117913000D02*
X221960000Y-116500000D01*
X216880000Y-122993000D02*
X221960000Y-117913000D01*
X216880000Y-124120000D02*
X216880000Y-122993000D01*
X175150000Y-88673300D02*
X175150000Y-90200000D01*
X176677000Y-87146600D02*
X175150000Y-88673300D01*
X176677000Y-74753400D02*
X176677000Y-87146600D01*
X175150000Y-73226700D02*
X176677000Y-74753400D01*
X175150000Y-71700000D02*
X175150000Y-73226700D01*
X220000000Y-70173300D02*
X220000000Y-71700000D01*
X218464000Y-68637400D02*
X220000000Y-70173300D01*
X218464000Y-56412600D02*
X218464000Y-68637400D01*
X220150000Y-54726700D02*
X218464000Y-56412600D01*
X220150000Y-53200000D02*
X220150000Y-54726700D01*
X252250000Y-53086700D02*
X250823000Y-54513400D01*
X252250000Y-51660000D02*
X252250000Y-53086700D01*
X244677000Y-53200000D02*
X243150000Y-53200000D01*
X245990000Y-54513400D02*
X244677000Y-53200000D01*
X250823000Y-54513400D02*
X245990000Y-54513400D01*
X250823000Y-67306600D02*
X250823000Y-54513400D01*
X252250000Y-68733300D02*
X250823000Y-67306600D01*
X252250000Y-70160000D02*
X252250000Y-68733300D01*
X184250000Y-53086700D02*
X184250000Y-51660000D01*
X182823000Y-54513400D02*
X184250000Y-53086700D01*
X182823000Y-67306600D02*
X182823000Y-54513400D01*
X184250000Y-68733300D02*
X182823000Y-67306600D01*
X184250000Y-70160000D02*
X184250000Y-68733300D01*
X194583000Y-88660000D02*
X184250000Y-88660000D01*
X196123000Y-90200000D02*
X194583000Y-88660000D01*
X197650000Y-90200000D02*
X196123000Y-90200000D01*
X226283000Y-90200000D02*
X220150000Y-90200000D01*
X227823000Y-88660000D02*
X226283000Y-90200000D01*
X229250000Y-88660000D02*
X227823000Y-88660000D01*
X252250000Y-71586700D02*
X252250000Y-70160000D01*
X250418000Y-73419200D02*
X252250000Y-71586700D01*
X246246000Y-73419200D02*
X250418000Y-73419200D01*
X244527000Y-71700000D02*
X246246000Y-73419200D01*
X243000000Y-71700000D02*
X244527000Y-71700000D01*
X250418000Y-73419200D02*
X250418000Y-85806600D01*
X248825000Y-85806600D02*
X250418000Y-85806600D01*
X244527000Y-90104600D02*
X248825000Y-85806600D01*
X244527000Y-90200000D02*
X244527000Y-90104600D01*
X243000000Y-90200000D02*
X244527000Y-90200000D01*
X252250000Y-87233300D02*
X252250000Y-88660000D01*
X250823000Y-85806600D02*
X252250000Y-87233300D01*
X250418000Y-85806600D02*
X250823000Y-85806600D01*
X206750000Y-68733300D02*
X206750000Y-70160000D01*
X208177000Y-67306600D02*
X206750000Y-68733300D01*
X208177000Y-54513400D02*
X208177000Y-67306600D01*
X206750000Y-53086700D02*
X208177000Y-54513400D01*
X206750000Y-51660000D02*
X206750000Y-53086700D01*
X33700000Y-119240000D02*
X33700000Y-116700000D01*
X29500000Y-112500000D02*
X33700000Y-116700000D01*
X29500000Y-83500000D02*
X29500000Y-112500000D01*
X30500000Y-82500000D02*
X29500000Y-83500000D01*
X33540000Y-82500000D02*
X30500000Y-82500000D01*
X33560000Y-82520000D02*
X33540000Y-82500000D01*
X57700000Y-53200000D02*
X57700000Y-53459000D01*
X34500000Y-30000000D02*
X57700000Y-53200000D01*
X57700000Y-58380000D02*
X33560000Y-82520000D01*
X57700000Y-53459000D02*
X57700000Y-58380000D01*
X68616000Y-53459000D02*
X57700000Y-53459000D01*
X69883700Y-54726700D02*
X68616000Y-53459000D01*
X73596600Y-54726700D02*
X69883700Y-54726700D01*
X75123300Y-53200000D02*
X73596600Y-54726700D01*
X76650000Y-53200000D02*
X75123300Y-53200000D01*
X33700000Y-124320000D02*
X33700000Y-121780000D01*
X33700000Y-121780000D02*
X33700000Y-119240000D01*
%TO.N,/Sensor_1*%
X85750000Y-40073300D02*
X85750000Y-41500000D01*
X90750000Y-35073300D02*
X85750000Y-40073300D01*
X90750000Y-29085100D02*
X90750000Y-35073300D01*
X91876600Y-27958500D02*
X90750000Y-29085100D01*
X93122600Y-27958500D02*
X91876600Y-27958500D01*
X94473300Y-29309200D02*
X93122600Y-27958500D01*
X94473300Y-29500000D02*
X94473300Y-29309200D01*
X96000000Y-29500000D02*
X94473300Y-29500000D01*
%TD*%
D20*
X26500000Y-18000000D02*
X260500000Y-18000000D01*
X260500000Y-131500000D01*
X26500000Y-131500000D01*
X26500000Y-18000000D01*
D10*
%TO.P,D31,1,K*%
%TO.N,/Sensor_16*%
X153600000Y-98000000D03*
D11*
%TO.P,D31,2,A*%
%TO.N,/GND*%
X153600000Y-108160000D03*
%TD*%
D10*
%TO.P,D13,1,K*%
%TO.N,/Sensor_7*%
X130750000Y-59500000D03*
D11*
%TO.P,D13,2,A*%
%TO.N,/GND*%
X130750000Y-69660000D03*
%TD*%
D12*
%TO.P,R8,1*%
%TO.N,/5V*%
X139500000Y-40500000D03*
D13*
%TO.P,R8,2*%
%TO.N,Net-(D8-A)*%
X139500000Y-53200000D03*
%TD*%
D12*
%TO.P,R17,1*%
%TO.N,/Sensor_9*%
X76650000Y-78000000D03*
D13*
%TO.P,R17,2*%
%TO.N,/GND*%
X76650000Y-90700000D03*
%TD*%
D10*
%TO.P,D28,1,K*%
%TO.N,/Sensor_14*%
X104000000Y-98000000D03*
D11*
%TO.P,D28,2,A*%
%TO.N,Net-(D28-A)*%
X104000000Y-108160000D03*
%TD*%
D12*
%TO.P,R27,1*%
%TO.N,/Sensor_14*%
X99150000Y-97000000D03*
D13*
%TO.P,R27,2*%
%TO.N,/GND*%
X99150000Y-109700000D03*
%TD*%
D12*
%TO.P,R54,1*%
%TO.N,/5V*%
X215000000Y-77500000D03*
D13*
%TO.P,R54,2*%
%TO.N,Net-(D54-A)*%
X215000000Y-90200000D03*
%TD*%
D14*
%TO.P,U4,1,A0(ADC0)*%
%TO.N,unconnected-(U4-A0(ADC0)-Pad1)*%
X33560000Y-49500000D03*
%TO.P,U4,2,RSV*%
%TO.N,unconnected-(U4-RSV-Pad2)*%
X33560000Y-52040000D03*
%TO.P,U4,3,RSV*%
%TO.N,unconnected-(U4-RSV-Pad3)*%
X33560000Y-54580000D03*
%TO.P,U4,4,SD3(GPIO10)*%
%TO.N,unconnected-(U4-SD3(GPIO10)-Pad4)*%
X33560000Y-57120000D03*
%TO.P,U4,5,SD2(GPIO9)*%
%TO.N,unconnected-(U4-SD2(GPIO9)-Pad5)*%
X33560000Y-59660000D03*
%TO.P,U4,6,SD1(MOSI)*%
%TO.N,unconnected-(U4-SD1(MOSI)-Pad6)*%
X33560000Y-62200000D03*
%TO.P,U4,7,CMD(CS)*%
%TO.N,unconnected-(U4-CMD(CS)-Pad7)*%
X33560000Y-64740000D03*
%TO.P,U4,8,SDO(MISO)*%
%TO.N,unconnected-(U4-SDO(MISO)-Pad8)*%
X33560000Y-67280000D03*
%TO.P,U4,9,CLK(SCLK)*%
%TO.N,unconnected-(U4-CLK(SCLK)-Pad9)*%
X33560000Y-69820000D03*
%TO.P,U4,10,GND*%
%TO.N,unconnected-(U4-GND-Pad10)*%
X33560000Y-72360000D03*
%TO.P,U4,11,3.3V*%
%TO.N,unconnected-(U4-3.3V-Pad11)*%
X33560000Y-74900000D03*
%TO.P,U4,12,EN*%
%TO.N,unconnected-(U4-EN-Pad12)*%
X33560000Y-77440000D03*
%TO.P,U4,13,RST*%
%TO.N,unconnected-(U4-RST-Pad13)*%
X33560000Y-79980000D03*
%TO.P,U4,14,GND*%
%TO.N,/GND*%
X33560000Y-82520000D03*
%TO.P,U4,15,VIN*%
%TO.N,/5V*%
X33560000Y-85060000D03*
%TO.P,U4,16,3.3V*%
%TO.N,unconnected-(U4-3.3V-Pad16)*%
X61500000Y-85060000D03*
%TO.P,U4,17,GND*%
%TO.N,unconnected-(U4-GND-Pad17)*%
X61500000Y-82520000D03*
%TO.P,U4,18,TX(GPIO1)*%
%TO.N,unconnected-(U4-TX(GPIO1)-Pad18)*%
X61500000Y-79980000D03*
%TO.P,U4,19,RX(DPIO3)*%
%TO.N,unconnected-(U4-RX(DPIO3)-Pad19)*%
X61500000Y-77440000D03*
%TO.P,U4,20,D8(GPIO15)*%
%TO.N,unconnected-(U4-D8(GPIO15)-Pad20)*%
X61500000Y-74900000D03*
%TO.P,U4,21,D7(GPIO13)*%
%TO.N,Net-(U1-SI)*%
X61500000Y-72360000D03*
%TO.P,U4,22,D6(GPIO12)*%
%TO.N,Net-(U1-SO)*%
X61500000Y-69820000D03*
%TO.P,U4,23,D5(GPIO14)*%
%TO.N,Net-(U1-SCK)*%
X61500000Y-67280000D03*
%TO.P,U4,24,GND*%
%TO.N,unconnected-(U4-GND-Pad24)*%
X61500000Y-64740000D03*
%TO.P,U4,25,3.3V*%
%TO.N,unconnected-(U4-3.3V-Pad25)*%
X61500000Y-62200000D03*
%TO.P,U4,26,D4(GPIO2)*%
%TO.N,unconnected-(U4-D4(GPIO2)-Pad26)*%
X61500000Y-59660000D03*
%TO.P,U4,27,D3(GPIO0)*%
%TO.N,unconnected-(U4-D3(GPIO0)-Pad27)*%
X61500000Y-57120000D03*
%TO.P,U4,28,D2(GPIO4)*%
%TO.N,Net-(U1-~{CS})*%
X61500000Y-54580000D03*
%TO.P,U4,29,D1(GPIO5)*%
%TO.N,Net-(U2-~{CS})*%
X61500000Y-52040000D03*
%TO.P,U4,30,D0(GPIO16)*%
%TO.N,unconnected-(U4-D0(GPIO16)-Pad30)*%
X61500000Y-49500000D03*
%TD*%
D10*
%TO.P,D34,1,K*%
%TO.N,/Sensor_17*%
X180000000Y-41500000D03*
D11*
%TO.P,D34,2,A*%
%TO.N,Net-(D34-A)*%
X180000000Y-51660000D03*
%TD*%
D10*
%TO.P,D37,1,K*%
%TO.N,/Sensor_19*%
X229250000Y-41500000D03*
D11*
%TO.P,D37,2,A*%
%TO.N,/GND*%
X229250000Y-51660000D03*
%TD*%
D12*
%TO.P,R42,1*%
%TO.N,/5V*%
X170000000Y-59000000D03*
D13*
%TO.P,R42,2*%
%TO.N,Net-(D42-A)*%
X170000000Y-71700000D03*
%TD*%
D15*
%TO.P,J1,1,Pin_1*%
%TO.N,/5V*%
X38000000Y-30000000D03*
D12*
%TO.P,J1,2,Pin_2*%
%TO.N,/GND*%
X34500000Y-30000000D03*
%TD*%
D16*
%TO.P,U2,1,GPB0*%
%TO.N,Net-(D34-A)*%
X194020000Y-124120000D03*
D17*
%TO.P,U2,2,GPB1*%
%TO.N,Net-(D36-A)*%
X196560000Y-124120000D03*
%TO.P,U2,3,GPB2*%
%TO.N,Net-(D38-A)*%
X199100000Y-124120000D03*
%TO.P,U2,4,GPB3*%
%TO.N,Net-(D40-A)*%
X201640000Y-124120000D03*
%TO.P,U2,5,GPB4*%
%TO.N,Net-(D42-A)*%
X204180000Y-124120000D03*
%TO.P,U2,6,GPB5*%
%TO.N,Net-(D44-A)*%
X206720000Y-124120000D03*
%TO.P,U2,7,GPB6*%
%TO.N,Net-(D46-A)*%
X209260000Y-124120000D03*
%TO.P,U2,8,GPB7*%
%TO.N,Net-(D48-A)*%
X211800000Y-124120000D03*
%TO.P,U2,9,VDD*%
%TO.N,/5V*%
X214340000Y-124120000D03*
%TO.P,U2,10,VSS*%
%TO.N,/GND*%
X216880000Y-124120000D03*
%TO.P,U2,11,~{CS}*%
%TO.N,Net-(U2-~{CS})*%
X219420000Y-124120000D03*
%TO.P,U2,12,SCK*%
%TO.N,Net-(U1-SCK)*%
X221960000Y-124120000D03*
%TO.P,U2,13,SI*%
%TO.N,Net-(U1-SI)*%
X224500000Y-124120000D03*
%TO.P,U2,14,SO*%
%TO.N,Net-(U1-SO)*%
X227040000Y-124120000D03*
%TO.P,U2,15,A0*%
%TO.N,/GND*%
X227040000Y-116500000D03*
%TO.P,U2,16,A1*%
X224500000Y-116500000D03*
%TO.P,U2,17,A2*%
X221960000Y-116500000D03*
%TO.P,U2,18,~{RESET}*%
%TO.N,/5V*%
X219420000Y-116500000D03*
%TO.P,U2,19,INTB*%
%TO.N,unconnected-(U2-INTB-Pad19)*%
X216880000Y-116500000D03*
%TO.P,U2,20,INTA*%
%TO.N,unconnected-(U2-INTA-Pad20)*%
X214340000Y-116500000D03*
%TO.P,U2,21,GPA0*%
%TO.N,Net-(D50-A)*%
X211800000Y-116500000D03*
%TO.P,U2,22,GPA1*%
%TO.N,Net-(D52-A)*%
X209260000Y-116500000D03*
%TO.P,U2,23,GPA2*%
%TO.N,Net-(D54-A)*%
X206720000Y-116500000D03*
%TO.P,U2,24,GPA3*%
%TO.N,Net-(D56-A)*%
X204180000Y-116500000D03*
%TO.P,U2,25,GPA4*%
%TO.N,Net-(U2-GPA4)*%
X201640000Y-116500000D03*
%TO.P,U2,26,GPA5*%
%TO.N,Net-(U2-GPA5)*%
X199100000Y-116500000D03*
%TO.P,U2,27,GPA6*%
%TO.N,Net-(U2-GPA6)*%
X196560000Y-116500000D03*
%TO.P,U2,28,GPA7*%
%TO.N,Net-(U2-GPA7)*%
X194020000Y-116500000D03*
%TD*%
D12*
%TO.P,R45,1*%
%TO.N,/Sensor_23*%
X220000000Y-59000000D03*
D13*
%TO.P,R45,2*%
%TO.N,/GND*%
X220000000Y-71700000D03*
%TD*%
D12*
%TO.P,R4,1*%
%TO.N,/5V*%
X94000000Y-40500000D03*
D13*
%TO.P,R4,2*%
%TO.N,Net-(D4-A)*%
X94000000Y-53200000D03*
%TD*%
D10*
%TO.P,D26,1,K*%
%TO.N,/Sensor_13*%
X81500000Y-98000000D03*
D11*
%TO.P,D26,2,A*%
%TO.N,Net-(D26-A)*%
X81500000Y-108160000D03*
%TD*%
D12*
%TO.P,R38,1*%
%TO.N,/5V*%
X215000000Y-40500000D03*
D13*
%TO.P,R38,2*%
%TO.N,Net-(D38-A)*%
X215000000Y-53200000D03*
%TD*%
D10*
%TO.P,D6,1,K*%
%TO.N,/Sensor_3*%
X126250000Y-41500000D03*
D11*
%TO.P,D6,2,A*%
%TO.N,Net-(D6-A)*%
X126250000Y-51660000D03*
%TD*%
D10*
%TO.P,D12,1,K*%
%TO.N,/Sensor_6*%
X104000000Y-59500000D03*
D11*
%TO.P,D12,2,A*%
%TO.N,Net-(D12-A)*%
X104000000Y-69660000D03*
%TD*%
D12*
%TO.P,R47,1*%
%TO.N,/Sensor_24*%
X243000000Y-59000000D03*
D13*
%TO.P,R47,2*%
%TO.N,/GND*%
X243000000Y-71700000D03*
%TD*%
D12*
%TO.P,R18,1*%
%TO.N,/5V*%
X71500000Y-78000000D03*
D13*
%TO.P,R18,2*%
%TO.N,Net-(D18-A)*%
X71500000Y-90700000D03*
%TD*%
D10*
%TO.P,D1,1,K*%
%TO.N,/Sensor_1*%
X85750000Y-41500000D03*
D11*
%TO.P,D1,2,A*%
%TO.N,/GND*%
X85750000Y-51660000D03*
%TD*%
D12*
%TO.P,R34,1*%
%TO.N,/5V*%
X169850000Y-40500000D03*
D13*
%TO.P,R34,2*%
%TO.N,Net-(D34-A)*%
X169850000Y-53200000D03*
%TD*%
D12*
%TO.P,R15,1*%
%TO.N,/Sensor_8*%
X144650000Y-58500000D03*
D13*
%TO.P,R15,2*%
%TO.N,/GND*%
X144650000Y-71200000D03*
%TD*%
D16*
%TO.P,U1,1,GPB0*%
%TO.N,Net-(D2-A)*%
X95520000Y-124120000D03*
D17*
%TO.P,U1,2,GPB1*%
%TO.N,Net-(D4-A)*%
X98060000Y-124120000D03*
%TO.P,U1,3,GPB2*%
%TO.N,Net-(D6-A)*%
X100600000Y-124120000D03*
%TO.P,U1,4,GPB3*%
%TO.N,Net-(D8-A)*%
X103140000Y-124120000D03*
%TO.P,U1,5,GPB4*%
%TO.N,Net-(D10-A)*%
X105680000Y-124120000D03*
%TO.P,U1,6,GPB5*%
%TO.N,Net-(D12-A)*%
X108220000Y-124120000D03*
%TO.P,U1,7,GPB6*%
%TO.N,Net-(D14-A)*%
X110760000Y-124120000D03*
%TO.P,U1,8,GPB7*%
%TO.N,Net-(D16-A)*%
X113300000Y-124120000D03*
%TO.P,U1,9,VDD*%
%TO.N,/5V*%
X115840000Y-124120000D03*
%TO.P,U1,10,VSS*%
%TO.N,/GND*%
X118380000Y-124120000D03*
%TO.P,U1,11,~{CS}*%
%TO.N,Net-(U1-~{CS})*%
X120920000Y-124120000D03*
%TO.P,U1,12,SCK*%
%TO.N,Net-(U1-SCK)*%
X123460000Y-124120000D03*
%TO.P,U1,13,SI*%
%TO.N,Net-(U1-SI)*%
X126000000Y-124120000D03*
%TO.P,U1,14,SO*%
%TO.N,Net-(U1-SO)*%
X128540000Y-124120000D03*
%TO.P,U1,15,A0*%
%TO.N,/GND*%
X128540000Y-116500000D03*
%TO.P,U1,16,A1*%
X126000000Y-116500000D03*
%TO.P,U1,17,A2*%
X123460000Y-116500000D03*
%TO.P,U1,18,~{RESET}*%
%TO.N,/5V*%
X120920000Y-116500000D03*
%TO.P,U1,19,INTB*%
%TO.N,unconnected-(U1-INTB-Pad19)*%
X118380000Y-116500000D03*
%TO.P,U1,20,INTA*%
%TO.N,unconnected-(U1-INTA-Pad20)*%
X115840000Y-116500000D03*
%TO.P,U1,21,GPA0*%
%TO.N,Net-(D18-A)*%
X113300000Y-116500000D03*
%TO.P,U1,22,GPA1*%
%TO.N,Net-(D20-A)*%
X110760000Y-116500000D03*
%TO.P,U1,23,GPA2*%
%TO.N,Net-(D22-A)*%
X108220000Y-116500000D03*
%TO.P,U1,24,GPA3*%
%TO.N,Net-(D24-A)*%
X105680000Y-116500000D03*
%TO.P,U1,25,GPA4*%
%TO.N,Net-(D26-A)*%
X103140000Y-116500000D03*
%TO.P,U1,26,GPA5*%
%TO.N,Net-(D28-A)*%
X100600000Y-116500000D03*
%TO.P,U1,27,GPA6*%
%TO.N,Net-(D30-A)*%
X98060000Y-116500000D03*
%TO.P,U1,28,GPA7*%
%TO.N,Net-(D32-A)*%
X95520000Y-116500000D03*
%TD*%
D12*
%TO.P,R52,1*%
%TO.N,/5V*%
X192500000Y-77500000D03*
D13*
%TO.P,R52,2*%
%TO.N,Net-(D52-A)*%
X192500000Y-90200000D03*
%TD*%
D12*
%TO.P,R33,1*%
%TO.N,/Sensor_17*%
X175000000Y-40500000D03*
D13*
%TO.P,R33,2*%
%TO.N,/GND*%
X175000000Y-53200000D03*
%TD*%
D12*
%TO.P,R53,1*%
%TO.N,/Sensor_27*%
X220150000Y-77500000D03*
D13*
%TO.P,R53,2*%
%TO.N,/GND*%
X220150000Y-90200000D03*
%TD*%
D12*
%TO.P,R26,1*%
%TO.N,/5V*%
X71350000Y-97000000D03*
D13*
%TO.P,R26,2*%
%TO.N,Net-(D26-A)*%
X71350000Y-109700000D03*
%TD*%
D12*
%TO.P,R12,1*%
%TO.N,/5V*%
X93850000Y-58500000D03*
D13*
%TO.P,R12,2*%
%TO.N,Net-(D12-A)*%
X93850000Y-71200000D03*
%TD*%
D12*
%TO.P,R9,1*%
%TO.N,/Sensor_5*%
X76650000Y-58500000D03*
D13*
%TO.P,R9,2*%
%TO.N,/GND*%
X76650000Y-71200000D03*
%TD*%
D10*
%TO.P,D24,1,K*%
%TO.N,/Sensor_12*%
X149500000Y-79000000D03*
D11*
%TO.P,D24,2,A*%
%TO.N,Net-(D24-A)*%
X149500000Y-89160000D03*
%TD*%
D10*
%TO.P,D35,1,K*%
%TO.N,/Sensor_18*%
X206750000Y-41500000D03*
D11*
%TO.P,D35,2,A*%
%TO.N,/GND*%
X206750000Y-51660000D03*
%TD*%
D12*
%TO.P,R44,1*%
%TO.N,/5V*%
X192350000Y-59000000D03*
D13*
%TO.P,R44,2*%
%TO.N,Net-(D44-A)*%
X192350000Y-71700000D03*
%TD*%
D15*
%TO.P,J2,1,Pin_1*%
%TO.N,/Sensor_1*%
X96000000Y-29500000D03*
D12*
%TO.P,J2,2,Pin_2*%
%TO.N,/Sensor_2*%
X92500000Y-29500000D03*
%TO.P,J2,3,Pin_3*%
%TO.N,/Sensor_3*%
X89000000Y-29500000D03*
%TO.P,J2,4,Pin_4*%
%TO.N,/Sensor_4*%
X85500000Y-29500000D03*
%TO.P,J2,5,Pin_5*%
%TO.N,/Sensor_5*%
X82000000Y-29500000D03*
%TO.P,J2,6,Pin_6*%
%TO.N,/Sensor_6*%
X78500000Y-29500000D03*
%TO.P,J2,7,Pin_7*%
%TO.N,/Sensor_7*%
X75000000Y-29500000D03*
%TO.P,J2,8,Pin_8*%
%TO.N,/Sensor_8*%
X71500000Y-29500000D03*
%TD*%
D10*
%TO.P,D46,1,K*%
%TO.N,/Sensor_23*%
X225000000Y-60000000D03*
D11*
%TO.P,D46,2,A*%
%TO.N,Net-(D46-A)*%
X225000000Y-70160000D03*
%TD*%
D12*
%TO.P,R51,1*%
%TO.N,/Sensor_26*%
X197650000Y-77500000D03*
D13*
%TO.P,R51,2*%
%TO.N,/GND*%
X197650000Y-90200000D03*
%TD*%
D12*
%TO.P,R49,1*%
%TO.N,/Sensor_25*%
X175150000Y-77500000D03*
D13*
%TO.P,R49,2*%
%TO.N,/GND*%
X175150000Y-90200000D03*
%TD*%
D12*
%TO.P,R19,1*%
%TO.N,/Sensor_10*%
X99150000Y-78000000D03*
D13*
%TO.P,R19,2*%
%TO.N,/GND*%
X99150000Y-90700000D03*
%TD*%
D12*
%TO.P,R32,1*%
%TO.N,/5V*%
X139350000Y-97000000D03*
D13*
%TO.P,R32,2*%
%TO.N,Net-(D32-A)*%
X139350000Y-109700000D03*
%TD*%
D10*
%TO.P,D27,1,K*%
%TO.N,/Sensor_14*%
X108250000Y-98000000D03*
D11*
%TO.P,D27,2,A*%
%TO.N,/GND*%
X108250000Y-108160000D03*
%TD*%
D15*
%TO.P,J5,1,Pin_1*%
%TO.N,/Sensor_25*%
X231000000Y-29500000D03*
D12*
%TO.P,J5,2,Pin_2*%
%TO.N,/Sensor_26*%
X227500000Y-29500000D03*
%TO.P,J5,3,Pin_3*%
%TO.N,/Sensor_27*%
X224000000Y-29500000D03*
%TO.P,J5,4,Pin_4*%
%TO.N,/Sensor_28*%
X220500000Y-29500000D03*
%TO.P,J5,5,Pin_5*%
%TO.N,/Sensor_29*%
X217000000Y-29500000D03*
%TO.P,J5,6,Pin_6*%
%TO.N,/Sensor_30*%
X213500000Y-29500000D03*
%TO.P,J5,7,Pin_7*%
%TO.N,/Sensor_31*%
X210000000Y-29500000D03*
%TO.P,J5,8,Pin_8*%
%TO.N,/Sensor_32*%
X206500000Y-29500000D03*
%TD*%
D10*
%TO.P,D30,1,K*%
%TO.N,/Sensor_15*%
X126500000Y-98000000D03*
D11*
%TO.P,D30,2,A*%
%TO.N,Net-(D30-A)*%
X126500000Y-108160000D03*
%TD*%
D10*
%TO.P,D56,1,K*%
%TO.N,/Sensor_28*%
X248000000Y-78500000D03*
D11*
%TO.P,D56,2,A*%
%TO.N,Net-(D56-A)*%
X248000000Y-88660000D03*
%TD*%
D10*
%TO.P,D55,1,K*%
%TO.N,/Sensor_28*%
X252250000Y-78500000D03*
D11*
%TO.P,D55,2,A*%
%TO.N,/GND*%
X252250000Y-88660000D03*
%TD*%
D10*
%TO.P,D15,1,K*%
%TO.N,/Sensor_8*%
X153750000Y-59500000D03*
D11*
%TO.P,D15,2,A*%
%TO.N,/GND*%
X153750000Y-69660000D03*
%TD*%
D10*
%TO.P,D45,1,K*%
%TO.N,/Sensor_23*%
X229250000Y-60000000D03*
D11*
%TO.P,D45,2,A*%
%TO.N,/GND*%
X229250000Y-70160000D03*
%TD*%
D10*
%TO.P,D32,1,K*%
%TO.N,/Sensor_16*%
X149350000Y-98000000D03*
D11*
%TO.P,D32,2,A*%
%TO.N,Net-(D32-A)*%
X149350000Y-108160000D03*
%TD*%
D10*
%TO.P,D38,1,K*%
%TO.N,/Sensor_19*%
X225000000Y-41500000D03*
D11*
%TO.P,D38,2,A*%
%TO.N,Net-(D38-A)*%
X225000000Y-51660000D03*
%TD*%
D10*
%TO.P,D51,1,K*%
%TO.N,/Sensor_26*%
X206750000Y-78500000D03*
D11*
%TO.P,D51,2,A*%
%TO.N,/GND*%
X206750000Y-88660000D03*
%TD*%
D15*
%TO.P,J3,1,Pin_1*%
%TO.N,/Sensor_9*%
X141000000Y-29500000D03*
D12*
%TO.P,J3,2,Pin_2*%
%TO.N,/Sensor_10*%
X137500000Y-29500000D03*
%TO.P,J3,3,Pin_3*%
%TO.N,/Sensor_11*%
X134000000Y-29500000D03*
%TO.P,J3,4,Pin_4*%
%TO.N,/Sensor_12*%
X130500000Y-29500000D03*
%TO.P,J3,5,Pin_5*%
%TO.N,/Sensor_13*%
X127000000Y-29500000D03*
%TO.P,J3,6,Pin_6*%
%TO.N,/Sensor_14*%
X123500000Y-29500000D03*
%TO.P,J3,7,Pin_7*%
%TO.N,/Sensor_15*%
X120000000Y-29500000D03*
%TO.P,J3,8,Pin_8*%
%TO.N,/Sensor_16*%
X116500000Y-29500000D03*
%TD*%
D10*
%TO.P,D40,1,K*%
%TO.N,/Sensor_20*%
X248000000Y-41500000D03*
D11*
%TO.P,D40,2,A*%
%TO.N,Net-(D40-A)*%
X248000000Y-51660000D03*
%TD*%
D10*
%TO.P,D44,1,K*%
%TO.N,/Sensor_22*%
X202500000Y-60000000D03*
D11*
%TO.P,D44,2,A*%
%TO.N,Net-(D44-A)*%
X202500000Y-70160000D03*
%TD*%
D10*
%TO.P,D42,1,K*%
%TO.N,/Sensor_21*%
X180000000Y-60000000D03*
D11*
%TO.P,D42,2,A*%
%TO.N,Net-(D42-A)*%
X180000000Y-70160000D03*
%TD*%
D12*
%TO.P,R22,1*%
%TO.N,/5V*%
X116500000Y-78000000D03*
D13*
%TO.P,R22,2*%
%TO.N,Net-(D22-A)*%
X116500000Y-90700000D03*
%TD*%
D10*
%TO.P,D19,1,K*%
%TO.N,/Sensor_10*%
X108250000Y-79000000D03*
D11*
%TO.P,D19,2,A*%
%TO.N,/GND*%
X108250000Y-89160000D03*
%TD*%
D12*
%TO.P,R5,1*%
%TO.N,/Sensor_3*%
X116350000Y-53350000D03*
D13*
%TO.P,R5,2*%
%TO.N,/GND*%
X116350000Y-40650000D03*
%TD*%
D12*
%TO.P,R16,1*%
%TO.N,/5V*%
X139500000Y-58500000D03*
D13*
%TO.P,R16,2*%
%TO.N,Net-(D16-A)*%
X139500000Y-71200000D03*
%TD*%
D10*
%TO.P,D14,1,K*%
%TO.N,/Sensor_7*%
X126500000Y-59500000D03*
D11*
%TO.P,D14,2,A*%
%TO.N,Net-(D14-A)*%
X126500000Y-69660000D03*
%TD*%
D12*
%TO.P,R11,1*%
%TO.N,/Sensor_6*%
X99000000Y-58500000D03*
D13*
%TO.P,R11,2*%
%TO.N,/GND*%
X99000000Y-71200000D03*
%TD*%
D12*
%TO.P,R6,1*%
%TO.N,/5V*%
X121500000Y-53350000D03*
D13*
%TO.P,R6,2*%
%TO.N,Net-(D6-A)*%
X121500000Y-40650000D03*
%TD*%
D12*
%TO.P,R14,1*%
%TO.N,/5V*%
X116350000Y-58500000D03*
D13*
%TO.P,R14,2*%
%TO.N,Net-(D14-A)*%
X116350000Y-71200000D03*
%TD*%
D12*
%TO.P,R36,1*%
%TO.N,/5V*%
X192500000Y-40500000D03*
D13*
%TO.P,R36,2*%
%TO.N,Net-(D36-A)*%
X192500000Y-53200000D03*
%TD*%
D12*
%TO.P,R37,1*%
%TO.N,/Sensor_19*%
X220150000Y-40500000D03*
D13*
%TO.P,R37,2*%
%TO.N,/GND*%
X220150000Y-53200000D03*
%TD*%
D12*
%TO.P,R23,1*%
%TO.N,/Sensor_12*%
X144500000Y-78000000D03*
D13*
%TO.P,R23,2*%
%TO.N,/GND*%
X144500000Y-90700000D03*
%TD*%
D10*
%TO.P,D8,1,K*%
%TO.N,/Sensor_4*%
X149500000Y-41500000D03*
D11*
%TO.P,D8,2,A*%
%TO.N,Net-(D8-A)*%
X149500000Y-51660000D03*
%TD*%
D12*
%TO.P,R30,1*%
%TO.N,/5V*%
X116500000Y-97000000D03*
D13*
%TO.P,R30,2*%
%TO.N,Net-(D30-A)*%
X116500000Y-109700000D03*
%TD*%
D10*
%TO.P,D33,1,K*%
%TO.N,/Sensor_17*%
X184250000Y-41500000D03*
D11*
%TO.P,D33,2,A*%
%TO.N,/GND*%
X184250000Y-51660000D03*
%TD*%
D10*
%TO.P,D53,1,K*%
%TO.N,/Sensor_27*%
X229250000Y-78500000D03*
D11*
%TO.P,D53,2,A*%
%TO.N,/GND*%
X229250000Y-88660000D03*
%TD*%
D10*
%TO.P,D21,1,K*%
%TO.N,/Sensor_11*%
X130750000Y-79000000D03*
D11*
%TO.P,D21,2,A*%
%TO.N,/GND*%
X130750000Y-89160000D03*
%TD*%
D12*
%TO.P,R25,1*%
%TO.N,/Sensor_13*%
X76500000Y-97000000D03*
D13*
%TO.P,R25,2*%
%TO.N,/GND*%
X76500000Y-109700000D03*
%TD*%
D12*
%TO.P,R31,1*%
%TO.N,/Sensor_16*%
X144500000Y-97000000D03*
D13*
%TO.P,R31,2*%
%TO.N,/GND*%
X144500000Y-109700000D03*
%TD*%
D12*
%TO.P,R50,1*%
%TO.N,/5V*%
X170000000Y-77500000D03*
D13*
%TO.P,R50,2*%
%TO.N,Net-(D50-A)*%
X170000000Y-90200000D03*
%TD*%
D10*
%TO.P,D10,1,K*%
%TO.N,/Sensor_5*%
X81500000Y-59500000D03*
D11*
%TO.P,D10,2,A*%
%TO.N,Net-(D10-A)*%
X81500000Y-69660000D03*
%TD*%
D12*
%TO.P,R24,1*%
%TO.N,/5V*%
X139350000Y-78000000D03*
D13*
%TO.P,R24,2*%
%TO.N,Net-(D24-A)*%
X139350000Y-90700000D03*
%TD*%
D10*
%TO.P,D23,1,K*%
%TO.N,/Sensor_12*%
X153750000Y-79000000D03*
D11*
%TO.P,D23,2,A*%
%TO.N,/GND*%
X153750000Y-89160000D03*
%TD*%
D10*
%TO.P,D43,1,K*%
%TO.N,/Sensor_22*%
X206750000Y-60000000D03*
D11*
%TO.P,D43,2,A*%
%TO.N,/GND*%
X206750000Y-70160000D03*
%TD*%
D12*
%TO.P,R48,1*%
%TO.N,/5V*%
X237850000Y-59000000D03*
D13*
%TO.P,R48,2*%
%TO.N,Net-(D48-A)*%
X237850000Y-71700000D03*
%TD*%
D12*
%TO.P,R28,1*%
%TO.N,/5V*%
X94000000Y-97000000D03*
D13*
%TO.P,R28,2*%
%TO.N,Net-(D28-A)*%
X94000000Y-109700000D03*
%TD*%
D10*
%TO.P,D17,1,K*%
%TO.N,/Sensor_9*%
X85750000Y-79000000D03*
D11*
%TO.P,D17,2,A*%
%TO.N,/GND*%
X85750000Y-89160000D03*
%TD*%
D12*
%TO.P,R2,1*%
%TO.N,/5V*%
X71500000Y-40500000D03*
D13*
%TO.P,R2,2*%
%TO.N,Net-(D2-A)*%
X71500000Y-53200000D03*
%TD*%
D12*
%TO.P,R21,1*%
%TO.N,/Sensor_11*%
X121650000Y-78000000D03*
D13*
%TO.P,R21,2*%
%TO.N,/GND*%
X121650000Y-90700000D03*
%TD*%
D12*
%TO.P,R10,1*%
%TO.N,/5V*%
X71500000Y-58500000D03*
D13*
%TO.P,R10,2*%
%TO.N,Net-(D10-A)*%
X71500000Y-71200000D03*
%TD*%
D10*
%TO.P,D29,1,K*%
%TO.N,/Sensor_15*%
X130750000Y-98000000D03*
D11*
%TO.P,D29,2,A*%
%TO.N,/GND*%
X130750000Y-108160000D03*
%TD*%
D12*
%TO.P,R13,1*%
%TO.N,/Sensor_7*%
X121500000Y-58500000D03*
D13*
%TO.P,R13,2*%
%TO.N,/GND*%
X121500000Y-71200000D03*
%TD*%
D10*
%TO.P,D18,1,K*%
%TO.N,/Sensor_9*%
X81500000Y-79000000D03*
D11*
%TO.P,D18,2,A*%
%TO.N,Net-(D18-A)*%
X81500000Y-89160000D03*
%TD*%
D10*
%TO.P,D36,1,K*%
%TO.N,/Sensor_18*%
X202500000Y-41500000D03*
D11*
%TO.P,D36,2,A*%
%TO.N,Net-(D36-A)*%
X202500000Y-51660000D03*
%TD*%
D10*
%TO.P,D50,1,K*%
%TO.N,/Sensor_25*%
X180000000Y-78500000D03*
D11*
%TO.P,D50,2,A*%
%TO.N,Net-(D50-A)*%
X180000000Y-88660000D03*
%TD*%
D10*
%TO.P,D48,1,K*%
%TO.N,/Sensor_24*%
X248000000Y-60000000D03*
D11*
%TO.P,D48,2,A*%
%TO.N,Net-(D48-A)*%
X248000000Y-70160000D03*
%TD*%
D12*
%TO.P,R7,1*%
%TO.N,/Sensor_4*%
X144650000Y-40500000D03*
D13*
%TO.P,R7,2*%
%TO.N,/GND*%
X144650000Y-53200000D03*
%TD*%
D10*
%TO.P,D2,1,K*%
%TO.N,/Sensor_1*%
X81500000Y-41500000D03*
D11*
%TO.P,D2,2,A*%
%TO.N,Net-(D2-A)*%
X81500000Y-51660000D03*
%TD*%
D10*
%TO.P,D49,1,K*%
%TO.N,/Sensor_25*%
X184250000Y-78500000D03*
D11*
%TO.P,D49,2,A*%
%TO.N,/GND*%
X184250000Y-88660000D03*
%TD*%
D15*
%TO.P,J4,1,Pin_1*%
%TO.N,/Sensor_17*%
X186000000Y-29500000D03*
D12*
%TO.P,J4,2,Pin_2*%
%TO.N,/Sensor_18*%
X182500000Y-29500000D03*
%TO.P,J4,3,Pin_3*%
%TO.N,/Sensor_19*%
X179000000Y-29500000D03*
%TO.P,J4,4,Pin_4*%
%TO.N,/Sensor_20*%
X175500000Y-29500000D03*
%TO.P,J4,5,Pin_5*%
%TO.N,/Sensor_21*%
X172000000Y-29500000D03*
%TO.P,J4,6,Pin_6*%
%TO.N,/Sensor_22*%
X168500000Y-29500000D03*
%TO.P,J4,7,Pin_7*%
%TO.N,/Sensor_23*%
X165000000Y-29500000D03*
%TO.P,J4,8,Pin_8*%
%TO.N,/Sensor_24*%
X161500000Y-29500000D03*
%TD*%
%TO.P,R40,1*%
%TO.N,/5V*%
X238000000Y-40500000D03*
D13*
%TO.P,R40,2*%
%TO.N,Net-(D40-A)*%
X238000000Y-53200000D03*
%TD*%
D10*
%TO.P,D5,1,K*%
%TO.N,/Sensor_3*%
X130500000Y-41500000D03*
D11*
%TO.P,D5,2,A*%
%TO.N,/GND*%
X130500000Y-51660000D03*
%TD*%
D10*
%TO.P,D11,1,K*%
%TO.N,/Sensor_6*%
X108250000Y-59500000D03*
D11*
%TO.P,D11,2,A*%
%TO.N,/GND*%
X108250000Y-69660000D03*
%TD*%
D10*
%TO.P,D4,1,K*%
%TO.N,/Sensor_2*%
X104000000Y-41500000D03*
D11*
%TO.P,D4,2,A*%
%TO.N,Net-(D4-A)*%
X104000000Y-51660000D03*
%TD*%
D12*
%TO.P,R35,1*%
%TO.N,/Sensor_18*%
X197650000Y-40500000D03*
D13*
%TO.P,R35,2*%
%TO.N,/GND*%
X197650000Y-53200000D03*
%TD*%
D10*
%TO.P,D47,1,K*%
%TO.N,/Sensor_24*%
X252250000Y-60000000D03*
D11*
%TO.P,D47,2,A*%
%TO.N,/GND*%
X252250000Y-70160000D03*
%TD*%
D12*
%TO.P,R29,1*%
%TO.N,/Sensor_15*%
X121650000Y-97000000D03*
D13*
%TO.P,R29,2*%
%TO.N,/GND*%
X121650000Y-109700000D03*
%TD*%
D12*
%TO.P,R1,1*%
%TO.N,/Sensor_1*%
X76650000Y-40500000D03*
D13*
%TO.P,R1,2*%
%TO.N,/GND*%
X76650000Y-53200000D03*
%TD*%
D10*
%TO.P,D25,1,K*%
%TO.N,/Sensor_13*%
X85750000Y-98000000D03*
D11*
%TO.P,D25,2,A*%
%TO.N,/GND*%
X85750000Y-108160000D03*
%TD*%
D10*
%TO.P,D41,1,K*%
%TO.N,/Sensor_21*%
X184250000Y-60000000D03*
D11*
%TO.P,D41,2,A*%
%TO.N,/GND*%
X184250000Y-70160000D03*
%TD*%
D10*
%TO.P,D7,1,K*%
%TO.N,/Sensor_4*%
X153750000Y-41500000D03*
D11*
%TO.P,D7,2,A*%
%TO.N,/GND*%
X153750000Y-51660000D03*
%TD*%
D10*
%TO.P,D22,1,K*%
%TO.N,/Sensor_11*%
X126500000Y-79000000D03*
D11*
%TO.P,D22,2,A*%
%TO.N,Net-(D22-A)*%
X126500000Y-89160000D03*
%TD*%
D12*
%TO.P,R46,1*%
%TO.N,/5V*%
X214850000Y-59000000D03*
D13*
%TO.P,R46,2*%
%TO.N,Net-(D46-A)*%
X214850000Y-71700000D03*
%TD*%
D12*
%TO.P,R41,1*%
%TO.N,/Sensor_21*%
X175150000Y-59000000D03*
D13*
%TO.P,R41,2*%
%TO.N,/GND*%
X175150000Y-71700000D03*
%TD*%
D10*
%TO.P,D54,1,K*%
%TO.N,/Sensor_27*%
X225000000Y-78500000D03*
D11*
%TO.P,D54,2,A*%
%TO.N,Net-(D54-A)*%
X225000000Y-88660000D03*
%TD*%
D12*
%TO.P,R39,1*%
%TO.N,/Sensor_20*%
X243150000Y-40500000D03*
D13*
%TO.P,R39,2*%
%TO.N,/GND*%
X243150000Y-53200000D03*
%TD*%
D12*
%TO.P,R56,1*%
%TO.N,/5V*%
X237850000Y-77500000D03*
D13*
%TO.P,R56,2*%
%TO.N,Net-(D56-A)*%
X237850000Y-90200000D03*
%TD*%
D12*
%TO.P,R55,1*%
%TO.N,/Sensor_28*%
X243000000Y-77500000D03*
D13*
%TO.P,R55,2*%
%TO.N,/GND*%
X243000000Y-90200000D03*
%TD*%
D10*
%TO.P,D9,1,K*%
%TO.N,/Sensor_5*%
X85750000Y-59500000D03*
D11*
%TO.P,D9,2,A*%
%TO.N,/GND*%
X85750000Y-69660000D03*
%TD*%
D10*
%TO.P,D20,1,K*%
%TO.N,/Sensor_10*%
X104000000Y-79000000D03*
D11*
%TO.P,D20,2,A*%
%TO.N,Net-(D20-A)*%
X104000000Y-89160000D03*
%TD*%
D10*
%TO.P,D3,1,K*%
%TO.N,/Sensor_2*%
X108250000Y-41500000D03*
D11*
%TO.P,D3,2,A*%
%TO.N,/GND*%
X108250000Y-51660000D03*
%TD*%
D12*
%TO.P,R20,1*%
%TO.N,/5V*%
X94000000Y-78000000D03*
D13*
%TO.P,R20,2*%
%TO.N,Net-(D20-A)*%
X94000000Y-90700000D03*
%TD*%
D12*
%TO.P,R43,1*%
%TO.N,/Sensor_22*%
X197500000Y-59000000D03*
D13*
%TO.P,R43,2*%
%TO.N,/GND*%
X197500000Y-71700000D03*
%TD*%
D10*
%TO.P,D39,1,K*%
%TO.N,/Sensor_20*%
X252250000Y-41500000D03*
D11*
%TO.P,D39,2,A*%
%TO.N,/GND*%
X252250000Y-51660000D03*
%TD*%
D10*
%TO.P,D16,1,K*%
%TO.N,/Sensor_8*%
X149500000Y-59500000D03*
D11*
%TO.P,D16,2,A*%
%TO.N,Net-(D16-A)*%
X149500000Y-69660000D03*
%TD*%
D10*
%TO.P,D52,1,K*%
%TO.N,/Sensor_26*%
X202500000Y-78500000D03*
D11*
%TO.P,D52,2,A*%
%TO.N,Net-(D52-A)*%
X202500000Y-88660000D03*
%TD*%
D12*
%TO.P,R3,1*%
%TO.N,/Sensor_2*%
X99150000Y-40500000D03*
D13*
%TO.P,R3,2*%
%TO.N,/GND*%
X99150000Y-53200000D03*
%TD*%
D12*
%TO.P,R59,1*%
%TO.N,Net-(U2-GPA5)*%
X50300000Y-118800000D03*
D13*
%TO.P,R59,2*%
%TO.N,/5V*%
X63000000Y-118800000D03*
%TD*%
D12*
%TO.P,R60,1*%
%TO.N,Net-(U2-GPA4)*%
X50300000Y-123950000D03*
D13*
%TO.P,R60,2*%
%TO.N,/5V*%
X63000000Y-123950000D03*
%TD*%
D12*
%TO.P,R57,1*%
%TO.N,Net-(U2-GPA7)*%
X50300000Y-108500000D03*
D13*
%TO.P,R57,2*%
%TO.N,/5V*%
X63000000Y-108500000D03*
%TD*%
D16*
%TO.P,SW1,1*%
%TO.N,/GND*%
X33700000Y-116700000D03*
D17*
%TO.P,SW1,2*%
X33700000Y-119240000D03*
%TO.P,SW1,3*%
X33700000Y-121780000D03*
%TO.P,SW1,4*%
X33700000Y-124320000D03*
%TO.P,SW1,5*%
%TO.N,Net-(U2-GPA4)*%
X41320000Y-124320000D03*
%TO.P,SW1,6*%
%TO.N,Net-(U2-GPA5)*%
X41320000Y-121780000D03*
%TO.P,SW1,7*%
%TO.N,Net-(U2-GPA6)*%
X41320000Y-119240000D03*
%TO.P,SW1,8*%
%TO.N,Net-(U2-GPA7)*%
X41320000Y-116700000D03*
%TD*%
D12*
%TO.P,R58,1*%
%TO.N,Net-(U2-GPA6)*%
X50300000Y-113650000D03*
D13*
%TO.P,R58,2*%
%TO.N,/5V*%
X63000000Y-113650000D03*
%TD*%
D18*
%TO.N,/5V*%
X65000000Y-99000000D03*
%TO.N,/Sensor_23*%
X203094000Y-44434600D03*
%TO.N,Net-(D8-A)*%
X136849000Y-119520000D03*
%TO.N,Net-(D6-A)*%
X116960000Y-115329000D03*
%TD*%
D19*
%TO.N,Net-(U2-GPA4)*%
X42816700Y-123950000D02*
X50300000Y-123950000D01*
X42446700Y-124320000D02*
X42816700Y-123950000D01*
X41320000Y-124320000D02*
X42446700Y-124320000D01*
%TO.N,Net-(U2-GPA5)*%
X60360000Y-118800000D02*
X50300000Y-118800000D01*
X66806700Y-125247000D02*
X60360000Y-118800000D01*
X121459000Y-125247000D02*
X66806700Y-125247000D01*
X122190000Y-124516000D02*
X121459000Y-125247000D01*
X122190000Y-123786000D02*
X122190000Y-124516000D01*
X124131000Y-121845000D02*
X122190000Y-123786000D01*
X192910000Y-121845000D02*
X124131000Y-121845000D01*
X197973000Y-116782000D02*
X192910000Y-121845000D01*
X197973000Y-116500000D02*
X197973000Y-116782000D01*
X199100000Y-116500000D02*
X197973000Y-116500000D01*
%TO.N,Net-(U1-SCK)*%
X125921000Y-122504000D02*
X125888000Y-122537000D01*
X124587000Y-124120000D02*
X123460000Y-124120000D01*
X124587000Y-123838000D02*
X124587000Y-124120000D01*
X125888000Y-122537000D02*
X124587000Y-123838000D01*
X190375000Y-122537000D02*
X125888000Y-122537000D01*
X193085000Y-125247000D02*
X190375000Y-122537000D01*
X219988000Y-125247000D02*
X193085000Y-125247000D01*
X220833000Y-124402000D02*
X219988000Y-125247000D01*
X220833000Y-124120000D02*
X220833000Y-124402000D01*
X221960000Y-124120000D02*
X220833000Y-124120000D01*
%TO.N,Net-(U2-~{CS})*%
X157113000Y-99988000D02*
X157113000Y-99659500D01*
X65310000Y-55850000D02*
X61500000Y-52040000D01*
X115962000Y-55850000D02*
X65310000Y-55850000D01*
X120591000Y-60479400D02*
X115962000Y-55850000D01*
X123591000Y-60479400D02*
X120591000Y-60479400D01*
X132294000Y-69182400D02*
X123591000Y-60479400D01*
X132294000Y-73107000D02*
X132294000Y-69182400D01*
X139565000Y-80378400D02*
X132294000Y-73107000D01*
X147719000Y-80378400D02*
X139565000Y-80378400D01*
X157113000Y-89772900D02*
X147719000Y-80378400D01*
X157113000Y-99659500D02*
X157113000Y-89772900D01*
X186439000Y-99659500D02*
X157113000Y-99659500D01*
X202910000Y-116131000D02*
X186439000Y-99659500D01*
X202910000Y-116887000D02*
X202910000Y-116131000D01*
X209017000Y-122993000D02*
X202910000Y-116887000D01*
X219420000Y-122993000D02*
X209017000Y-122993000D01*
X219420000Y-124120000D02*
X219420000Y-122993000D01*
%TO.N,Net-(U1-SI)*%
X223373000Y-124120000D02*
X224500000Y-124120000D01*
X223373000Y-124402000D02*
X223373000Y-124120000D01*
X222076000Y-125700000D02*
X223373000Y-124402000D01*
X135926000Y-125700000D02*
X222076000Y-125700000D01*
X135925000Y-125698000D02*
X135926000Y-125700000D01*
X133219000Y-122992000D02*
X135925000Y-125698000D01*
X128017000Y-122992000D02*
X133219000Y-122992000D01*
X127127000Y-123883000D02*
X128017000Y-122992000D01*
X127127000Y-124120000D02*
X127127000Y-123883000D01*
X126000000Y-124120000D02*
X127127000Y-124120000D01*
%TO.N,Net-(U1-SO)*%
X225913000Y-124120000D02*
X227040000Y-124120000D01*
X225913000Y-124402000D02*
X225913000Y-124120000D01*
X224158000Y-126157000D02*
X225913000Y-124402000D01*
X131704000Y-126157000D02*
X224158000Y-126157000D01*
X129667000Y-124120000D02*
X131704000Y-126157000D01*
X128540000Y-124120000D02*
X129667000Y-124120000D01*
%TO.N,/5V*%
X70582100Y-77082100D02*
X68855000Y-78809200D01*
X114953000Y-95453100D02*
X116500000Y-97000000D01*
X95546900Y-95453100D02*
X114953000Y-95453100D01*
X94000000Y-97000000D02*
X95546900Y-95453100D01*
X70582100Y-77082100D02*
X71500000Y-78000000D01*
X137803000Y-95453100D02*
X139350000Y-97000000D01*
X118047000Y-95453100D02*
X137803000Y-95453100D01*
X116500000Y-97000000D02*
X118047000Y-95453100D01*
X114945000Y-76444800D02*
X116500000Y-78000000D01*
X95555200Y-76444800D02*
X114945000Y-76444800D01*
X94000000Y-78000000D02*
X95555200Y-76444800D01*
X69973300Y-76473300D02*
X70582100Y-77082100D01*
X69973300Y-60026700D02*
X69973300Y-76473300D01*
X71500000Y-58500000D02*
X69973300Y-60026700D01*
X137922000Y-60077600D02*
X139500000Y-58500000D01*
X114823000Y-56973300D02*
X116350000Y-58500000D01*
X95376700Y-56973300D02*
X114823000Y-56973300D01*
X93850000Y-58500000D02*
X95376700Y-56973300D01*
X73027200Y-56972800D02*
X71500000Y-58500000D01*
X92322800Y-56972800D02*
X73027200Y-56972800D01*
X93850000Y-58500000D02*
X92322800Y-56972800D01*
X68855000Y-94505000D02*
X71350000Y-97000000D01*
X68855000Y-78809200D02*
X68855000Y-94505000D01*
X135722000Y-57877700D02*
X137922000Y-60077600D01*
X126028000Y-57877700D02*
X135722000Y-57877700D01*
X121500000Y-53350000D02*
X126028000Y-57877700D01*
X216550000Y-75949900D02*
X215000000Y-77500000D01*
X236300000Y-75949900D02*
X216550000Y-75949900D01*
X237850000Y-77500000D02*
X236300000Y-75949900D01*
X137922000Y-73422800D02*
X137922000Y-60077600D01*
X140925000Y-76425200D02*
X137922000Y-73422800D01*
X139350000Y-78000000D02*
X140925000Y-76425200D01*
X213450000Y-75949900D02*
X194050000Y-75949900D01*
X215000000Y-77500000D02*
X213450000Y-75949900D01*
X194050000Y-75949900D02*
X192500000Y-77500000D01*
X167423000Y-42926700D02*
X169850000Y-40500000D01*
X141927000Y-42926700D02*
X167423000Y-42926700D01*
X139500000Y-40500000D02*
X141927000Y-42926700D01*
X194050000Y-60700100D02*
X192350000Y-59000000D01*
X194050000Y-75949900D02*
X194050000Y-60700100D01*
X179531000Y-50180800D02*
X169850000Y-40500000D01*
X184817000Y-50180800D02*
X179531000Y-50180800D01*
X185689000Y-51052900D02*
X184817000Y-50180800D01*
X185689000Y-57411000D02*
X185689000Y-51052900D01*
X190761000Y-57411000D02*
X185689000Y-57411000D01*
X192350000Y-59000000D02*
X190761000Y-57411000D01*
X171589000Y-57411000D02*
X170000000Y-59000000D01*
X185689000Y-57411000D02*
X171589000Y-57411000D01*
X213473000Y-38973300D02*
X215000000Y-40500000D01*
X194027000Y-38973300D02*
X213473000Y-38973300D01*
X192500000Y-40500000D02*
X194027000Y-38973300D01*
X217427000Y-42926700D02*
X215000000Y-40500000D01*
X235573000Y-42926700D02*
X217427000Y-42926700D01*
X238000000Y-40500000D02*
X235573000Y-42926700D01*
X92450900Y-38950900D02*
X72837900Y-38950900D01*
X94000000Y-40500000D02*
X92450900Y-38950900D01*
X72837900Y-37273100D02*
X72837900Y-38950900D01*
X65564800Y-30000000D02*
X72837900Y-37273100D01*
X38000000Y-30000000D02*
X65564800Y-30000000D01*
X72837900Y-39162100D02*
X71500000Y-40500000D01*
X72837900Y-38950900D02*
X72837900Y-39162100D01*
%TO.N,Net-(D56-A)*%
X240917000Y-88660000D02*
X248000000Y-88660000D01*
X239377000Y-90200000D02*
X240917000Y-88660000D01*
X237850000Y-90200000D02*
X239377000Y-90200000D01*
X205307000Y-116500000D02*
X204180000Y-116500000D01*
X205307000Y-116782000D02*
X205307000Y-116500000D01*
X206158000Y-117633000D02*
X205307000Y-116782000D01*
X212294000Y-117633000D02*
X206158000Y-117633000D01*
X213057000Y-116870000D02*
X212294000Y-117633000D01*
X213057000Y-102815000D02*
X213057000Y-116870000D01*
X228661000Y-87211600D02*
X213057000Y-102815000D01*
X233335000Y-87211600D02*
X228661000Y-87211600D01*
X236323000Y-90200000D02*
X233335000Y-87211600D01*
X237850000Y-90200000D02*
X236323000Y-90200000D01*
%TO.N,/Sensor_28*%
X245573000Y-77500000D02*
X243000000Y-77500000D01*
X246573000Y-78500000D02*
X245573000Y-77500000D01*
X248000000Y-78500000D02*
X246573000Y-78500000D01*
X252250000Y-78500000D02*
X248000000Y-78500000D01*
%TO.N,Net-(D54-A)*%
X218067000Y-88660000D02*
X225000000Y-88660000D01*
X216527000Y-90200000D02*
X218067000Y-88660000D01*
X215000000Y-90200000D02*
X216527000Y-90200000D01*
%TO.N,/Sensor_27*%
X225000000Y-78500000D02*
X229250000Y-78500000D01*
X222573000Y-77500000D02*
X220150000Y-77500000D01*
X223573000Y-78500000D02*
X222573000Y-77500000D01*
X225000000Y-78500000D02*
X223573000Y-78500000D01*
%TO.N,Net-(D52-A)*%
X195567000Y-88660000D02*
X202500000Y-88660000D01*
X194027000Y-90200000D02*
X195567000Y-88660000D01*
X192500000Y-90200000D02*
X194027000Y-90200000D01*
%TO.N,/Sensor_26*%
X200073000Y-77500000D02*
X197650000Y-77500000D01*
X201073000Y-78500000D02*
X200073000Y-77500000D01*
X202500000Y-78500000D02*
X201073000Y-78500000D01*
X202500000Y-78500000D02*
X206750000Y-78500000D01*
%TO.N,Net-(D50-A)*%
X211800000Y-114143000D02*
X211800000Y-116500000D01*
X184890000Y-87233300D02*
X211800000Y-114143000D01*
X182853000Y-87233300D02*
X184890000Y-87233300D01*
X181427000Y-88660000D02*
X182853000Y-87233300D01*
X180000000Y-88660000D02*
X181427000Y-88660000D01*
X173067000Y-88660000D02*
X180000000Y-88660000D01*
X171527000Y-90200000D02*
X173067000Y-88660000D01*
X170000000Y-90200000D02*
X171527000Y-90200000D01*
%TO.N,/Sensor_25*%
X177573000Y-77500000D02*
X175150000Y-77500000D01*
X178573000Y-78500000D02*
X177573000Y-77500000D01*
X180000000Y-78500000D02*
X178573000Y-78500000D01*
X184250000Y-78500000D02*
X180000000Y-78500000D01*
%TO.N,Net-(D48-A)*%
X240917000Y-70160000D02*
X248000000Y-70160000D01*
X239377000Y-71700000D02*
X240917000Y-70160000D01*
X237850000Y-71700000D02*
X239377000Y-71700000D01*
%TO.N,/Sensor_24*%
X240175000Y-56175000D02*
X243000000Y-59000000D01*
X237182000Y-56175000D02*
X240175000Y-56175000D01*
X224458000Y-43451500D02*
X237182000Y-56175000D01*
X175452000Y-43451500D02*
X224458000Y-43451500D01*
X161500000Y-29500000D02*
X175452000Y-43451500D01*
X246573000Y-60000000D02*
X248000000Y-60000000D01*
X245573000Y-59000000D02*
X246573000Y-60000000D01*
X243000000Y-59000000D02*
X245573000Y-59000000D01*
X248000000Y-60000000D02*
X252250000Y-60000000D01*
%TO.N,Net-(D46-A)*%
X217917000Y-70160000D02*
X225000000Y-70160000D01*
X216377000Y-71700000D02*
X217917000Y-70160000D01*
X214850000Y-71700000D02*
X216377000Y-71700000D01*
%TO.N,/Sensor_23*%
X229250000Y-60000000D02*
X225000000Y-60000000D01*
X222573000Y-59000000D02*
X220000000Y-59000000D01*
X223573000Y-60000000D02*
X222573000Y-59000000D01*
X225000000Y-60000000D02*
X223573000Y-60000000D01*
X217660000Y-59000000D02*
X220000000Y-59000000D01*
X203094000Y-44434600D02*
X217660000Y-59000000D01*
%TO.N,/Sensor_22*%
X200073000Y-59000000D02*
X197500000Y-59000000D01*
X201073000Y-60000000D02*
X200073000Y-59000000D01*
X202500000Y-60000000D02*
X201073000Y-60000000D01*
X206750000Y-60000000D02*
X202500000Y-60000000D01*
%TO.N,Net-(D42-A)*%
X173067000Y-70160000D02*
X180000000Y-70160000D01*
X171527000Y-71700000D02*
X173067000Y-70160000D01*
X170000000Y-71700000D02*
X171527000Y-71700000D01*
%TO.N,/Sensor_21*%
X177573000Y-59000000D02*
X175150000Y-59000000D01*
X178573000Y-60000000D02*
X177573000Y-59000000D01*
X180000000Y-60000000D02*
X178573000Y-60000000D01*
X184250000Y-60000000D02*
X180000000Y-60000000D01*
%TO.N,Net-(D40-A)*%
X241067000Y-51660000D02*
X248000000Y-51660000D01*
X239527000Y-53200000D02*
X241067000Y-51660000D01*
X238000000Y-53200000D02*
X239527000Y-53200000D01*
%TO.N,/Sensor_20*%
X246573000Y-41500000D02*
X248000000Y-41500000D01*
X245573000Y-40500000D02*
X246573000Y-41500000D01*
X243150000Y-40500000D02*
X245573000Y-40500000D01*
X252250000Y-41500000D02*
X248000000Y-41500000D01*
X233994000Y-31343700D02*
X243150000Y-40500000D01*
X190706000Y-31343700D02*
X233994000Y-31343700D01*
X187335000Y-27973300D02*
X190706000Y-31343700D01*
X177027000Y-27973300D02*
X187335000Y-27973300D01*
X175500000Y-29500000D02*
X177027000Y-27973300D01*
%TO.N,Net-(D38-A)*%
X218067000Y-51660000D02*
X225000000Y-51660000D01*
X216527000Y-53200000D02*
X218067000Y-51660000D01*
X215000000Y-53200000D02*
X216527000Y-53200000D01*
%TO.N,/Sensor_19*%
X225000000Y-41500000D02*
X229250000Y-41500000D01*
X217321000Y-37671400D02*
X220150000Y-40500000D01*
X187171000Y-37671400D02*
X217321000Y-37671400D01*
X179000000Y-29500000D02*
X187171000Y-37671400D01*
X223573000Y-41500000D02*
X225000000Y-41500000D01*
X222573000Y-40500000D02*
X223573000Y-41500000D01*
X220150000Y-40500000D02*
X222573000Y-40500000D01*
%TO.N,Net-(D36-A)*%
X195567000Y-51660000D02*
X202500000Y-51660000D01*
X194027000Y-53200000D02*
X195567000Y-51660000D01*
X192500000Y-53200000D02*
X194027000Y-53200000D01*
%TO.N,/Sensor_18*%
X202500000Y-41500000D02*
X206750000Y-41500000D01*
X200073000Y-40500000D02*
X197650000Y-40500000D01*
X201073000Y-41500000D02*
X200073000Y-40500000D01*
X202500000Y-41500000D02*
X201073000Y-41500000D01*
%TO.N,/Sensor_17*%
X177573000Y-40500000D02*
X175000000Y-40500000D01*
X178573000Y-41500000D02*
X177573000Y-40500000D01*
X180000000Y-41500000D02*
X178573000Y-41500000D01*
%TO.N,Net-(D32-A)*%
X140877000Y-109700000D02*
X139350000Y-109700000D01*
X142868000Y-107708000D02*
X140877000Y-109700000D01*
X147472000Y-107708000D02*
X142868000Y-107708000D01*
X147923000Y-108160000D02*
X147472000Y-107708000D01*
X149350000Y-108160000D02*
X147923000Y-108160000D01*
X97869500Y-114150000D02*
X95520000Y-116500000D01*
X133373000Y-114150000D02*
X97869500Y-114150000D01*
X137823000Y-109700000D02*
X133373000Y-114150000D01*
X139350000Y-109700000D02*
X137823000Y-109700000D01*
%TO.N,/Sensor_16*%
X153600000Y-98000000D02*
X149350000Y-98000000D01*
X145500000Y-98000000D02*
X144500000Y-97000000D01*
X149350000Y-98000000D02*
X145500000Y-98000000D01*
%TO.N,Net-(D30-A)*%
X118027000Y-109700000D02*
X116500000Y-109700000D01*
X119567000Y-108160000D02*
X118027000Y-109700000D01*
X126500000Y-108160000D02*
X119567000Y-108160000D01*
X114973000Y-109700000D02*
X116500000Y-109700000D01*
X113447000Y-111227000D02*
X114973000Y-109700000D01*
X99194700Y-111227000D02*
X113447000Y-111227000D01*
X94367000Y-116054000D02*
X99194700Y-111227000D01*
X94367000Y-117011000D02*
X94367000Y-116054000D01*
X94982300Y-117627000D02*
X94367000Y-117011000D01*
X96088400Y-117627000D02*
X94982300Y-117627000D01*
X96933300Y-116782000D02*
X96088400Y-117627000D01*
X96933300Y-116500000D02*
X96933300Y-116782000D01*
X98060000Y-116500000D02*
X96933300Y-116500000D01*
%TO.N,/Sensor_15*%
X130750000Y-98000000D02*
X126500000Y-98000000D01*
X122650000Y-98000000D02*
X121650000Y-97000000D01*
X126500000Y-98000000D02*
X122650000Y-98000000D01*
%TO.N,/Sensor_14*%
X108250000Y-98000000D02*
X104000000Y-98000000D01*
X100150000Y-98000000D02*
X99150000Y-97000000D01*
X104000000Y-98000000D02*
X100150000Y-98000000D01*
%TO.N,Net-(D26-A)*%
X75855500Y-108160000D02*
X74325600Y-109690000D01*
X81500000Y-108160000D02*
X75855500Y-108160000D01*
X82718500Y-118083000D02*
X74325600Y-109690000D01*
X100712000Y-118083000D02*
X82718500Y-118083000D01*
X102013000Y-116782000D02*
X100712000Y-118083000D01*
X102013000Y-116500000D02*
X102013000Y-116782000D01*
X103140000Y-116500000D02*
X102013000Y-116500000D01*
X74315500Y-109700000D02*
X71350000Y-109700000D01*
X74325600Y-109690000D02*
X74315500Y-109700000D01*
%TO.N,/Sensor_13*%
X85750000Y-98000000D02*
X81500000Y-98000000D01*
X77500000Y-98000000D02*
X76500000Y-97000000D01*
X81500000Y-98000000D02*
X77500000Y-98000000D01*
%TO.N,Net-(D24-A)*%
X140877000Y-90700000D02*
X139350000Y-90700000D01*
X142417000Y-89160000D02*
X140877000Y-90700000D01*
X149500000Y-89160000D02*
X142417000Y-89160000D01*
X106807000Y-116500000D02*
X105680000Y-116500000D01*
X106807000Y-116218000D02*
X106807000Y-116500000D01*
X108423000Y-114602000D02*
X106807000Y-116218000D01*
X137439000Y-114602000D02*
X108423000Y-114602000D01*
X143881000Y-108160000D02*
X137439000Y-114602000D01*
X145689000Y-108160000D02*
X143881000Y-108160000D01*
X147116000Y-109587000D02*
X145689000Y-108160000D01*
X149940000Y-109587000D02*
X147116000Y-109587000D01*
X155184000Y-104344000D02*
X149940000Y-109587000D01*
X155184000Y-88522300D02*
X155184000Y-104344000D01*
X154372000Y-87710500D02*
X155184000Y-88522300D01*
X152376000Y-87710500D02*
X154372000Y-87710500D01*
X150927000Y-89160000D02*
X152376000Y-87710500D01*
X149500000Y-89160000D02*
X150927000Y-89160000D01*
%TO.N,/Sensor_12*%
X145500000Y-79000000D02*
X144500000Y-78000000D01*
X149500000Y-79000000D02*
X145500000Y-79000000D01*
X153750000Y-79000000D02*
X149500000Y-79000000D01*
%TO.N,Net-(D22-A)*%
X118027000Y-90700000D02*
X116500000Y-90700000D01*
X119567000Y-89160000D02*
X118027000Y-90700000D01*
X126500000Y-89160000D02*
X119567000Y-89160000D01*
%TO.N,/Sensor_11*%
X130750000Y-79000000D02*
X126500000Y-79000000D01*
X122650000Y-79000000D02*
X121650000Y-78000000D01*
X126500000Y-79000000D02*
X122650000Y-79000000D01*
%TO.N,Net-(D20-A)*%
X97066700Y-89160000D02*
X104000000Y-89160000D01*
X95526700Y-90700000D02*
X97066700Y-89160000D01*
X94000000Y-90700000D02*
X95526700Y-90700000D01*
%TO.N,/Sensor_10*%
X100150000Y-79000000D02*
X99150000Y-78000000D01*
X104000000Y-79000000D02*
X100150000Y-79000000D01*
X108250000Y-79000000D02*
X104000000Y-79000000D01*
%TO.N,Net-(D18-A)*%
X73026700Y-90700000D02*
X71500000Y-90700000D01*
X74566700Y-89160000D02*
X73026700Y-90700000D01*
X81500000Y-89160000D02*
X74566700Y-89160000D01*
%TO.N,/Sensor_9*%
X85750000Y-79000000D02*
X81500000Y-79000000D01*
X77650000Y-79000000D02*
X76650000Y-78000000D01*
X81500000Y-79000000D02*
X77650000Y-79000000D01*
%TO.N,Net-(D16-A)*%
X141027000Y-71200000D02*
X139500000Y-71200000D01*
X142567000Y-69660000D02*
X141027000Y-71200000D01*
X149500000Y-69660000D02*
X142567000Y-69660000D01*
%TO.N,/Sensor_8*%
X145650000Y-59500000D02*
X144650000Y-58500000D01*
X149500000Y-59500000D02*
X145650000Y-59500000D01*
X153750000Y-59500000D02*
X149500000Y-59500000D01*
X73067800Y-27932200D02*
X71500000Y-29500000D01*
X79095600Y-27932200D02*
X73067800Y-27932200D01*
X80250000Y-29086600D02*
X79095600Y-27932200D01*
X80250000Y-29951300D02*
X80250000Y-29086600D01*
X83632900Y-33334200D02*
X80250000Y-29951300D01*
X105237000Y-33334200D02*
X83632900Y-33334200D01*
X128822000Y-56919300D02*
X105237000Y-33334200D01*
X143069000Y-56919300D02*
X128822000Y-56919300D01*
X144650000Y-58500000D02*
X143069000Y-56919300D01*
%TO.N,Net-(D14-A)*%
X117877000Y-71200000D02*
X116350000Y-71200000D01*
X119417000Y-69660000D02*
X117877000Y-71200000D01*
X126500000Y-69660000D02*
X119417000Y-69660000D01*
%TO.N,/Sensor_7*%
X122500000Y-59500000D02*
X121500000Y-58500000D01*
X126500000Y-59500000D02*
X122500000Y-59500000D01*
X130750000Y-59500000D02*
X126500000Y-59500000D01*
X80120600Y-34620600D02*
X75000000Y-29500000D01*
X91045900Y-34620600D02*
X80120600Y-34620600D01*
X106178000Y-49752500D02*
X91045900Y-34620600D01*
X110593000Y-49752500D02*
X106178000Y-49752500D01*
X119341000Y-58500000D02*
X110593000Y-49752500D01*
X121500000Y-58500000D02*
X119341000Y-58500000D01*
%TO.N,Net-(D12-A)*%
X96916700Y-69660000D02*
X104000000Y-69660000D01*
X95376700Y-71200000D02*
X96916700Y-69660000D01*
X93850000Y-71200000D02*
X95376700Y-71200000D01*
%TO.N,/Sensor_6*%
X100000000Y-59500000D02*
X99000000Y-58500000D01*
X104000000Y-59500000D02*
X100000000Y-59500000D01*
X108250000Y-59500000D02*
X104000000Y-59500000D01*
%TO.N,Net-(D10-A)*%
X73026700Y-71200000D02*
X71500000Y-71200000D01*
X74566700Y-69660000D02*
X73026700Y-71200000D01*
X81500000Y-69660000D02*
X74566700Y-69660000D01*
%TO.N,/Sensor_5*%
X77650000Y-59500000D02*
X76650000Y-58500000D01*
X81500000Y-59500000D02*
X77650000Y-59500000D01*
X85750000Y-59500000D02*
X81500000Y-59500000D01*
%TO.N,Net-(D8-A)*%
X141027000Y-53200000D02*
X139500000Y-53200000D01*
X142567000Y-51660000D02*
X141027000Y-53200000D01*
X149500000Y-51660000D02*
X142567000Y-51660000D01*
X124210000Y-119520000D02*
X136849000Y-119520000D01*
X120737000Y-122993000D02*
X124210000Y-119520000D01*
X105178000Y-122993000D02*
X120737000Y-122993000D01*
X104267000Y-123905000D02*
X105178000Y-122993000D01*
X104267000Y-124120000D02*
X104267000Y-123905000D01*
X103140000Y-124120000D02*
X104267000Y-124120000D01*
%TO.N,/Sensor_4*%
X153750000Y-41500000D02*
X149500000Y-41500000D01*
X87067800Y-27932200D02*
X85500000Y-29500000D01*
X97501500Y-27932200D02*
X87067800Y-27932200D01*
X100785000Y-31215600D02*
X97501500Y-27932200D01*
X135366000Y-31215600D02*
X100785000Y-31215600D01*
X144650000Y-40500000D02*
X135366000Y-31215600D01*
X145650000Y-41500000D02*
X144650000Y-40500000D01*
X149500000Y-41500000D02*
X145650000Y-41500000D01*
%TO.N,Net-(D6-A)*%
X121500000Y-42176700D02*
X121500000Y-40650000D01*
X126250000Y-46926700D02*
X121500000Y-42176700D01*
X126250000Y-51660000D02*
X126250000Y-46926700D01*
X101727000Y-124120000D02*
X100600000Y-124120000D01*
X101727000Y-123838000D02*
X101727000Y-124120000D01*
X103023000Y-122542000D02*
X101727000Y-123838000D01*
X108927000Y-122542000D02*
X103023000Y-122542000D01*
X114570000Y-116899000D02*
X108927000Y-122542000D01*
X114570000Y-116173000D02*
X114570000Y-116899000D01*
X115414000Y-115329000D02*
X114570000Y-116173000D01*
X116960000Y-115329000D02*
X115414000Y-115329000D01*
%TO.N,/Sensor_3*%
X130500000Y-41500000D02*
X126250000Y-41500000D01*
X124823000Y-41500000D02*
X126250000Y-41500000D01*
X115054000Y-31730700D02*
X124823000Y-41500000D01*
X91230700Y-31730700D02*
X115054000Y-31730700D01*
X89000000Y-29500000D02*
X91230700Y-31730700D01*
%TO.N,Net-(D4-A)*%
X95526700Y-53200000D02*
X94000000Y-53200000D01*
X97066700Y-51660000D02*
X95526700Y-53200000D01*
X104000000Y-51660000D02*
X97066700Y-51660000D01*
%TO.N,/Sensor_2*%
X100150000Y-41500000D02*
X99150000Y-40500000D01*
X104000000Y-41500000D02*
X100150000Y-41500000D01*
X108250000Y-41500000D02*
X104000000Y-41500000D01*
%TO.N,Net-(D2-A)*%
X74566700Y-51660000D02*
X81500000Y-51660000D01*
X73026700Y-53200000D02*
X74566700Y-51660000D01*
X71500000Y-53200000D02*
X73026700Y-53200000D01*
%TO.N,/GND*%
X123460000Y-116500000D02*
X126000000Y-116500000D01*
X88696300Y-87640400D02*
X93282500Y-92226700D01*
X87176700Y-69660000D02*
X85750000Y-69660000D01*
X90245600Y-72728900D02*
X87176700Y-69660000D01*
X119973000Y-71200000D02*
X121500000Y-71200000D01*
X118447000Y-72726700D02*
X119973000Y-71200000D01*
X112743000Y-72726700D02*
X118447000Y-72726700D01*
X109677000Y-69660000D02*
X112743000Y-72726700D01*
X108250000Y-69660000D02*
X109677000Y-69660000D01*
X87176700Y-89160000D02*
X85750000Y-89160000D01*
X88696300Y-87640400D02*
X87176700Y-89160000D01*
X99150000Y-109700000D02*
X99150000Y-109585000D01*
X95944400Y-72728900D02*
X90245600Y-72728900D01*
X97473300Y-71200000D02*
X95944400Y-72728900D01*
X99000000Y-71200000D02*
X97473300Y-71200000D01*
X152173000Y-108160000D02*
X153600000Y-108160000D01*
X150273000Y-110060000D02*
X152173000Y-108160000D01*
X146387000Y-110060000D02*
X150273000Y-110060000D01*
X146027000Y-109700000D02*
X146387000Y-110060000D01*
X144500000Y-109700000D02*
X146027000Y-109700000D01*
X99151500Y-109587000D02*
X99150000Y-109585000D01*
X105397000Y-109587000D02*
X99151500Y-109587000D01*
X106823000Y-108160000D02*
X105397000Y-109587000D01*
X108250000Y-108160000D02*
X106823000Y-108160000D01*
X92464000Y-93045200D02*
X92464000Y-102221000D01*
X93282500Y-92226700D02*
X92464000Y-93045200D01*
X105283000Y-53200000D02*
X99150000Y-53200000D01*
X106823000Y-51660000D02*
X105283000Y-53200000D01*
X108250000Y-51660000D02*
X106823000Y-51660000D01*
X105283000Y-90700000D02*
X99150000Y-90700000D01*
X106823000Y-89160000D02*
X105283000Y-90700000D01*
X108250000Y-89160000D02*
X106823000Y-89160000D01*
X109677000Y-89160000D02*
X108250000Y-89160000D01*
X112808000Y-92291200D02*
X109677000Y-89160000D01*
X118532000Y-92291200D02*
X112808000Y-92291200D01*
X120123000Y-90700000D02*
X118532000Y-92291200D01*
X121650000Y-90700000D02*
X120123000Y-90700000D01*
X90245600Y-86091100D02*
X88696300Y-87640400D01*
X90245600Y-72728900D02*
X90245600Y-86091100D01*
X142973000Y-90700000D02*
X144500000Y-90700000D01*
X141447000Y-92226700D02*
X142973000Y-90700000D01*
X135243000Y-92226700D02*
X141447000Y-92226700D01*
X132177000Y-89160000D02*
X135243000Y-92226700D01*
X130750000Y-89160000D02*
X132177000Y-89160000D01*
X150783000Y-90700000D02*
X144500000Y-90700000D01*
X152323000Y-89160000D02*
X150783000Y-90700000D01*
X153750000Y-89160000D02*
X152323000Y-89160000D01*
X85750000Y-106733000D02*
X85750000Y-108160000D01*
X90261900Y-102221000D02*
X85750000Y-106733000D01*
X92464000Y-102221000D02*
X90261900Y-102221000D01*
X82783300Y-90700000D02*
X76650000Y-90700000D01*
X84323300Y-89160000D02*
X82783300Y-90700000D01*
X85750000Y-89160000D02*
X84323300Y-89160000D01*
X128540000Y-116500000D02*
X126000000Y-116500000D01*
X116350000Y-43800200D02*
X116350000Y-40650000D01*
X125685000Y-53135200D02*
X116350000Y-43800200D01*
X127598000Y-53135200D02*
X125685000Y-53135200D01*
X129073000Y-51660000D02*
X127598000Y-53135200D01*
X130500000Y-51660000D02*
X129073000Y-51660000D01*
X150783000Y-71200000D02*
X144650000Y-71200000D01*
X152323000Y-69660000D02*
X150783000Y-71200000D01*
X153750000Y-69660000D02*
X152323000Y-69660000D01*
X93198100Y-102221000D02*
X92464000Y-102221000D01*
X99150000Y-108173000D02*
X93198100Y-102221000D01*
X99150000Y-109585000D02*
X99150000Y-108173000D01*
X131927000Y-51660000D02*
X130500000Y-51660000D01*
X135048000Y-54781200D02*
X131927000Y-51660000D01*
X141542000Y-54781200D02*
X135048000Y-54781200D01*
X143123000Y-53200000D02*
X141542000Y-54781200D01*
X144650000Y-53200000D02*
X143123000Y-53200000D01*
X105283000Y-71200000D02*
X99000000Y-71200000D01*
X106823000Y-69660000D02*
X105283000Y-71200000D01*
X108250000Y-69660000D02*
X106823000Y-69660000D01*
X127783000Y-90700000D02*
X121650000Y-90700000D01*
X129323000Y-89160000D02*
X127783000Y-90700000D01*
X130750000Y-89160000D02*
X129323000Y-89160000D01*
X82783300Y-109700000D02*
X76500000Y-109700000D01*
X84323300Y-108160000D02*
X82783300Y-109700000D01*
X85750000Y-108160000D02*
X84323300Y-108160000D01*
X127783000Y-71200000D02*
X121500000Y-71200000D01*
X129323000Y-69660000D02*
X127783000Y-71200000D01*
X130750000Y-69660000D02*
X129323000Y-69660000D01*
X82783300Y-71200000D02*
X76650000Y-71200000D01*
X84323300Y-69660000D02*
X82783300Y-71200000D01*
X85750000Y-69660000D02*
X84323300Y-69660000D01*
X97623300Y-90700000D02*
X99150000Y-90700000D01*
X96096600Y-92226700D02*
X97623300Y-90700000D01*
X93282500Y-92226700D02*
X96096600Y-92226700D01*
X221960000Y-116500000D02*
X224500000Y-116500000D01*
X203783000Y-71700000D02*
X197500000Y-71700000D01*
X205323000Y-70160000D02*
X203783000Y-71700000D01*
X206750000Y-70160000D02*
X205323000Y-70160000D01*
X181283000Y-71700000D02*
X175150000Y-71700000D01*
X182823000Y-70160000D02*
X181283000Y-71700000D01*
X184250000Y-70160000D02*
X182823000Y-70160000D01*
X203783000Y-53200000D02*
X197650000Y-53200000D01*
X205323000Y-51660000D02*
X203783000Y-53200000D01*
X206750000Y-51660000D02*
X205323000Y-51660000D01*
X226283000Y-53200000D02*
X220150000Y-53200000D01*
X227823000Y-51660000D02*
X226283000Y-53200000D01*
X229250000Y-51660000D02*
X227823000Y-51660000D01*
X181283000Y-90200000D02*
X175150000Y-90200000D01*
X182823000Y-88660000D02*
X181283000Y-90200000D01*
X184250000Y-88660000D02*
X182823000Y-88660000D01*
X181283000Y-53200000D02*
X175000000Y-53200000D01*
X182823000Y-51660000D02*
X181283000Y-53200000D01*
X184250000Y-51660000D02*
X182823000Y-51660000D01*
X227823000Y-70160000D02*
X229250000Y-70160000D01*
X226283000Y-71700000D02*
X227823000Y-70160000D01*
X220000000Y-71700000D02*
X226283000Y-71700000D01*
X203783000Y-90200000D02*
X197650000Y-90200000D01*
X205323000Y-88660000D02*
X203783000Y-90200000D01*
X206750000Y-88660000D02*
X205323000Y-88660000D01*
X218623000Y-90200000D02*
X220150000Y-90200000D01*
X217078000Y-91745800D02*
X218623000Y-90200000D01*
X208409000Y-91745800D02*
X217078000Y-91745800D01*
X206750000Y-90086700D02*
X208409000Y-91745800D01*
X206750000Y-88660000D02*
X206750000Y-90086700D01*
X208177000Y-70160000D02*
X206750000Y-70160000D01*
X211286000Y-73269300D02*
X208177000Y-70160000D01*
X216904000Y-73269300D02*
X211286000Y-73269300D01*
X218473000Y-71700000D02*
X216904000Y-73269300D01*
X220000000Y-71700000D02*
X218473000Y-71700000D01*
X241473000Y-90200000D02*
X243000000Y-90200000D01*
X239947000Y-91726700D02*
X241473000Y-90200000D01*
X233630000Y-91726700D02*
X239947000Y-91726700D01*
X233630000Y-91613400D02*
X233630000Y-91726700D01*
X230677000Y-88660000D02*
X233630000Y-91613400D01*
X229250000Y-88660000D02*
X230677000Y-88660000D01*
X227040000Y-115373000D02*
X227040000Y-115937000D01*
X233630000Y-108783000D02*
X227040000Y-115373000D01*
X233630000Y-91726700D02*
X233630000Y-108783000D01*
X150783000Y-53200000D02*
X144650000Y-53200000D01*
X152323000Y-51660000D02*
X150783000Y-53200000D01*
X153750000Y-51660000D02*
X152323000Y-51660000D01*
X171933000Y-51660000D02*
X153750000Y-51660000D01*
X173473000Y-53200000D02*
X171933000Y-51660000D01*
X175000000Y-53200000D02*
X173473000Y-53200000D01*
X226190000Y-115937000D02*
X227040000Y-115937000D01*
X225627000Y-116500000D02*
X226190000Y-115937000D01*
X224500000Y-116500000D02*
X225627000Y-116500000D01*
X241473000Y-71700000D02*
X243000000Y-71700000D01*
X239901000Y-73272500D02*
X241473000Y-71700000D01*
X233789000Y-73272500D02*
X239901000Y-73272500D01*
X230677000Y-70160000D02*
X233789000Y-73272500D01*
X229250000Y-70160000D02*
X230677000Y-70160000D01*
X227040000Y-116500000D02*
X227040000Y-115937000D01*
X87176700Y-51660000D02*
X85750000Y-51660000D01*
X90264200Y-54747500D02*
X87176700Y-51660000D01*
X96075800Y-54747500D02*
X90264200Y-54747500D01*
X97623300Y-53200000D02*
X96075800Y-54747500D01*
X99150000Y-53200000D02*
X97623300Y-53200000D01*
X82783300Y-53200000D02*
X76650000Y-53200000D01*
X84323300Y-51660000D02*
X82783300Y-53200000D01*
X85750000Y-51660000D02*
X84323300Y-51660000D01*
%TO.N,/Sensor_1*%
X77114800Y-40035200D02*
X76650000Y-40500000D01*
X85750000Y-41500000D02*
X81500000Y-41500000D01*
X79073300Y-40500000D02*
X76650000Y-40500000D01*
X80073300Y-41500000D02*
X79073300Y-40500000D01*
X81500000Y-41500000D02*
X80073300Y-41500000D01*
%TO.N,/5V*%
X68309200Y-78809200D02*
X68855000Y-78809200D01*
X68118400Y-79000000D02*
X68309200Y-78809200D01*
X65500000Y-79000000D02*
X68118400Y-79000000D01*
X65500000Y-98500000D02*
X65500000Y-79000000D01*
X65000000Y-99000000D02*
X65500000Y-98500000D01*
%TD*%
M02*
