M48
; DRILL file {KiCad 7.0.10} date Wed Feb 14 14:15:49 2024
; FORMAT={-:-/ absolute / inch / decimal}
; #@! TF.CreationDate,2024-02-14T14:15:49+07:00
; #@! TF.GenerationSoftware,Kicad,Pcbnew,7.0.10
; #@! TF.FileFunction,Plated,1,2,PTH
FMAT,2
INCH
; #@! TA.AperFunction,Plated,PTH,ViaDrill
T1C0.0157
; #@! TA.AperFunction,Plated,PTH,ComponentDrill
T2C0.0315
; #@! TA.AperFunction,Plated,PTH,ComponentDrill
T3C0.0400
; #@! TA.AperFunction,Plated,PTH,ComponentDrill
T4C0.0433
; #@! TA.AperFunction,Plated,PTH,ComponentDrill
T5C0.0472
; #@! TA.AperFunction,Plated,PTH,ViaDrill
T6C0.1181
%
G90
G05
T1
X1.2192Y-3.4403
X1.331Y-3.7466
X1.4526Y-3.846
X1.7535Y-4.381
X2.0293Y-2.7912
X2.039Y-4.7263
X2.0671Y-4.6976
X2.0697Y-2.5477
X2.0844Y-4.7724
X2.1211Y-2.4564
X2.1955Y-3.4519
X2.2052Y-3.5556
X2.2213Y-4.6608
X2.2377Y-3.6118
X2.2439Y-3.6592
X2.2802Y-3.6965
X2.3228Y-4.6437
X2.6329Y-4.2212
X2.6616Y-3.8744
X2.6778Y-3.9159
X4.6687Y-4.7377
X4.779Y-4.7114
X4.9855Y-2.6471
X5.056Y-1.7131
X5.2038Y-2.9802
X5.7822Y-4.1063
X5.801Y-4.208
X5.8625Y-3.282
X5.9876Y-4.4544
X6.2745Y-4.7414
X7.2829Y-4.5074
X7.6672Y-4.4783
X8.1364Y-4.2312
X8.2197Y-4.1885
X8.2848Y-4.2267
X8.7828Y-4.1851
X9.2334Y-4.0511
X9.5766Y-2.7948
T2
X1.1323Y-1.0874
X1.1323Y-1.2469
X1.1323Y-1.4063
X1.1323Y-1.5657
X1.1354Y-2.002
X1.1354Y-2.1614
X1.1354Y-2.3209
X1.1354Y-2.4803
X1.1354Y-3.8482
X1.1354Y-4.0096
X1.1354Y-4.1691
X1.1354Y-4.3285
X1.1748Y-2.9278
X1.1748Y-3.0872
X1.1748Y-3.2467
X1.1748Y-3.4061
X1.5323Y-1.0874
X1.5323Y-1.2469
X1.5323Y-1.4063
X1.5323Y-1.5657
X1.5354Y-2.002
X1.5354Y-2.1614
X1.5354Y-2.3209
X1.5354Y-2.4803
X1.5354Y-3.8482
X1.5354Y-4.0096
X1.5354Y-4.1691
X1.5354Y-4.3285
X1.5748Y-2.9278
X1.5748Y-3.0872
X1.5748Y-3.2467
X1.5748Y-3.4061
X1.6866Y-2.9278
X1.6866Y-3.0278
X1.6866Y-3.1278
X1.6866Y-3.2278
X1.6866Y-3.3278
X1.6866Y-3.4278
X1.6866Y-3.5278
X1.6866Y-3.6278
X1.6937Y-1.097
X1.6937Y-1.197
X1.6937Y-1.297
X1.6937Y-1.397
X1.6937Y-1.497
X1.6937Y-1.597
X1.6937Y-1.697
X1.6937Y-1.797
X1.6937Y-3.852
X1.6937Y-3.952
X1.6937Y-4.052
X1.6937Y-4.152
X1.6937Y-4.252
X1.6937Y-4.352
X1.6937Y-4.452
X1.6937Y-4.552
X1.7016Y-2.002
X1.7016Y-2.102
X1.7016Y-2.202
X1.7016Y-2.302
X1.7016Y-2.402
X1.7016Y-2.502
X1.7016Y-2.602
X1.7016Y-2.702
X1.9866Y-2.9278
X1.9866Y-3.0278
X1.9866Y-3.1278
X1.9866Y-3.2278
X1.9866Y-3.3278
X1.9866Y-3.4278
X1.9866Y-3.5278
X1.9866Y-3.6278
X1.9937Y-1.097
X1.9937Y-1.197
X1.9937Y-1.297
X1.9937Y-1.397
X1.9937Y-1.497
X1.9937Y-1.597
X1.9937Y-1.697
X1.9937Y-1.797
X1.9937Y-3.852
X1.9937Y-3.952
X1.9937Y-4.052
X1.9937Y-4.152
X1.9937Y-4.252
X1.9937Y-4.352
X1.9937Y-4.452
X1.9937Y-4.552
X2.0016Y-2.002
X2.0016Y-2.102
X2.0016Y-2.202
X2.0016Y-2.302
X2.0016Y-2.402
X2.0016Y-2.502
X2.0016Y-2.602
X2.0016Y-2.702
X2.1559Y-1.0933
X2.1559Y-1.2508
X2.1559Y-1.4083
X2.1559Y-1.5657
X2.1591Y-3.8482
X2.1591Y-4.0077
X2.1591Y-4.1671
X2.1591Y-4.3266
X2.1622Y-2.9278
X2.1622Y-3.0872
X2.1622Y-3.2467
X2.1622Y-3.4061
X2.2016Y-2.002
X2.2016Y-2.1614
X2.2016Y-2.3209
X2.2016Y-2.4803
X2.5559Y-1.0933
X2.5559Y-1.2508
X2.5559Y-1.4083
X2.5559Y-1.5657
X2.5591Y-3.8482
X2.5591Y-4.0077
X2.5591Y-4.1671
X2.5591Y-4.3266
X2.5622Y-2.9278
X2.5622Y-3.0872
X2.5622Y-3.2467
X2.5622Y-3.4061
X2.6016Y-2.002
X2.6016Y-2.1614
X2.6016Y-2.3209
X2.6016Y-2.4803
X2.7579Y-1.2173
X2.7579Y-1.6173
X3.0709Y-1.2173
X3.0709Y-1.6173
X3.2303Y-1.2173
X3.2303Y-1.6173
X3.5827Y-1.2173
X3.5827Y-1.6173
X3.7421Y-1.2173
X3.7421Y-1.6173
X4.0551Y-1.2173
X4.0551Y-1.6173
X4.2146Y-1.2173
X4.2146Y-1.6173
X4.5669Y-1.2173
X4.5669Y-1.6173
X4.7574Y-1.2234
X4.7574Y-1.6234
X5.0704Y-1.2234
X5.0704Y-1.6234
X5.2298Y-1.2234
X5.2298Y-1.6234
X5.5775Y-1.2234
X5.5775Y-1.6234
X5.7417Y-1.2234
X5.7417Y-1.6234
X6.0546Y-1.2234
X6.0546Y-1.6234
X6.2141Y-1.2234
X6.2141Y-1.6234
X6.5665Y-1.2173
X6.5665Y-1.6173
X6.7259Y-1.2173
X6.7259Y-1.6173
X6.8484Y-1.8047
X6.8484Y-2.2047
X7.0783Y-1.2173
X7.0783Y-1.6173
X7.1713Y-1.8047
X7.1713Y-2.2047
X7.2377Y-1.2173
X7.2377Y-1.6173
X7.3209Y-1.8047
X7.3209Y-2.2047
X7.3811Y-3.3352
X7.3811Y-3.4947
X7.3811Y-3.6667
X7.3811Y-3.8262
X7.3906Y-2.5447
X7.3906Y-2.7041
X7.3906Y-2.8636
X7.3906Y-3.023
X7.5901Y-1.2173
X7.5901Y-1.6173
X7.7126Y-1.8047
X7.7126Y-2.2047
X7.7495Y-1.2173
X7.7495Y-1.6173
X7.7811Y-3.3352
X7.7811Y-3.4947
X7.7811Y-3.6667
X7.7811Y-3.8262
X7.7906Y-2.5447
X7.7906Y-2.7041
X7.7906Y-2.8636
X7.7906Y-3.023
X7.872Y-1.8047
X7.872Y-2.2047
X7.9504Y-3.3289
X7.9504Y-3.4289
X7.9504Y-3.5289
X7.9504Y-3.6289
X7.9504Y-3.7289
X7.9504Y-3.8289
X7.9504Y-3.9289
X7.9504Y-4.0289
X7.9598Y-2.4053
X7.9598Y-2.5053
X7.9598Y-2.6053
X7.9598Y-2.7053
X7.9598Y-2.8053
X7.9598Y-2.9053
X7.9598Y-3.0053
X7.9598Y-3.1053
X8.0625Y-1.2173
X8.0625Y-1.6173
X8.185Y-1.8047
X8.185Y-2.2047
X8.222Y-1.2173
X8.222Y-1.6173
X8.2504Y-3.3289
X8.2504Y-3.4289
X8.2504Y-3.5289
X8.2504Y-3.6289
X8.2504Y-3.7289
X8.2504Y-3.8289
X8.2504Y-3.9289
X8.2504Y-4.0289
X8.2598Y-2.4053
X8.2598Y-2.5053
X8.2598Y-2.6053
X8.2598Y-2.7053
X8.2598Y-2.8053
X8.2598Y-2.9053
X8.2598Y-3.0053
X8.2598Y-3.1053
X8.3445Y-1.8047
X8.3445Y-2.2047
X8.4291Y-2.5447
X8.4291Y-2.7041
X8.4291Y-2.8636
X8.4291Y-3.023
X8.4441Y-3.3352
X8.4441Y-3.6502
X8.4441Y-3.8077
X8.4472Y-3.4927
X8.5743Y-1.2173
X8.5743Y-1.6173
X8.6969Y-1.8047
X8.6969Y-2.2047
X8.7338Y-1.2173
X8.7338Y-1.6173
X8.8291Y-2.5447
X8.8291Y-2.7041
X8.8291Y-2.8636
X8.8291Y-3.023
X8.8441Y-3.3352
X8.8441Y-3.6502
X8.8441Y-3.8077
X8.8472Y-3.4927
X8.8563Y-1.8047
X8.8563Y-2.2047
X9.0487Y-1.2173
X9.0487Y-1.6173
X9.1496Y-3.3352
X9.1496Y-3.4947
X9.1496Y-3.6541
X9.1496Y-3.8136
X9.1693Y-1.8047
X9.1693Y-2.2047
X9.1984Y-2.5388
X9.1984Y-2.6982
X9.1984Y-2.8577
X9.1984Y-3.0171
X9.2062Y-1.2173
X9.2062Y-1.6173
X9.3287Y-1.8047
X9.3287Y-2.2047
X9.5192Y-1.2173
X9.5192Y-1.6173
X9.5496Y-3.3352
X9.5496Y-3.4947
X9.5496Y-3.6541
X9.5496Y-3.8136
X9.5984Y-2.5388
X9.5984Y-2.6982
X9.5984Y-2.8577
X9.5984Y-3.0171
X9.6417Y-1.8047
X9.6417Y-2.2047
X9.6787Y-1.2173
X9.6787Y-1.6173
X9.722Y-3.3321
X9.722Y-3.4321
X9.722Y-3.5321
X9.722Y-3.6321
X9.722Y-3.7321
X9.722Y-3.8321
X9.722Y-3.9321
X9.722Y-4.0321
X9.7465Y-2.4085
X9.7465Y-2.5085
X9.7465Y-2.6085
X9.7465Y-2.7085
X9.7465Y-2.8085
X9.7465Y-2.9085
X9.7465Y-3.0085
X9.7465Y-3.1085
X9.8012Y-1.8047
X9.8012Y-2.2047
X9.972Y-1.2173
X9.972Y-1.6173
X10.022Y-3.3321
X10.022Y-3.4321
X10.022Y-3.5321
X10.022Y-3.6321
X10.022Y-3.7321
X10.022Y-3.8321
X10.022Y-3.9321
X10.022Y-4.0321
X10.0465Y-2.4085
X10.0465Y-2.5085
X10.0465Y-2.6085
X10.0465Y-2.7085
X10.0465Y-2.8085
X10.0465Y-2.9085
X10.0465Y-3.0085
X10.0465Y-3.1085
X10.1161Y-1.8047
X10.1161Y-2.2047
X10.1314Y-1.2173
X10.1314Y-1.6173
X10.1882Y-3.6502
X10.1882Y-3.8077
X10.1913Y-3.3352
X10.1913Y-3.4927
X10.2008Y-3.0171
X10.2126Y-2.5053
X10.2126Y-2.6628
X10.2126Y-2.8376
X10.2756Y-1.8047
X10.2756Y-2.2047
X10.4331Y-1.2173
X10.4331Y-1.6173
X10.5882Y-3.6502
X10.5882Y-3.8077
X10.5906Y-1.8047
X10.5906Y-2.2047
X10.5913Y-3.3352
X10.5913Y-3.4927
X10.6008Y-3.0171
X10.6126Y-2.5053
X10.6126Y-2.6628
X10.6126Y-2.8376
T3
X2.8782Y-2.174
X2.8782Y-2.274
X2.8782Y-2.374
X2.8782Y-2.474
X2.8782Y-2.574
X2.8782Y-2.674
X2.8782Y-2.774
X2.8782Y-2.874
X2.8782Y-2.974
X2.8782Y-3.074
X2.8782Y-3.174
X2.8782Y-3.274
X2.8782Y-3.374
X2.8782Y-3.474
X2.8782Y-3.574
X2.8782Y-3.674
X2.8782Y-3.774
X2.8782Y-3.874
X2.9782Y-2.174
X2.9782Y-2.274
X2.9782Y-2.374
X2.9782Y-2.474
X2.9782Y-2.574
X2.9782Y-2.674
X2.9782Y-2.774
X2.9782Y-2.874
X2.9782Y-2.974
X2.9782Y-3.074
X2.9782Y-3.174
X2.9782Y-3.274
X2.9782Y-3.374
X2.9782Y-3.474
X2.9782Y-3.574
X2.9782Y-3.674
X2.9782Y-3.774
X2.9782Y-3.874
X3.0782Y-1.974
X3.1782Y-1.974
X3.2782Y-1.974
X3.2782Y-3.874
X3.3782Y-1.974
X3.3782Y-3.874
X3.4782Y-1.974
X3.4782Y-3.874
X3.5782Y-1.974
X3.5782Y-3.874
X3.6782Y-1.974
X3.6782Y-3.874
X3.7782Y-1.974
X3.7782Y-3.874
X3.8782Y-3.874
X3.9782Y-1.974
X3.9782Y-3.874
X4.0732Y-2.874
X4.0732Y-2.974
X4.0732Y-3.074
X4.0782Y-1.974
X4.1732Y-2.874
X4.1732Y-2.974
X4.1732Y-3.074
X4.1782Y-1.974
X4.1782Y-3.874
X4.2782Y-1.974
X4.2782Y-3.874
X4.3782Y-1.974
X4.3782Y-3.874
X4.4782Y-1.974
X4.4782Y-3.874
X4.5782Y-1.974
X4.5782Y-3.874
X4.6782Y-1.974
X4.6782Y-3.874
X4.7782Y-3.874
X4.8782Y-1.974
X4.8782Y-3.874
X4.9782Y-1.974
X5.0382Y-3.874
X5.0782Y-1.974
X5.1382Y-3.874
X5.1782Y-1.974
X5.2382Y-3.874
X5.2782Y-1.974
X5.3382Y-3.874
X5.3782Y-1.974
X5.4382Y-3.874
X5.4782Y-1.974
X5.5382Y-3.874
X5.5782Y-1.974
X5.6382Y-3.874
X5.7382Y-3.874
X5.8382Y-3.874
X5.9382Y-3.874
T4
X2.9154Y-1.2205
X2.9154Y-1.6205
X3.4272Y-1.2205
X3.4272Y-1.6205
X3.8996Y-1.2205
X3.8996Y-1.6205
X4.4114Y-1.2205
X4.4114Y-1.6205
X4.9149Y-1.2234
X4.9149Y-1.6234
X5.4267Y-1.2234
X5.4267Y-1.6234
X5.8991Y-1.2234
X5.8991Y-1.6234
X6.4109Y-1.2234
X6.4109Y-1.6234
X6.9228Y-1.2234
X6.9228Y-1.6234
X7.0059Y-1.8079
X7.0059Y-2.2079
X7.3952Y-1.2234
X7.3952Y-1.6234
X7.5177Y-1.8079
X7.5177Y-2.2079
X7.907Y-1.2234
X7.907Y-1.6234
X8.0295Y-1.8047
X8.0295Y-2.2047
X8.4188Y-1.2234
X8.4188Y-1.6234
X8.5413Y-1.8079
X8.5413Y-2.2079
X8.8913Y-1.2234
X8.8913Y-1.6234
X9.0138Y-1.8047
X9.0138Y-2.2047
X9.3637Y-1.2234
X9.3637Y-1.6234
X9.4862Y-1.8047
X9.4862Y-2.2047
X9.8361Y-1.2234
X9.8361Y-1.6234
X9.9587Y-1.8047
X9.9587Y-2.2047
X10.2692Y-1.2234
X10.2692Y-1.6234
X10.4331Y-1.8047
X10.4331Y-2.2047
T5
X2.7559Y-4.2913
X2.7559Y-4.8031
X2.8937Y-4.2913
X2.8937Y-4.8031
X3.0315Y-4.2913
X3.0315Y-4.8031
X3.1693Y-4.2913
X3.1693Y-4.8031
X3.3071Y-4.2913
X3.3071Y-4.8031
X3.4449Y-4.2913
X3.4449Y-4.8031
X3.6417Y-4.2913
X3.6417Y-4.8031
X3.7795Y-4.2913
X3.7795Y-4.8031
X3.9083Y-0.9055
X3.9173Y-4.2913
X3.9173Y-4.8031
X4.0461Y-0.9055
X4.0551Y-4.2913
X4.0551Y-4.8031
X4.1839Y-0.9055
X4.1929Y-4.2913
X4.1929Y-4.8031
X4.3217Y-0.9055
X4.3307Y-4.2913
X4.3307Y-4.8031
X4.4595Y-0.9055
X4.5669Y-4.8031
X4.5866Y-4.2913
X4.5973Y-0.9055
X4.7047Y-4.8031
X4.7244Y-4.2913
X4.7351Y-0.9055
X4.8425Y-4.8031
X4.8622Y-4.2913
X4.8729Y-0.9055
X4.9803Y-4.8031
X5.0Y-4.2913
X5.1181Y-4.8031
X5.1378Y-4.2913
X5.2559Y-4.8031
X5.2756Y-4.2913
X5.4724Y-4.2913
X5.4724Y-4.8031
X5.5315Y-0.9055
X5.6102Y-4.2913
X5.6102Y-4.8031
X5.6693Y-0.9055
X5.748Y-4.2913
X5.748Y-4.8031
X5.8071Y-0.9055
X5.8858Y-4.2913
X5.8858Y-4.8031
X5.9449Y-0.9055
X6.0236Y-4.2913
X6.0236Y-4.8031
X6.0827Y-0.9055
X6.1614Y-4.2913
X6.1614Y-4.8031
X6.2205Y-0.9055
X6.3583Y-0.9055
X6.3976Y-4.2913
X6.437Y-4.8031
X6.4961Y-0.9055
X6.5354Y-4.2913
X6.5748Y-4.8031
X6.6732Y-4.2913
X6.7126Y-4.8031
X6.811Y-4.2913
X6.8504Y-4.8031
X6.9488Y-4.2913
X6.9882Y-4.8031
X7.0866Y-4.2913
X7.126Y-4.8031
X7.1583Y-0.9055
X7.2835Y-4.2913
X7.2961Y-0.9055
X7.3031Y-4.8031
X7.4213Y-4.2913
X7.4339Y-0.9055
X7.4409Y-4.8031
X7.5591Y-4.2913
X7.5717Y-0.9055
X7.5787Y-4.8031
X7.6969Y-4.2913
X7.7095Y-0.9055
X7.7165Y-4.8031
X7.8346Y-4.2913
X7.8473Y-0.9055
X7.8543Y-4.8031
X7.9724Y-4.2913
X7.9851Y-0.9055
X7.9921Y-4.8031
X8.1229Y-0.9055
X8.189Y-4.8031
X8.2087Y-4.2913
X8.3268Y-4.8031
X8.3465Y-4.2913
X8.4646Y-4.8031
X8.4843Y-4.2913
X8.6024Y-4.8031
X8.622Y-4.2913
X8.7402Y-4.8031
X8.7598Y-4.2913
X8.878Y-4.8031
X8.8976Y-4.2913
X9.0748Y-4.2913
X9.0748Y-4.8031
X9.2126Y-4.2913
X9.2126Y-4.8031
X9.3504Y-4.2913
X9.3504Y-4.8031
X9.4882Y-4.2913
X9.4882Y-4.8031
X9.626Y-4.2913
X9.626Y-4.8031
X9.7638Y-4.2913
X9.7638Y-4.8031
X9.9803Y-4.8031
X10.1181Y-4.8031
X10.1378Y-4.2913
X10.2756Y-4.2913
X10.3346Y-4.8031
X10.4724Y-4.8031
T6
X0.8661Y-1.1024
X0.8661Y-4.4488
X10.6299Y-1.1024
X10.6299Y-4.4488
M30
