%TF.GenerationSoftware,KiCad,Pcbnew,7.0.10*%
%TF.CreationDate,2024-02-14T14:15:43+07:00*%
%TF.ProjectId,Arduino_IO_Board,41726475-696e-46f5-9f49-4f5f426f6172,rev?*%
%TF.SameCoordinates,Original*%
%TF.FileFunction,Copper,L1,Top*%
%TF.FilePolarity,Positive*%
%FSLAX46Y46*%
G04 Gerber Fmt 4.6, Leading zero omitted, Abs format (unit mm)*
G04 Created by KiCad (PCBNEW 7.0.10) date 2024-02-14 14:15:43*
%MOMM*%
%LPD*%
G01*
G04 APERTURE LIST*
%ADD10C,0.300000*%
%TA.AperFunction,NonConductor*%
%ADD11C,0.300000*%
%TD*%
%TA.AperFunction,NonConductor*%
%ADD12C,0.200000*%
%TD*%
%TA.AperFunction,ComponentPad*%
%ADD13R,2.200000X2.200000*%
%TD*%
%TA.AperFunction,ComponentPad*%
%ADD14O,2.200000X2.200000*%
%TD*%
%TA.AperFunction,ComponentPad*%
%ADD15C,1.600000*%
%TD*%
%TA.AperFunction,ComponentPad*%
%ADD16O,1.600000X1.600000*%
%TD*%
%TA.AperFunction,ComponentPad*%
%ADD17R,1.600000X1.600000*%
%TD*%
%TA.AperFunction,ComponentPad*%
%ADD18R,2.400000X2.400000*%
%TD*%
%TA.AperFunction,ComponentPad*%
%ADD19C,2.400000*%
%TD*%
%TA.AperFunction,ComponentPad*%
%ADD20O,1.727200X1.727200*%
%TD*%
%TA.AperFunction,ComponentPad*%
%ADD21R,1.727200X1.727200*%
%TD*%
%TA.AperFunction,ViaPad*%
%ADD22C,5.000000*%
%TD*%
%TA.AperFunction,ViaPad*%
%ADD23C,0.800000*%
%TD*%
%TA.AperFunction,Conductor*%
%ADD24C,0.250000*%
%TD*%
G04 APERTURE END LIST*
D10*
D11*
X278878328Y-80785712D02*
X278878328Y-81642855D01*
X278878328Y-81214284D02*
X277378328Y-81214284D01*
X277378328Y-81214284D02*
X277592614Y-81357141D01*
X277592614Y-81357141D02*
X277735471Y-81499998D01*
X277735471Y-81499998D02*
X277806900Y-81642855D01*
X278878328Y-79357141D02*
X278878328Y-80214284D01*
X278878328Y-79785713D02*
X277378328Y-79785713D01*
X277378328Y-79785713D02*
X277592614Y-79928570D01*
X277592614Y-79928570D02*
X277735471Y-80071427D01*
X277735471Y-80071427D02*
X277806900Y-80214284D01*
X277521185Y-78785713D02*
X277449757Y-78714285D01*
X277449757Y-78714285D02*
X277378328Y-78571428D01*
X277378328Y-78571428D02*
X277378328Y-78214285D01*
X277378328Y-78214285D02*
X277449757Y-78071428D01*
X277449757Y-78071428D02*
X277521185Y-77999999D01*
X277521185Y-77999999D02*
X277664042Y-77928570D01*
X277664042Y-77928570D02*
X277806900Y-77928570D01*
X277806900Y-77928570D02*
X278021185Y-77999999D01*
X278021185Y-77999999D02*
X278878328Y-78857142D01*
X278878328Y-78857142D02*
X278878328Y-77928570D01*
X278735471Y-77285714D02*
X278806900Y-77214285D01*
X278806900Y-77214285D02*
X278878328Y-77285714D01*
X278878328Y-77285714D02*
X278806900Y-77357142D01*
X278806900Y-77357142D02*
X278735471Y-77285714D01*
X278735471Y-77285714D02*
X278878328Y-77285714D01*
X277378328Y-76285713D02*
X277378328Y-76142856D01*
X277378328Y-76142856D02*
X277449757Y-75999999D01*
X277449757Y-75999999D02*
X277521185Y-75928571D01*
X277521185Y-75928571D02*
X277664042Y-75857142D01*
X277664042Y-75857142D02*
X277949757Y-75785713D01*
X277949757Y-75785713D02*
X278306900Y-75785713D01*
X278306900Y-75785713D02*
X278592614Y-75857142D01*
X278592614Y-75857142D02*
X278735471Y-75928571D01*
X278735471Y-75928571D02*
X278806900Y-75999999D01*
X278806900Y-75999999D02*
X278878328Y-76142856D01*
X278878328Y-76142856D02*
X278878328Y-76285713D01*
X278878328Y-76285713D02*
X278806900Y-76428571D01*
X278806900Y-76428571D02*
X278735471Y-76499999D01*
X278735471Y-76499999D02*
X278592614Y-76571428D01*
X278592614Y-76571428D02*
X278306900Y-76642856D01*
X278306900Y-76642856D02*
X277949757Y-76642856D01*
X277949757Y-76642856D02*
X277664042Y-76571428D01*
X277664042Y-76571428D02*
X277521185Y-76499999D01*
X277521185Y-76499999D02*
X277449757Y-76428571D01*
X277449757Y-76428571D02*
X277378328Y-76285713D01*
X277378328Y-74857142D02*
X277378328Y-74714285D01*
X277378328Y-74714285D02*
X277449757Y-74571428D01*
X277449757Y-74571428D02*
X277521185Y-74500000D01*
X277521185Y-74500000D02*
X277664042Y-74428571D01*
X277664042Y-74428571D02*
X277949757Y-74357142D01*
X277949757Y-74357142D02*
X278306900Y-74357142D01*
X278306900Y-74357142D02*
X278592614Y-74428571D01*
X278592614Y-74428571D02*
X278735471Y-74500000D01*
X278735471Y-74500000D02*
X278806900Y-74571428D01*
X278806900Y-74571428D02*
X278878328Y-74714285D01*
X278878328Y-74714285D02*
X278878328Y-74857142D01*
X278878328Y-74857142D02*
X278806900Y-75000000D01*
X278806900Y-75000000D02*
X278735471Y-75071428D01*
X278735471Y-75071428D02*
X278592614Y-75142857D01*
X278592614Y-75142857D02*
X278306900Y-75214285D01*
X278306900Y-75214285D02*
X277949757Y-75214285D01*
X277949757Y-75214285D02*
X277664042Y-75142857D01*
X277664042Y-75142857D02*
X277521185Y-75071428D01*
X277521185Y-75071428D02*
X277449757Y-75000000D01*
X277449757Y-75000000D02*
X277378328Y-74857142D01*
X277378328Y-73428571D02*
X277378328Y-73285714D01*
X277378328Y-73285714D02*
X277449757Y-73142857D01*
X277449757Y-73142857D02*
X277521185Y-73071429D01*
X277521185Y-73071429D02*
X277664042Y-73000000D01*
X277664042Y-73000000D02*
X277949757Y-72928571D01*
X277949757Y-72928571D02*
X278306900Y-72928571D01*
X278306900Y-72928571D02*
X278592614Y-73000000D01*
X278592614Y-73000000D02*
X278735471Y-73071429D01*
X278735471Y-73071429D02*
X278806900Y-73142857D01*
X278806900Y-73142857D02*
X278878328Y-73285714D01*
X278878328Y-73285714D02*
X278878328Y-73428571D01*
X278878328Y-73428571D02*
X278806900Y-73571429D01*
X278806900Y-73571429D02*
X278735471Y-73642857D01*
X278735471Y-73642857D02*
X278592614Y-73714286D01*
X278592614Y-73714286D02*
X278306900Y-73785714D01*
X278306900Y-73785714D02*
X277949757Y-73785714D01*
X277949757Y-73785714D02*
X277664042Y-73714286D01*
X277664042Y-73714286D02*
X277521185Y-73642857D01*
X277521185Y-73642857D02*
X277449757Y-73571429D01*
X277449757Y-73571429D02*
X277378328Y-73428571D01*
X277378328Y-72000000D02*
X277378328Y-71857143D01*
X277378328Y-71857143D02*
X277449757Y-71714286D01*
X277449757Y-71714286D02*
X277521185Y-71642858D01*
X277521185Y-71642858D02*
X277664042Y-71571429D01*
X277664042Y-71571429D02*
X277949757Y-71500000D01*
X277949757Y-71500000D02*
X278306900Y-71500000D01*
X278306900Y-71500000D02*
X278592614Y-71571429D01*
X278592614Y-71571429D02*
X278735471Y-71642858D01*
X278735471Y-71642858D02*
X278806900Y-71714286D01*
X278806900Y-71714286D02*
X278878328Y-71857143D01*
X278878328Y-71857143D02*
X278878328Y-72000000D01*
X278878328Y-72000000D02*
X278806900Y-72142858D01*
X278806900Y-72142858D02*
X278735471Y-72214286D01*
X278735471Y-72214286D02*
X278592614Y-72285715D01*
X278592614Y-72285715D02*
X278306900Y-72357143D01*
X278306900Y-72357143D02*
X277949757Y-72357143D01*
X277949757Y-72357143D02*
X277664042Y-72285715D01*
X277664042Y-72285715D02*
X277521185Y-72214286D01*
X277521185Y-72214286D02*
X277449757Y-72142858D01*
X277449757Y-72142858D02*
X277378328Y-72000000D01*
X278878328Y-69714287D02*
X277878328Y-69714287D01*
X278021185Y-69714287D02*
X277949757Y-69642858D01*
X277949757Y-69642858D02*
X277878328Y-69500001D01*
X277878328Y-69500001D02*
X277878328Y-69285715D01*
X277878328Y-69285715D02*
X277949757Y-69142858D01*
X277949757Y-69142858D02*
X278092614Y-69071430D01*
X278092614Y-69071430D02*
X278878328Y-69071430D01*
X278092614Y-69071430D02*
X277949757Y-69000001D01*
X277949757Y-69000001D02*
X277878328Y-68857144D01*
X277878328Y-68857144D02*
X277878328Y-68642858D01*
X277878328Y-68642858D02*
X277949757Y-68500001D01*
X277949757Y-68500001D02*
X278092614Y-68428572D01*
X278092614Y-68428572D02*
X278878328Y-68428572D01*
X278878328Y-67714287D02*
X277878328Y-67714287D01*
X278021185Y-67714287D02*
X277949757Y-67642858D01*
X277949757Y-67642858D02*
X277878328Y-67500001D01*
X277878328Y-67500001D02*
X277878328Y-67285715D01*
X277878328Y-67285715D02*
X277949757Y-67142858D01*
X277949757Y-67142858D02*
X278092614Y-67071430D01*
X278092614Y-67071430D02*
X278878328Y-67071430D01*
X278092614Y-67071430D02*
X277949757Y-67000001D01*
X277949757Y-67000001D02*
X277878328Y-66857144D01*
X277878328Y-66857144D02*
X277878328Y-66642858D01*
X277878328Y-66642858D02*
X277949757Y-66500001D01*
X277949757Y-66500001D02*
X278092614Y-66428572D01*
X278092614Y-66428572D02*
X278878328Y-66428572D01*
D12*
X275500000Y-130000000D02*
X280586420Y-130000000D01*
X275500000Y-18000000D02*
X280586420Y-18000000D01*
X280000000Y-130000000D02*
X280000000Y-18000000D01*
X280000000Y-130000000D02*
X280000000Y-18000000D01*
X280000000Y-130000000D02*
X279413579Y-128873496D01*
X280000000Y-130000000D02*
X280586421Y-128873496D01*
X280000000Y-18000000D02*
X280586421Y-19126504D01*
X280000000Y-18000000D02*
X279413579Y-19126504D01*
D10*
D11*
X138357144Y-131521184D02*
X138428572Y-131449756D01*
X138428572Y-131449756D02*
X138571430Y-131378327D01*
X138571430Y-131378327D02*
X138928572Y-131378327D01*
X138928572Y-131378327D02*
X139071430Y-131449756D01*
X139071430Y-131449756D02*
X139142858Y-131521184D01*
X139142858Y-131521184D02*
X139214287Y-131664041D01*
X139214287Y-131664041D02*
X139214287Y-131806899D01*
X139214287Y-131806899D02*
X139142858Y-132021184D01*
X139142858Y-132021184D02*
X138285715Y-132878327D01*
X138285715Y-132878327D02*
X139214287Y-132878327D01*
X140571429Y-131378327D02*
X139857143Y-131378327D01*
X139857143Y-131378327D02*
X139785715Y-132092613D01*
X139785715Y-132092613D02*
X139857143Y-132021184D01*
X139857143Y-132021184D02*
X140000001Y-131949756D01*
X140000001Y-131949756D02*
X140357143Y-131949756D01*
X140357143Y-131949756D02*
X140500001Y-132021184D01*
X140500001Y-132021184D02*
X140571429Y-132092613D01*
X140571429Y-132092613D02*
X140642858Y-132235470D01*
X140642858Y-132235470D02*
X140642858Y-132592613D01*
X140642858Y-132592613D02*
X140571429Y-132735470D01*
X140571429Y-132735470D02*
X140500001Y-132806899D01*
X140500001Y-132806899D02*
X140357143Y-132878327D01*
X140357143Y-132878327D02*
X140000001Y-132878327D01*
X140000001Y-132878327D02*
X139857143Y-132806899D01*
X139857143Y-132806899D02*
X139785715Y-132735470D01*
X141500000Y-132021184D02*
X141357143Y-131949756D01*
X141357143Y-131949756D02*
X141285714Y-131878327D01*
X141285714Y-131878327D02*
X141214286Y-131735470D01*
X141214286Y-131735470D02*
X141214286Y-131664041D01*
X141214286Y-131664041D02*
X141285714Y-131521184D01*
X141285714Y-131521184D02*
X141357143Y-131449756D01*
X141357143Y-131449756D02*
X141500000Y-131378327D01*
X141500000Y-131378327D02*
X141785714Y-131378327D01*
X141785714Y-131378327D02*
X141928572Y-131449756D01*
X141928572Y-131449756D02*
X142000000Y-131521184D01*
X142000000Y-131521184D02*
X142071429Y-131664041D01*
X142071429Y-131664041D02*
X142071429Y-131735470D01*
X142071429Y-131735470D02*
X142000000Y-131878327D01*
X142000000Y-131878327D02*
X141928572Y-131949756D01*
X141928572Y-131949756D02*
X141785714Y-132021184D01*
X141785714Y-132021184D02*
X141500000Y-132021184D01*
X141500000Y-132021184D02*
X141357143Y-132092613D01*
X141357143Y-132092613D02*
X141285714Y-132164041D01*
X141285714Y-132164041D02*
X141214286Y-132306899D01*
X141214286Y-132306899D02*
X141214286Y-132592613D01*
X141214286Y-132592613D02*
X141285714Y-132735470D01*
X141285714Y-132735470D02*
X141357143Y-132806899D01*
X141357143Y-132806899D02*
X141500000Y-132878327D01*
X141500000Y-132878327D02*
X141785714Y-132878327D01*
X141785714Y-132878327D02*
X141928572Y-132806899D01*
X141928572Y-132806899D02*
X142000000Y-132735470D01*
X142000000Y-132735470D02*
X142071429Y-132592613D01*
X142071429Y-132592613D02*
X142071429Y-132306899D01*
X142071429Y-132306899D02*
X142000000Y-132164041D01*
X142000000Y-132164041D02*
X141928572Y-132092613D01*
X141928572Y-132092613D02*
X141785714Y-132021184D01*
X142714285Y-132735470D02*
X142785714Y-132806899D01*
X142785714Y-132806899D02*
X142714285Y-132878327D01*
X142714285Y-132878327D02*
X142642857Y-132806899D01*
X142642857Y-132806899D02*
X142714285Y-132735470D01*
X142714285Y-132735470D02*
X142714285Y-132878327D01*
X143714286Y-131378327D02*
X143857143Y-131378327D01*
X143857143Y-131378327D02*
X144000000Y-131449756D01*
X144000000Y-131449756D02*
X144071429Y-131521184D01*
X144071429Y-131521184D02*
X144142857Y-131664041D01*
X144142857Y-131664041D02*
X144214286Y-131949756D01*
X144214286Y-131949756D02*
X144214286Y-132306899D01*
X144214286Y-132306899D02*
X144142857Y-132592613D01*
X144142857Y-132592613D02*
X144071429Y-132735470D01*
X144071429Y-132735470D02*
X144000000Y-132806899D01*
X144000000Y-132806899D02*
X143857143Y-132878327D01*
X143857143Y-132878327D02*
X143714286Y-132878327D01*
X143714286Y-132878327D02*
X143571429Y-132806899D01*
X143571429Y-132806899D02*
X143500000Y-132735470D01*
X143500000Y-132735470D02*
X143428571Y-132592613D01*
X143428571Y-132592613D02*
X143357143Y-132306899D01*
X143357143Y-132306899D02*
X143357143Y-131949756D01*
X143357143Y-131949756D02*
X143428571Y-131664041D01*
X143428571Y-131664041D02*
X143500000Y-131521184D01*
X143500000Y-131521184D02*
X143571429Y-131449756D01*
X143571429Y-131449756D02*
X143714286Y-131378327D01*
X145142857Y-131378327D02*
X145285714Y-131378327D01*
X145285714Y-131378327D02*
X145428571Y-131449756D01*
X145428571Y-131449756D02*
X145500000Y-131521184D01*
X145500000Y-131521184D02*
X145571428Y-131664041D01*
X145571428Y-131664041D02*
X145642857Y-131949756D01*
X145642857Y-131949756D02*
X145642857Y-132306899D01*
X145642857Y-132306899D02*
X145571428Y-132592613D01*
X145571428Y-132592613D02*
X145500000Y-132735470D01*
X145500000Y-132735470D02*
X145428571Y-132806899D01*
X145428571Y-132806899D02*
X145285714Y-132878327D01*
X145285714Y-132878327D02*
X145142857Y-132878327D01*
X145142857Y-132878327D02*
X145000000Y-132806899D01*
X145000000Y-132806899D02*
X144928571Y-132735470D01*
X144928571Y-132735470D02*
X144857142Y-132592613D01*
X144857142Y-132592613D02*
X144785714Y-132306899D01*
X144785714Y-132306899D02*
X144785714Y-131949756D01*
X144785714Y-131949756D02*
X144857142Y-131664041D01*
X144857142Y-131664041D02*
X144928571Y-131521184D01*
X144928571Y-131521184D02*
X145000000Y-131449756D01*
X145000000Y-131449756D02*
X145142857Y-131378327D01*
X146571428Y-131378327D02*
X146714285Y-131378327D01*
X146714285Y-131378327D02*
X146857142Y-131449756D01*
X146857142Y-131449756D02*
X146928571Y-131521184D01*
X146928571Y-131521184D02*
X146999999Y-131664041D01*
X146999999Y-131664041D02*
X147071428Y-131949756D01*
X147071428Y-131949756D02*
X147071428Y-132306899D01*
X147071428Y-132306899D02*
X146999999Y-132592613D01*
X146999999Y-132592613D02*
X146928571Y-132735470D01*
X146928571Y-132735470D02*
X146857142Y-132806899D01*
X146857142Y-132806899D02*
X146714285Y-132878327D01*
X146714285Y-132878327D02*
X146571428Y-132878327D01*
X146571428Y-132878327D02*
X146428571Y-132806899D01*
X146428571Y-132806899D02*
X146357142Y-132735470D01*
X146357142Y-132735470D02*
X146285713Y-132592613D01*
X146285713Y-132592613D02*
X146214285Y-132306899D01*
X146214285Y-132306899D02*
X146214285Y-131949756D01*
X146214285Y-131949756D02*
X146285713Y-131664041D01*
X146285713Y-131664041D02*
X146357142Y-131521184D01*
X146357142Y-131521184D02*
X146428571Y-131449756D01*
X146428571Y-131449756D02*
X146571428Y-131378327D01*
X147999999Y-131378327D02*
X148142856Y-131378327D01*
X148142856Y-131378327D02*
X148285713Y-131449756D01*
X148285713Y-131449756D02*
X148357142Y-131521184D01*
X148357142Y-131521184D02*
X148428570Y-131664041D01*
X148428570Y-131664041D02*
X148499999Y-131949756D01*
X148499999Y-131949756D02*
X148499999Y-132306899D01*
X148499999Y-132306899D02*
X148428570Y-132592613D01*
X148428570Y-132592613D02*
X148357142Y-132735470D01*
X148357142Y-132735470D02*
X148285713Y-132806899D01*
X148285713Y-132806899D02*
X148142856Y-132878327D01*
X148142856Y-132878327D02*
X147999999Y-132878327D01*
X147999999Y-132878327D02*
X147857142Y-132806899D01*
X147857142Y-132806899D02*
X147785713Y-132735470D01*
X147785713Y-132735470D02*
X147714284Y-132592613D01*
X147714284Y-132592613D02*
X147642856Y-132306899D01*
X147642856Y-132306899D02*
X147642856Y-131949756D01*
X147642856Y-131949756D02*
X147714284Y-131664041D01*
X147714284Y-131664041D02*
X147785713Y-131521184D01*
X147785713Y-131521184D02*
X147857142Y-131449756D01*
X147857142Y-131449756D02*
X147999999Y-131378327D01*
X150285712Y-132878327D02*
X150285712Y-131878327D01*
X150285712Y-132021184D02*
X150357141Y-131949756D01*
X150357141Y-131949756D02*
X150499998Y-131878327D01*
X150499998Y-131878327D02*
X150714284Y-131878327D01*
X150714284Y-131878327D02*
X150857141Y-131949756D01*
X150857141Y-131949756D02*
X150928570Y-132092613D01*
X150928570Y-132092613D02*
X150928570Y-132878327D01*
X150928570Y-132092613D02*
X150999998Y-131949756D01*
X150999998Y-131949756D02*
X151142855Y-131878327D01*
X151142855Y-131878327D02*
X151357141Y-131878327D01*
X151357141Y-131878327D02*
X151499998Y-131949756D01*
X151499998Y-131949756D02*
X151571427Y-132092613D01*
X151571427Y-132092613D02*
X151571427Y-132878327D01*
X152285712Y-132878327D02*
X152285712Y-131878327D01*
X152285712Y-132021184D02*
X152357141Y-131949756D01*
X152357141Y-131949756D02*
X152499998Y-131878327D01*
X152499998Y-131878327D02*
X152714284Y-131878327D01*
X152714284Y-131878327D02*
X152857141Y-131949756D01*
X152857141Y-131949756D02*
X152928570Y-132092613D01*
X152928570Y-132092613D02*
X152928570Y-132878327D01*
X152928570Y-132092613D02*
X152999998Y-131949756D01*
X152999998Y-131949756D02*
X153142855Y-131878327D01*
X153142855Y-131878327D02*
X153357141Y-131878327D01*
X153357141Y-131878327D02*
X153499998Y-131949756D01*
X153499998Y-131949756D02*
X153571427Y-132092613D01*
X153571427Y-132092613D02*
X153571427Y-132878327D01*
D12*
X17000000Y-130500000D02*
X17000000Y-134586419D01*
X275000000Y-130500000D02*
X275000000Y-134586419D01*
X17000000Y-133999999D02*
X275000000Y-133999999D01*
X17000000Y-133999999D02*
X275000000Y-133999999D01*
X17000000Y-133999999D02*
X18126504Y-133413578D01*
X17000000Y-133999999D02*
X18126504Y-134586420D01*
X275000000Y-133999999D02*
X273873496Y-134586420D01*
X275000000Y-133999999D02*
X273873496Y-133413578D01*
X17000000Y-18000000D02*
X275000000Y-18000000D01*
X275000000Y-130000000D01*
X17000000Y-130000000D01*
X17000000Y-18000000D01*
D13*
%TO.P,D7,1,K*%
%TO.N,Net-(D7-K)*%
X187838000Y-31074000D03*
D14*
%TO.P,D7,2,A*%
%TO.N,/A6*%
X187838000Y-41234000D03*
%TD*%
D15*
%TO.P,R73,1*%
%TO.N,/D22*%
X224260000Y-76785000D03*
D16*
%TO.P,R73,2*%
%TO.N,Net-(R73-Pad2)*%
X214100000Y-76785000D03*
%TD*%
D15*
%TO.P,R47,1*%
%TO.N,+5V*%
X78000000Y-30920000D03*
D16*
%TO.P,R47,2*%
%TO.N,/D53*%
X78000000Y-41080000D03*
%TD*%
D15*
%TO.P,R32,1*%
%TO.N,Net-(D16-K)*%
X224950000Y-45840000D03*
D16*
%TO.P,R32,2*%
%TO.N,GND1*%
X224950000Y-56000000D03*
%TD*%
D15*
%TO.P,R86,1*%
%TO.N,/D31*%
X65000000Y-105845000D03*
D16*
%TO.P,R86,2*%
%TO.N,Net-(R86-Pad2)*%
X54840000Y-105845000D03*
%TD*%
D15*
%TO.P,R56,1*%
%TO.N,Net-(J5-Pin_5)*%
X243800000Y-64485000D03*
D16*
%TO.P,R56,2*%
%TO.N,Net-(J5-Pin_4)*%
X233640000Y-64485000D03*
%TD*%
D15*
%TO.P,R49,1*%
%TO.N,/D2*%
X269560000Y-63635000D03*
D16*
%TO.P,R49,2*%
%TO.N,Net-(R49-Pad2)*%
X259400000Y-63635000D03*
%TD*%
D13*
%TO.P,D6,1,K*%
%TO.N,Net-(D6-K)*%
X200838000Y-31074000D03*
D14*
%TO.P,D6,2,A*%
%TO.N,/A5*%
X200838000Y-41234000D03*
%TD*%
D15*
%TO.P,R107,1*%
%TO.N,Net-(J17-Pin_2)*%
X39000000Y-54900000D03*
D16*
%TO.P,R107,2*%
%TO.N,Net-(J17-Pin_1)*%
X28840000Y-54900000D03*
%TD*%
D15*
%TO.P,R106,1*%
%TO.N,Net-(J16-Pin_5)*%
X39000000Y-58950000D03*
D16*
%TO.P,R106,2*%
%TO.N,Net-(J16-Pin_4)*%
X28840000Y-58950000D03*
%TD*%
D15*
%TO.P,R48,1*%
%TO.N,Net-(D24-K)*%
X70050000Y-30920000D03*
D16*
%TO.P,R48,2*%
%TO.N,GND1*%
X70050000Y-41080000D03*
%TD*%
D15*
%TO.P,R55,1*%
%TO.N,Net-(J5-Pin_2)*%
X243800000Y-68535000D03*
D16*
%TO.P,R55,2*%
%TO.N,Net-(J5-Pin_1)*%
X233640000Y-68535000D03*
%TD*%
D15*
%TO.P,R25,1*%
%TO.N,+5V*%
X269000000Y-45840000D03*
D16*
%TO.P,R25,2*%
%TO.N,/D42*%
X269000000Y-56000000D03*
%TD*%
D15*
%TO.P,R31,1*%
%TO.N,+5V*%
X232900000Y-45840000D03*
D16*
%TO.P,R31,2*%
%TO.N,/D45*%
X232900000Y-56000000D03*
%TD*%
D15*
%TO.P,R98,1*%
%TO.N,/D35*%
X66080000Y-58950000D03*
D16*
%TO.P,R98,2*%
%TO.N,Net-(R98-Pad2)*%
X55920000Y-58950000D03*
%TD*%
D17*
%TO.P,U4,1*%
%TO.N,Net-(R73-Pad2)*%
X209800000Y-78875000D03*
D16*
%TO.P,U4,2*%
%TO.N,GND*%
X209800000Y-76335000D03*
%TO.P,U4,3*%
%TO.N,Net-(R74-Pad2)*%
X209800000Y-73795000D03*
%TO.P,U4,4*%
%TO.N,GND*%
X209800000Y-71255000D03*
%TO.P,U4,5*%
%TO.N,Net-(R75-Pad2)*%
X209800000Y-68715000D03*
%TO.P,U4,6*%
%TO.N,GND*%
X209800000Y-66175000D03*
%TO.P,U4,7*%
%TO.N,Net-(R76-Pad2)*%
X209800000Y-63635000D03*
%TO.P,U4,8*%
%TO.N,GND*%
X209800000Y-61095000D03*
%TO.P,U4,9*%
%TO.N,Net-(J11-Pin_6)*%
X202180000Y-61095000D03*
%TO.P,U4,10*%
%TO.N,Net-(J11-Pin_5)*%
X202180000Y-63635000D03*
%TO.P,U4,11*%
%TO.N,Net-(J11-Pin_3)*%
X202180000Y-66175000D03*
%TO.P,U4,12*%
%TO.N,Net-(J11-Pin_2)*%
X202180000Y-68715000D03*
%TO.P,U4,13*%
%TO.N,Net-(J10-Pin_6)*%
X202180000Y-71255000D03*
%TO.P,U4,14*%
%TO.N,Net-(J10-Pin_5)*%
X202180000Y-73795000D03*
%TO.P,U4,15*%
%TO.N,Net-(J10-Pin_3)*%
X202180000Y-76335000D03*
%TO.P,U4,16*%
%TO.N,Net-(J10-Pin_2)*%
X202180000Y-78875000D03*
%TD*%
D15*
%TO.P,R90,1*%
%TO.N,Net-(J12-Pin_5)*%
X40000000Y-82465000D03*
D16*
%TO.P,R90,2*%
%TO.N,Net-(J12-Pin_4)*%
X29840000Y-82465000D03*
%TD*%
D15*
%TO.P,R80,1*%
%TO.N,Net-(J11-Pin_5)*%
X197880000Y-64635000D03*
D16*
%TO.P,R80,2*%
%TO.N,Net-(J11-Pin_4)*%
X187720000Y-64635000D03*
%TD*%
D18*
%TO.P,J8,1,Pin_1*%
%TO.N,Net-(J8-Pin_1)*%
X230500000Y-109000000D03*
D19*
%TO.P,J8,2,Pin_2*%
%TO.N,Net-(J8-Pin_2)*%
X234000000Y-109000000D03*
%TO.P,J8,3,Pin_3*%
%TO.N,Net-(J8-Pin_3)*%
X237500000Y-109000000D03*
%TO.P,J8,4,Pin_4*%
%TO.N,Net-(J8-Pin_4)*%
X241000000Y-109000000D03*
%TO.P,J8,5,Pin_5*%
%TO.N,Net-(J8-Pin_5)*%
X244500000Y-109000000D03*
%TO.P,J8,6,Pin_6*%
%TO.N,Net-(J8-Pin_6)*%
X248000000Y-109000000D03*
%TD*%
D15*
%TO.P,R87,1*%
%TO.N,/D32*%
X65000000Y-101795000D03*
D16*
%TO.P,R87,2*%
%TO.N,Net-(R87-Pad2)*%
X54840000Y-101795000D03*
%TD*%
D15*
%TO.P,R108,1*%
%TO.N,Net-(J17-Pin_5)*%
X39000000Y-50850000D03*
D16*
%TO.P,R108,2*%
%TO.N,Net-(J17-Pin_4)*%
X28840000Y-50850000D03*
%TD*%
D15*
%TO.P,R40,1*%
%TO.N,Net-(D20-K)*%
X173950000Y-45840000D03*
D16*
%TO.P,R40,2*%
%TO.N,GND1*%
X173950000Y-56000000D03*
%TD*%
D18*
%TO.P,J19,1,Pin_1*%
%TO.N,Net-(J19-Pin_1)*%
X70000000Y-122000000D03*
D19*
%TO.P,J19,2,Pin_2*%
%TO.N,Net-(J19-Pin_2)*%
X73500000Y-122000000D03*
%TO.P,J19,3,Pin_3*%
%TO.N,Net-(J19-Pin_3)*%
X77000000Y-122000000D03*
%TO.P,J19,4,Pin_4*%
%TO.N,Net-(J19-Pin_4)*%
X80500000Y-122000000D03*
%TO.P,J19,5,Pin_5*%
%TO.N,Net-(J19-Pin_5)*%
X84000000Y-122000000D03*
%TO.P,J19,6,Pin_6*%
%TO.N,Net-(J19-Pin_6)*%
X87500000Y-122000000D03*
%TD*%
D13*
%TO.P,D9,1,K*%
%TO.N,Net-(D9-K)*%
X162838000Y-31074000D03*
D14*
%TO.P,D9,2,A*%
%TO.N,/A8*%
X162838000Y-41234000D03*
%TD*%
D15*
%TO.P,R72,1*%
%TO.N,Net-(J9-Pin_5)*%
X242560000Y-84715000D03*
D16*
%TO.P,R72,2*%
%TO.N,Net-(J9-Pin_4)*%
X232400000Y-84715000D03*
%TD*%
D15*
%TO.P,R54,1*%
%TO.N,Net-(J4-Pin_5)*%
X243800000Y-72585000D03*
D16*
%TO.P,R54,2*%
%TO.N,Net-(J4-Pin_4)*%
X233640000Y-72585000D03*
%TD*%
D18*
%TO.P,J22,1,Pin_1*%
%TO.N,Net-(A1-D21{slash}SCL)*%
X257500000Y-109000000D03*
D19*
%TO.P,J22,2,Pin_2*%
%TO.N,Net-(A1-D20{slash}SDA)*%
X261000000Y-109000000D03*
%TD*%
D15*
%TO.P,R24,1*%
%TO.N,Net-(D12-K)*%
X120838000Y-31074000D03*
D16*
%TO.P,R24,2*%
%TO.N,GND1*%
X120838000Y-41234000D03*
%TD*%
D15*
%TO.P,R6,1*%
%TO.N,Net-(D3-K)*%
X233838000Y-30920000D03*
D16*
%TO.P,R6,2*%
%TO.N,GND1*%
X233838000Y-41080000D03*
%TD*%
D15*
%TO.P,R11,1*%
%TO.N,+5V*%
X204788000Y-30920000D03*
D16*
%TO.P,R11,2*%
%TO.N,/A5*%
X204788000Y-41080000D03*
%TD*%
D15*
%TO.P,R3,1*%
%TO.N,+5V*%
X253288000Y-30920000D03*
D16*
%TO.P,R3,2*%
%TO.N,/A1*%
X253288000Y-41080000D03*
%TD*%
D15*
%TO.P,R35,1*%
%TO.N,+5V*%
X207900000Y-45840000D03*
D16*
%TO.P,R35,2*%
%TO.N,/D47*%
X207900000Y-56000000D03*
%TD*%
D15*
%TO.P,R103,1*%
%TO.N,/D40*%
X64920000Y-31770000D03*
D16*
%TO.P,R103,2*%
%TO.N,Net-(R103-Pad2)*%
X54760000Y-31770000D03*
%TD*%
D15*
%TO.P,R51,1*%
%TO.N,/D4*%
X269560000Y-72075000D03*
D16*
%TO.P,R51,2*%
%TO.N,Net-(R51-Pad2)*%
X259400000Y-72075000D03*
%TD*%
D15*
%TO.P,R74,1*%
%TO.N,/D23*%
X224260000Y-72735000D03*
D16*
%TO.P,R74,2*%
%TO.N,Net-(R74-Pad2)*%
X214100000Y-72735000D03*
%TD*%
D18*
%TO.P,J21,1,Pin_1*%
%TO.N,Net-(A1-D16{slash}TX2)*%
X266000000Y-122000000D03*
D19*
%TO.P,J21,2,Pin_2*%
%TO.N,Net-(A1-D17{slash}RX2)*%
X262500000Y-122000000D03*
%TD*%
D18*
%TO.P,J13,1,Pin_1*%
%TO.N,Net-(J13-Pin_1)*%
X163500000Y-122000000D03*
D19*
%TO.P,J13,2,Pin_2*%
%TO.N,Net-(J13-Pin_2)*%
X167000000Y-122000000D03*
%TO.P,J13,3,Pin_3*%
%TO.N,Net-(J13-Pin_3)*%
X170500000Y-122000000D03*
%TO.P,J13,4,Pin_4*%
%TO.N,Net-(J13-Pin_4)*%
X174000000Y-122000000D03*
%TO.P,J13,5,Pin_5*%
%TO.N,Net-(J13-Pin_5)*%
X177500000Y-122000000D03*
%TO.P,J13,6,Pin_6*%
%TO.N,Net-(J13-Pin_6)*%
X181000000Y-122000000D03*
%TD*%
D13*
%TO.P,D19,1,K*%
%TO.N,Net-(D19-K)*%
X190950000Y-45920000D03*
D14*
%TO.P,D19,2,A*%
%TO.N,/D48*%
X190950000Y-56080000D03*
%TD*%
D13*
%TO.P,D4,1,K*%
%TO.N,Net-(D4-K)*%
X225838000Y-31074000D03*
D14*
%TO.P,D4,2,A*%
%TO.N,/A3*%
X225838000Y-41234000D03*
%TD*%
D15*
%TO.P,R50,1*%
%TO.N,/D3*%
X269560000Y-67635000D03*
D16*
%TO.P,R50,2*%
%TO.N,Net-(R50-Pad2)*%
X259400000Y-67635000D03*
%TD*%
D15*
%TO.P,R44,1*%
%TO.N,Net-(D22-K)*%
X95050000Y-30920000D03*
D16*
%TO.P,R44,2*%
%TO.N,GND1*%
X95050000Y-41080000D03*
%TD*%
D15*
%TO.P,R19,1*%
%TO.N,+5V*%
X153788000Y-31074000D03*
D16*
%TO.P,R19,2*%
%TO.N,/A9*%
X153788000Y-41234000D03*
%TD*%
D15*
%TO.P,R58,1*%
%TO.N,/D7*%
X224720000Y-88715000D03*
D16*
%TO.P,R58,2*%
%TO.N,Net-(R58-Pad2)*%
X214560000Y-88715000D03*
%TD*%
D18*
%TO.P,J5,1,Pin_1*%
%TO.N,Net-(J5-Pin_1)*%
X116500000Y-109000000D03*
D19*
%TO.P,J5,2,Pin_2*%
%TO.N,Net-(J5-Pin_2)*%
X120000000Y-109000000D03*
%TO.P,J5,3,Pin_3*%
%TO.N,Net-(J5-Pin_3)*%
X123500000Y-109000000D03*
%TO.P,J5,4,Pin_4*%
%TO.N,Net-(J5-Pin_4)*%
X127000000Y-109000000D03*
%TO.P,J5,5,Pin_5*%
%TO.N,Net-(J5-Pin_5)*%
X130500000Y-109000000D03*
%TO.P,J5,6,Pin_6*%
%TO.N,Net-(J5-Pin_6)*%
X134000000Y-109000000D03*
%TD*%
D15*
%TO.P,R76,1*%
%TO.N,/D25*%
X224260000Y-64635000D03*
D16*
%TO.P,R76,2*%
%TO.N,Net-(R76-Pad2)*%
X214100000Y-64635000D03*
%TD*%
D15*
%TO.P,R42,1*%
%TO.N,Net-(D21-K)*%
X107050000Y-30920000D03*
D16*
%TO.P,R42,2*%
%TO.N,GND1*%
X107050000Y-41080000D03*
%TD*%
D13*
%TO.P,D21,1,K*%
%TO.N,Net-(D21-K)*%
X112050000Y-31000000D03*
D14*
%TO.P,D21,2,A*%
%TO.N,/D50*%
X112050000Y-41160000D03*
%TD*%
D13*
%TO.P,D3,1,K*%
%TO.N,Net-(D3-K)*%
X237838000Y-31074000D03*
D14*
%TO.P,D3,2,A*%
%TO.N,/A2*%
X237838000Y-41234000D03*
%TD*%
D13*
%TO.P,D12,1,K*%
%TO.N,Net-(D12-K)*%
X124838000Y-31074000D03*
D14*
%TO.P,D12,2,A*%
%TO.N,/A11*%
X124838000Y-41234000D03*
%TD*%
D18*
%TO.P,J4,1,Pin_1*%
%TO.N,Net-(J4-Pin_1)*%
X139000000Y-109000000D03*
D19*
%TO.P,J4,2,Pin_2*%
%TO.N,Net-(J4-Pin_2)*%
X142500000Y-109000000D03*
%TO.P,J4,3,Pin_3*%
%TO.N,Net-(J4-Pin_3)*%
X146000000Y-109000000D03*
%TO.P,J4,4,Pin_4*%
%TO.N,Net-(J4-Pin_4)*%
X149500000Y-109000000D03*
%TO.P,J4,5,Pin_5*%
%TO.N,Net-(J4-Pin_5)*%
X153000000Y-109000000D03*
%TO.P,J4,6,Pin_6*%
%TO.N,Net-(J4-Pin_6)*%
X156500000Y-109000000D03*
%TD*%
D15*
%TO.P,R46,1*%
%TO.N,Net-(D23-K)*%
X82050000Y-30920000D03*
D16*
%TO.P,R46,2*%
%TO.N,GND1*%
X82050000Y-41080000D03*
%TD*%
D13*
%TO.P,D22,1,K*%
%TO.N,Net-(D22-K)*%
X99050000Y-31000000D03*
D14*
%TO.P,D22,2,A*%
%TO.N,/D51*%
X99050000Y-41160000D03*
%TD*%
D15*
%TO.P,R96,1*%
%TO.N,Net-(J15-Pin_5)*%
X39000000Y-97745000D03*
D16*
%TO.P,R96,2*%
%TO.N,Net-(J15-Pin_4)*%
X28840000Y-97745000D03*
%TD*%
D15*
%TO.P,R89,1*%
%TO.N,Net-(J12-Pin_2)*%
X40000000Y-86515000D03*
D16*
%TO.P,R89,2*%
%TO.N,Net-(J12-Pin_1)*%
X29840000Y-86515000D03*
%TD*%
D15*
%TO.P,R71,1*%
%TO.N,Net-(J9-Pin_2)*%
X242560000Y-88765000D03*
D16*
%TO.P,R71,2*%
%TO.N,Net-(J9-Pin_1)*%
X232400000Y-88765000D03*
%TD*%
D18*
%TO.P,J3,1,Pin_1*%
%TO.N,Net-(D24-K)*%
X99272000Y-23000000D03*
D19*
%TO.P,J3,2,Pin_2*%
%TO.N,Net-(D23-K)*%
X102772000Y-23000000D03*
%TO.P,J3,3,Pin_3*%
%TO.N,Net-(D22-K)*%
X106272000Y-23000000D03*
%TO.P,J3,4,Pin_4*%
%TO.N,Net-(D21-K)*%
X109772000Y-23000000D03*
%TO.P,J3,5,Pin_5*%
%TO.N,Net-(D20-K)*%
X113272000Y-23000000D03*
%TO.P,J3,6,Pin_6*%
%TO.N,Net-(D19-K)*%
X116772000Y-23000000D03*
%TO.P,J3,7,Pin_7*%
%TO.N,Net-(D18-K)*%
X120272000Y-23000000D03*
%TO.P,J3,8,Pin_8*%
%TO.N,Net-(D17-K)*%
X123772000Y-23000000D03*
%TD*%
D15*
%TO.P,R14,1*%
%TO.N,Net-(D7-K)*%
X183838000Y-30920000D03*
D16*
%TO.P,R14,2*%
%TO.N,GND1*%
X183838000Y-41080000D03*
%TD*%
D18*
%TO.P,J12,1,Pin_1*%
%TO.N,Net-(J12-Pin_1)*%
X185500000Y-122000000D03*
D19*
%TO.P,J12,2,Pin_2*%
%TO.N,Net-(J12-Pin_2)*%
X189000000Y-122000000D03*
%TO.P,J12,3,Pin_3*%
%TO.N,Net-(J12-Pin_3)*%
X192500000Y-122000000D03*
%TO.P,J12,4,Pin_4*%
%TO.N,Net-(J12-Pin_4)*%
X196000000Y-122000000D03*
%TO.P,J12,5,Pin_5*%
%TO.N,Net-(J12-Pin_5)*%
X199500000Y-122000000D03*
%TO.P,J12,6,Pin_6*%
%TO.N,Net-(J12-Pin_6)*%
X203000000Y-122000000D03*
%TD*%
D20*
%TO.P,A1,*%
%TO.N,*%
X141687000Y-50140000D03*
%TO.P,A1,3V3,3.3V*%
%TO.N,unconnected-(A1-3.3V-Pad3V3)*%
X134067000Y-50140000D03*
%TO.P,A1,5V1,5V*%
%TO.N,+5V*%
X131527000Y-50140000D03*
%TO.P,A1,5V2,SPI_5V*%
%TO.N,unconnected-(A1-SPI_5V-Pad5V2)*%
X103460000Y-78080000D03*
%TO.P,A1,5V3,5V*%
%TO.N,unconnected-(A1-5V-Pad5V3)*%
X75647000Y-98400000D03*
%TO.P,A1,5V4,5V*%
%TO.N,unconnected-(A1-5V-Pad5V4)*%
X73107000Y-98400000D03*
%TO.P,A1,A0,A0*%
%TO.N,/A0*%
X118827000Y-50140000D03*
%TO.P,A1,A1,A1*%
%TO.N,/A1*%
X116287000Y-50140000D03*
%TO.P,A1,A2,A2*%
%TO.N,/A2*%
X113747000Y-50140000D03*
%TO.P,A1,A3,A3*%
%TO.N,/A3*%
X111207000Y-50140000D03*
%TO.P,A1,A4,A4*%
%TO.N,/A4*%
X108667000Y-50140000D03*
%TO.P,A1,A5,A5*%
%TO.N,/A5*%
X106127000Y-50140000D03*
%TO.P,A1,A6,A6*%
%TO.N,/A6*%
X103587000Y-50140000D03*
%TO.P,A1,A7,A7*%
%TO.N,/A7*%
X101047000Y-50140000D03*
%TO.P,A1,A8,A8*%
%TO.N,/A8*%
X95967000Y-50140000D03*
%TO.P,A1,A9,A9*%
%TO.N,/A9*%
X93427000Y-50140000D03*
%TO.P,A1,A10,A10*%
%TO.N,/A10*%
X90887000Y-50140000D03*
%TO.P,A1,A11,A11*%
%TO.N,/A11*%
X88347000Y-50140000D03*
%TO.P,A1,A12,A12*%
%TO.N,unconnected-(A1-PadA12)*%
X85807000Y-50140000D03*
%TO.P,A1,A13,A13*%
%TO.N,unconnected-(A1-PadA13)*%
X83267000Y-50140000D03*
%TO.P,A1,A14,A14*%
%TO.N,unconnected-(A1-PadA14)*%
X80727000Y-50140000D03*
%TO.P,A1,A15,A15*%
%TO.N,unconnected-(A1-PadA15)*%
X78187000Y-50140000D03*
%TO.P,A1,AREF,AREF*%
%TO.N,unconnected-(A1-PadAREF)*%
X145751000Y-98400000D03*
%TO.P,A1,D0,D0/RX0*%
%TO.N,unconnected-(A1-D0{slash}RX0-PadD0)*%
X106127000Y-98400000D03*
%TO.P,A1,D1,D1/TX0*%
%TO.N,unconnected-(A1-D1{slash}TX0-PadD1)*%
X108667000Y-98400000D03*
%TO.P,A1,D2,D2_INT0*%
%TO.N,/D2*%
X111207000Y-98400000D03*
%TO.P,A1,D3,D3_INT1*%
%TO.N,/D3*%
X113747000Y-98400000D03*
%TO.P,A1,D4,D4*%
%TO.N,/D4*%
X116287000Y-98400000D03*
%TO.P,A1,D5,D5*%
%TO.N,/D5*%
X118827000Y-98400000D03*
%TO.P,A1,D6,D6*%
%TO.N,/D6*%
X121367000Y-98400000D03*
%TO.P,A1,D7,D7*%
%TO.N,/D7*%
X123907000Y-98400000D03*
%TO.P,A1,D8,D8*%
%TO.N,/D8*%
X127971000Y-98400000D03*
%TO.P,A1,D9,D9*%
%TO.N,/D9*%
X130511000Y-98400000D03*
%TO.P,A1,D10,D10*%
%TO.N,/D10*%
X133051000Y-98400000D03*
%TO.P,A1,D11,D11*%
%TO.N,/D11*%
X135591000Y-98400000D03*
%TO.P,A1,D12,D12*%
%TO.N,/D12*%
X138131000Y-98400000D03*
%TO.P,A1,D13,D13*%
%TO.N,/D13*%
X140671000Y-98400000D03*
%TO.P,A1,D14,D14/TX3*%
%TO.N,unconnected-(A1-D14{slash}TX3-PadD14)*%
X101047000Y-98400000D03*
%TO.P,A1,D15,D15/RX3*%
%TO.N,unconnected-(A1-D15{slash}RX3-PadD15)*%
X98507000Y-98400000D03*
%TO.P,A1,D16,D16/TX2*%
%TO.N,Net-(A1-D16{slash}TX2)*%
X95967000Y-98400000D03*
%TO.P,A1,D17,D17/RX2*%
%TO.N,Net-(A1-D17{slash}RX2)*%
X93427000Y-98400000D03*
%TO.P,A1,D18,D18/TX1*%
%TO.N,Net-(A1-D18{slash}TX1)*%
X90887000Y-98400000D03*
%TO.P,A1,D19,D19/RX1*%
%TO.N,Net-(A1-D19{slash}RX1)*%
X88347000Y-98400000D03*
%TO.P,A1,D20,D20/SDA*%
%TO.N,Net-(A1-D20{slash}SDA)*%
X85807000Y-98400000D03*
%TO.P,A1,D21,D21/SCL*%
%TO.N,Net-(A1-D21{slash}SCL)*%
X83267000Y-98400000D03*
%TO.P,A1,D22,D22*%
%TO.N,/D22*%
X75647000Y-95860000D03*
%TO.P,A1,D23,D23*%
%TO.N,/D23*%
X73107000Y-95860000D03*
%TO.P,A1,D24,D24*%
%TO.N,/D24*%
X75647000Y-93320000D03*
%TO.P,A1,D25,D25*%
%TO.N,/D25*%
X73107000Y-93320000D03*
%TO.P,A1,D26,D26*%
%TO.N,/D26*%
X75647000Y-90780000D03*
%TO.P,A1,D27,D27*%
%TO.N,/D27*%
X73107000Y-90780000D03*
%TO.P,A1,D28,D28*%
%TO.N,/D28*%
X75647000Y-88240000D03*
%TO.P,A1,D29,D29*%
%TO.N,/D29*%
X73107000Y-88240000D03*
%TO.P,A1,D30,D30*%
%TO.N,/D30*%
X75647000Y-85700000D03*
%TO.P,A1,D31,D31*%
%TO.N,/D31*%
X73107000Y-85700000D03*
%TO.P,A1,D32,D32*%
%TO.N,/D32*%
X75647000Y-83160000D03*
%TO.P,A1,D33,D33*%
%TO.N,/D33*%
X73107000Y-83160000D03*
%TO.P,A1,D34,D34*%
%TO.N,/D34*%
X75647000Y-80620000D03*
%TO.P,A1,D35,D35*%
%TO.N,/D35*%
X73107000Y-80620000D03*
%TO.P,A1,D36,D36*%
%TO.N,/D36*%
X75647000Y-78080000D03*
%TO.P,A1,D37,D37*%
%TO.N,/D37*%
X73107000Y-78080000D03*
%TO.P,A1,D38,D38*%
%TO.N,/D38*%
X75647000Y-75540000D03*
%TO.P,A1,D39,D39*%
%TO.N,/D39*%
X73107000Y-75540000D03*
%TO.P,A1,D40,D40*%
%TO.N,/D40*%
X75647000Y-73000000D03*
%TO.P,A1,D41,D41*%
%TO.N,/D41*%
X73107000Y-73000000D03*
%TO.P,A1,D42,D42*%
%TO.N,/D42*%
X75647000Y-70460000D03*
%TO.P,A1,D43,D43*%
%TO.N,/D43*%
X73107000Y-70460000D03*
%TO.P,A1,D44,D44*%
%TO.N,/D44*%
X75647000Y-67920000D03*
%TO.P,A1,D45,D45*%
%TO.N,/D45*%
X73107000Y-67920000D03*
%TO.P,A1,D46,D46*%
%TO.N,/D46*%
X75647000Y-65380000D03*
%TO.P,A1,D47,D47*%
%TO.N,/D47*%
X73107000Y-65380000D03*
%TO.P,A1,D48,D48*%
%TO.N,/D48*%
X75647000Y-62840000D03*
%TO.P,A1,D49,D49*%
%TO.N,/D49*%
X73107000Y-62840000D03*
%TO.P,A1,D50,D50_MISO*%
%TO.N,/D50*%
X75647000Y-60300000D03*
%TO.P,A1,D51,D51_MOSI*%
%TO.N,/D51*%
X73107000Y-60300000D03*
%TO.P,A1,D52,D52_SCK*%
%TO.N,/D52*%
X75647000Y-57760000D03*
%TO.P,A1,D53,D53_CS*%
%TO.N,/D53*%
X73107000Y-57760000D03*
D21*
%TO.P,A1,GND1,GND*%
%TO.N,GND*%
X143211000Y-98400000D03*
%TO.P,A1,GND2,GND*%
%TO.N,GND1*%
X128987000Y-50140000D03*
%TO.P,A1,GND3,GND*%
%TO.N,unconnected-(A1-GND-PadGND3)*%
X126447000Y-50140000D03*
%TO.P,A1,GND4,SPI_GND*%
%TO.N,unconnected-(A1-SPI_GND-PadGND4)*%
X103460000Y-73000000D03*
%TO.P,A1,GND5,GND*%
%TO.N,unconnected-(A1-GND-PadGND5)*%
X75647000Y-55220000D03*
%TO.P,A1,GND6,GND*%
%TO.N,unconnected-(A1-GND-PadGND6)*%
X73107000Y-55220000D03*
D20*
%TO.P,A1,IORF,IOREF*%
%TO.N,unconnected-(A1-IOREF-PadIORF)*%
X139147000Y-50140000D03*
%TO.P,A1,MISO,SPI_MISO*%
%TO.N,unconnected-(A1-SPI_MISO-PadMISO)*%
X106000000Y-78080000D03*
%TO.P,A1,MOSI,SPI_MOSI*%
%TO.N,unconnected-(A1-SPI_MOSI-PadMOSI)*%
X103460000Y-75540000D03*
%TO.P,A1,RST1,RESET*%
%TO.N,unconnected-(A1-RESET-PadRST1)*%
X136607000Y-50140000D03*
%TO.P,A1,RST2,SPI_RESET*%
%TO.N,unconnected-(A1-SPI_RESET-PadRST2)*%
X106000000Y-73000000D03*
%TO.P,A1,SCK,SPI_SCK*%
%TO.N,unconnected-(A1-SPI_SCK-PadSCK)*%
X106000000Y-75540000D03*
%TO.P,A1,SCL,SCL*%
%TO.N,unconnected-(A1-PadSCL)*%
X150831000Y-98400000D03*
%TO.P,A1,SDA,SDA*%
%TO.N,unconnected-(A1-PadSDA)*%
X148291000Y-98400000D03*
%TO.P,A1,VIN,VIN*%
%TO.N,unconnected-(A1-PadVIN)*%
X123907000Y-50140000D03*
%TD*%
D15*
%TO.P,R100,1*%
%TO.N,/D37*%
X66080000Y-50850000D03*
D16*
%TO.P,R100,2*%
%TO.N,Net-(R100-Pad2)*%
X55920000Y-50850000D03*
%TD*%
D15*
%TO.P,R13,1*%
%TO.N,+5V*%
X192788000Y-30920000D03*
D16*
%TO.P,R13,2*%
%TO.N,/A6*%
X192788000Y-41080000D03*
%TD*%
D13*
%TO.P,D2,1,K*%
%TO.N,Net-(D2-K)*%
X249838000Y-31074000D03*
D14*
%TO.P,D2,2,A*%
%TO.N,/A1*%
X249838000Y-41234000D03*
%TD*%
D15*
%TO.P,R43,1*%
%TO.N,+5V*%
X103000000Y-30920000D03*
D16*
%TO.P,R43,2*%
%TO.N,/D51*%
X103000000Y-41080000D03*
%TD*%
D15*
%TO.P,R18,1*%
%TO.N,Net-(D9-K)*%
X157838000Y-31074000D03*
D16*
%TO.P,R18,2*%
%TO.N,GND1*%
X157838000Y-41234000D03*
%TD*%
D15*
%TO.P,R38,1*%
%TO.N,Net-(D19-K)*%
X185950000Y-45840000D03*
D16*
%TO.P,R38,2*%
%TO.N,GND1*%
X185950000Y-56000000D03*
%TD*%
D15*
%TO.P,R67,1*%
%TO.N,/D12*%
X268940000Y-92715000D03*
D16*
%TO.P,R67,2*%
%TO.N,Net-(R67-Pad2)*%
X258780000Y-92715000D03*
%TD*%
D15*
%TO.P,R75,1*%
%TO.N,/D24*%
X224260000Y-68685000D03*
D16*
%TO.P,R75,2*%
%TO.N,Net-(R75-Pad2)*%
X214100000Y-68685000D03*
%TD*%
D18*
%TO.P,J2,1,Pin_1*%
%TO.N,Net-(D16-K)*%
X140500000Y-23000000D03*
D19*
%TO.P,J2,2,Pin_2*%
%TO.N,Net-(D15-K)*%
X144000000Y-23000000D03*
%TO.P,J2,3,Pin_3*%
%TO.N,Net-(D14-K)*%
X147500000Y-23000000D03*
%TO.P,J2,4,Pin_4*%
%TO.N,Net-(D13-K)*%
X151000000Y-23000000D03*
%TO.P,J2,5,Pin_5*%
%TO.N,Net-(D12-K)*%
X154500000Y-23000000D03*
%TO.P,J2,6,Pin_6*%
%TO.N,Net-(D11-K)*%
X158000000Y-23000000D03*
%TO.P,J2,7,Pin_7*%
%TO.N,Net-(D10-K)*%
X161500000Y-23000000D03*
%TO.P,J2,8,Pin_8*%
%TO.N,Net-(D9-K)*%
X165000000Y-23000000D03*
%TD*%
D15*
%TO.P,R52,1*%
%TO.N,/D5*%
X269260000Y-76635000D03*
D16*
%TO.P,R52,2*%
%TO.N,Net-(R52-Pad2)*%
X259100000Y-76635000D03*
%TD*%
D15*
%TO.P,R37,1*%
%TO.N,+5V*%
X195900000Y-45840000D03*
D16*
%TO.P,R37,2*%
%TO.N,/D48*%
X195900000Y-56000000D03*
%TD*%
D15*
%TO.P,R84,1*%
%TO.N,/D29*%
X65080000Y-74365000D03*
D16*
%TO.P,R84,2*%
%TO.N,Net-(R84-Pad2)*%
X54920000Y-74365000D03*
%TD*%
D15*
%TO.P,R10,1*%
%TO.N,Net-(D5-K)*%
X208838000Y-30920000D03*
D16*
%TO.P,R10,2*%
%TO.N,GND1*%
X208838000Y-41080000D03*
%TD*%
D17*
%TO.P,U5,1*%
%TO.N,Net-(R81-Pad2)*%
X50460000Y-92145000D03*
D16*
%TO.P,U5,2*%
%TO.N,GND*%
X50460000Y-89605000D03*
%TO.P,U5,3*%
%TO.N,Net-(R82-Pad2)*%
X50460000Y-87065000D03*
%TO.P,U5,4*%
%TO.N,GND*%
X50460000Y-84525000D03*
%TO.P,U5,5*%
%TO.N,Net-(R83-Pad2)*%
X50460000Y-81985000D03*
%TO.P,U5,6*%
%TO.N,GND*%
X50460000Y-79445000D03*
%TO.P,U5,7*%
%TO.N,Net-(R84-Pad2)*%
X50460000Y-76905000D03*
%TO.P,U5,8*%
%TO.N,GND*%
X50460000Y-74365000D03*
%TO.P,U5,9*%
%TO.N,Net-(J13-Pin_6)*%
X42840000Y-74365000D03*
%TO.P,U5,10*%
%TO.N,Net-(J13-Pin_5)*%
X42840000Y-76905000D03*
%TO.P,U5,11*%
%TO.N,Net-(J13-Pin_3)*%
X42840000Y-79445000D03*
%TO.P,U5,12*%
%TO.N,Net-(J13-Pin_2)*%
X42840000Y-81985000D03*
%TO.P,U5,13*%
%TO.N,Net-(J12-Pin_6)*%
X42840000Y-84525000D03*
%TO.P,U5,14*%
%TO.N,Net-(J12-Pin_5)*%
X42840000Y-87065000D03*
%TO.P,U5,15*%
%TO.N,Net-(J12-Pin_3)*%
X42840000Y-89605000D03*
%TO.P,U5,16*%
%TO.N,Net-(J12-Pin_2)*%
X42840000Y-92145000D03*
%TD*%
D15*
%TO.P,R29,1*%
%TO.N,+5V*%
X244900000Y-45840000D03*
D16*
%TO.P,R29,2*%
%TO.N,/D44*%
X244900000Y-56000000D03*
%TD*%
D15*
%TO.P,R20,1*%
%TO.N,Net-(D10-K)*%
X145838000Y-31074000D03*
D16*
%TO.P,R20,2*%
%TO.N,GND1*%
X145838000Y-41234000D03*
%TD*%
D15*
%TO.P,R81,1*%
%TO.N,/D26*%
X65080000Y-86515000D03*
D16*
%TO.P,R81,2*%
%TO.N,Net-(R81-Pad2)*%
X54920000Y-86515000D03*
%TD*%
D18*
%TO.P,J9,1,Pin_1*%
%TO.N,Net-(J9-Pin_1)*%
X208500000Y-109000000D03*
D19*
%TO.P,J9,2,Pin_2*%
%TO.N,Net-(J9-Pin_2)*%
X212000000Y-109000000D03*
%TO.P,J9,3,Pin_3*%
%TO.N,Net-(J9-Pin_3)*%
X215500000Y-109000000D03*
%TO.P,J9,4,Pin_4*%
%TO.N,Net-(J9-Pin_4)*%
X219000000Y-109000000D03*
%TO.P,J9,5,Pin_5*%
%TO.N,Net-(J9-Pin_5)*%
X222500000Y-109000000D03*
%TO.P,J9,6,Pin_6*%
%TO.N,Net-(J9-Pin_6)*%
X226000000Y-109000000D03*
%TD*%
D15*
%TO.P,R34,1*%
%TO.N,Net-(D17-K)*%
X211950000Y-45840000D03*
D16*
%TO.P,R34,2*%
%TO.N,GND1*%
X211950000Y-56000000D03*
%TD*%
D15*
%TO.P,R85,1*%
%TO.N,/D30*%
X65000000Y-109895000D03*
D16*
%TO.P,R85,2*%
%TO.N,Net-(R85-Pad2)*%
X54840000Y-109895000D03*
%TD*%
D15*
%TO.P,R78,1*%
%TO.N,Net-(J10-Pin_5)*%
X197880000Y-72735000D03*
D16*
%TO.P,R78,2*%
%TO.N,Net-(J10-Pin_4)*%
X187720000Y-72735000D03*
%TD*%
D15*
%TO.P,R5,1*%
%TO.N,+5V*%
X241788000Y-30920000D03*
D16*
%TO.P,R5,2*%
%TO.N,/A2*%
X241788000Y-41080000D03*
%TD*%
D15*
%TO.P,R70,1*%
%TO.N,Net-(J8-Pin_5)*%
X242560000Y-92815000D03*
D16*
%TO.P,R70,2*%
%TO.N,Net-(J8-Pin_4)*%
X232400000Y-92815000D03*
%TD*%
D15*
%TO.P,R22,1*%
%TO.N,Net-(D11-K)*%
X132838000Y-31074000D03*
D16*
%TO.P,R22,2*%
%TO.N,GND1*%
X132838000Y-41234000D03*
%TD*%
D15*
%TO.P,R110,1*%
%TO.N,Net-(J18-Pin_5)*%
X38920000Y-35720000D03*
D16*
%TO.P,R110,2*%
%TO.N,Net-(J18-Pin_4)*%
X28760000Y-35720000D03*
%TD*%
D17*
%TO.P,U7,1*%
%TO.N,Net-(R97-Pad2)*%
X50840000Y-68630000D03*
D16*
%TO.P,U7,2*%
%TO.N,GND*%
X50840000Y-66090000D03*
%TO.P,U7,3*%
%TO.N,Net-(R98-Pad2)*%
X50840000Y-63550000D03*
%TO.P,U7,4*%
%TO.N,GND*%
X50840000Y-61010000D03*
%TO.P,U7,5*%
%TO.N,Net-(R99-Pad2)*%
X50840000Y-58470000D03*
%TO.P,U7,6*%
%TO.N,GND*%
X50840000Y-55930000D03*
%TO.P,U7,7*%
%TO.N,Net-(R100-Pad2)*%
X50840000Y-53390000D03*
%TO.P,U7,8*%
%TO.N,GND*%
X50840000Y-50850000D03*
%TO.P,U7,9*%
%TO.N,Net-(J17-Pin_6)*%
X43220000Y-50850000D03*
%TO.P,U7,10*%
%TO.N,Net-(J17-Pin_5)*%
X43220000Y-53390000D03*
%TO.P,U7,11*%
%TO.N,Net-(J17-Pin_3)*%
X43220000Y-55930000D03*
%TO.P,U7,12*%
%TO.N,Net-(J17-Pin_2)*%
X43220000Y-58470000D03*
%TO.P,U7,13*%
%TO.N,Net-(J16-Pin_6)*%
X43220000Y-61010000D03*
%TO.P,U7,14*%
%TO.N,Net-(J16-Pin_5)*%
X43220000Y-63550000D03*
%TO.P,U7,15*%
%TO.N,Net-(J16-Pin_3)*%
X43220000Y-66090000D03*
%TO.P,U7,16*%
%TO.N,Net-(J16-Pin_2)*%
X43220000Y-68630000D03*
%TD*%
D15*
%TO.P,R17,1*%
%TO.N,+5V*%
X166788000Y-30920000D03*
D16*
%TO.P,R17,2*%
%TO.N,/A8*%
X166788000Y-41080000D03*
%TD*%
D13*
%TO.P,D23,1,K*%
%TO.N,Net-(D23-K)*%
X87050000Y-31000000D03*
D14*
%TO.P,D23,2,A*%
%TO.N,/D52*%
X87050000Y-41160000D03*
%TD*%
D15*
%TO.P,R62,1*%
%TO.N,Net-(J6-Pin_5)*%
X197640000Y-93135000D03*
D16*
%TO.P,R62,2*%
%TO.N,Net-(J6-Pin_4)*%
X187480000Y-93135000D03*
%TD*%
D15*
%TO.P,R91,1*%
%TO.N,Net-(J13-Pin_2)*%
X40000000Y-78415000D03*
D16*
%TO.P,R91,2*%
%TO.N,Net-(J13-Pin_1)*%
X29840000Y-78415000D03*
%TD*%
D18*
%TO.P,J11,1,Pin_1*%
%TO.N,Net-(J11-Pin_1)*%
X70000000Y-109000000D03*
D19*
%TO.P,J11,2,Pin_2*%
%TO.N,Net-(J11-Pin_2)*%
X73500000Y-109000000D03*
%TO.P,J11,3,Pin_3*%
%TO.N,Net-(J11-Pin_3)*%
X77000000Y-109000000D03*
%TO.P,J11,4,Pin_4*%
%TO.N,Net-(J11-Pin_4)*%
X80500000Y-109000000D03*
%TO.P,J11,5,Pin_5*%
%TO.N,Net-(J11-Pin_5)*%
X84000000Y-109000000D03*
%TO.P,J11,6,Pin_6*%
%TO.N,Net-(J11-Pin_6)*%
X87500000Y-109000000D03*
%TD*%
D18*
%TO.P,J10,1,Pin_1*%
%TO.N,Net-(J10-Pin_1)*%
X92500000Y-109000000D03*
D19*
%TO.P,J10,2,Pin_2*%
%TO.N,Net-(J10-Pin_2)*%
X96000000Y-109000000D03*
%TO.P,J10,3,Pin_3*%
%TO.N,Net-(J10-Pin_3)*%
X99500000Y-109000000D03*
%TO.P,J10,4,Pin_4*%
%TO.N,Net-(J10-Pin_4)*%
X103000000Y-109000000D03*
%TO.P,J10,5,Pin_5*%
%TO.N,Net-(J10-Pin_5)*%
X106500000Y-109000000D03*
%TO.P,J10,6,Pin_6*%
%TO.N,Net-(J10-Pin_6)*%
X110000000Y-109000000D03*
%TD*%
D15*
%TO.P,R92,1*%
%TO.N,Net-(J13-Pin_5)*%
X40000000Y-74365000D03*
D16*
%TO.P,R92,2*%
%TO.N,Net-(J13-Pin_4)*%
X29840000Y-74365000D03*
%TD*%
D17*
%TO.P,U3,1*%
%TO.N,Net-(R65-Pad2)*%
X254560000Y-102415000D03*
D16*
%TO.P,U3,2*%
%TO.N,GND*%
X254560000Y-99875000D03*
%TO.P,U3,3*%
%TO.N,Net-(R66-Pad2)*%
X254560000Y-97335000D03*
%TO.P,U3,4*%
%TO.N,GND*%
X254560000Y-94795000D03*
%TO.P,U3,5*%
%TO.N,Net-(R67-Pad2)*%
X254560000Y-92255000D03*
%TO.P,U3,6*%
%TO.N,GND*%
X254560000Y-89715000D03*
%TO.P,U3,7*%
%TO.N,Net-(R68-Pad2)*%
X254560000Y-87175000D03*
%TO.P,U3,8*%
%TO.N,GND*%
X254560000Y-84635000D03*
%TO.P,U3,9*%
%TO.N,Net-(J9-Pin_6)*%
X246940000Y-84635000D03*
%TO.P,U3,10*%
%TO.N,Net-(J9-Pin_5)*%
X246940000Y-87175000D03*
%TO.P,U3,11*%
%TO.N,Net-(J9-Pin_3)*%
X246940000Y-89715000D03*
%TO.P,U3,12*%
%TO.N,Net-(J9-Pin_2)*%
X246940000Y-92255000D03*
%TO.P,U3,13*%
%TO.N,Net-(J8-Pin_6)*%
X246940000Y-94795000D03*
%TO.P,U3,14*%
%TO.N,Net-(J8-Pin_5)*%
X246940000Y-97335000D03*
%TO.P,U3,15*%
%TO.N,Net-(J8-Pin_3)*%
X246940000Y-99875000D03*
%TO.P,U3,16*%
%TO.N,Net-(J8-Pin_2)*%
X246940000Y-102415000D03*
%TD*%
D18*
%TO.P,J20,1,Pin_1*%
%TO.N,Net-(A1-D18{slash}TX1)*%
X257000000Y-122000000D03*
D19*
%TO.P,J20,2,Pin_2*%
%TO.N,Net-(A1-D19{slash}RX1)*%
X253500000Y-122000000D03*
%TD*%
D15*
%TO.P,R45,1*%
%TO.N,+5V*%
X91000000Y-30920000D03*
D16*
%TO.P,R45,2*%
%TO.N,/D52*%
X91000000Y-41080000D03*
%TD*%
D15*
%TO.P,R104,1*%
%TO.N,/D41*%
X64920000Y-27770000D03*
D16*
%TO.P,R104,2*%
%TO.N,Net-(R104-Pad2)*%
X54760000Y-27770000D03*
%TD*%
D17*
%TO.P,U2,1*%
%TO.N,Net-(R57-Pad2)*%
X209560000Y-102335000D03*
D16*
%TO.P,U2,2*%
%TO.N,GND*%
X209560000Y-99795000D03*
%TO.P,U2,3*%
%TO.N,Net-(R58-Pad2)*%
X209560000Y-97255000D03*
%TO.P,U2,4*%
%TO.N,GND*%
X209560000Y-94715000D03*
%TO.P,U2,5*%
%TO.N,Net-(R59-Pad2)*%
X209560000Y-92175000D03*
%TO.P,U2,6*%
%TO.N,GND*%
X209560000Y-89635000D03*
%TO.P,U2,7*%
%TO.N,Net-(R60-Pad2)*%
X209560000Y-87095000D03*
%TO.P,U2,8*%
%TO.N,GND*%
X209560000Y-84555000D03*
%TO.P,U2,9*%
%TO.N,Net-(J7-Pin_6)*%
X201940000Y-84555000D03*
%TO.P,U2,10*%
%TO.N,Net-(J7-Pin_5)*%
X201940000Y-87095000D03*
%TO.P,U2,11*%
%TO.N,Net-(J7-Pin_3)*%
X201940000Y-89635000D03*
%TO.P,U2,12*%
%TO.N,Net-(J7-Pin_2)*%
X201940000Y-92175000D03*
%TO.P,U2,13*%
%TO.N,Net-(J6-Pin_6)*%
X201940000Y-94715000D03*
%TO.P,U2,14*%
%TO.N,Net-(J6-Pin_5)*%
X201940000Y-97255000D03*
%TO.P,U2,15*%
%TO.N,Net-(J6-Pin_3)*%
X201940000Y-99795000D03*
%TO.P,U2,16*%
%TO.N,Net-(J6-Pin_2)*%
X201940000Y-102335000D03*
%TD*%
D15*
%TO.P,R41,1*%
%TO.N,+5V*%
X116000000Y-30920000D03*
D16*
%TO.P,R41,2*%
%TO.N,/D50*%
X116000000Y-41080000D03*
%TD*%
D13*
%TO.P,D1,1,K*%
%TO.N,Net-(D1-K)*%
X260838000Y-31074000D03*
D14*
%TO.P,D1,2,A*%
%TO.N,/A0*%
X260838000Y-41234000D03*
%TD*%
D15*
%TO.P,R83,1*%
%TO.N,/D28*%
X65080000Y-78415000D03*
D16*
%TO.P,R83,2*%
%TO.N,Net-(R83-Pad2)*%
X54920000Y-78415000D03*
%TD*%
D15*
%TO.P,R12,1*%
%TO.N,Net-(D6-K)*%
X196838000Y-30920000D03*
D16*
%TO.P,R12,2*%
%TO.N,GND1*%
X196838000Y-41080000D03*
%TD*%
D18*
%TO.P,J1,1,Pin_1*%
%TO.N,Net-(D8-K)*%
X181822000Y-23000000D03*
D19*
%TO.P,J1,2,Pin_2*%
%TO.N,Net-(D7-K)*%
X185322000Y-23000000D03*
%TO.P,J1,3,Pin_3*%
%TO.N,Net-(D6-K)*%
X188822000Y-23000000D03*
%TO.P,J1,4,Pin_4*%
%TO.N,Net-(D5-K)*%
X192322000Y-23000000D03*
%TO.P,J1,5,Pin_5*%
%TO.N,Net-(D4-K)*%
X195822000Y-23000000D03*
%TO.P,J1,6,Pin_6*%
%TO.N,Net-(D3-K)*%
X199322000Y-23000000D03*
%TO.P,J1,7,Pin_7*%
%TO.N,Net-(D2-K)*%
X202822000Y-23000000D03*
%TO.P,J1,8,Pin_8*%
%TO.N,Net-(D1-K)*%
X206322000Y-23000000D03*
%TD*%
D15*
%TO.P,R63,1*%
%TO.N,Net-(J7-Pin_2)*%
X197640000Y-88765000D03*
D16*
%TO.P,R63,2*%
%TO.N,Net-(J7-Pin_1)*%
X187480000Y-88765000D03*
%TD*%
D15*
%TO.P,R57,1*%
%TO.N,/D6*%
X224640000Y-84715000D03*
D16*
%TO.P,R57,2*%
%TO.N,Net-(R57-Pad2)*%
X214480000Y-84715000D03*
%TD*%
D15*
%TO.P,R94,1*%
%TO.N,Net-(J14-Pin_5)*%
X39000000Y-105895000D03*
D16*
%TO.P,R94,2*%
%TO.N,Net-(J14-Pin_4)*%
X28840000Y-105895000D03*
%TD*%
D17*
%TO.P,U6,1*%
%TO.N,Net-(R85-Pad2)*%
X50640000Y-115620000D03*
D16*
%TO.P,U6,2*%
%TO.N,GND*%
X50640000Y-113080000D03*
%TO.P,U6,3*%
%TO.N,Net-(R86-Pad2)*%
X50640000Y-110540000D03*
%TO.P,U6,4*%
%TO.N,GND*%
X50640000Y-108000000D03*
%TO.P,U6,5*%
%TO.N,Net-(R87-Pad2)*%
X50640000Y-105460000D03*
%TO.P,U6,6*%
%TO.N,GND*%
X50640000Y-102920000D03*
%TO.P,U6,7*%
%TO.N,Net-(R88-Pad2)*%
X50640000Y-100380000D03*
%TO.P,U6,8*%
%TO.N,GND*%
X50640000Y-97840000D03*
%TO.P,U6,9*%
%TO.N,Net-(J15-Pin_6)*%
X43020000Y-97840000D03*
%TO.P,U6,10*%
%TO.N,Net-(J15-Pin_5)*%
X43020000Y-100380000D03*
%TO.P,U6,11*%
%TO.N,Net-(J15-Pin_3)*%
X43020000Y-102920000D03*
%TO.P,U6,12*%
%TO.N,Net-(J15-Pin_2)*%
X43020000Y-105460000D03*
%TO.P,U6,13*%
%TO.N,Net-(J14-Pin_6)*%
X43020000Y-108000000D03*
%TO.P,U6,14*%
%TO.N,Net-(J14-Pin_5)*%
X43020000Y-110540000D03*
%TO.P,U6,15*%
%TO.N,Net-(J14-Pin_3)*%
X43020000Y-113080000D03*
%TO.P,U6,16*%
%TO.N,Net-(J14-Pin_2)*%
X43020000Y-115620000D03*
%TD*%
D15*
%TO.P,R2,1*%
%TO.N,Net-(D1-K)*%
X257338000Y-30920000D03*
D16*
%TO.P,R2,2*%
%TO.N,GND1*%
X257338000Y-41080000D03*
%TD*%
D17*
%TO.P,U1,1*%
%TO.N,Net-(R49-Pad2)*%
X255180000Y-78955000D03*
D16*
%TO.P,U1,2*%
%TO.N,GND*%
X255180000Y-76415000D03*
%TO.P,U1,3*%
%TO.N,Net-(R50-Pad2)*%
X255180000Y-73875000D03*
%TO.P,U1,4*%
%TO.N,GND*%
X255180000Y-71335000D03*
%TO.P,U1,5*%
%TO.N,Net-(R51-Pad2)*%
X255180000Y-68795000D03*
%TO.P,U1,6*%
%TO.N,GND*%
X255180000Y-66255000D03*
%TO.P,U1,7*%
%TO.N,Net-(R52-Pad2)*%
X255180000Y-63715000D03*
%TO.P,U1,8*%
%TO.N,GND*%
X255180000Y-61175000D03*
%TO.P,U1,9*%
%TO.N,Net-(J5-Pin_6)*%
X247560000Y-61175000D03*
%TO.P,U1,10*%
%TO.N,Net-(J5-Pin_5)*%
X247560000Y-63715000D03*
%TO.P,U1,11*%
%TO.N,Net-(J5-Pin_3)*%
X247560000Y-66255000D03*
%TO.P,U1,12*%
%TO.N,Net-(J5-Pin_2)*%
X247560000Y-68795000D03*
%TO.P,U1,13*%
%TO.N,Net-(J4-Pin_6)*%
X247560000Y-71335000D03*
%TO.P,U1,14*%
%TO.N,Net-(J4-Pin_5)*%
X247560000Y-73875000D03*
%TO.P,U1,15*%
%TO.N,Net-(J4-Pin_3)*%
X247560000Y-76415000D03*
%TO.P,U1,16*%
%TO.N,Net-(J4-Pin_2)*%
X247560000Y-78955000D03*
%TD*%
D18*
%TO.P,J7,1,Pin_1*%
%TO.N,Net-(J7-Pin_1)*%
X162500000Y-109000000D03*
D19*
%TO.P,J7,2,Pin_2*%
%TO.N,Net-(J7-Pin_2)*%
X166000000Y-109000000D03*
%TO.P,J7,3,Pin_3*%
%TO.N,Net-(J7-Pin_3)*%
X169500000Y-109000000D03*
%TO.P,J7,4,Pin_4*%
%TO.N,Net-(J7-Pin_4)*%
X173000000Y-109000000D03*
%TO.P,J7,5,Pin_5*%
%TO.N,Net-(J7-Pin_5)*%
X176500000Y-109000000D03*
%TO.P,J7,6,Pin_6*%
%TO.N,Net-(J7-Pin_6)*%
X180000000Y-109000000D03*
%TD*%
D15*
%TO.P,R33,1*%
%TO.N,+5V*%
X220900000Y-45840000D03*
D16*
%TO.P,R33,2*%
%TO.N,/D46*%
X220900000Y-56000000D03*
%TD*%
D18*
%TO.P,J16,1,Pin_1*%
%TO.N,Net-(J16-Pin_1)*%
X139000000Y-122000000D03*
D19*
%TO.P,J16,2,Pin_2*%
%TO.N,Net-(J16-Pin_2)*%
X142500000Y-122000000D03*
%TO.P,J16,3,Pin_3*%
%TO.N,Net-(J16-Pin_3)*%
X146000000Y-122000000D03*
%TO.P,J16,4,Pin_4*%
%TO.N,Net-(J16-Pin_4)*%
X149500000Y-122000000D03*
%TO.P,J16,5,Pin_5*%
%TO.N,Net-(J16-Pin_5)*%
X153000000Y-122000000D03*
%TO.P,J16,6,Pin_6*%
%TO.N,Net-(J16-Pin_6)*%
X156500000Y-122000000D03*
%TD*%
D15*
%TO.P,R64,1*%
%TO.N,Net-(J7-Pin_5)*%
X197640000Y-84715000D03*
D16*
%TO.P,R64,2*%
%TO.N,Net-(J7-Pin_4)*%
X187480000Y-84715000D03*
%TD*%
D15*
%TO.P,R66,1*%
%TO.N,/D11*%
X269020000Y-88715000D03*
D16*
%TO.P,R66,2*%
%TO.N,Net-(R66-Pad2)*%
X258860000Y-88715000D03*
%TD*%
D18*
%TO.P,J14,1,Pin_1*%
%TO.N,Net-(J14-Pin_1)*%
X230500000Y-122000000D03*
D19*
%TO.P,J14,2,Pin_2*%
%TO.N,Net-(J14-Pin_2)*%
X234000000Y-122000000D03*
%TO.P,J14,3,Pin_3*%
%TO.N,Net-(J14-Pin_3)*%
X237500000Y-122000000D03*
%TO.P,J14,4,Pin_4*%
%TO.N,Net-(J14-Pin_4)*%
X241000000Y-122000000D03*
%TO.P,J14,5,Pin_5*%
%TO.N,Net-(J14-Pin_5)*%
X244500000Y-122000000D03*
%TO.P,J14,6,Pin_6*%
%TO.N,Net-(J14-Pin_6)*%
X248000000Y-122000000D03*
%TD*%
D15*
%TO.P,R53,1*%
%TO.N,Net-(J4-Pin_2)*%
X243800000Y-76635000D03*
D16*
%TO.P,R53,2*%
%TO.N,Net-(J4-Pin_1)*%
X233640000Y-76635000D03*
%TD*%
D18*
%TO.P,J6,1,Pin_1*%
%TO.N,Net-(J6-Pin_1)*%
X185000000Y-109000000D03*
D19*
%TO.P,J6,2,Pin_2*%
%TO.N,Net-(J6-Pin_2)*%
X188500000Y-109000000D03*
%TO.P,J6,3,Pin_3*%
%TO.N,Net-(J6-Pin_3)*%
X192000000Y-109000000D03*
%TO.P,J6,4,Pin_4*%
%TO.N,Net-(J6-Pin_4)*%
X195500000Y-109000000D03*
%TO.P,J6,5,Pin_5*%
%TO.N,Net-(J6-Pin_5)*%
X199000000Y-109000000D03*
%TO.P,J6,6,Pin_6*%
%TO.N,Net-(J6-Pin_6)*%
X202500000Y-109000000D03*
%TD*%
D15*
%TO.P,R60,1*%
%TO.N,/D9*%
X224640000Y-96715000D03*
D16*
%TO.P,R60,2*%
%TO.N,Net-(R60-Pad2)*%
X214480000Y-96715000D03*
%TD*%
D13*
%TO.P,D14,1,K*%
%TO.N,Net-(D14-K)*%
X252950000Y-45840000D03*
D14*
%TO.P,D14,2,A*%
%TO.N,/D43*%
X252950000Y-56000000D03*
%TD*%
D15*
%TO.P,R23,1*%
%TO.N,+5V*%
X128788000Y-31074000D03*
D16*
%TO.P,R23,2*%
%TO.N,/A11*%
X128788000Y-41234000D03*
%TD*%
D15*
%TO.P,R65,1*%
%TO.N,/D10*%
X269020000Y-84715000D03*
D16*
%TO.P,R65,2*%
%TO.N,Net-(R65-Pad2)*%
X258860000Y-84715000D03*
%TD*%
D15*
%TO.P,R97,1*%
%TO.N,/D34*%
X66080000Y-63000000D03*
D16*
%TO.P,R97,2*%
%TO.N,Net-(R97-Pad2)*%
X55920000Y-63000000D03*
%TD*%
D15*
%TO.P,R39,1*%
%TO.N,+5V*%
X182150000Y-45840000D03*
D16*
%TO.P,R39,2*%
%TO.N,/D49*%
X182150000Y-56000000D03*
%TD*%
D15*
%TO.P,R69,1*%
%TO.N,Net-(J8-Pin_2)*%
X242560000Y-96865000D03*
D16*
%TO.P,R69,2*%
%TO.N,Net-(J8-Pin_1)*%
X232400000Y-96865000D03*
%TD*%
D15*
%TO.P,R30,1*%
%TO.N,Net-(D15-K)*%
X236950000Y-45840000D03*
D16*
%TO.P,R30,2*%
%TO.N,GND1*%
X236950000Y-56000000D03*
%TD*%
D15*
%TO.P,R112,1*%
%TO.N,Net-(J19-Pin_5)*%
X38920000Y-27620000D03*
D16*
%TO.P,R112,2*%
%TO.N,Net-(J19-Pin_4)*%
X28760000Y-27620000D03*
%TD*%
D15*
%TO.P,R109,1*%
%TO.N,Net-(J18-Pin_2)*%
X38920000Y-39770000D03*
D16*
%TO.P,R109,2*%
%TO.N,Net-(J18-Pin_1)*%
X28760000Y-39770000D03*
%TD*%
D13*
%TO.P,D10,1,K*%
%TO.N,Net-(D10-K)*%
X149838000Y-31074000D03*
D14*
%TO.P,D10,2,A*%
%TO.N,/A9*%
X149838000Y-41234000D03*
%TD*%
D15*
%TO.P,R88,1*%
%TO.N,/D33*%
X65000000Y-97745000D03*
D16*
%TO.P,R88,2*%
%TO.N,Net-(R88-Pad2)*%
X54840000Y-97745000D03*
%TD*%
D13*
%TO.P,D18,1,K*%
%TO.N,Net-(D18-K)*%
X203950000Y-45840000D03*
D14*
%TO.P,D18,2,A*%
%TO.N,/D47*%
X203950000Y-56000000D03*
%TD*%
D15*
%TO.P,R59,1*%
%TO.N,/D8*%
X224640000Y-92715000D03*
D16*
%TO.P,R59,2*%
%TO.N,Net-(R59-Pad2)*%
X214480000Y-92715000D03*
%TD*%
D13*
%TO.P,D5,1,K*%
%TO.N,Net-(D5-K)*%
X213838000Y-31074000D03*
D14*
%TO.P,D5,2,A*%
%TO.N,/A4*%
X213838000Y-41234000D03*
%TD*%
D13*
%TO.P,D24,1,K*%
%TO.N,Net-(D24-K)*%
X74050000Y-31000000D03*
D14*
%TO.P,D24,2,A*%
%TO.N,/D53*%
X74050000Y-41160000D03*
%TD*%
D15*
%TO.P,R7,1*%
%TO.N,+5V*%
X229838000Y-30920000D03*
D16*
%TO.P,R7,2*%
%TO.N,/A3*%
X229838000Y-41080000D03*
%TD*%
D15*
%TO.P,R9,1*%
%TO.N,+5V*%
X217788000Y-30920000D03*
D16*
%TO.P,R9,2*%
%TO.N,/A4*%
X217788000Y-41080000D03*
%TD*%
D15*
%TO.P,R21,1*%
%TO.N,+5V*%
X141668000Y-31074000D03*
D16*
%TO.P,R21,2*%
%TO.N,/A10*%
X141668000Y-41234000D03*
%TD*%
D15*
%TO.P,R36,1*%
%TO.N,Net-(D18-K)*%
X199950000Y-45840000D03*
D16*
%TO.P,R36,2*%
%TO.N,GND1*%
X199950000Y-56000000D03*
%TD*%
D15*
%TO.P,R105,1*%
%TO.N,Net-(J16-Pin_2)*%
X39000000Y-63000000D03*
D16*
%TO.P,R105,2*%
%TO.N,Net-(J16-Pin_1)*%
X28840000Y-63000000D03*
%TD*%
D18*
%TO.P,J18,1,Pin_1*%
%TO.N,Net-(J18-Pin_1)*%
X92500000Y-122000000D03*
D19*
%TO.P,J18,2,Pin_2*%
%TO.N,Net-(J18-Pin_2)*%
X96000000Y-122000000D03*
%TO.P,J18,3,Pin_3*%
%TO.N,Net-(J18-Pin_3)*%
X99500000Y-122000000D03*
%TO.P,J18,4,Pin_4*%
%TO.N,Net-(J18-Pin_4)*%
X103000000Y-122000000D03*
%TO.P,J18,5,Pin_5*%
%TO.N,Net-(J18-Pin_5)*%
X106500000Y-122000000D03*
%TO.P,J18,6,Pin_6*%
%TO.N,Net-(J18-Pin_6)*%
X110000000Y-122000000D03*
%TD*%
D13*
%TO.P,D8,1,K*%
%TO.N,Net-(D8-K)*%
X175838000Y-31074000D03*
D14*
%TO.P,D8,2,A*%
%TO.N,/A7*%
X175838000Y-41234000D03*
%TD*%
D15*
%TO.P,R111,1*%
%TO.N,Net-(J19-Pin_2)*%
X38920000Y-31670000D03*
D16*
%TO.P,R111,2*%
%TO.N,Net-(J19-Pin_1)*%
X28760000Y-31670000D03*
%TD*%
D15*
%TO.P,R8,1*%
%TO.N,Net-(D4-K)*%
X221838000Y-30920000D03*
D16*
%TO.P,R8,2*%
%TO.N,GND1*%
X221838000Y-41080000D03*
%TD*%
D15*
%TO.P,R99,1*%
%TO.N,/D36*%
X66080000Y-54900000D03*
D16*
%TO.P,R99,2*%
%TO.N,Net-(R99-Pad2)*%
X55920000Y-54900000D03*
%TD*%
D15*
%TO.P,R68,1*%
%TO.N,/D13*%
X268940000Y-96715000D03*
D16*
%TO.P,R68,2*%
%TO.N,Net-(R68-Pad2)*%
X258780000Y-96715000D03*
%TD*%
D13*
%TO.P,D16,1,K*%
%TO.N,Net-(D16-K)*%
X228950000Y-45840000D03*
D14*
%TO.P,D16,2,A*%
%TO.N,/D45*%
X228950000Y-56000000D03*
%TD*%
D13*
%TO.P,D20,1,K*%
%TO.N,Net-(D20-K)*%
X177950000Y-45920000D03*
D14*
%TO.P,D20,2,A*%
%TO.N,/D49*%
X177950000Y-56080000D03*
%TD*%
D15*
%TO.P,R102,1*%
%TO.N,/D39*%
X64920000Y-35770000D03*
D16*
%TO.P,R102,2*%
%TO.N,Net-(R102-Pad2)*%
X54760000Y-35770000D03*
%TD*%
D15*
%TO.P,R101,1*%
%TO.N,/D38*%
X64920000Y-39770000D03*
D16*
%TO.P,R101,2*%
%TO.N,Net-(R101-Pad2)*%
X54760000Y-39770000D03*
%TD*%
D15*
%TO.P,R82,1*%
%TO.N,/D27*%
X65080000Y-82465000D03*
D16*
%TO.P,R82,2*%
%TO.N,Net-(R82-Pad2)*%
X54920000Y-82465000D03*
%TD*%
D18*
%TO.P,J17,1,Pin_1*%
%TO.N,Net-(J17-Pin_1)*%
X116000000Y-122000000D03*
D19*
%TO.P,J17,2,Pin_2*%
%TO.N,Net-(J17-Pin_2)*%
X119500000Y-122000000D03*
%TO.P,J17,3,Pin_3*%
%TO.N,Net-(J17-Pin_3)*%
X123000000Y-122000000D03*
%TO.P,J17,4,Pin_4*%
%TO.N,Net-(J17-Pin_4)*%
X126500000Y-122000000D03*
%TO.P,J17,5,Pin_5*%
%TO.N,Net-(J17-Pin_5)*%
X130000000Y-122000000D03*
%TO.P,J17,6,Pin_6*%
%TO.N,Net-(J17-Pin_6)*%
X133500000Y-122000000D03*
%TD*%
D13*
%TO.P,D11,1,K*%
%TO.N,Net-(D11-K)*%
X137838000Y-31074000D03*
D14*
%TO.P,D11,2,A*%
%TO.N,/A10*%
X137838000Y-41234000D03*
%TD*%
D17*
%TO.P,U8,1*%
%TO.N,Net-(R101-Pad2)*%
X50640000Y-45645000D03*
D16*
%TO.P,U8,2*%
%TO.N,GND*%
X50640000Y-43105000D03*
%TO.P,U8,3*%
%TO.N,Net-(R102-Pad2)*%
X50640000Y-40565000D03*
%TO.P,U8,4*%
%TO.N,GND*%
X50640000Y-38025000D03*
%TO.P,U8,5*%
%TO.N,Net-(R103-Pad2)*%
X50640000Y-35485000D03*
%TO.P,U8,6*%
%TO.N,GND*%
X50640000Y-32945000D03*
%TO.P,U8,7*%
%TO.N,Net-(R104-Pad2)*%
X50640000Y-30405000D03*
%TO.P,U8,8*%
%TO.N,GND*%
X50640000Y-27865000D03*
%TO.P,U8,9*%
%TO.N,Net-(J19-Pin_6)*%
X43020000Y-27865000D03*
%TO.P,U8,10*%
%TO.N,Net-(J19-Pin_5)*%
X43020000Y-30405000D03*
%TO.P,U8,11*%
%TO.N,Net-(J19-Pin_3)*%
X43020000Y-32945000D03*
%TO.P,U8,12*%
%TO.N,Net-(J19-Pin_2)*%
X43020000Y-35485000D03*
%TO.P,U8,13*%
%TO.N,Net-(J18-Pin_6)*%
X43020000Y-38025000D03*
%TO.P,U8,14*%
%TO.N,Net-(J18-Pin_5)*%
X43020000Y-40565000D03*
%TO.P,U8,15*%
%TO.N,Net-(J18-Pin_3)*%
X43020000Y-43105000D03*
%TO.P,U8,16*%
%TO.N,Net-(J18-Pin_2)*%
X43020000Y-45645000D03*
%TD*%
D15*
%TO.P,R93,1*%
%TO.N,Net-(J14-Pin_2)*%
X39000000Y-109945000D03*
D16*
%TO.P,R93,2*%
%TO.N,Net-(J14-Pin_1)*%
X28840000Y-109945000D03*
%TD*%
D15*
%TO.P,R77,1*%
%TO.N,Net-(J10-Pin_2)*%
X197880000Y-76785000D03*
D16*
%TO.P,R77,2*%
%TO.N,Net-(J10-Pin_1)*%
X187720000Y-76785000D03*
%TD*%
D15*
%TO.P,R1,1*%
%TO.N,+5V*%
X265000000Y-30920000D03*
D16*
%TO.P,R1,2*%
%TO.N,/A0*%
X265000000Y-41080000D03*
%TD*%
D15*
%TO.P,R27,1*%
%TO.N,+5V*%
X256950000Y-45840000D03*
D16*
%TO.P,R27,2*%
%TO.N,/D43*%
X256950000Y-56000000D03*
%TD*%
D15*
%TO.P,R61,1*%
%TO.N,Net-(J6-Pin_2)*%
X197640000Y-97185000D03*
D16*
%TO.P,R61,2*%
%TO.N,Net-(J6-Pin_1)*%
X187480000Y-97185000D03*
%TD*%
D15*
%TO.P,R95,1*%
%TO.N,Net-(J15-Pin_2)*%
X39000000Y-101845000D03*
D16*
%TO.P,R95,2*%
%TO.N,Net-(J15-Pin_1)*%
X28840000Y-101845000D03*
%TD*%
D15*
%TO.P,R4,1*%
%TO.N,Net-(D2-K)*%
X245838000Y-30920000D03*
D16*
%TO.P,R4,2*%
%TO.N,GND1*%
X245838000Y-41080000D03*
%TD*%
D13*
%TO.P,D15,1,K*%
%TO.N,Net-(D15-K)*%
X240950000Y-45840000D03*
D14*
%TO.P,D15,2,A*%
%TO.N,/D44*%
X240950000Y-56000000D03*
%TD*%
D15*
%TO.P,R15,1*%
%TO.N,+5V*%
X179788000Y-30920000D03*
D16*
%TO.P,R15,2*%
%TO.N,/A7*%
X179788000Y-41080000D03*
%TD*%
D15*
%TO.P,R79,1*%
%TO.N,Net-(J11-Pin_2)*%
X197880000Y-68685000D03*
D16*
%TO.P,R79,2*%
%TO.N,Net-(J11-Pin_1)*%
X187720000Y-68685000D03*
%TD*%
D15*
%TO.P,R26,1*%
%TO.N,Net-(D13-K)*%
X261000000Y-45840000D03*
D16*
%TO.P,R26,2*%
%TO.N,GND1*%
X261000000Y-56000000D03*
%TD*%
D13*
%TO.P,D17,1,K*%
%TO.N,Net-(D17-K)*%
X216950000Y-45920000D03*
D14*
%TO.P,D17,2,A*%
%TO.N,/D46*%
X216950000Y-56080000D03*
%TD*%
D15*
%TO.P,R28,1*%
%TO.N,Net-(D14-K)*%
X248950000Y-45840000D03*
D16*
%TO.P,R28,2*%
%TO.N,GND1*%
X248950000Y-56000000D03*
%TD*%
D13*
%TO.P,D13,1,K*%
%TO.N,Net-(D13-K)*%
X265000000Y-45840000D03*
D14*
%TO.P,D13,2,A*%
%TO.N,/D42*%
X265000000Y-56000000D03*
%TD*%
D15*
%TO.P,R16,1*%
%TO.N,Net-(D8-K)*%
X170838000Y-30920000D03*
D16*
%TO.P,R16,2*%
%TO.N,GND1*%
X170838000Y-41080000D03*
%TD*%
D18*
%TO.P,J15,1,Pin_1*%
%TO.N,Net-(J15-Pin_1)*%
X208000000Y-122000000D03*
D19*
%TO.P,J15,2,Pin_2*%
%TO.N,Net-(J15-Pin_2)*%
X211500000Y-122000000D03*
%TO.P,J15,3,Pin_3*%
%TO.N,Net-(J15-Pin_3)*%
X215000000Y-122000000D03*
%TO.P,J15,4,Pin_4*%
%TO.N,Net-(J15-Pin_4)*%
X218500000Y-122000000D03*
%TO.P,J15,5,Pin_5*%
%TO.N,Net-(J15-Pin_5)*%
X222000000Y-122000000D03*
%TO.P,J15,6,Pin_6*%
%TO.N,Net-(J15-Pin_6)*%
X225500000Y-122000000D03*
%TD*%
D22*
%TO.N,*%
X270000000Y-28000000D03*
X270000000Y-113000000D03*
X22000000Y-113000000D03*
X22000000Y-28000000D03*
D23*
%TO.N,/A1*%
X128421300Y-43512700D03*
%TO.N,/D10*%
X148907000Y-83362500D03*
%TO.N,/D13*%
X146868100Y-104299500D03*
%TO.N,/D30*%
X66874400Y-107218900D03*
%TO.N,/D32*%
X68016400Y-99464300D03*
%TO.N,Net-(J4-Pin_2)*%
X210434100Y-107357200D03*
%TO.N,Net-(J5-Pin_3)*%
X208780900Y-106389000D03*
%TO.N,Net-(J8-Pin_1)*%
X234528900Y-102896700D03*
%TO.N,Net-(J10-Pin_3)*%
X132177200Y-75696000D03*
%TO.N,Net-(J11-Pin_3)*%
X126631600Y-67236400D03*
%TO.N,Net-(J12-Pin_2)*%
X36897000Y-97688300D03*
%TO.N,Net-(J12-Pin_3)*%
X184986700Y-114486700D03*
%TO.N,Net-(J13-Pin_2)*%
X33807600Y-95163800D03*
%TO.N,Net-(J13-Pin_3)*%
X159372800Y-120430700D03*
X152084800Y-113142700D03*
%TO.N,Net-(J16-Pin_2)*%
X55765800Y-87678200D03*
%TO.N,Net-(J16-Pin_3)*%
X118584700Y-120337400D03*
%TO.N,Net-(J17-Pin_1)*%
X56013100Y-90312100D03*
%TO.N,Net-(J18-Pin_1)*%
X56838300Y-91738800D03*
%TO.N,Net-(J18-Pin_2)*%
X52942900Y-121218400D03*
%TO.N,Net-(J18-Pin_3)*%
X51789900Y-120049200D03*
%TO.N,Net-(J4-Pin_6)*%
X243244500Y-70987500D03*
%TO.N,Net-(J5-Pin_5)*%
X147345500Y-106884000D03*
%TO.N,Net-(J5-Pin_6)*%
X206665000Y-107473100D03*
%TO.N,Net-(J8-Pin_4)*%
X223082300Y-106302500D03*
%TO.N,Net-(J12-Pin_4)*%
X44539900Y-111276600D03*
%TO.N,Net-(J12-Pin_5)*%
X67603600Y-98409300D03*
%TO.N,Net-(J12-Pin_6)*%
X194748000Y-113748000D03*
%TO.N,Net-(J13-Pin_5)*%
X56420100Y-118384500D03*
%TO.N,Net-(J13-Pin_6)*%
X59000100Y-117950200D03*
%TO.N,Net-(J16-Pin_4)*%
X30968200Y-87383000D03*
%TO.N,Net-(J16-Pin_5)*%
X121385400Y-119668400D03*
X51543700Y-70897100D03*
%TO.N,Net-(J16-Pin_6)*%
X52571200Y-64710700D03*
%TO.N,Net-(J17-Pin_4)*%
X53875000Y-62391800D03*
%TO.N,Net-(J18-Pin_5)*%
X56994400Y-92942800D03*
%TO.N,Net-(J18-Pin_6)*%
X52503800Y-119318800D03*
%TO.N,Net-(J19-Pin_6)*%
X57917900Y-93890800D03*
%TD*%
D24*
%TO.N,+5V*%
X192788000Y-30920000D02*
X194060900Y-29647100D01*
X234326900Y-44413100D02*
X243473100Y-44413100D01*
X204788000Y-30920000D02*
X206060900Y-29647100D01*
X153788000Y-31074000D02*
X155214900Y-29647100D01*
X203515100Y-29647100D02*
X204788000Y-30920000D01*
X255523100Y-44413100D02*
X246326900Y-44413100D01*
X210250200Y-45840000D02*
X207900000Y-45840000D01*
X142794900Y-29947100D02*
X148302600Y-29947100D01*
X89653100Y-29573100D02*
X79346900Y-29573100D01*
X232900000Y-45840000D02*
X234326900Y-44413100D01*
X246326900Y-44413100D02*
X244900000Y-45840000D01*
X216515100Y-29647100D02*
X217788000Y-30920000D01*
X194538000Y-44478000D02*
X183512000Y-44478000D01*
X183512000Y-44478000D02*
X182150000Y-45840000D01*
X128788000Y-31074000D02*
X130214900Y-32500900D01*
X191515100Y-29647100D02*
X192788000Y-30920000D01*
X220900000Y-45840000D02*
X219504500Y-44444500D01*
X256950000Y-45840000D02*
X255523100Y-44413100D01*
X152361100Y-29647100D02*
X153788000Y-31074000D01*
X166788000Y-30920000D02*
X168063300Y-29644700D01*
X243473100Y-44413100D02*
X244900000Y-45840000D01*
X148602600Y-29647100D02*
X152361100Y-29647100D01*
X79346900Y-29573100D02*
X78000000Y-30920000D01*
X148302600Y-29947100D02*
X148602600Y-29647100D01*
X228565100Y-29647100D02*
X229838000Y-30920000D01*
X211645700Y-44444500D02*
X210250200Y-45840000D01*
X217788000Y-30920000D02*
X219060900Y-29647100D01*
X91000000Y-30920000D02*
X89653100Y-29573100D01*
X195900000Y-45840000D02*
X194538000Y-44478000D01*
X140241100Y-32500900D02*
X141668000Y-31074000D01*
X206060900Y-29647100D02*
X216515100Y-29647100D01*
X194060900Y-29647100D02*
X203515100Y-29647100D01*
X168063300Y-29644700D02*
X178512700Y-29644700D01*
X181060900Y-29647100D02*
X191515100Y-29647100D01*
X165515100Y-29647100D02*
X166788000Y-30920000D01*
X179788000Y-30920000D02*
X181060900Y-29647100D01*
X219060900Y-29647100D02*
X228565100Y-29647100D01*
X219504500Y-44444500D02*
X211645700Y-44444500D01*
X155214900Y-29647100D02*
X165515100Y-29647100D01*
X130214900Y-32500900D02*
X140241100Y-32500900D01*
X178512700Y-29644700D02*
X179788000Y-30920000D01*
X141668000Y-31074000D02*
X142794900Y-29947100D01*
%TO.N,/A0*%
X231338700Y-46170100D02*
X231338700Y-45806200D01*
X120017500Y-50140000D02*
X123480000Y-53602500D01*
X233231900Y-43913000D02*
X256732100Y-43913000D01*
X118827000Y-50140000D02*
X120017500Y-50140000D01*
X223906300Y-53602500D02*
X231338700Y-46170100D01*
X260838000Y-41234000D02*
X259411100Y-41234000D01*
X256732100Y-43913000D02*
X259411100Y-41234000D01*
X231338700Y-45806200D02*
X233231900Y-43913000D01*
X123480000Y-53602500D02*
X223906300Y-53602500D01*
%TO.N,/A1*%
X249838000Y-41234000D02*
X248411100Y-41234000D01*
X132646500Y-39287500D02*
X128421300Y-43512700D01*
X246464600Y-39287500D02*
X132646500Y-39287500D01*
X253288000Y-41080000D02*
X251418900Y-41080000D01*
X248411100Y-41234000D02*
X246464600Y-39287500D01*
X249838000Y-41234000D02*
X251264900Y-41234000D01*
X251418900Y-41080000D02*
X251264900Y-41234000D01*
%TO.N,/A2*%
X239418900Y-41080000D02*
X239264900Y-41234000D01*
X215962400Y-53125400D02*
X225626700Y-43461100D01*
X241788000Y-41080000D02*
X239418900Y-41080000D01*
X237838000Y-41234000D02*
X236411100Y-41234000D01*
X143318200Y-48949500D02*
X147494100Y-53125400D01*
X113747000Y-50140000D02*
X114937500Y-50140000D01*
X237838000Y-41234000D02*
X239264900Y-41234000D01*
X115755900Y-48949500D02*
X143318200Y-48949500D01*
X234184000Y-43461100D02*
X236411100Y-41234000D01*
X225626700Y-43461100D02*
X234184000Y-43461100D01*
X114937500Y-50140000D02*
X114937500Y-49767900D01*
X114937500Y-49767900D02*
X115755900Y-48949500D01*
X147494100Y-53125400D02*
X215962400Y-53125400D01*
%TO.N,/A3*%
X229838000Y-41080000D02*
X228711100Y-41080000D01*
X143730700Y-48497600D02*
X113669900Y-48497600D01*
X223849200Y-43936300D02*
X211514800Y-43936300D01*
X225838000Y-41234000D02*
X226551500Y-41234000D01*
X211062900Y-44388200D02*
X199754000Y-44388200D01*
X111207000Y-50140000D02*
X112397500Y-50140000D01*
X113669900Y-48497600D02*
X112397500Y-49770000D01*
X112397500Y-49770000D02*
X112397500Y-50140000D01*
X226551500Y-41234000D02*
X228557100Y-41234000D01*
X191471700Y-52670500D02*
X147903600Y-52670500D01*
X211514800Y-43936300D02*
X211062900Y-44388200D01*
X199754000Y-44388200D02*
X191471700Y-52670500D01*
X226551500Y-41234000D02*
X223849200Y-43936300D01*
X147903600Y-52670500D02*
X143730700Y-48497600D01*
X228557100Y-41234000D02*
X228711100Y-41080000D01*
%TO.N,/A4*%
X154457900Y-47592000D02*
X154004200Y-48045700D01*
X111579700Y-48045700D02*
X109857500Y-49767900D01*
X213838000Y-41234000D02*
X215264900Y-41234000D01*
X213838000Y-41234000D02*
X212411100Y-41234000D01*
X209733500Y-43911600D02*
X199535100Y-43911600D01*
X215418900Y-41080000D02*
X215264900Y-41234000D01*
X154004200Y-48045700D02*
X111579700Y-48045700D01*
X108667000Y-50140000D02*
X109857500Y-50140000D01*
X217788000Y-41080000D02*
X215418900Y-41080000D01*
X199535100Y-43911600D02*
X195854700Y-47592000D01*
X212411100Y-41234000D02*
X209733500Y-43911600D01*
X195854700Y-47592000D02*
X154457900Y-47592000D01*
X109857500Y-49767900D02*
X109857500Y-50140000D01*
%TO.N,/A5*%
X200838000Y-41234000D02*
X199411100Y-41234000D01*
X106127000Y-50140000D02*
X107317500Y-50140000D01*
X154430000Y-46980800D02*
X153817000Y-47593800D01*
X174311300Y-43801100D02*
X171131600Y-46980800D01*
X196844100Y-43801100D02*
X174311300Y-43801100D01*
X202418900Y-41080000D02*
X202264900Y-41234000D01*
X199411100Y-41234000D02*
X196844100Y-43801000D01*
X171131600Y-46980800D02*
X154430000Y-46980800D01*
X109491600Y-47593800D02*
X107317500Y-49767900D01*
X204788000Y-41080000D02*
X202418900Y-41080000D01*
X107317500Y-49767900D02*
X107317500Y-50140000D01*
X196844100Y-43801000D02*
X196844100Y-43801100D01*
X200838000Y-41234000D02*
X202264900Y-41234000D01*
X153817000Y-47593800D02*
X109491600Y-47593800D01*
%TO.N,/A6*%
X187838000Y-41234000D02*
X186411100Y-41234000D01*
X153174300Y-46528900D02*
X170311000Y-46528900D01*
X189418900Y-41080000D02*
X189264900Y-41234000D01*
X170311000Y-46528900D02*
X174179000Y-42660900D01*
X184984200Y-42660900D02*
X186411100Y-41234000D01*
X104777500Y-49770000D02*
X107857500Y-46690000D01*
X104777500Y-50140000D02*
X104777500Y-49770000D01*
X188551500Y-41234000D02*
X187838000Y-41234000D01*
X107857500Y-46690000D02*
X153013200Y-46690000D01*
X188551500Y-41234000D02*
X189264900Y-41234000D01*
X153013200Y-46690000D02*
X153174300Y-46528900D01*
X192788000Y-41080000D02*
X189418900Y-41080000D01*
X174179000Y-42660900D02*
X184984200Y-42660900D01*
X103587000Y-50140000D02*
X104777500Y-50140000D01*
%TO.N,/A7*%
X175838000Y-41234000D02*
X174411100Y-41234000D01*
X152669000Y-46076900D02*
X169568200Y-46076900D01*
X101047000Y-50140000D02*
X102237500Y-50140000D01*
X169568200Y-46076900D02*
X174411100Y-41234000D01*
X102237500Y-50140000D02*
X102237500Y-49781200D01*
X177418900Y-41080000D02*
X177264900Y-41234000D01*
X152507800Y-46238100D02*
X152669000Y-46076900D01*
X175838000Y-41234000D02*
X177264900Y-41234000D01*
X105780600Y-46238100D02*
X152507800Y-46238100D01*
X179788000Y-41080000D02*
X177418900Y-41080000D01*
X102237500Y-49781200D02*
X105780600Y-46238100D01*
%TO.N,/A8*%
X166788000Y-41080000D02*
X164418900Y-41080000D01*
X164418900Y-41080000D02*
X164264900Y-41234000D01*
X146222400Y-45786200D02*
X146385000Y-45623600D01*
X95967000Y-50140000D02*
X97157500Y-50140000D01*
X162838000Y-41234000D02*
X161411100Y-41234000D01*
X97157500Y-50140000D02*
X101511300Y-45786200D01*
X162838000Y-41234000D02*
X164264900Y-41234000D01*
X101511300Y-45786200D02*
X146222400Y-45786200D01*
X146385000Y-45623600D02*
X157021500Y-45623600D01*
X157021500Y-45623600D02*
X161411100Y-41234000D01*
%TO.N,/A9*%
X94617500Y-49768000D02*
X99210800Y-45174700D01*
X93427000Y-50140000D02*
X94617500Y-50140000D01*
X153788000Y-41234000D02*
X149838000Y-41234000D01*
X144470400Y-45174700D02*
X148411100Y-41234000D01*
X99210800Y-45174700D02*
X144470400Y-45174700D01*
X149838000Y-41234000D02*
X148411100Y-41234000D01*
X94617500Y-50140000D02*
X94617500Y-49768000D01*
%TO.N,/A10*%
X92077500Y-50140000D02*
X92077500Y-49768000D01*
X97605900Y-44239600D02*
X133405500Y-44239600D01*
X141668000Y-41234000D02*
X137838000Y-41234000D01*
X92077500Y-49768000D02*
X97605900Y-44239600D01*
X90887000Y-50140000D02*
X92077500Y-50140000D01*
X137838000Y-41234000D02*
X136411100Y-41234000D01*
X133405500Y-44239600D02*
X136411100Y-41234000D01*
%TO.N,/A11*%
X89537500Y-50140000D02*
X89537500Y-49768000D01*
X89537500Y-49768000D02*
X96081200Y-43224300D01*
X96081200Y-43224300D02*
X121420800Y-43224300D01*
X88347000Y-50140000D02*
X89537500Y-50140000D01*
X121420800Y-43224300D02*
X123411100Y-41234000D01*
X124838000Y-41234000D02*
X123411100Y-41234000D01*
X128788000Y-41234000D02*
X124838000Y-41234000D01*
%TO.N,/D2*%
X112397500Y-98028000D02*
X129196700Y-81228800D01*
X112397500Y-98400000D02*
X112397500Y-98028000D01*
X253048100Y-67597400D02*
X257029200Y-67597400D01*
X241944800Y-70065000D02*
X250580500Y-70065000D01*
X111207000Y-98400000D02*
X112397500Y-98400000D01*
X258991600Y-65635000D02*
X267560000Y-65635000D01*
X230781000Y-81228800D02*
X241944800Y-70065000D01*
X257029200Y-67597400D02*
X258991600Y-65635000D01*
X129196700Y-81228800D02*
X230781000Y-81228800D01*
X250580500Y-70065000D02*
X253048100Y-67597400D01*
X267560000Y-65635000D02*
X269560000Y-63635000D01*
%TO.N,/D3*%
X248219900Y-81698800D02*
X252161300Y-77757400D01*
X114937500Y-98400000D02*
X114937500Y-98033600D01*
X266196900Y-67635000D02*
X269560000Y-67635000D01*
X114937500Y-98033600D02*
X131272300Y-81698800D01*
X252161300Y-77757400D02*
X256074500Y-77757400D01*
X256074500Y-77757400D02*
X266196900Y-67635000D01*
X131272300Y-81698800D02*
X248219900Y-81698800D01*
X113747000Y-98400000D02*
X114937500Y-98400000D01*
%TO.N,/D4*%
X116287000Y-98400000D02*
X117477500Y-98400000D01*
X133374400Y-82150700D02*
X259484300Y-82150700D01*
X259484300Y-82150700D02*
X269560000Y-72075000D01*
X117477500Y-98047600D02*
X133374400Y-82150700D01*
X117477500Y-98400000D02*
X117477500Y-98047600D01*
%TO.N,/D5*%
X120017500Y-98400000D02*
X120017500Y-98047600D01*
X120017500Y-98047600D02*
X135462500Y-82602600D01*
X263292400Y-82602600D02*
X269260000Y-76635000D01*
X135462500Y-82602600D02*
X263292400Y-82602600D01*
X118827000Y-98400000D02*
X120017500Y-98400000D01*
%TO.N,/D6*%
X122557500Y-98400000D02*
X122557500Y-98028000D01*
X223434800Y-85920200D02*
X224640000Y-84715000D01*
X121367000Y-98400000D02*
X122557500Y-98400000D01*
X134665300Y-85920200D02*
X223434800Y-85920200D01*
X122557500Y-98028000D02*
X134665300Y-85920200D01*
%TO.N,/D7*%
X199363100Y-90053900D02*
X201052000Y-88365000D01*
X212494800Y-87565400D02*
X223570400Y-87565400D01*
X211695200Y-88365000D02*
X212494800Y-87565400D01*
X201052000Y-88365000D02*
X211695200Y-88365000D01*
X133443600Y-90053900D02*
X199363100Y-90053900D01*
X125097500Y-98400000D02*
X133443600Y-90053900D01*
X223570400Y-87565400D02*
X224720000Y-88715000D01*
X123907000Y-98400000D02*
X125097500Y-98400000D01*
%TO.N,/D8*%
X222944700Y-91019700D02*
X224640000Y-92715000D01*
X129161500Y-98028000D02*
X136169800Y-91019700D01*
X136169800Y-91019700D02*
X222944700Y-91019700D01*
X129161500Y-98400000D02*
X129161500Y-98028000D01*
X127971000Y-98400000D02*
X129161500Y-98400000D01*
%TO.N,/D9*%
X130511000Y-98400000D02*
X131701500Y-98400000D01*
X131701500Y-98030000D02*
X135432400Y-94299100D01*
X135432400Y-94299100D02*
X200555700Y-94299100D01*
X200555700Y-94299100D02*
X201297400Y-93557400D01*
X131701500Y-98400000D02*
X131701500Y-98030000D01*
X213322400Y-93557400D02*
X216480000Y-96715000D01*
X201297400Y-93557400D02*
X213322400Y-93557400D01*
X216480000Y-96715000D02*
X224640000Y-96715000D01*
%TO.N,/D10*%
X267667500Y-83362500D02*
X148907000Y-83362500D01*
X269020000Y-84715000D02*
X267667500Y-83362500D01*
%TO.N,/D11*%
X259130000Y-98605000D02*
X252451700Y-98605000D01*
X176673900Y-102195400D02*
X140206900Y-102195400D01*
X135591000Y-98400000D02*
X136781500Y-98400000D01*
X247142400Y-103914300D02*
X178392800Y-103914300D01*
X252451700Y-98605000D02*
X247142400Y-103914300D01*
X140206900Y-102195400D02*
X136781500Y-98770000D01*
X178392800Y-103914300D02*
X176673900Y-102195400D01*
X269020000Y-88715000D02*
X259130000Y-98605000D01*
X136781500Y-98770000D02*
X136781500Y-98400000D01*
%TO.N,/D12*%
X141498000Y-100948600D02*
X139321500Y-98772100D01*
X236622500Y-90985000D02*
X224145600Y-103461900D01*
X138131000Y-98400000D02*
X139321500Y-98400000D01*
X139321500Y-98772100D02*
X139321500Y-98400000D01*
X224145600Y-103461900D02*
X200951600Y-103461900D01*
X264341600Y-90985000D02*
X236622500Y-90985000D01*
X267739100Y-87587500D02*
X264341600Y-90985000D01*
X269508900Y-87587500D02*
X267739100Y-87587500D01*
X270193200Y-88271800D02*
X269508900Y-87587500D01*
X200951600Y-103461900D02*
X198438300Y-100948600D01*
X270193200Y-91461800D02*
X270193200Y-88271800D01*
X268940000Y-92715000D02*
X270193200Y-91461800D01*
X198438300Y-100948600D02*
X141498000Y-100948600D01*
%TO.N,/D13*%
X261288800Y-104366200D02*
X146934800Y-104366200D01*
X146934800Y-104366200D02*
X146868100Y-104299500D01*
X268940000Y-96715000D02*
X261288800Y-104366200D01*
%TO.N,Net-(A1-D16{slash}TX2)*%
X103720800Y-105335300D02*
X97157500Y-98772000D01*
X266000000Y-122000000D02*
X264473100Y-122000000D01*
X115697800Y-111060100D02*
X109973000Y-105335300D01*
X97157500Y-98772000D02*
X97157500Y-98400000D01*
X95967000Y-98400000D02*
X97157500Y-98400000D01*
X253724100Y-111060100D02*
X115697800Y-111060100D01*
X264473100Y-121809100D02*
X253724100Y-111060100D01*
X264473100Y-122000000D02*
X264473100Y-121809100D01*
X109973000Y-105335300D02*
X103720800Y-105335300D01*
%TO.N,Net-(A1-D17{slash}RX2)*%
X252012000Y-111512000D02*
X115465600Y-111512000D01*
X115465600Y-111512000D02*
X109740800Y-105787200D01*
X109740800Y-105787200D02*
X101632700Y-105787200D01*
X94617500Y-98772000D02*
X94617500Y-98400000D01*
X262500000Y-122000000D02*
X252012000Y-111512000D01*
X93427000Y-98400000D02*
X94617500Y-98400000D01*
X101632700Y-105787200D02*
X94617500Y-98772000D01*
%TO.N,Net-(A1-D18{slash}TX1)*%
X99852900Y-106547400D02*
X92077500Y-98772000D01*
X255473100Y-121813300D02*
X245623700Y-111963900D01*
X245623700Y-111963900D02*
X115233500Y-111963900D01*
X115233500Y-111963900D02*
X109817000Y-106547400D01*
X255473100Y-122000000D02*
X255473100Y-121813300D01*
X257000000Y-122000000D02*
X255473100Y-122000000D01*
X92077500Y-98772000D02*
X92077500Y-98400000D01*
X90887000Y-98400000D02*
X92077500Y-98400000D01*
X109817000Y-106547400D02*
X99852900Y-106547400D01*
%TO.N,Net-(A1-D19{slash}RX1)*%
X104750100Y-108563200D02*
X103186200Y-106999300D01*
X243915800Y-112415800D02*
X107746300Y-112415800D01*
X104750100Y-109419600D02*
X104750100Y-108563200D01*
X103186200Y-106999300D02*
X97764700Y-106999300D01*
X89537500Y-98772100D02*
X89537500Y-98400000D01*
X97764700Y-106999300D02*
X89537500Y-98772100D01*
X253500000Y-122000000D02*
X243915800Y-112415800D01*
X88347000Y-98400000D02*
X89537500Y-98400000D01*
X107746300Y-112415800D02*
X104750100Y-109419600D01*
%TO.N,Net-(A1-D20{slash}SDA)*%
X259473100Y-110526900D02*
X254742700Y-110526900D01*
X86997500Y-98027900D02*
X86997500Y-98400000D01*
X254742700Y-110526900D02*
X249763800Y-105548000D01*
X109301600Y-104883400D02*
X101627700Y-97209500D01*
X87815900Y-97209500D02*
X86997500Y-98027900D01*
X111049900Y-105548000D02*
X110385300Y-104883400D01*
X249763800Y-105548000D02*
X111049900Y-105548000D01*
X85807000Y-98400000D02*
X86997500Y-98400000D01*
X261000000Y-109000000D02*
X259473100Y-110526900D01*
X110385300Y-104883400D02*
X109301600Y-104883400D01*
X101627700Y-97209500D02*
X87815900Y-97209500D01*
%TO.N,Net-(A1-D21{slash}SCL)*%
X257500000Y-109000000D02*
X255973100Y-109000000D01*
X84457500Y-98400000D02*
X84457500Y-98025800D01*
X125576500Y-105096100D02*
X252069200Y-105096100D01*
X101924100Y-96746400D02*
X109164900Y-103987200D01*
X85736900Y-96746400D02*
X101924100Y-96746400D01*
X124467600Y-103987200D02*
X125576500Y-105096100D01*
X84457500Y-98025800D02*
X85736900Y-96746400D01*
X83267000Y-98400000D02*
X84457500Y-98400000D01*
X252069200Y-105096100D02*
X255973100Y-109000000D01*
X109164900Y-103987200D02*
X124467600Y-103987200D01*
%TO.N,/D22*%
X127481500Y-80760100D02*
X112875000Y-95366600D01*
X75647000Y-95860000D02*
X76837500Y-95860000D01*
X224260000Y-76785000D02*
X220284900Y-80760100D01*
X112875000Y-95366600D02*
X77330900Y-95366600D01*
X220284900Y-80760100D02*
X127481500Y-80760100D01*
X77330900Y-95366600D02*
X76837500Y-95860000D01*
%TO.N,/D23*%
X210749200Y-77677400D02*
X206774700Y-77677400D01*
X221391500Y-75603500D02*
X212823100Y-75603500D01*
X101763000Y-94665000D02*
X75120400Y-94665000D01*
X212823100Y-75603500D02*
X210749200Y-77677400D01*
X116130100Y-80297900D02*
X101763000Y-94665000D01*
X224260000Y-72735000D02*
X221391500Y-75603500D01*
X75120400Y-94665000D02*
X74297500Y-95487900D01*
X73107000Y-95860000D02*
X74297500Y-95860000D01*
X74297500Y-95487900D02*
X74297500Y-95860000D01*
X206774700Y-77677400D02*
X204154200Y-80297900D01*
X204154200Y-80297900D02*
X116130100Y-80297900D01*
%TO.N,/D24*%
X224260000Y-68685000D02*
X223056300Y-69888700D01*
X99977500Y-93320000D02*
X75647000Y-93320000D01*
X204442600Y-74925300D02*
X118372200Y-74925300D01*
X223056300Y-69888700D02*
X209479200Y-69888700D01*
X209479200Y-69888700D02*
X204442600Y-74925300D01*
X118372200Y-74925300D02*
X99977500Y-93320000D01*
%TO.N,/D25*%
X78867800Y-92049900D02*
X100929700Y-69988000D01*
X100929700Y-69988000D02*
X204236500Y-69988000D01*
X75197600Y-92049900D02*
X78867800Y-92049900D01*
X74297500Y-92950000D02*
X75197600Y-92049900D01*
X221450000Y-67445000D02*
X224260000Y-64635000D01*
X206779500Y-67445000D02*
X221450000Y-67445000D01*
X73107000Y-93320000D02*
X74297500Y-93320000D01*
X74297500Y-93320000D02*
X74297500Y-92950000D01*
X204236500Y-69988000D02*
X206779500Y-67445000D01*
%TO.N,/D26*%
X75647000Y-90780000D02*
X74456500Y-90780000D01*
X74456500Y-90780000D02*
X74456500Y-91152000D01*
X73637900Y-91970600D02*
X70535600Y-91970600D01*
X70535600Y-91970600D02*
X65080000Y-86515000D01*
X74456500Y-91152000D02*
X73637900Y-91970600D01*
%TO.N,/D27*%
X73107000Y-90780000D02*
X73107000Y-89589500D01*
X73107000Y-89589500D02*
X72204500Y-89589500D01*
X72204500Y-89589500D02*
X65080000Y-82465000D01*
%TO.N,/D29*%
X72734900Y-87049500D02*
X71916500Y-86231100D01*
X71916500Y-81201500D02*
X65080000Y-74365000D01*
X71916500Y-86231100D02*
X71916500Y-81201500D01*
X73107000Y-88240000D02*
X73107000Y-87049500D01*
X73107000Y-87049500D02*
X72734900Y-87049500D01*
%TO.N,/D30*%
X66874400Y-107218900D02*
X66874400Y-108020600D01*
X66874400Y-108020600D02*
X65000000Y-109895000D01*
%TO.N,/D32*%
X68016400Y-99464300D02*
X67330700Y-99464300D01*
X67330700Y-99464300D02*
X65000000Y-101795000D01*
%TO.N,/D38*%
X72627700Y-71730000D02*
X64920000Y-64022300D01*
X75647000Y-75540000D02*
X75647000Y-74349500D01*
X74456500Y-72646300D02*
X73540200Y-71730000D01*
X75274900Y-74349500D02*
X74456500Y-73531100D01*
X73540200Y-71730000D02*
X72627700Y-71730000D01*
X64920000Y-64022300D02*
X64920000Y-39770000D01*
X74456500Y-73531100D02*
X74456500Y-72646300D01*
X75647000Y-74349500D02*
X75274900Y-74349500D01*
%TO.N,/D42*%
X269000000Y-56000000D02*
X265000000Y-56000000D01*
%TO.N,/D43*%
X246926500Y-57426900D02*
X250096200Y-57426900D01*
X160664200Y-67423800D02*
X203527800Y-67423800D01*
X250096200Y-57426900D02*
X251523100Y-56000000D01*
X74297500Y-70102800D02*
X75203700Y-69196600D01*
X256950000Y-56000000D02*
X252950000Y-56000000D01*
X206046600Y-64905000D02*
X211066100Y-64905000D01*
X158891400Y-69196600D02*
X160664200Y-67423800D01*
X252950000Y-56000000D02*
X251523100Y-56000000D01*
X203527800Y-67423800D02*
X206046600Y-64905000D01*
X73107000Y-70460000D02*
X74297500Y-70460000D01*
X74297500Y-70460000D02*
X74297500Y-70102800D01*
X242815900Y-61537500D02*
X246926500Y-57426900D01*
X214433600Y-61537500D02*
X242815900Y-61537500D01*
X75203700Y-69196600D02*
X158891400Y-69196600D01*
X211066100Y-64905000D02*
X214433600Y-61537500D01*
%TO.N,/D44*%
X235610100Y-59913000D02*
X201008300Y-59913000D01*
X240950000Y-56000000D02*
X239523100Y-56000000D01*
X194441700Y-66479600D02*
X78277900Y-66479600D01*
X201008300Y-59913000D02*
X194441700Y-66479600D01*
X75647000Y-67920000D02*
X76837500Y-67920000D01*
X244900000Y-56000000D02*
X240950000Y-56000000D01*
X78277900Y-66479600D02*
X76837500Y-67920000D01*
X239523100Y-56000000D02*
X235610100Y-59913000D01*
%TO.N,/D45*%
X232900000Y-56000000D02*
X228950000Y-56000000D01*
X76350900Y-66650000D02*
X75197500Y-66650000D01*
X75197500Y-66650000D02*
X74297500Y-67550000D01*
X193931000Y-66017900D02*
X76983000Y-66017900D01*
X228950000Y-56000000D02*
X227523100Y-56000000D01*
X227523100Y-56000000D02*
X224351500Y-59171600D01*
X73107000Y-67920000D02*
X74297500Y-67920000D01*
X76983000Y-66017900D02*
X76350900Y-66650000D01*
X74297500Y-67550000D02*
X74297500Y-67920000D01*
X224351500Y-59171600D02*
X200777300Y-59171600D01*
X200777300Y-59171600D02*
X193931000Y-66017900D01*
%TO.N,/D46*%
X218456900Y-56000000D02*
X218376900Y-56080000D01*
X216950000Y-56080000D02*
X218376900Y-56080000D01*
X220900000Y-56000000D02*
X218456900Y-56000000D01*
%TO.N,/D47*%
X207900000Y-56000000D02*
X203950000Y-56000000D01*
X73107000Y-65380000D02*
X74297500Y-65380000D01*
X185457200Y-64189500D02*
X191841100Y-57805600D01*
X203950000Y-56000000D02*
X202523100Y-56000000D01*
X75115900Y-64189500D02*
X185457200Y-64189500D01*
X74297500Y-65380000D02*
X74297500Y-65007900D01*
X74297500Y-65007900D02*
X75115900Y-64189500D01*
X191841100Y-57805600D02*
X200717500Y-57805600D01*
X200717500Y-57805600D02*
X202523100Y-56000000D01*
%TO.N,/D48*%
X190950000Y-56080000D02*
X192376900Y-56080000D01*
X192456900Y-56000000D02*
X192376900Y-56080000D01*
X195900000Y-56000000D02*
X192456900Y-56000000D01*
X190950000Y-56080000D02*
X189523100Y-56080000D01*
X189523100Y-56080000D02*
X182763100Y-62840000D01*
X182763100Y-62840000D02*
X76837500Y-62840000D01*
X75647000Y-62840000D02*
X76837500Y-62840000D01*
%TO.N,/D49*%
X177950000Y-56080000D02*
X179376900Y-56080000D01*
X73107000Y-62840000D02*
X74297500Y-62840000D01*
X75115900Y-61649500D02*
X170953600Y-61649500D01*
X182150000Y-56000000D02*
X179456900Y-56000000D01*
X74297500Y-62467900D02*
X75115900Y-61649500D01*
X170953600Y-61649500D02*
X176523100Y-56080000D01*
X74297500Y-62840000D02*
X74297500Y-62467900D01*
X177950000Y-56080000D02*
X176523100Y-56080000D01*
X179456900Y-56000000D02*
X179376900Y-56080000D01*
%TO.N,/D50*%
X113556900Y-41080000D02*
X113476900Y-41160000D01*
X112050000Y-41160000D02*
X113476900Y-41160000D01*
X116000000Y-41080000D02*
X113556900Y-41080000D01*
%TO.N,/D51*%
X100556900Y-41080000D02*
X100476900Y-41160000D01*
X99050000Y-41160000D02*
X100476900Y-41160000D01*
X103000000Y-41080000D02*
X100556900Y-41080000D01*
%TO.N,/D52*%
X91000000Y-41080000D02*
X88556900Y-41080000D01*
X87050000Y-41160000D02*
X88476900Y-41160000D01*
X88556900Y-41080000D02*
X88476900Y-41160000D01*
%TO.N,/D53*%
X78000000Y-41080000D02*
X75556900Y-41080000D01*
X74050000Y-41160000D02*
X75476900Y-41160000D01*
X75556900Y-41080000D02*
X75476900Y-41160000D01*
%TO.N,GND*%
X211004700Y-89952800D02*
X210686900Y-89635000D01*
X255461700Y-75288100D02*
X256329400Y-74420400D01*
X209560000Y-99795000D02*
X209560000Y-98668100D01*
X134321000Y-97941900D02*
X135053400Y-97209500D01*
X56171300Y-93271900D02*
X57616900Y-94717500D01*
X209800000Y-71544900D02*
X210955700Y-71544900D01*
X143211000Y-98400000D02*
X142020500Y-98400000D01*
X254030600Y-62582600D02*
X254311300Y-62301900D01*
X213676300Y-63425600D02*
X210926900Y-66175000D01*
X197887000Y-95840400D02*
X197921200Y-95874600D01*
X50226500Y-80571900D02*
X50460000Y-80571900D01*
X50460000Y-89605000D02*
X50460000Y-90731900D01*
X254030600Y-62582600D02*
X226257900Y-62582600D01*
X50558300Y-57056900D02*
X49690600Y-57924600D01*
X255180000Y-76415000D02*
X255180000Y-75288100D01*
X209800000Y-76335000D02*
X209800000Y-75208100D01*
X50460000Y-84525000D02*
X49333100Y-84525000D01*
X254898300Y-65128100D02*
X254030600Y-64260400D01*
X226257900Y-62582600D02*
X225414900Y-63425600D01*
X50460000Y-89605000D02*
X50460000Y-88478100D01*
X105459700Y-99640700D02*
X133562000Y-99640700D01*
X135053400Y-97209500D02*
X141202100Y-97209500D01*
X50460000Y-79445000D02*
X50460000Y-80571900D01*
X133562000Y-99640700D02*
X134321000Y-98881700D01*
X256329400Y-73377800D02*
X255413500Y-72461900D01*
X225414900Y-63425600D02*
X213676300Y-63425600D01*
X222996100Y-71544900D02*
X225414900Y-69126100D01*
X254560000Y-89715000D02*
X253433100Y-89715000D01*
X68881400Y-97059800D02*
X76524900Y-97059800D01*
X50460000Y-88478100D02*
X50226500Y-88478100D01*
X209560000Y-89635000D02*
X210686900Y-89635000D01*
X210033500Y-75208100D02*
X209800000Y-75208100D01*
X252242500Y-87817500D02*
X254298100Y-85761900D01*
X253433100Y-89715000D02*
X252242500Y-88524400D01*
X255180000Y-61175000D02*
X255180000Y-62301900D01*
X49333100Y-91154400D02*
X49333100Y-93080400D01*
X255413500Y-72461900D02*
X255180000Y-72461900D01*
X209560000Y-94715000D02*
X208433100Y-94715000D01*
X245078800Y-88524400D02*
X243650400Y-89952800D01*
X243650400Y-89952800D02*
X211004700Y-89952800D01*
X49690600Y-57924600D02*
X49690600Y-58967200D01*
X49690600Y-58967200D02*
X50606500Y-59883100D01*
X210955700Y-71544900D02*
X210955700Y-74285900D01*
X49524600Y-93271900D02*
X56171300Y-93271900D01*
X209305900Y-98668100D02*
X209560000Y-98668100D01*
X76524900Y-97059800D02*
X77739000Y-95845700D01*
X50460000Y-90731900D02*
X49755600Y-90731900D01*
X197921200Y-95874600D02*
X207273500Y-95874600D01*
X209800000Y-66175000D02*
X210926900Y-66175000D01*
X142020500Y-98027900D02*
X142020500Y-98400000D01*
X143211000Y-98400000D02*
X144401500Y-98400000D01*
X144401500Y-98028000D02*
X146589100Y-95840400D01*
X50840000Y-57056900D02*
X50558300Y-57056900D01*
X144401500Y-98400000D02*
X144401500Y-98028000D01*
X49333100Y-84525000D02*
X49333100Y-81465300D01*
X146589100Y-95840400D02*
X197887000Y-95840400D01*
X255180000Y-65128100D02*
X254898300Y-65128100D01*
X252242500Y-88524400D02*
X252242500Y-87817500D01*
X50606500Y-59883100D02*
X50840000Y-59883100D01*
X134321000Y-98881700D02*
X134321000Y-97941900D01*
X49333100Y-87584700D02*
X49333100Y-84525000D01*
X207273500Y-95874600D02*
X207273500Y-96635700D01*
X255180000Y-66255000D02*
X255180000Y-65128100D01*
X141202100Y-97209500D02*
X142020500Y-98027900D01*
X210955700Y-71544900D02*
X222996100Y-71544900D01*
X101664700Y-95845700D02*
X105459700Y-99640700D01*
X256329400Y-74420400D02*
X256329400Y-73377800D01*
X77739000Y-95845700D02*
X101664700Y-95845700D01*
X50226500Y-88478100D02*
X49333100Y-87584700D01*
X210955700Y-74285900D02*
X210033500Y-75208100D01*
X49333100Y-81465300D02*
X50226500Y-80571900D01*
X207273500Y-96635700D02*
X209305900Y-98668100D01*
X254298100Y-85761900D02*
X254560000Y-85761900D01*
X66539100Y-94717500D02*
X68881400Y-97059800D01*
X50840000Y-55930000D02*
X50840000Y-57056900D01*
X57616900Y-94717500D02*
X66539100Y-94717500D01*
X49333100Y-93080400D02*
X49524600Y-93271900D01*
X225414900Y-69126100D02*
X225414900Y-63425600D01*
X208433100Y-94715000D02*
X207273500Y-95874600D01*
X209800000Y-71255000D02*
X209800000Y-71544900D01*
X252242500Y-88524400D02*
X245078800Y-88524400D01*
X50840000Y-61010000D02*
X50840000Y-59883100D01*
X254311300Y-62301900D02*
X255180000Y-62301900D01*
X254560000Y-84635000D02*
X254560000Y-85761900D01*
X254030600Y-64260400D02*
X254030600Y-62582600D01*
X255180000Y-75288100D02*
X255461700Y-75288100D01*
X255180000Y-71335000D02*
X255180000Y-72461900D01*
X49755600Y-90731900D02*
X49333100Y-91154400D01*
%TO.N,Net-(D1-K)*%
X260838000Y-31074000D02*
X257492000Y-31074000D01*
X257492000Y-31074000D02*
X257338000Y-30920000D01*
X249418000Y-23000000D02*
X257338000Y-30920000D01*
X206322000Y-23000000D02*
X249418000Y-23000000D01*
%TO.N,Net-(D2-K)*%
X245992000Y-31074000D02*
X245838000Y-30920000D01*
X206717600Y-26895600D02*
X202822000Y-23000000D01*
X249838000Y-31074000D02*
X245992000Y-31074000D01*
X241813600Y-26895600D02*
X206717600Y-26895600D01*
X245838000Y-30920000D02*
X241813600Y-26895600D01*
%TO.N,Net-(D3-K)*%
X205416800Y-29094800D02*
X232012800Y-29094800D01*
X232012800Y-29094800D02*
X233838000Y-30920000D01*
X237838000Y-31074000D02*
X236411100Y-31074000D01*
X236257100Y-30920000D02*
X236411100Y-31074000D01*
X233838000Y-30920000D02*
X236257100Y-30920000D01*
X199322000Y-23000000D02*
X205416800Y-29094800D01*
%TO.N,Net-(D4-K)*%
X224257100Y-30920000D02*
X224411100Y-31074000D01*
X221838000Y-30920000D02*
X224257100Y-30920000D01*
X225838000Y-31074000D02*
X224411100Y-31074000D01*
%TO.N,Net-(D5-K)*%
X212257100Y-30920000D02*
X212411100Y-31074000D01*
X213838000Y-31074000D02*
X212411100Y-31074000D01*
X208838000Y-30920000D02*
X212257100Y-30920000D01*
%TO.N,Net-(D6-K)*%
X199257100Y-30920000D02*
X199411100Y-31074000D01*
X200838000Y-31074000D02*
X199411100Y-31074000D01*
X196838000Y-30920000D02*
X199257100Y-30920000D01*
%TO.N,Net-(D8-K)*%
X175838000Y-31074000D02*
X174411100Y-31074000D01*
X170838000Y-30920000D02*
X174257100Y-30920000D01*
X174257100Y-30920000D02*
X174411100Y-31074000D01*
%TO.N,Net-(D9-K)*%
X157838000Y-31074000D02*
X162838000Y-31074000D01*
%TO.N,Net-(D10-K)*%
X145838000Y-31074000D02*
X149838000Y-31074000D01*
%TO.N,Net-(D11-K)*%
X152178400Y-28821600D02*
X148646500Y-28821600D01*
X158000000Y-23000000D02*
X152178400Y-28821600D01*
X148646500Y-28821600D02*
X148008200Y-29459900D01*
X132838000Y-31074000D02*
X137838000Y-31074000D01*
X148008200Y-29459900D02*
X140879000Y-29459900D01*
X137838000Y-31074000D02*
X139264900Y-31074000D01*
X140879000Y-29459900D02*
X139264900Y-31074000D01*
%TO.N,Net-(D12-K)*%
X153829000Y-23000000D02*
X147821000Y-29008000D01*
X120838000Y-31074000D02*
X124838000Y-31074000D01*
X128330900Y-29008000D02*
X126264900Y-31074000D01*
X147821000Y-29008000D02*
X128330900Y-29008000D01*
X124838000Y-31074000D02*
X126264900Y-31074000D01*
X154500000Y-23000000D02*
X153829000Y-23000000D01*
%TO.N,Net-(D13-K)*%
X261000000Y-45840000D02*
X265000000Y-45840000D01*
%TO.N,Net-(D14-K)*%
X248950000Y-45840000D02*
X252950000Y-45840000D01*
%TO.N,Net-(D15-K)*%
X236950000Y-45840000D02*
X240950000Y-45840000D01*
%TO.N,Net-(D16-K)*%
X224950000Y-45840000D02*
X228950000Y-45840000D01*
%TO.N,Net-(D17-K)*%
X211950000Y-45840000D02*
X215443100Y-45840000D01*
X216950000Y-45920000D02*
X215523100Y-45920000D01*
X215443100Y-45840000D02*
X215523100Y-45920000D01*
%TO.N,Net-(D18-K)*%
X199950000Y-45840000D02*
X203950000Y-45840000D01*
%TO.N,Net-(D19-K)*%
X185950000Y-45840000D02*
X189443100Y-45840000D01*
X189443100Y-45840000D02*
X189523100Y-45920000D01*
X190950000Y-45920000D02*
X189523100Y-45920000D01*
%TO.N,Net-(D20-K)*%
X177950000Y-45920000D02*
X176523100Y-45920000D01*
X173950000Y-45840000D02*
X176443100Y-45840000D01*
X176443100Y-45840000D02*
X176523100Y-45920000D01*
%TO.N,Net-(D22-K)*%
X97543100Y-30920000D02*
X97623100Y-31000000D01*
X95050000Y-30920000D02*
X97543100Y-30920000D01*
X99050000Y-31000000D02*
X97623100Y-31000000D01*
%TO.N,Net-(D23-K)*%
X82050000Y-30920000D02*
X85543100Y-30920000D01*
X87050000Y-31000000D02*
X85623100Y-31000000D01*
X85543100Y-30920000D02*
X85623100Y-31000000D01*
%TO.N,Net-(D24-K)*%
X72543100Y-30920000D02*
X72623100Y-31000000D01*
X74050000Y-31000000D02*
X72623100Y-31000000D01*
X70050000Y-30920000D02*
X72543100Y-30920000D01*
%TO.N,Net-(J4-Pin_2)*%
X247560000Y-78955000D02*
X246433100Y-78955000D01*
X210434100Y-107357200D02*
X210434100Y-109934400D01*
X210434100Y-109934400D02*
X209841600Y-110526900D01*
X246433100Y-78955000D02*
X244113100Y-76635000D01*
X209841600Y-110526900D02*
X144026900Y-110526900D01*
X244113100Y-76635000D02*
X243800000Y-76635000D01*
X144026900Y-110526900D02*
X142500000Y-109000000D01*
%TO.N,Net-(J5-Pin_2)*%
X247560000Y-68795000D02*
X246433100Y-68795000D01*
X243800000Y-68535000D02*
X246173100Y-68535000D01*
X246173100Y-68535000D02*
X246433100Y-68795000D01*
%TO.N,Net-(J5-Pin_3)*%
X126342900Y-106157100D02*
X123500000Y-109000000D01*
X208780900Y-106389000D02*
X208549000Y-106157100D01*
X208549000Y-106157100D02*
X126342900Y-106157100D01*
%TO.N,Net-(J6-Pin_2)*%
X201663100Y-101208100D02*
X201940000Y-101208100D01*
X201940000Y-102335000D02*
X201940000Y-101208100D01*
X197640000Y-97185000D02*
X201663100Y-101208100D01*
%TO.N,Net-(J8-Pin_1)*%
X232400000Y-100767800D02*
X234528900Y-102896700D01*
X232400000Y-96865000D02*
X232400000Y-100767800D01*
%TO.N,Net-(J8-Pin_2)*%
X242560000Y-96865000D02*
X242560000Y-97141600D01*
X242560000Y-97141600D02*
X246706500Y-101288100D01*
X246940000Y-102415000D02*
X246940000Y-101288100D01*
X246706500Y-101288100D02*
X246940000Y-101288100D01*
%TO.N,Net-(J10-Pin_2)*%
X201053100Y-78875000D02*
X198963100Y-76785000D01*
X198963100Y-76785000D02*
X197880000Y-76785000D01*
X202180000Y-78875000D02*
X201053100Y-78875000D01*
%TO.N,Net-(J10-Pin_3)*%
X200326300Y-75608200D02*
X132265000Y-75608200D01*
X132265000Y-75608200D02*
X132177200Y-75696000D01*
X202180000Y-76335000D02*
X201053100Y-76335000D01*
X201053100Y-76335000D02*
X200326300Y-75608200D01*
%TO.N,Net-(J11-Pin_2)*%
X197880000Y-68685000D02*
X201023100Y-68685000D01*
X202180000Y-68715000D02*
X201053100Y-68715000D01*
X201023100Y-68685000D02*
X201053100Y-68715000D01*
%TO.N,Net-(J11-Pin_3)*%
X202180000Y-66175000D02*
X201053100Y-66175000D01*
X200276300Y-66951800D02*
X201053100Y-66175000D01*
X126631600Y-67236400D02*
X126916200Y-66951800D01*
X126916200Y-66951800D02*
X200276300Y-66951800D01*
%TO.N,Net-(J12-Pin_2)*%
X36897000Y-97688300D02*
X41713100Y-92872200D01*
X42840000Y-92145000D02*
X41713100Y-92145000D01*
X41713100Y-92872200D02*
X41713100Y-92145000D01*
%TO.N,Net-(J12-Pin_3)*%
X90127100Y-103749400D02*
X94090700Y-107713000D01*
X43966900Y-89605000D02*
X43966900Y-90344600D01*
X184823100Y-114323100D02*
X184986700Y-114486700D01*
X55687000Y-96037100D02*
X63399300Y-103749400D01*
X98799700Y-113987400D02*
X145044500Y-113987400D01*
X42840000Y-89605000D02*
X43966900Y-89605000D01*
X145044500Y-113987400D02*
X145380200Y-114323100D01*
X94090700Y-109278400D02*
X98799700Y-113987400D01*
X43966900Y-90344600D02*
X49659400Y-96037100D01*
X63399300Y-103749400D02*
X90127100Y-103749400D01*
X145380200Y-114323100D02*
X184823100Y-114323100D01*
X49659400Y-96037100D02*
X55687000Y-96037100D01*
X94090700Y-107713000D02*
X94090700Y-109278400D01*
%TO.N,Net-(J13-Pin_2)*%
X42606500Y-83111900D02*
X41425400Y-84293000D01*
X42840000Y-83111900D02*
X42606500Y-83111900D01*
X41425400Y-84293000D02*
X41425400Y-87546000D01*
X41425400Y-87546000D02*
X33807600Y-95163800D01*
X42840000Y-81985000D02*
X42840000Y-83111900D01*
%TO.N,Net-(J13-Pin_3)*%
X42840000Y-79445000D02*
X48380400Y-84985400D01*
X101250000Y-108577200D02*
X101250000Y-109434700D01*
X66351900Y-95169400D02*
X73067700Y-101885200D01*
X55503200Y-93827900D02*
X56844700Y-95169400D01*
X151976800Y-113034700D02*
X152084800Y-113142700D01*
X73067700Y-101885200D02*
X91881300Y-101885200D01*
X97458200Y-107462100D02*
X100134900Y-107462100D01*
X100134900Y-107462100D02*
X101250000Y-108577200D01*
X48380400Y-84985400D02*
X48380400Y-92833800D01*
X104850000Y-113034700D02*
X151976800Y-113034700D01*
X170500000Y-122000000D02*
X168930700Y-120430700D01*
X101250000Y-109434700D02*
X104850000Y-113034700D01*
X91881300Y-101885200D02*
X97458200Y-107462100D01*
X56844700Y-95169400D02*
X66351900Y-95169400D01*
X168930700Y-120430700D02*
X159372800Y-120430700D01*
X48380400Y-92833800D02*
X49374500Y-93827900D01*
X49374500Y-93827900D02*
X55503200Y-93827900D01*
%TO.N,Net-(J14-Pin_1)*%
X44146900Y-114106900D02*
X54922600Y-124882600D01*
X226090500Y-124882600D02*
X228973100Y-122000000D01*
X28840000Y-109945000D02*
X29966900Y-109945000D01*
X230500000Y-122000000D02*
X228973100Y-122000000D01*
X29966900Y-109945000D02*
X31916700Y-111894800D01*
X44146900Y-112550600D02*
X44146900Y-114106900D01*
X43491100Y-111894800D02*
X44146900Y-112550600D01*
X54922600Y-124882600D02*
X226090500Y-124882600D01*
X31916700Y-111894800D02*
X43491100Y-111894800D01*
%TO.N,Net-(J14-Pin_2)*%
X53863100Y-125336200D02*
X44146900Y-115620000D01*
X230663800Y-125336200D02*
X53863100Y-125336200D01*
X43020000Y-115620000D02*
X44146900Y-115620000D01*
X234000000Y-122000000D02*
X230663800Y-125336200D01*
%TO.N,Net-(J14-Pin_3)*%
X43020000Y-113080000D02*
X43020000Y-114206900D01*
X43020000Y-114206900D02*
X42786500Y-114206900D01*
X233711900Y-125788100D02*
X237500000Y-122000000D01*
X42786500Y-114206900D02*
X41870600Y-115122800D01*
X41870600Y-115122800D02*
X41870600Y-116070600D01*
X51588100Y-125788100D02*
X233711900Y-125788100D01*
X41870600Y-116070600D02*
X51588100Y-125788100D01*
%TO.N,Net-(J15-Pin_1)*%
X40001900Y-104251000D02*
X42567000Y-106816100D01*
X42567000Y-106816100D02*
X43443800Y-106816100D01*
X143840500Y-116297200D02*
X144466100Y-116922800D01*
X60259500Y-116297200D02*
X143840500Y-116297200D01*
X208000000Y-122000000D02*
X206473100Y-122000000D01*
X49112600Y-112484900D02*
X49112600Y-113160100D01*
X144466100Y-116922800D02*
X154986800Y-116922800D01*
X155098500Y-117034500D02*
X201507600Y-117034500D01*
X32372900Y-104251000D02*
X40001900Y-104251000D01*
X201507600Y-117034500D02*
X206473100Y-122000000D01*
X28840000Y-101845000D02*
X29966900Y-101845000D01*
X50304100Y-114351600D02*
X58313900Y-114351600D01*
X43443800Y-106816100D02*
X49112600Y-112484900D01*
X154986800Y-116922800D02*
X155098500Y-117034500D01*
X49112600Y-113160100D02*
X50304100Y-114351600D01*
X29966900Y-101845000D02*
X32372900Y-104251000D01*
X58313900Y-114351600D02*
X60259500Y-116297200D01*
%TO.N,Net-(J15-Pin_2)*%
X44146900Y-105460000D02*
X44146900Y-105693500D01*
X42798400Y-105460000D02*
X41893100Y-105460000D01*
X155361100Y-116470900D02*
X155472800Y-116582600D01*
X41893100Y-104738100D02*
X39000000Y-101845000D01*
X50263400Y-111810000D02*
X61759400Y-111810000D01*
X61759400Y-111810000D02*
X65794700Y-115845300D01*
X43020000Y-105460000D02*
X44146900Y-105460000D01*
X144653300Y-116470900D02*
X155361100Y-116470900D01*
X155472800Y-116582600D02*
X206082600Y-116582600D01*
X42798400Y-105460000D02*
X43020000Y-105460000D01*
X144027700Y-115845300D02*
X144653300Y-116470900D01*
X41893100Y-105460000D02*
X41893100Y-104738100D01*
X65794700Y-115845300D02*
X144027700Y-115845300D01*
X206082600Y-116582600D02*
X211500000Y-122000000D01*
X44146900Y-105693500D02*
X50263400Y-111810000D01*
%TO.N,Net-(J15-Pin_3)*%
X68819700Y-115393400D02*
X144214900Y-115393400D01*
X57688700Y-104262400D02*
X68819700Y-115393400D01*
X44146900Y-102920000D02*
X45489300Y-104262400D01*
X43020000Y-102920000D02*
X44146900Y-102920000D01*
X144840400Y-116018900D02*
X165389200Y-116018900D01*
X45489300Y-104262400D02*
X57688700Y-104262400D01*
X144214900Y-115393400D02*
X144840400Y-116018900D01*
X165389200Y-116018900D02*
X165499500Y-116129200D01*
X209129200Y-116129200D02*
X215000000Y-122000000D01*
X165499500Y-116129200D02*
X209129200Y-116129200D01*
%TO.N,Net-(J16-Pin_2)*%
X56046900Y-87397100D02*
X55765800Y-87678200D01*
X48941200Y-73224300D02*
X55392400Y-73224300D01*
X43220000Y-68630000D02*
X44346900Y-68630000D01*
X55392400Y-73224300D02*
X56046900Y-73878800D01*
X56046900Y-73878800D02*
X56046900Y-87397100D01*
X44346900Y-68630000D02*
X48941200Y-73224300D01*
%TO.N,Net-(J16-Pin_3)*%
X144400000Y-120400000D02*
X146000000Y-122000000D01*
X118647300Y-120400000D02*
X144400000Y-120400000D01*
X118584700Y-120337400D02*
X118647300Y-120400000D01*
%TO.N,Net-(J17-Pin_1)*%
X41712400Y-67360000D02*
X45650100Y-67360000D01*
X51062500Y-72772400D02*
X55579600Y-72772400D01*
X29966900Y-55614500D02*
X41712400Y-67360000D01*
X29966900Y-54900000D02*
X29966900Y-55614500D01*
X56500300Y-89824900D02*
X56013100Y-90312100D01*
X45650100Y-67360000D02*
X51062500Y-72772400D01*
X56500300Y-73693100D02*
X56500300Y-89824900D01*
X55579600Y-72772400D02*
X56500300Y-73693100D01*
X28840000Y-54900000D02*
X29966900Y-54900000D01*
%TO.N,Net-(J18-Pin_1)*%
X44158300Y-64820000D02*
X42826400Y-64820000D01*
X51528000Y-72189700D02*
X44158300Y-64820000D01*
X55644800Y-72189700D02*
X51528000Y-72189700D01*
X27697900Y-51310300D02*
X27697900Y-41959000D01*
X28760000Y-39770000D02*
X28760000Y-40896900D01*
X42826400Y-64820000D02*
X30420100Y-52413700D01*
X27697900Y-41959000D02*
X28760000Y-40896900D01*
X28801300Y-52413700D02*
X27697900Y-51310300D01*
X30420100Y-52413700D02*
X28801300Y-52413700D01*
X56999700Y-91577400D02*
X56999700Y-73544600D01*
X56999700Y-73544600D02*
X55644800Y-72189700D01*
X56838300Y-91738800D02*
X56999700Y-91577400D01*
%TO.N,Net-(J18-Pin_2)*%
X63654700Y-121218400D02*
X52942900Y-121218400D01*
X64438300Y-120434800D02*
X63654700Y-121218400D01*
X94434800Y-120434800D02*
X64438300Y-120434800D01*
X96000000Y-122000000D02*
X94434800Y-120434800D01*
%TO.N,Net-(J18-Pin_3)*%
X59846400Y-120049200D02*
X51789900Y-120049200D01*
X97482900Y-119982900D02*
X59912700Y-119982900D01*
X99500000Y-122000000D02*
X97482900Y-119982900D01*
X59912700Y-119982900D02*
X59846400Y-120049200D01*
%TO.N,Net-(R51-Pad2)*%
X259400000Y-72075000D02*
X259400000Y-70948100D01*
X256306900Y-68795000D02*
X258460000Y-70948100D01*
X258460000Y-70948100D02*
X259400000Y-70948100D01*
X255180000Y-68795000D02*
X256306900Y-68795000D01*
%TO.N,Net-(R59-Pad2)*%
X209560000Y-92175000D02*
X212813100Y-92175000D01*
X214480000Y-92715000D02*
X213353100Y-92715000D01*
X212813100Y-92175000D02*
X213353100Y-92715000D01*
%TO.N,Net-(R67-Pad2)*%
X257193100Y-92255000D02*
X257653100Y-92715000D01*
X254560000Y-92255000D02*
X257193100Y-92255000D01*
X258780000Y-92715000D02*
X257653100Y-92715000D01*
%TO.N,Net-(R73-Pad2)*%
X210926900Y-78875000D02*
X212973100Y-76828800D01*
X209800000Y-78875000D02*
X210926900Y-78875000D01*
X212973100Y-76828800D02*
X212973100Y-76785000D01*
X214100000Y-76785000D02*
X212973100Y-76785000D01*
%TO.N,Net-(R81-Pad2)*%
X50460000Y-92145000D02*
X50460000Y-91205300D01*
X50460000Y-91205300D02*
X51356600Y-91205300D01*
X51356600Y-91205300D02*
X54920000Y-87641900D01*
X54920000Y-86515000D02*
X54920000Y-87641900D01*
%TO.N,Net-(R82-Pad2)*%
X54920000Y-82465000D02*
X53793100Y-82465000D01*
X50460000Y-85938100D02*
X50705200Y-85938100D01*
X53793100Y-82850200D02*
X53793100Y-82465000D01*
X50705200Y-85938100D02*
X53793100Y-82850200D01*
X50460000Y-87065000D02*
X50460000Y-85938100D01*
%TO.N,Net-(R83-Pad2)*%
X54030000Y-79541900D02*
X54920000Y-79541900D01*
X54920000Y-78415000D02*
X54920000Y-79541900D01*
X50460000Y-81985000D02*
X51586900Y-81985000D01*
X51586900Y-81985000D02*
X54030000Y-79541900D01*
%TO.N,Net-(R84-Pad2)*%
X54920000Y-74365000D02*
X53793100Y-74365000D01*
X50460000Y-76905000D02*
X51586900Y-76905000D01*
X51586900Y-76571200D02*
X53793100Y-74365000D01*
X51586900Y-76905000D02*
X51586900Y-76571200D01*
%TO.N,Net-(R86-Pad2)*%
X50877000Y-109413100D02*
X53713100Y-106577000D01*
X54840000Y-105845000D02*
X53713100Y-105845000D01*
X50640000Y-110540000D02*
X50640000Y-109413100D01*
X50640000Y-109413100D02*
X50877000Y-109413100D01*
X53713100Y-106577000D02*
X53713100Y-105845000D01*
%TO.N,Net-(R88-Pad2)*%
X50640000Y-100380000D02*
X51766900Y-100380000D01*
X54840000Y-97745000D02*
X53713100Y-97745000D01*
X51766900Y-99691200D02*
X53713100Y-97745000D01*
X51766900Y-100380000D02*
X51766900Y-99691200D01*
%TO.N,Net-(R97-Pad2)*%
X50840000Y-68630000D02*
X50840000Y-67503100D01*
X51056300Y-67503100D02*
X54793100Y-63766300D01*
X54793100Y-63766300D02*
X54793100Y-63000000D01*
X50840000Y-67503100D02*
X51056300Y-67503100D01*
X55920000Y-63000000D02*
X54793100Y-63000000D01*
%TO.N,Net-(R99-Pad2)*%
X51966900Y-58470000D02*
X51966900Y-57726200D01*
X50840000Y-58470000D02*
X51966900Y-58470000D01*
X55920000Y-54900000D02*
X54793100Y-54900000D01*
X51966900Y-57726200D02*
X54793100Y-54900000D01*
%TO.N,Net-(R100-Pad2)*%
X50840000Y-53390000D02*
X52253100Y-53390000D01*
X55920000Y-50850000D02*
X54793100Y-50850000D01*
X52253100Y-53390000D02*
X54793100Y-50850000D01*
%TO.N,Net-(R102-Pad2)*%
X53633100Y-36670900D02*
X53633100Y-35770000D01*
X54760000Y-35770000D02*
X53633100Y-35770000D01*
X50640000Y-40565000D02*
X50640000Y-39438100D01*
X50865900Y-39438100D02*
X53633100Y-36670900D01*
X50640000Y-39438100D02*
X50865900Y-39438100D01*
%TO.N,Net-(R103-Pad2)*%
X51766900Y-35485000D02*
X54355000Y-32896900D01*
X50640000Y-35485000D02*
X51766900Y-35485000D01*
X54760000Y-31770000D02*
X54760000Y-32896900D01*
X54355000Y-32896900D02*
X54760000Y-32896900D01*
%TO.N,Net-(R104-Pad2)*%
X50640000Y-30405000D02*
X51766900Y-30405000D01*
X51766900Y-30405000D02*
X51766900Y-29636200D01*
X51766900Y-29636200D02*
X53633100Y-27770000D01*
X54760000Y-27770000D02*
X53633100Y-27770000D01*
%TO.N,GND1*%
X209964900Y-41080000D02*
X211270900Y-39774000D01*
X233838000Y-41080000D02*
X232711100Y-41080000D01*
X196838000Y-41080000D02*
X195711100Y-41080000D01*
X233838000Y-41080000D02*
X234964900Y-41080000D01*
X183838000Y-41080000D02*
X184964900Y-41080000D01*
X107050000Y-41080000D02*
X108176900Y-41080000D01*
X143284200Y-39807100D02*
X144711100Y-41234000D01*
X135391800Y-39807100D02*
X143284200Y-39807100D01*
X157838000Y-39796600D02*
X157838000Y-40107100D01*
X71176900Y-41080000D02*
X72683800Y-42586900D01*
X120838000Y-41234000D02*
X119711100Y-41234000D01*
X221838000Y-41080000D02*
X222964900Y-41080000D01*
X72683800Y-42586900D02*
X79416200Y-42586900D01*
X82050000Y-41080000D02*
X80923100Y-41080000D01*
X197475900Y-54652800D02*
X188424100Y-54652800D01*
X170838000Y-41080000D02*
X169711100Y-41080000D01*
X145838000Y-41234000D02*
X146964900Y-41234000D01*
X148402300Y-39796600D02*
X157838000Y-39796600D01*
X214424100Y-54652800D02*
X213076900Y-56000000D01*
X224272500Y-39772400D02*
X231403500Y-39772400D01*
X195711100Y-41080000D02*
X194438200Y-39807100D01*
X248565700Y-42680800D02*
X246964900Y-41080000D01*
X199950000Y-56000000D02*
X198823100Y-56000000D01*
X222964900Y-41080000D02*
X224272500Y-39772400D01*
X231403500Y-39772400D02*
X232711100Y-41080000D01*
X244711100Y-41080000D02*
X243412500Y-39781400D01*
X245838000Y-41080000D02*
X246964900Y-41080000D01*
X211270900Y-39774000D02*
X219405100Y-39774000D01*
X254610300Y-42680800D02*
X248565700Y-42680800D01*
X157838000Y-41234000D02*
X157838000Y-40107100D01*
X118356500Y-42588600D02*
X109685500Y-42588600D01*
X168427700Y-39796600D02*
X169711100Y-41080000D01*
X185950000Y-56000000D02*
X187076900Y-56000000D01*
X186237800Y-39807100D02*
X184964900Y-41080000D01*
X70050000Y-41080000D02*
X71176900Y-41080000D01*
X256211100Y-41080000D02*
X254610300Y-42680800D01*
X133964900Y-41234000D02*
X135391800Y-39807100D01*
X243412500Y-39781400D02*
X236263500Y-39781400D01*
X132838000Y-41234000D02*
X133964900Y-41234000D01*
X145838000Y-41234000D02*
X144711100Y-41234000D01*
X236263500Y-39781400D02*
X234964900Y-41080000D01*
X208838000Y-41080000D02*
X209964900Y-41080000D01*
X198823100Y-56000000D02*
X197475900Y-54652800D01*
X222475900Y-54652800D02*
X214424100Y-54652800D01*
X221838000Y-41080000D02*
X220711100Y-41080000D01*
X194438200Y-39807100D02*
X186237800Y-39807100D01*
X157838000Y-39796600D02*
X168427700Y-39796600D01*
X224950000Y-56000000D02*
X223823100Y-56000000D01*
X79416200Y-42586900D02*
X80923100Y-41080000D01*
X245838000Y-41080000D02*
X244711100Y-41080000D01*
X119711100Y-41234000D02*
X118356500Y-42588600D01*
X219405100Y-39774000D02*
X220711100Y-41080000D01*
X211950000Y-56000000D02*
X213076900Y-56000000D01*
X188424100Y-54652800D02*
X187076900Y-56000000D01*
X257338000Y-41080000D02*
X256211100Y-41080000D01*
X146964900Y-41234000D02*
X148402300Y-39796600D01*
X109685500Y-42588600D02*
X108176900Y-41080000D01*
X223823100Y-56000000D02*
X222475900Y-54652800D01*
%TO.N,Net-(J4-Pin_5)*%
X243800000Y-72585000D02*
X245143100Y-72585000D01*
X247560000Y-73875000D02*
X246433100Y-73875000D01*
X245143100Y-72585000D02*
X246433100Y-73875000D01*
%TO.N,Net-(J4-Pin_6)*%
X246085600Y-70987500D02*
X243244500Y-70987500D01*
X247560000Y-71335000D02*
X246433100Y-71335000D01*
X246433100Y-71335000D02*
X246085600Y-70987500D01*
%TO.N,Net-(J5-Pin_5)*%
X147345500Y-106884000D02*
X132616000Y-106884000D01*
X132616000Y-106884000D02*
X130500000Y-109000000D01*
X245663100Y-64485000D02*
X246433100Y-63715000D01*
X243800000Y-64485000D02*
X245663100Y-64485000D01*
X247560000Y-63715000D02*
X246433100Y-63715000D01*
%TO.N,Net-(J5-Pin_6)*%
X134000000Y-109000000D02*
X135526900Y-107473100D01*
X147044500Y-107610900D02*
X147646600Y-107610900D01*
X147646600Y-107610900D02*
X147784400Y-107473100D01*
X147784400Y-107473100D02*
X206665000Y-107473100D01*
X135526900Y-107473100D02*
X146906700Y-107473100D01*
X146906700Y-107473100D02*
X147044500Y-107610900D01*
%TO.N,Net-(J8-Pin_4)*%
X238302500Y-106302500D02*
X223082300Y-106302500D01*
X241000000Y-109000000D02*
X238302500Y-106302500D01*
%TO.N,Net-(J8-Pin_5)*%
X246940000Y-97335000D02*
X246940000Y-96208100D01*
X245953100Y-96208100D02*
X242560000Y-92815000D01*
X246940000Y-96208100D02*
X245953100Y-96208100D01*
%TO.N,Net-(J9-Pin_5)*%
X242560000Y-84715000D02*
X245020000Y-87175000D01*
X245020000Y-87175000D02*
X246940000Y-87175000D01*
%TO.N,Net-(J10-Pin_5)*%
X202180000Y-73795000D02*
X201053100Y-73795000D01*
X197880000Y-72735000D02*
X199993100Y-72735000D01*
X199993100Y-72735000D02*
X201053100Y-73795000D01*
%TO.N,Net-(J11-Pin_5)*%
X202180000Y-63635000D02*
X201053100Y-63635000D01*
X201053100Y-63635000D02*
X200053100Y-64635000D01*
X200053100Y-64635000D02*
X197880000Y-64635000D01*
%TO.N,Net-(J12-Pin_4)*%
X56152900Y-119145200D02*
X59472200Y-119145200D01*
X160186300Y-123526900D02*
X194473100Y-123526900D01*
X54677700Y-117670000D02*
X56152900Y-119145200D01*
X47617500Y-114354200D02*
X47617500Y-116020300D01*
X154124500Y-119294000D02*
X155953400Y-119294000D01*
X59702600Y-118914800D02*
X143262600Y-118914800D01*
X143640300Y-119292500D02*
X154123000Y-119292500D01*
X49267200Y-117670000D02*
X54677700Y-117670000D01*
X44539900Y-111276600D02*
X47617500Y-114354200D01*
X154123000Y-119292500D02*
X154124500Y-119294000D01*
X143262600Y-118914800D02*
X143640300Y-119292500D01*
X59472200Y-119145200D02*
X59702600Y-118914800D01*
X155953400Y-119294000D02*
X160186300Y-123526900D01*
X47617500Y-116020300D02*
X49267200Y-117670000D01*
X194473100Y-123526900D02*
X196000000Y-122000000D01*
%TO.N,Net-(J12-Pin_5)*%
X56829300Y-95793300D02*
X55347800Y-94311800D01*
X43345000Y-80822200D02*
X41642800Y-80822200D01*
X49219300Y-94311800D02*
X47928500Y-93021000D01*
X47928500Y-93021000D02*
X47928500Y-85405700D01*
X64987600Y-95793300D02*
X56829300Y-95793300D01*
X67603600Y-98409300D02*
X64987600Y-95793300D01*
X47928500Y-85405700D02*
X43345000Y-80822200D01*
X55347800Y-94311800D02*
X49219300Y-94311800D01*
X41642800Y-80822200D02*
X40000000Y-82465000D01*
%TO.N,Net-(J12-Pin_6)*%
X42840000Y-84525000D02*
X42840000Y-85651900D01*
X165854500Y-113869700D02*
X145975300Y-113869700D01*
X145975300Y-113869700D02*
X145592200Y-113486600D01*
X49692000Y-95425900D02*
X45458200Y-91192100D01*
X97909300Y-109609300D02*
X97909300Y-108682500D01*
X55820600Y-95425900D02*
X49692000Y-95425900D01*
X45458200Y-91192100D02*
X45458200Y-88036600D01*
X101786600Y-113486600D02*
X97909300Y-109609300D01*
X63316600Y-102921900D02*
X55820600Y-95425900D01*
X97909300Y-108682500D02*
X92148700Y-102921900D01*
X194748000Y-113748000D02*
X165976200Y-113748000D01*
X43073500Y-85651900D02*
X42840000Y-85651900D01*
X45458200Y-88036600D02*
X43073500Y-85651900D01*
X145592200Y-113486600D02*
X101786600Y-113486600D01*
X92148700Y-102921900D02*
X63316600Y-102921900D01*
X165976200Y-113748000D02*
X165854500Y-113869700D01*
%TO.N,Net-(J13-Pin_5)*%
X41713100Y-76905000D02*
X41713100Y-76078100D01*
X59285000Y-118693300D02*
X59515400Y-118462900D01*
X56728900Y-118693300D02*
X59285000Y-118693300D01*
X59515400Y-118462900D02*
X143449800Y-118462900D01*
X143827500Y-118840600D02*
X154310200Y-118840600D01*
X41713100Y-76078100D02*
X40000000Y-74365000D01*
X154311700Y-118842100D02*
X174342100Y-118842100D01*
X174342100Y-118842100D02*
X177500000Y-122000000D01*
X56420100Y-118384500D02*
X56728900Y-118693300D01*
X42840000Y-76905000D02*
X41713100Y-76905000D01*
X154310200Y-118840600D02*
X154311700Y-118842100D01*
X143449800Y-118462900D02*
X143827500Y-118840600D01*
%TO.N,Net-(J13-Pin_6)*%
X144014700Y-118388700D02*
X154497400Y-118388700D01*
X143576200Y-117950200D02*
X144014700Y-118388700D01*
X177390200Y-118390200D02*
X181000000Y-122000000D01*
X59000100Y-117950200D02*
X143576200Y-117950200D01*
X154497400Y-118388700D02*
X154498900Y-118390200D01*
X154498900Y-118390200D02*
X177390200Y-118390200D01*
%TO.N,Net-(J14-Pin_5)*%
X45795700Y-115115100D02*
X55111300Y-124430700D01*
X228611300Y-121711100D02*
X228611300Y-120959000D01*
X228611300Y-120959000D02*
X229100100Y-120470200D01*
X45795700Y-113560300D02*
X45795700Y-115115100D01*
X43020000Y-110784600D02*
X45795700Y-113560300D01*
X43020000Y-110540000D02*
X43020000Y-110784600D01*
X242970200Y-120470200D02*
X244500000Y-122000000D01*
X225891700Y-124430700D02*
X228611300Y-121711100D01*
X55111300Y-124430700D02*
X225891700Y-124430700D01*
X229100100Y-120470200D02*
X242970200Y-120470200D01*
%TO.N,Net-(J14-Pin_6)*%
X216750000Y-122459000D02*
X216750000Y-121581600D01*
X227752500Y-121120900D02*
X228915900Y-119957500D01*
X201445300Y-122604600D02*
X202367600Y-123526900D01*
X245957500Y-119957500D02*
X248000000Y-122000000D01*
X49513100Y-116555400D02*
X49707600Y-116749900D01*
X202367600Y-123526900D02*
X215682100Y-123526900D01*
X221325500Y-123526900D02*
X226144500Y-123526900D01*
X197156600Y-117486400D02*
X201445300Y-121775100D01*
X201445300Y-121775100D02*
X201445300Y-122604600D01*
X49707600Y-116749900D02*
X143654100Y-116749900D01*
X219121600Y-120425000D02*
X220250000Y-121553400D01*
X228915900Y-119957500D02*
X245957500Y-119957500D01*
X143654100Y-116749900D02*
X144278900Y-117374700D01*
X49513100Y-114493100D02*
X49513100Y-116555400D01*
X220250000Y-122451400D02*
X221325500Y-123526900D01*
X43020000Y-108000000D02*
X49513100Y-114493100D01*
X215682100Y-123526900D02*
X216750000Y-122459000D01*
X154761700Y-117374700D02*
X154873400Y-117486400D01*
X227752500Y-121918900D02*
X227752500Y-121120900D01*
X144278900Y-117374700D02*
X154761700Y-117374700D01*
X226144500Y-123526900D02*
X227752500Y-121918900D01*
X216750000Y-121581600D02*
X217906600Y-120425000D01*
X220250000Y-121553400D02*
X220250000Y-122451400D01*
X217906600Y-120425000D02*
X219121600Y-120425000D01*
X154873400Y-117486400D02*
X197156600Y-117486400D01*
%TO.N,Net-(J15-Pin_4)*%
X28840000Y-97745000D02*
X28840000Y-98871900D01*
X27654500Y-100057400D02*
X27654500Y-102254200D01*
X48069400Y-113761600D02*
X48069400Y-115787300D01*
X48069400Y-115787300D02*
X49483900Y-117201800D01*
X40166400Y-109273000D02*
X43580800Y-109273000D01*
X197973100Y-122632400D02*
X199319500Y-123978800D01*
X27654500Y-102254200D02*
X30169900Y-104769600D01*
X199319500Y-123978800D02*
X216521200Y-123978800D01*
X154686100Y-117938300D02*
X194137900Y-117938300D01*
X154684600Y-117936800D02*
X154686100Y-117938300D01*
X43580800Y-109273000D02*
X48069400Y-113761600D01*
X216521200Y-123978800D02*
X218500000Y-122000000D01*
X143466900Y-117201800D02*
X144201900Y-117936800D01*
X30169900Y-104769600D02*
X35663000Y-104769600D01*
X28840000Y-98871900D02*
X27654500Y-100057400D01*
X144201900Y-117936800D02*
X154684600Y-117936800D01*
X194137900Y-117938300D02*
X197973100Y-121773500D01*
X35663000Y-104769600D02*
X40166400Y-109273000D01*
X49483900Y-117201800D02*
X143466900Y-117201800D01*
X197973100Y-121773500D02*
X197973100Y-122632400D01*
%TO.N,Net-(J15-Pin_5)*%
X52331800Y-101650000D02*
X54207300Y-103525500D01*
X54207300Y-103525500D02*
X59112400Y-103525500D01*
X43020000Y-100380000D02*
X41635000Y-100380000D01*
X43020000Y-100380000D02*
X44146900Y-100380000D01*
X215677300Y-115677300D02*
X222000000Y-122000000D01*
X78750000Y-108470600D02*
X78750000Y-109466500D01*
X165686700Y-115677300D02*
X215677300Y-115677300D01*
X45416900Y-101650000D02*
X52331800Y-101650000D01*
X84224900Y-114941400D02*
X144402000Y-114941400D01*
X44146900Y-100380000D02*
X45416900Y-101650000D01*
X74997500Y-104718100D02*
X78750000Y-108470600D01*
X165236300Y-115226900D02*
X165686700Y-115677300D01*
X78750000Y-109466500D02*
X84224900Y-114941400D01*
X144402000Y-114941400D02*
X144687500Y-115226900D01*
X41635000Y-100380000D02*
X39000000Y-97745000D01*
X144687500Y-115226900D02*
X165236300Y-115226900D01*
X59112400Y-103525500D02*
X60305000Y-104718100D01*
X60305000Y-104718100D02*
X74997500Y-104718100D01*
%TO.N,Net-(J15-Pin_6)*%
X144874900Y-114775000D02*
X165423500Y-114775000D01*
X89619300Y-109049100D02*
X95058300Y-114488100D01*
X84924900Y-104258300D02*
X89619300Y-108952700D01*
X95058300Y-114488100D02*
X144588000Y-114488100D01*
X55295400Y-96606700D02*
X62947000Y-104258300D01*
X89619300Y-108952700D02*
X89619300Y-109049100D01*
X43020000Y-97840000D02*
X44146900Y-97840000D01*
X45380200Y-96606700D02*
X55295400Y-96606700D01*
X44146900Y-97840000D02*
X45380200Y-96606700D01*
X165873900Y-115225400D02*
X218725400Y-115225400D01*
X165423500Y-114775000D02*
X165873900Y-115225400D01*
X62947000Y-104258300D02*
X84924900Y-104258300D01*
X218725400Y-115225400D02*
X225500000Y-122000000D01*
X144588000Y-114488100D02*
X144874900Y-114775000D01*
%TO.N,Net-(J16-Pin_4)*%
X30968200Y-62205100D02*
X30968200Y-87383000D01*
X28840000Y-58950000D02*
X28840000Y-60076900D01*
X28840000Y-60076900D02*
X30968200Y-62205100D01*
%TO.N,Net-(J16-Pin_5)*%
X43220000Y-63550000D02*
X44346900Y-63550000D01*
X150744400Y-119744400D02*
X121461400Y-119744400D01*
X153000000Y-122000000D02*
X150744400Y-119744400D01*
X51038400Y-70897100D02*
X44346900Y-64205600D01*
X44346900Y-64205600D02*
X44346900Y-63550000D01*
X121461400Y-119744400D02*
X121385400Y-119668400D01*
X51543700Y-70897100D02*
X51038400Y-70897100D01*
%TO.N,Net-(J16-Pin_6)*%
X44346900Y-61010000D02*
X48047600Y-64710700D01*
X43220000Y-61010000D02*
X44346900Y-61010000D01*
X48047600Y-64710700D02*
X52571200Y-64710700D01*
%TO.N,Net-(J17-Pin_4)*%
X42891600Y-57200000D02*
X40333100Y-54641500D01*
X48784700Y-62391800D02*
X43592900Y-57200000D01*
X40333100Y-54533100D02*
X36650000Y-50850000D01*
X36650000Y-50850000D02*
X28840000Y-50850000D01*
X53875000Y-62391800D02*
X48784700Y-62391800D01*
X40333100Y-54641500D02*
X40333100Y-54533100D01*
X43592900Y-57200000D02*
X42891600Y-57200000D01*
%TO.N,Net-(J18-Pin_5)*%
X56994400Y-92942800D02*
X57565200Y-92372000D01*
X57565200Y-92372000D02*
X57565200Y-50847100D01*
X52410800Y-49543400D02*
X44146900Y-41279500D01*
X57565200Y-50847100D02*
X56261500Y-49543400D01*
X44146900Y-41279500D02*
X44146900Y-40565000D01*
X56261500Y-49543400D02*
X52410800Y-49543400D01*
X43020000Y-40565000D02*
X44146900Y-40565000D01*
%TO.N,Net-(J18-Pin_6)*%
X59659400Y-119597100D02*
X52782100Y-119597100D01*
X107531000Y-119531000D02*
X59725500Y-119531000D01*
X52782100Y-119597100D02*
X52503800Y-119318800D01*
X59725500Y-119531000D02*
X59659400Y-119597100D01*
X110000000Y-122000000D02*
X107531000Y-119531000D01*
%TO.N,Net-(J19-Pin_6)*%
X50265100Y-41835000D02*
X51015600Y-41835000D01*
X51015600Y-41835000D02*
X58017700Y-48837100D01*
X58017700Y-93791000D02*
X57917900Y-93890800D01*
X43253500Y-28991900D02*
X44434600Y-30173000D01*
X44434600Y-30173000D02*
X44434600Y-36004500D01*
X43020000Y-27865000D02*
X43020000Y-28991900D01*
X43020000Y-28991900D02*
X43253500Y-28991900D01*
X58017700Y-48837100D02*
X58017700Y-93791000D01*
X44434600Y-36004500D02*
X50265100Y-41835000D01*
%TD*%
M02*
