%TF.GenerationSoftware,KiCad,Pcbnew,7.0.10*%
%TF.CreationDate,2024-02-14T14:15:43+07:00*%
%TF.ProjectId,Arduino_IO_Board,41726475-696e-46f5-9f49-4f5f426f6172,rev?*%
%TF.SameCoordinates,Original*%
%TF.FileFunction,Legend,Bot*%
%TF.FilePolarity,Positive*%
%FSLAX46Y46*%
G04 Gerber Fmt 4.6, Leading zero omitted, Abs format (unit mm)*
G04 Created by KiCad (PCBNEW 7.0.10) date 2024-02-14 14:15:43*
%MOMM*%
%LPD*%
G01*
G04 APERTURE LIST*
%ADD10C,0.150000*%
G04 APERTURE END LIST*
D10*
X116536104Y-51685714D02*
X116536104Y-52161904D01*
X116821819Y-51590476D02*
X115821819Y-51923809D01*
X115821819Y-51923809D02*
X116821819Y-52257142D01*
X116821819Y-53114285D02*
X116821819Y-52542857D01*
X116821819Y-52828571D02*
X115821819Y-52828571D01*
X115821819Y-52828571D02*
X115964676Y-52733333D01*
X115964676Y-52733333D02*
X116059914Y-52638095D01*
X116059914Y-52638095D02*
X116107533Y-52542857D01*
X107143000Y-79963580D02*
X107190619Y-80011200D01*
X107190619Y-80011200D02*
X107143000Y-80058819D01*
X107143000Y-80058819D02*
X107095381Y-80011200D01*
X107095381Y-80011200D02*
X107143000Y-79963580D01*
X107143000Y-79963580D02*
X107143000Y-80058819D01*
X105388905Y-96040180D02*
X105388905Y-97040180D01*
X105388905Y-97040180D02*
X105627000Y-97040180D01*
X105627000Y-97040180D02*
X105769857Y-96992561D01*
X105769857Y-96992561D02*
X105865095Y-96897323D01*
X105865095Y-96897323D02*
X105912714Y-96802085D01*
X105912714Y-96802085D02*
X105960333Y-96611609D01*
X105960333Y-96611609D02*
X105960333Y-96468752D01*
X105960333Y-96468752D02*
X105912714Y-96278276D01*
X105912714Y-96278276D02*
X105865095Y-96183038D01*
X105865095Y-96183038D02*
X105769857Y-96087800D01*
X105769857Y-96087800D02*
X105627000Y-96040180D01*
X105627000Y-96040180D02*
X105388905Y-96040180D01*
X106579381Y-97040180D02*
X106674619Y-97040180D01*
X106674619Y-97040180D02*
X106769857Y-96992561D01*
X106769857Y-96992561D02*
X106817476Y-96944942D01*
X106817476Y-96944942D02*
X106865095Y-96849704D01*
X106865095Y-96849704D02*
X106912714Y-96659228D01*
X106912714Y-96659228D02*
X106912714Y-96421133D01*
X106912714Y-96421133D02*
X106865095Y-96230657D01*
X106865095Y-96230657D02*
X106817476Y-96135419D01*
X106817476Y-96135419D02*
X106769857Y-96087800D01*
X106769857Y-96087800D02*
X106674619Y-96040180D01*
X106674619Y-96040180D02*
X106579381Y-96040180D01*
X106579381Y-96040180D02*
X106484143Y-96087800D01*
X106484143Y-96087800D02*
X106436524Y-96135419D01*
X106436524Y-96135419D02*
X106388905Y-96230657D01*
X106388905Y-96230657D02*
X106341286Y-96421133D01*
X106341286Y-96421133D02*
X106341286Y-96659228D01*
X106341286Y-96659228D02*
X106388905Y-96849704D01*
X106388905Y-96849704D02*
X106436524Y-96944942D01*
X106436524Y-96944942D02*
X106484143Y-96992561D01*
X106484143Y-96992561D02*
X106579381Y-97040180D01*
%TO.C,A1*%
X169627000Y-100940000D02*
X169627000Y-47600000D01*
X169627000Y-100940000D02*
X72091000Y-100940000D01*
X169627000Y-47600000D02*
X70567000Y-47600000D01*
X72091000Y-100940000D02*
X70567000Y-99416000D01*
X70567000Y-88240000D02*
X70567000Y-99416000D01*
X70567000Y-48870000D02*
X68027000Y-51410000D01*
X70567000Y-47600000D02*
X70567000Y-48870000D01*
X68027000Y-85700000D02*
X70567000Y-88240000D01*
X68027000Y-51410000D02*
X68027000Y-85700000D01*
%TD*%
M02*
