%TF.GenerationSoftware,KiCad,Pcbnew,7.0.10*%
%TF.CreationDate,2024-02-14T14:15:43+07:00*%
%TF.ProjectId,Arduino_IO_Board,41726475-696e-46f5-9f49-4f5f426f6172,rev?*%
%TF.SameCoordinates,Original*%
%TF.FileFunction,Soldermask,Top*%
%TF.FilePolarity,Negative*%
%FSLAX46Y46*%
G04 Gerber Fmt 4.6, Leading zero omitted, Abs format (unit mm)*
G04 Created by KiCad (PCBNEW 7.0.10) date 2024-02-14 14:15:43*
%MOMM*%
%LPD*%
G01*
G04 APERTURE LIST*
%ADD10R,2.200000X2.200000*%
%ADD11O,2.200000X2.200000*%
%ADD12C,1.600000*%
%ADD13O,1.600000X1.600000*%
%ADD14R,1.600000X1.600000*%
%ADD15R,2.400000X2.400000*%
%ADD16C,2.400000*%
%ADD17C,3.200000*%
%ADD18O,1.727200X1.727200*%
%ADD19R,1.727200X1.727200*%
G04 APERTURE END LIST*
D10*
%TO.C,D7*%
X187838000Y-31074000D03*
D11*
X187838000Y-41234000D03*
%TD*%
D12*
%TO.C,R73*%
X224260000Y-76785000D03*
D13*
X214100000Y-76785000D03*
%TD*%
D12*
%TO.C,R47*%
X78000000Y-30920000D03*
D13*
X78000000Y-41080000D03*
%TD*%
D12*
%TO.C,R32*%
X224950000Y-45840000D03*
D13*
X224950000Y-56000000D03*
%TD*%
D12*
%TO.C,R86*%
X65000000Y-105845000D03*
D13*
X54840000Y-105845000D03*
%TD*%
D12*
%TO.C,R56*%
X243800000Y-64485000D03*
D13*
X233640000Y-64485000D03*
%TD*%
D12*
%TO.C,R49*%
X269560000Y-63635000D03*
D13*
X259400000Y-63635000D03*
%TD*%
D10*
%TO.C,D6*%
X200838000Y-31074000D03*
D11*
X200838000Y-41234000D03*
%TD*%
D12*
%TO.C,R107*%
X39000000Y-54900000D03*
D13*
X28840000Y-54900000D03*
%TD*%
D12*
%TO.C,R106*%
X39000000Y-58950000D03*
D13*
X28840000Y-58950000D03*
%TD*%
D12*
%TO.C,R48*%
X70050000Y-30920000D03*
D13*
X70050000Y-41080000D03*
%TD*%
D12*
%TO.C,R55*%
X243800000Y-68535000D03*
D13*
X233640000Y-68535000D03*
%TD*%
D12*
%TO.C,R25*%
X269000000Y-45840000D03*
D13*
X269000000Y-56000000D03*
%TD*%
D12*
%TO.C,R31*%
X232900000Y-45840000D03*
D13*
X232900000Y-56000000D03*
%TD*%
D12*
%TO.C,R98*%
X66080000Y-58950000D03*
D13*
X55920000Y-58950000D03*
%TD*%
D14*
%TO.C,U4*%
X209800000Y-78875000D03*
D13*
X209800000Y-76335000D03*
X209800000Y-73795000D03*
X209800000Y-71255000D03*
X209800000Y-68715000D03*
X209800000Y-66175000D03*
X209800000Y-63635000D03*
X209800000Y-61095000D03*
X202180000Y-61095000D03*
X202180000Y-63635000D03*
X202180000Y-66175000D03*
X202180000Y-68715000D03*
X202180000Y-71255000D03*
X202180000Y-73795000D03*
X202180000Y-76335000D03*
X202180000Y-78875000D03*
%TD*%
D12*
%TO.C,R90*%
X40000000Y-82465000D03*
D13*
X29840000Y-82465000D03*
%TD*%
D12*
%TO.C,R80*%
X197880000Y-64635000D03*
D13*
X187720000Y-64635000D03*
%TD*%
D15*
%TO.C,J8*%
X230500000Y-109000000D03*
D16*
X234000000Y-109000000D03*
X237500000Y-109000000D03*
X241000000Y-109000000D03*
X244500000Y-109000000D03*
X248000000Y-109000000D03*
%TD*%
D12*
%TO.C,R87*%
X65000000Y-101795000D03*
D13*
X54840000Y-101795000D03*
%TD*%
D12*
%TO.C,R108*%
X39000000Y-50850000D03*
D13*
X28840000Y-50850000D03*
%TD*%
D12*
%TO.C,R40*%
X173950000Y-45840000D03*
D13*
X173950000Y-56000000D03*
%TD*%
D15*
%TO.C,J19*%
X70000000Y-122000000D03*
D16*
X73500000Y-122000000D03*
X77000000Y-122000000D03*
X80500000Y-122000000D03*
X84000000Y-122000000D03*
X87500000Y-122000000D03*
%TD*%
D10*
%TO.C,D9*%
X162838000Y-31074000D03*
D11*
X162838000Y-41234000D03*
%TD*%
D12*
%TO.C,R72*%
X242560000Y-84715000D03*
D13*
X232400000Y-84715000D03*
%TD*%
D12*
%TO.C,R54*%
X243800000Y-72585000D03*
D13*
X233640000Y-72585000D03*
%TD*%
D15*
%TO.C,J22*%
X257500000Y-109000000D03*
D16*
X261000000Y-109000000D03*
%TD*%
D12*
%TO.C,R24*%
X120838000Y-31074000D03*
D13*
X120838000Y-41234000D03*
%TD*%
D12*
%TO.C,R6*%
X233838000Y-30920000D03*
D13*
X233838000Y-41080000D03*
%TD*%
D12*
%TO.C,R11*%
X204788000Y-30920000D03*
D13*
X204788000Y-41080000D03*
%TD*%
D12*
%TO.C,R3*%
X253288000Y-30920000D03*
D13*
X253288000Y-41080000D03*
%TD*%
D12*
%TO.C,R35*%
X207900000Y-45840000D03*
D13*
X207900000Y-56000000D03*
%TD*%
D12*
%TO.C,R103*%
X64920000Y-31770000D03*
D13*
X54760000Y-31770000D03*
%TD*%
D12*
%TO.C,R51*%
X269560000Y-72075000D03*
D13*
X259400000Y-72075000D03*
%TD*%
D12*
%TO.C,R74*%
X224260000Y-72735000D03*
D13*
X214100000Y-72735000D03*
%TD*%
D15*
%TO.C,J21*%
X266000000Y-122000000D03*
D16*
X262500000Y-122000000D03*
%TD*%
D15*
%TO.C,J13*%
X163500000Y-122000000D03*
D16*
X167000000Y-122000000D03*
X170500000Y-122000000D03*
X174000000Y-122000000D03*
X177500000Y-122000000D03*
X181000000Y-122000000D03*
%TD*%
D10*
%TO.C,D19*%
X190950000Y-45920000D03*
D11*
X190950000Y-56080000D03*
%TD*%
D10*
%TO.C,D4*%
X225838000Y-31074000D03*
D11*
X225838000Y-41234000D03*
%TD*%
D12*
%TO.C,R50*%
X269560000Y-67635000D03*
D13*
X259400000Y-67635000D03*
%TD*%
D12*
%TO.C,R44*%
X95050000Y-30920000D03*
D13*
X95050000Y-41080000D03*
%TD*%
D12*
%TO.C,R19*%
X153788000Y-31074000D03*
D13*
X153788000Y-41234000D03*
%TD*%
D12*
%TO.C,R58*%
X224720000Y-88715000D03*
D13*
X214560000Y-88715000D03*
%TD*%
D15*
%TO.C,J5*%
X116500000Y-109000000D03*
D16*
X120000000Y-109000000D03*
X123500000Y-109000000D03*
X127000000Y-109000000D03*
X130500000Y-109000000D03*
X134000000Y-109000000D03*
%TD*%
D12*
%TO.C,R76*%
X224260000Y-64635000D03*
D13*
X214100000Y-64635000D03*
%TD*%
D12*
%TO.C,R42*%
X107050000Y-30920000D03*
D13*
X107050000Y-41080000D03*
%TD*%
D10*
%TO.C,D21*%
X112050000Y-31000000D03*
D11*
X112050000Y-41160000D03*
%TD*%
D10*
%TO.C,D3*%
X237838000Y-31074000D03*
D11*
X237838000Y-41234000D03*
%TD*%
D10*
%TO.C,D12*%
X124838000Y-31074000D03*
D11*
X124838000Y-41234000D03*
%TD*%
D15*
%TO.C,J4*%
X139000000Y-109000000D03*
D16*
X142500000Y-109000000D03*
X146000000Y-109000000D03*
X149500000Y-109000000D03*
X153000000Y-109000000D03*
X156500000Y-109000000D03*
%TD*%
D12*
%TO.C,R46*%
X82050000Y-30920000D03*
D13*
X82050000Y-41080000D03*
%TD*%
D10*
%TO.C,D22*%
X99050000Y-31000000D03*
D11*
X99050000Y-41160000D03*
%TD*%
D12*
%TO.C,R96*%
X39000000Y-97745000D03*
D13*
X28840000Y-97745000D03*
%TD*%
D12*
%TO.C,R89*%
X40000000Y-86515000D03*
D13*
X29840000Y-86515000D03*
%TD*%
D12*
%TO.C,R71*%
X242560000Y-88765000D03*
D13*
X232400000Y-88765000D03*
%TD*%
D15*
%TO.C,J3*%
X99272000Y-23000000D03*
D16*
X102772000Y-23000000D03*
X106272000Y-23000000D03*
X109772000Y-23000000D03*
X113272000Y-23000000D03*
X116772000Y-23000000D03*
X120272000Y-23000000D03*
X123772000Y-23000000D03*
%TD*%
D12*
%TO.C,R14*%
X183838000Y-30920000D03*
D13*
X183838000Y-41080000D03*
%TD*%
D15*
%TO.C,J12*%
X185500000Y-122000000D03*
D16*
X189000000Y-122000000D03*
X192500000Y-122000000D03*
X196000000Y-122000000D03*
X199500000Y-122000000D03*
X203000000Y-122000000D03*
%TD*%
D17*
%TO.C,A1*%
X155657000Y-50140000D03*
X154387000Y-98400000D03*
D18*
X141687000Y-50140000D03*
D17*
X103587000Y-83160000D03*
X103587000Y-55220000D03*
X79457000Y-98400000D03*
X73107000Y-50140000D03*
D18*
X134067000Y-50140000D03*
X131527000Y-50140000D03*
X103460000Y-78080000D03*
X75647000Y-98400000D03*
X73107000Y-98400000D03*
X118827000Y-50140000D03*
X116287000Y-50140000D03*
X113747000Y-50140000D03*
X111207000Y-50140000D03*
X108667000Y-50140000D03*
X106127000Y-50140000D03*
X103587000Y-50140000D03*
X101047000Y-50140000D03*
X95967000Y-50140000D03*
X93427000Y-50140000D03*
X90887000Y-50140000D03*
X88347000Y-50140000D03*
X85807000Y-50140000D03*
X83267000Y-50140000D03*
X80727000Y-50140000D03*
X78187000Y-50140000D03*
X145751000Y-98400000D03*
X106127000Y-98400000D03*
X108667000Y-98400000D03*
X111207000Y-98400000D03*
X113747000Y-98400000D03*
X116287000Y-98400000D03*
X118827000Y-98400000D03*
X121367000Y-98400000D03*
X123907000Y-98400000D03*
X127971000Y-98400000D03*
X130511000Y-98400000D03*
X133051000Y-98400000D03*
X135591000Y-98400000D03*
X138131000Y-98400000D03*
X140671000Y-98400000D03*
X101047000Y-98400000D03*
X98507000Y-98400000D03*
X95967000Y-98400000D03*
X93427000Y-98400000D03*
X90887000Y-98400000D03*
X88347000Y-98400000D03*
X85807000Y-98400000D03*
X83267000Y-98400000D03*
X75647000Y-95860000D03*
X73107000Y-95860000D03*
X75647000Y-93320000D03*
X73107000Y-93320000D03*
X75647000Y-90780000D03*
X73107000Y-90780000D03*
X75647000Y-88240000D03*
X73107000Y-88240000D03*
X75647000Y-85700000D03*
X73107000Y-85700000D03*
X75647000Y-83160000D03*
X73107000Y-83160000D03*
X75647000Y-80620000D03*
X73107000Y-80620000D03*
X75647000Y-78080000D03*
X73107000Y-78080000D03*
X75647000Y-75540000D03*
X73107000Y-75540000D03*
X75647000Y-73000000D03*
X73107000Y-73000000D03*
X75647000Y-70460000D03*
X73107000Y-70460000D03*
X75647000Y-67920000D03*
X73107000Y-67920000D03*
X75647000Y-65380000D03*
X73107000Y-65380000D03*
X75647000Y-62840000D03*
X73107000Y-62840000D03*
X75647000Y-60300000D03*
X73107000Y-60300000D03*
X75647000Y-57760000D03*
X73107000Y-57760000D03*
D19*
X143211000Y-98400000D03*
X128987000Y-50140000D03*
X126447000Y-50140000D03*
X103460000Y-73000000D03*
X75647000Y-55220000D03*
X73107000Y-55220000D03*
D18*
X139147000Y-50140000D03*
X106000000Y-78080000D03*
X103460000Y-75540000D03*
X136607000Y-50140000D03*
X106000000Y-73000000D03*
X106000000Y-75540000D03*
X150831000Y-98400000D03*
X148291000Y-98400000D03*
X123907000Y-50140000D03*
%TD*%
D12*
%TO.C,R100*%
X66080000Y-50850000D03*
D13*
X55920000Y-50850000D03*
%TD*%
D12*
%TO.C,R13*%
X192788000Y-30920000D03*
D13*
X192788000Y-41080000D03*
%TD*%
D10*
%TO.C,D2*%
X249838000Y-31074000D03*
D11*
X249838000Y-41234000D03*
%TD*%
D12*
%TO.C,R43*%
X103000000Y-30920000D03*
D13*
X103000000Y-41080000D03*
%TD*%
D12*
%TO.C,R18*%
X157838000Y-31074000D03*
D13*
X157838000Y-41234000D03*
%TD*%
D12*
%TO.C,R38*%
X185950000Y-45840000D03*
D13*
X185950000Y-56000000D03*
%TD*%
D12*
%TO.C,R67*%
X268940000Y-92715000D03*
D13*
X258780000Y-92715000D03*
%TD*%
D12*
%TO.C,R75*%
X224260000Y-68685000D03*
D13*
X214100000Y-68685000D03*
%TD*%
D15*
%TO.C,J2*%
X140500000Y-23000000D03*
D16*
X144000000Y-23000000D03*
X147500000Y-23000000D03*
X151000000Y-23000000D03*
X154500000Y-23000000D03*
X158000000Y-23000000D03*
X161500000Y-23000000D03*
X165000000Y-23000000D03*
%TD*%
D12*
%TO.C,R52*%
X269260000Y-76635000D03*
D13*
X259100000Y-76635000D03*
%TD*%
D12*
%TO.C,R37*%
X195900000Y-45840000D03*
D13*
X195900000Y-56000000D03*
%TD*%
D12*
%TO.C,R84*%
X65080000Y-74365000D03*
D13*
X54920000Y-74365000D03*
%TD*%
D12*
%TO.C,R10*%
X208838000Y-30920000D03*
D13*
X208838000Y-41080000D03*
%TD*%
D14*
%TO.C,U5*%
X50460000Y-92145000D03*
D13*
X50460000Y-89605000D03*
X50460000Y-87065000D03*
X50460000Y-84525000D03*
X50460000Y-81985000D03*
X50460000Y-79445000D03*
X50460000Y-76905000D03*
X50460000Y-74365000D03*
X42840000Y-74365000D03*
X42840000Y-76905000D03*
X42840000Y-79445000D03*
X42840000Y-81985000D03*
X42840000Y-84525000D03*
X42840000Y-87065000D03*
X42840000Y-89605000D03*
X42840000Y-92145000D03*
%TD*%
D12*
%TO.C,R29*%
X244900000Y-45840000D03*
D13*
X244900000Y-56000000D03*
%TD*%
D12*
%TO.C,R20*%
X145838000Y-31074000D03*
D13*
X145838000Y-41234000D03*
%TD*%
D12*
%TO.C,R81*%
X65080000Y-86515000D03*
D13*
X54920000Y-86515000D03*
%TD*%
D15*
%TO.C,J9*%
X208500000Y-109000000D03*
D16*
X212000000Y-109000000D03*
X215500000Y-109000000D03*
X219000000Y-109000000D03*
X222500000Y-109000000D03*
X226000000Y-109000000D03*
%TD*%
D12*
%TO.C,R34*%
X211950000Y-45840000D03*
D13*
X211950000Y-56000000D03*
%TD*%
D12*
%TO.C,R85*%
X65000000Y-109895000D03*
D13*
X54840000Y-109895000D03*
%TD*%
D12*
%TO.C,R78*%
X197880000Y-72735000D03*
D13*
X187720000Y-72735000D03*
%TD*%
D12*
%TO.C,R5*%
X241788000Y-30920000D03*
D13*
X241788000Y-41080000D03*
%TD*%
D12*
%TO.C,R70*%
X242560000Y-92815000D03*
D13*
X232400000Y-92815000D03*
%TD*%
D12*
%TO.C,R22*%
X132838000Y-31074000D03*
D13*
X132838000Y-41234000D03*
%TD*%
D12*
%TO.C,R110*%
X38920000Y-35720000D03*
D13*
X28760000Y-35720000D03*
%TD*%
D14*
%TO.C,U7*%
X50840000Y-68630000D03*
D13*
X50840000Y-66090000D03*
X50840000Y-63550000D03*
X50840000Y-61010000D03*
X50840000Y-58470000D03*
X50840000Y-55930000D03*
X50840000Y-53390000D03*
X50840000Y-50850000D03*
X43220000Y-50850000D03*
X43220000Y-53390000D03*
X43220000Y-55930000D03*
X43220000Y-58470000D03*
X43220000Y-61010000D03*
X43220000Y-63550000D03*
X43220000Y-66090000D03*
X43220000Y-68630000D03*
%TD*%
D12*
%TO.C,R17*%
X166788000Y-30920000D03*
D13*
X166788000Y-41080000D03*
%TD*%
D10*
%TO.C,D23*%
X87050000Y-31000000D03*
D11*
X87050000Y-41160000D03*
%TD*%
D12*
%TO.C,R62*%
X197640000Y-93135000D03*
D13*
X187480000Y-93135000D03*
%TD*%
D12*
%TO.C,R91*%
X40000000Y-78415000D03*
D13*
X29840000Y-78415000D03*
%TD*%
D15*
%TO.C,J11*%
X70000000Y-109000000D03*
D16*
X73500000Y-109000000D03*
X77000000Y-109000000D03*
X80500000Y-109000000D03*
X84000000Y-109000000D03*
X87500000Y-109000000D03*
%TD*%
D15*
%TO.C,J10*%
X92500000Y-109000000D03*
D16*
X96000000Y-109000000D03*
X99500000Y-109000000D03*
X103000000Y-109000000D03*
X106500000Y-109000000D03*
X110000000Y-109000000D03*
%TD*%
D12*
%TO.C,R92*%
X40000000Y-74365000D03*
D13*
X29840000Y-74365000D03*
%TD*%
D14*
%TO.C,U3*%
X254560000Y-102415000D03*
D13*
X254560000Y-99875000D03*
X254560000Y-97335000D03*
X254560000Y-94795000D03*
X254560000Y-92255000D03*
X254560000Y-89715000D03*
X254560000Y-87175000D03*
X254560000Y-84635000D03*
X246940000Y-84635000D03*
X246940000Y-87175000D03*
X246940000Y-89715000D03*
X246940000Y-92255000D03*
X246940000Y-94795000D03*
X246940000Y-97335000D03*
X246940000Y-99875000D03*
X246940000Y-102415000D03*
%TD*%
D15*
%TO.C,J20*%
X257000000Y-122000000D03*
D16*
X253500000Y-122000000D03*
%TD*%
D12*
%TO.C,R45*%
X91000000Y-30920000D03*
D13*
X91000000Y-41080000D03*
%TD*%
D12*
%TO.C,R104*%
X64920000Y-27770000D03*
D13*
X54760000Y-27770000D03*
%TD*%
D14*
%TO.C,U2*%
X209560000Y-102335000D03*
D13*
X209560000Y-99795000D03*
X209560000Y-97255000D03*
X209560000Y-94715000D03*
X209560000Y-92175000D03*
X209560000Y-89635000D03*
X209560000Y-87095000D03*
X209560000Y-84555000D03*
X201940000Y-84555000D03*
X201940000Y-87095000D03*
X201940000Y-89635000D03*
X201940000Y-92175000D03*
X201940000Y-94715000D03*
X201940000Y-97255000D03*
X201940000Y-99795000D03*
X201940000Y-102335000D03*
%TD*%
D12*
%TO.C,R41*%
X116000000Y-30920000D03*
D13*
X116000000Y-41080000D03*
%TD*%
D10*
%TO.C,D1*%
X260838000Y-31074000D03*
D11*
X260838000Y-41234000D03*
%TD*%
D12*
%TO.C,R83*%
X65080000Y-78415000D03*
D13*
X54920000Y-78415000D03*
%TD*%
D12*
%TO.C,R12*%
X196838000Y-30920000D03*
D13*
X196838000Y-41080000D03*
%TD*%
D15*
%TO.C,J1*%
X181822000Y-23000000D03*
D16*
X185322000Y-23000000D03*
X188822000Y-23000000D03*
X192322000Y-23000000D03*
X195822000Y-23000000D03*
X199322000Y-23000000D03*
X202822000Y-23000000D03*
X206322000Y-23000000D03*
%TD*%
D12*
%TO.C,R63*%
X197640000Y-88765000D03*
D13*
X187480000Y-88765000D03*
%TD*%
D12*
%TO.C,R57*%
X224640000Y-84715000D03*
D13*
X214480000Y-84715000D03*
%TD*%
D12*
%TO.C,R94*%
X39000000Y-105895000D03*
D13*
X28840000Y-105895000D03*
%TD*%
D14*
%TO.C,U6*%
X50640000Y-115620000D03*
D13*
X50640000Y-113080000D03*
X50640000Y-110540000D03*
X50640000Y-108000000D03*
X50640000Y-105460000D03*
X50640000Y-102920000D03*
X50640000Y-100380000D03*
X50640000Y-97840000D03*
X43020000Y-97840000D03*
X43020000Y-100380000D03*
X43020000Y-102920000D03*
X43020000Y-105460000D03*
X43020000Y-108000000D03*
X43020000Y-110540000D03*
X43020000Y-113080000D03*
X43020000Y-115620000D03*
%TD*%
D12*
%TO.C,R2*%
X257338000Y-30920000D03*
D13*
X257338000Y-41080000D03*
%TD*%
D14*
%TO.C,U1*%
X255180000Y-78955000D03*
D13*
X255180000Y-76415000D03*
X255180000Y-73875000D03*
X255180000Y-71335000D03*
X255180000Y-68795000D03*
X255180000Y-66255000D03*
X255180000Y-63715000D03*
X255180000Y-61175000D03*
X247560000Y-61175000D03*
X247560000Y-63715000D03*
X247560000Y-66255000D03*
X247560000Y-68795000D03*
X247560000Y-71335000D03*
X247560000Y-73875000D03*
X247560000Y-76415000D03*
X247560000Y-78955000D03*
%TD*%
D15*
%TO.C,J7*%
X162500000Y-109000000D03*
D16*
X166000000Y-109000000D03*
X169500000Y-109000000D03*
X173000000Y-109000000D03*
X176500000Y-109000000D03*
X180000000Y-109000000D03*
%TD*%
D12*
%TO.C,R33*%
X220900000Y-45840000D03*
D13*
X220900000Y-56000000D03*
%TD*%
D15*
%TO.C,J16*%
X139000000Y-122000000D03*
D16*
X142500000Y-122000000D03*
X146000000Y-122000000D03*
X149500000Y-122000000D03*
X153000000Y-122000000D03*
X156500000Y-122000000D03*
%TD*%
D12*
%TO.C,R64*%
X197640000Y-84715000D03*
D13*
X187480000Y-84715000D03*
%TD*%
D12*
%TO.C,R66*%
X269020000Y-88715000D03*
D13*
X258860000Y-88715000D03*
%TD*%
D15*
%TO.C,J14*%
X230500000Y-122000000D03*
D16*
X234000000Y-122000000D03*
X237500000Y-122000000D03*
X241000000Y-122000000D03*
X244500000Y-122000000D03*
X248000000Y-122000000D03*
%TD*%
D12*
%TO.C,R53*%
X243800000Y-76635000D03*
D13*
X233640000Y-76635000D03*
%TD*%
D15*
%TO.C,J6*%
X185000000Y-109000000D03*
D16*
X188500000Y-109000000D03*
X192000000Y-109000000D03*
X195500000Y-109000000D03*
X199000000Y-109000000D03*
X202500000Y-109000000D03*
%TD*%
D12*
%TO.C,R60*%
X224640000Y-96715000D03*
D13*
X214480000Y-96715000D03*
%TD*%
D10*
%TO.C,D14*%
X252950000Y-45840000D03*
D11*
X252950000Y-56000000D03*
%TD*%
D12*
%TO.C,R23*%
X128788000Y-31074000D03*
D13*
X128788000Y-41234000D03*
%TD*%
D12*
%TO.C,R65*%
X269020000Y-84715000D03*
D13*
X258860000Y-84715000D03*
%TD*%
D12*
%TO.C,R97*%
X66080000Y-63000000D03*
D13*
X55920000Y-63000000D03*
%TD*%
D12*
%TO.C,R39*%
X182150000Y-45840000D03*
D13*
X182150000Y-56000000D03*
%TD*%
D12*
%TO.C,R69*%
X242560000Y-96865000D03*
D13*
X232400000Y-96865000D03*
%TD*%
D12*
%TO.C,R30*%
X236950000Y-45840000D03*
D13*
X236950000Y-56000000D03*
%TD*%
D12*
%TO.C,R112*%
X38920000Y-27620000D03*
D13*
X28760000Y-27620000D03*
%TD*%
D12*
%TO.C,R109*%
X38920000Y-39770000D03*
D13*
X28760000Y-39770000D03*
%TD*%
D10*
%TO.C,D10*%
X149838000Y-31074000D03*
D11*
X149838000Y-41234000D03*
%TD*%
D12*
%TO.C,R88*%
X65000000Y-97745000D03*
D13*
X54840000Y-97745000D03*
%TD*%
D10*
%TO.C,D18*%
X203950000Y-45840000D03*
D11*
X203950000Y-56000000D03*
%TD*%
D12*
%TO.C,R59*%
X224640000Y-92715000D03*
D13*
X214480000Y-92715000D03*
%TD*%
D10*
%TO.C,D5*%
X213838000Y-31074000D03*
D11*
X213838000Y-41234000D03*
%TD*%
D10*
%TO.C,D24*%
X74050000Y-31000000D03*
D11*
X74050000Y-41160000D03*
%TD*%
D12*
%TO.C,R7*%
X229838000Y-30920000D03*
D13*
X229838000Y-41080000D03*
%TD*%
D12*
%TO.C,R9*%
X217788000Y-30920000D03*
D13*
X217788000Y-41080000D03*
%TD*%
D12*
%TO.C,R21*%
X141668000Y-31074000D03*
D13*
X141668000Y-41234000D03*
%TD*%
D12*
%TO.C,R36*%
X199950000Y-45840000D03*
D13*
X199950000Y-56000000D03*
%TD*%
D12*
%TO.C,R105*%
X39000000Y-63000000D03*
D13*
X28840000Y-63000000D03*
%TD*%
D15*
%TO.C,J18*%
X92500000Y-122000000D03*
D16*
X96000000Y-122000000D03*
X99500000Y-122000000D03*
X103000000Y-122000000D03*
X106500000Y-122000000D03*
X110000000Y-122000000D03*
%TD*%
D10*
%TO.C,D8*%
X175838000Y-31074000D03*
D11*
X175838000Y-41234000D03*
%TD*%
D12*
%TO.C,R111*%
X38920000Y-31670000D03*
D13*
X28760000Y-31670000D03*
%TD*%
D12*
%TO.C,R8*%
X221838000Y-30920000D03*
D13*
X221838000Y-41080000D03*
%TD*%
D12*
%TO.C,R99*%
X66080000Y-54900000D03*
D13*
X55920000Y-54900000D03*
%TD*%
D12*
%TO.C,R68*%
X268940000Y-96715000D03*
D13*
X258780000Y-96715000D03*
%TD*%
D10*
%TO.C,D16*%
X228950000Y-45840000D03*
D11*
X228950000Y-56000000D03*
%TD*%
D10*
%TO.C,D20*%
X177950000Y-45920000D03*
D11*
X177950000Y-56080000D03*
%TD*%
D12*
%TO.C,R102*%
X64920000Y-35770000D03*
D13*
X54760000Y-35770000D03*
%TD*%
D12*
%TO.C,R101*%
X64920000Y-39770000D03*
D13*
X54760000Y-39770000D03*
%TD*%
D12*
%TO.C,R82*%
X65080000Y-82465000D03*
D13*
X54920000Y-82465000D03*
%TD*%
D15*
%TO.C,J17*%
X116000000Y-122000000D03*
D16*
X119500000Y-122000000D03*
X123000000Y-122000000D03*
X126500000Y-122000000D03*
X130000000Y-122000000D03*
X133500000Y-122000000D03*
%TD*%
D10*
%TO.C,D11*%
X137838000Y-31074000D03*
D11*
X137838000Y-41234000D03*
%TD*%
D14*
%TO.C,U8*%
X50640000Y-45645000D03*
D13*
X50640000Y-43105000D03*
X50640000Y-40565000D03*
X50640000Y-38025000D03*
X50640000Y-35485000D03*
X50640000Y-32945000D03*
X50640000Y-30405000D03*
X50640000Y-27865000D03*
X43020000Y-27865000D03*
X43020000Y-30405000D03*
X43020000Y-32945000D03*
X43020000Y-35485000D03*
X43020000Y-38025000D03*
X43020000Y-40565000D03*
X43020000Y-43105000D03*
X43020000Y-45645000D03*
%TD*%
D12*
%TO.C,R93*%
X39000000Y-109945000D03*
D13*
X28840000Y-109945000D03*
%TD*%
D12*
%TO.C,R77*%
X197880000Y-76785000D03*
D13*
X187720000Y-76785000D03*
%TD*%
D12*
%TO.C,R1*%
X265000000Y-30920000D03*
D13*
X265000000Y-41080000D03*
%TD*%
D12*
%TO.C,R27*%
X256950000Y-45840000D03*
D13*
X256950000Y-56000000D03*
%TD*%
D12*
%TO.C,R61*%
X197640000Y-97185000D03*
D13*
X187480000Y-97185000D03*
%TD*%
D12*
%TO.C,R95*%
X39000000Y-101845000D03*
D13*
X28840000Y-101845000D03*
%TD*%
D12*
%TO.C,R4*%
X245838000Y-30920000D03*
D13*
X245838000Y-41080000D03*
%TD*%
D10*
%TO.C,D15*%
X240950000Y-45840000D03*
D11*
X240950000Y-56000000D03*
%TD*%
D12*
%TO.C,R15*%
X179788000Y-30920000D03*
D13*
X179788000Y-41080000D03*
%TD*%
D12*
%TO.C,R79*%
X197880000Y-68685000D03*
D13*
X187720000Y-68685000D03*
%TD*%
D12*
%TO.C,R26*%
X261000000Y-45840000D03*
D13*
X261000000Y-56000000D03*
%TD*%
D10*
%TO.C,D17*%
X216950000Y-45920000D03*
D11*
X216950000Y-56080000D03*
%TD*%
D12*
%TO.C,R28*%
X248950000Y-45840000D03*
D13*
X248950000Y-56000000D03*
%TD*%
D10*
%TO.C,D13*%
X265000000Y-45840000D03*
D11*
X265000000Y-56000000D03*
%TD*%
D12*
%TO.C,R16*%
X170838000Y-30920000D03*
D13*
X170838000Y-41080000D03*
%TD*%
D15*
%TO.C,J15*%
X208000000Y-122000000D03*
D16*
X211500000Y-122000000D03*
X215000000Y-122000000D03*
X218500000Y-122000000D03*
X222000000Y-122000000D03*
X225500000Y-122000000D03*
%TD*%
M02*
