M48
; DRILL file {KiCad 7.0.10} date Thu Feb 15 16:30:16 2024
; FORMAT={-:-/ absolute / inch / decimal}
; #@! TF.CreationDate,2024-02-15T16:30:16+07:00
; #@! TF.GenerationSoftware,Kicad,Pcbnew,7.0.10
; #@! TF.FileFunction,Plated,1,2,PTH
FMAT,2
INCH
; #@! TA.AperFunction,Plated,PTH,ViaDrill
T1C0.0157
; #@! TA.AperFunction,Plated,PTH,ComponentDrill
T2C0.0315
; #@! TA.AperFunction,Plated,PTH,ComponentDrill
T3C0.0400
; #@! TA.AperFunction,Plated,PTH,ComponentDrill
T4C0.0433
; #@! TA.AperFunction,Plated,PTH,ComponentDrill
T5C0.0472
; #@! TA.AperFunction,Plated,PTH,ViaDrill
T6C0.1181
%
G90
G05
T1
X1.1534Y-3.9261
X1.2074Y-2.8771
X1.2298Y-2.5586
X1.2527Y-2.7909
X1.2736Y-2.045
X1.28Y-4.3266
X1.353Y-4.2265
X1.6951Y-4.612
X1.73Y-1.836
X1.7736Y-4.5339
X1.7813Y-4.4782
X1.8625Y-2.8808
X1.9219Y-2.8226
X1.9664Y-4.8833
X1.9866Y-4.6418
X1.9964Y-3.6038
X2.0073Y-2.8298
X2.0275Y-4.6828
X2.1297Y-2.8356
X2.1655Y-4.0977
X2.341Y-4.5948
X2.3447Y-3.6736
X2.3456Y-3.1022
X2.3496Y-3.3437
X2.3596Y-3.7555
X2.7567Y-3.9015
X4.8803Y-2.8781
X4.8927Y-2.925
X4.9959Y-2.8726
X5.2139Y-1.4597
X5.5397Y-4.865
X5.5401Y-4.7324
X5.5498Y-4.1176
X5.7055Y-3.7111
X5.7212Y-3.9233
X7.07Y-3.3222
X7.1767Y-3.2426
X7.2724Y-3.2929
X8.0797Y-4.1464
X8.2101Y-4.2843
X8.6654Y-1.8858
X8.7126Y-1.7795
X9.2323Y-2.063
X9.2992Y-1.9961
X9.4454Y-4.0064
X9.7733Y-1.6369
T2
X1.0782Y-1.0874
X1.0782Y-1.2469
X1.0782Y-1.4063
X1.0782Y-1.5657
X1.0814Y-2.002
X1.0814Y-2.1614
X1.0814Y-2.3209
X1.0814Y-2.4803
X1.0814Y-3.8482
X1.0814Y-4.0096
X1.0814Y-4.1691
X1.0814Y-4.3285
X1.1207Y-2.9278
X1.1207Y-3.0872
X1.1207Y-3.2467
X1.1207Y-3.4061
X1.4782Y-1.0874
X1.4782Y-1.2469
X1.4782Y-1.4063
X1.4782Y-1.5657
X1.4814Y-2.002
X1.4814Y-2.1614
X1.4814Y-2.3209
X1.4814Y-2.4803
X1.4814Y-3.8482
X1.4814Y-4.0096
X1.4814Y-4.1691
X1.4814Y-4.3285
X1.5207Y-2.9278
X1.5207Y-3.0872
X1.5207Y-3.2467
X1.5207Y-3.4061
X1.6326Y-2.9278
X1.6326Y-3.0278
X1.6326Y-3.1278
X1.6326Y-3.2278
X1.6326Y-3.3278
X1.6326Y-3.4278
X1.6326Y-3.5278
X1.6326Y-3.6278
X1.6396Y-1.097
X1.6396Y-1.197
X1.6396Y-1.297
X1.6396Y-1.397
X1.6396Y-1.497
X1.6396Y-1.597
X1.6396Y-1.697
X1.6396Y-1.797
X1.6396Y-3.852
X1.6396Y-3.952
X1.6396Y-4.052
X1.6396Y-4.152
X1.6396Y-4.252
X1.6396Y-4.352
X1.6396Y-4.452
X1.6396Y-4.552
X1.6475Y-2.002
X1.6475Y-2.102
X1.6475Y-2.202
X1.6475Y-2.302
X1.6475Y-2.402
X1.6475Y-2.502
X1.6475Y-2.602
X1.6475Y-2.702
X1.9326Y-2.9278
X1.9326Y-3.0278
X1.9326Y-3.1278
X1.9326Y-3.2278
X1.9326Y-3.3278
X1.9326Y-3.4278
X1.9326Y-3.5278
X1.9326Y-3.6278
X1.9396Y-1.097
X1.9396Y-1.197
X1.9396Y-1.297
X1.9396Y-1.397
X1.9396Y-1.497
X1.9396Y-1.597
X1.9396Y-1.697
X1.9396Y-1.797
X1.9396Y-3.852
X1.9396Y-3.952
X1.9396Y-4.052
X1.9396Y-4.152
X1.9396Y-4.252
X1.9396Y-4.352
X1.9396Y-4.452
X1.9396Y-4.552
X1.9475Y-2.002
X1.9475Y-2.102
X1.9475Y-2.202
X1.9475Y-2.302
X1.9475Y-2.402
X1.9475Y-2.502
X1.9475Y-2.602
X1.9475Y-2.702
X2.1019Y-1.0933
X2.1019Y-1.2508
X2.1019Y-1.4083
X2.1019Y-1.5657
X2.105Y-3.8482
X2.105Y-4.0077
X2.105Y-4.1671
X2.105Y-4.3266
X2.1081Y-2.9278
X2.1081Y-3.0872
X2.1081Y-3.2467
X2.1081Y-3.4061
X2.1475Y-2.002
X2.1475Y-2.1614
X2.1475Y-2.3209
X2.1475Y-2.4803
X2.5019Y-1.0933
X2.5019Y-1.2508
X2.5019Y-1.4083
X2.5019Y-1.5657
X2.505Y-3.8482
X2.505Y-4.0077
X2.505Y-4.1671
X2.505Y-4.3266
X2.5081Y-2.9278
X2.5081Y-3.0872
X2.5081Y-3.2467
X2.5081Y-3.4061
X2.5475Y-2.002
X2.5475Y-2.1614
X2.5475Y-2.3209
X2.5475Y-2.4803
X2.7579Y-0.95
X2.7579Y-1.35
X2.7579Y-1.515
X2.7579Y-1.915
X3.0709Y-0.95
X3.0709Y-1.35
X3.0807Y-1.515
X3.0807Y-1.915
X3.2303Y-0.95
X3.2303Y-1.35
X3.2303Y-1.515
X3.2303Y-1.915
X3.5827Y-0.95
X3.5827Y-1.35
X3.622Y-1.515
X3.622Y-1.915
X3.7421Y-0.95
X3.7421Y-1.35
X3.7815Y-1.515
X3.7815Y-1.915
X4.0551Y-0.95
X4.0551Y-1.35
X4.0945Y-1.515
X4.0945Y-1.915
X4.2146Y-0.95
X4.2146Y-1.35
X4.2539Y-1.515
X4.2539Y-1.915
X4.5669Y-0.95
X4.5669Y-1.35
X4.6063Y-1.515
X4.6063Y-1.915
X4.7574Y-0.9561
X4.7574Y-1.3561
X4.7657Y-1.515
X4.7657Y-1.915
X5.0704Y-0.9561
X5.0704Y-1.3561
X5.0787Y-1.515
X5.0787Y-1.915
X5.2298Y-0.9561
X5.2298Y-1.3561
X5.2382Y-1.515
X5.2382Y-1.915
X5.5512Y-1.515
X5.5512Y-1.915
X5.5775Y-0.9561
X5.5775Y-1.3561
X5.7106Y-1.515
X5.7106Y-1.915
X5.7417Y-0.9561
X5.7417Y-1.3561
X6.0256Y-1.515
X6.0256Y-1.915
X6.0546Y-0.9561
X6.0546Y-1.3561
X6.185Y-1.515
X6.185Y-1.915
X6.2141Y-0.9561
X6.2141Y-1.3561
X6.5Y-1.515
X6.5Y-1.915
X6.5665Y-0.95
X6.5665Y-1.35
X6.7259Y-0.95
X6.7259Y-1.35
X7.0783Y-0.95
X7.0783Y-1.35
X7.2377Y-0.95
X7.2377Y-1.35
X7.3811Y-3.3352
X7.3811Y-3.4947
X7.3811Y-3.6667
X7.3811Y-3.8262
X7.3906Y-2.5447
X7.3906Y-2.7041
X7.3906Y-2.8636
X7.3906Y-3.023
X7.5901Y-0.95
X7.5901Y-1.35
X7.7495Y-0.95
X7.7495Y-1.35
X7.7811Y-3.3352
X7.7811Y-3.4947
X7.7811Y-3.6667
X7.7811Y-3.8262
X7.7906Y-2.5447
X7.7906Y-2.7041
X7.7906Y-2.8636
X7.7906Y-3.023
X7.9504Y-3.3289
X7.9504Y-3.4289
X7.9504Y-3.5289
X7.9504Y-3.6289
X7.9504Y-3.7289
X7.9504Y-3.8289
X7.9504Y-3.9289
X7.9504Y-4.0289
X7.9598Y-2.4053
X7.9598Y-2.5053
X7.9598Y-2.6053
X7.9598Y-2.7053
X7.9598Y-2.8053
X7.9598Y-2.9053
X7.9598Y-3.0053
X7.9598Y-3.1053
X8.0625Y-0.95
X8.0625Y-1.35
X8.09Y-2.015
X8.095Y-1.8694
X8.1Y-2.17
X8.105Y-1.555
X8.105Y-1.71
X8.222Y-0.95
X8.222Y-1.35
X8.2504Y-3.3289
X8.2504Y-3.4289
X8.2504Y-3.5289
X8.2504Y-3.6289
X8.2504Y-3.7289
X8.2504Y-3.8289
X8.2504Y-3.9289
X8.2504Y-4.0289
X8.2598Y-2.4053
X8.2598Y-2.5053
X8.2598Y-2.6053
X8.2598Y-2.7053
X8.2598Y-2.8053
X8.2598Y-2.9053
X8.2598Y-3.0053
X8.2598Y-3.1053
X8.4291Y-2.5447
X8.4291Y-2.7041
X8.4291Y-2.8636
X8.4291Y-3.023
X8.4441Y-3.3352
X8.4441Y-3.6502
X8.4441Y-3.8077
X8.4472Y-3.4927
X8.49Y-2.015
X8.495Y-1.8694
X8.5Y-2.17
X8.505Y-1.555
X8.505Y-1.71
X8.5743Y-0.95
X8.5743Y-1.35
X8.7338Y-0.95
X8.7338Y-1.35
X8.8291Y-2.5447
X8.8291Y-2.7041
X8.8291Y-2.8636
X8.8291Y-3.023
X8.8441Y-3.3352
X8.8441Y-3.6502
X8.8441Y-3.8077
X8.8472Y-3.4927
X8.8654Y-1.6854
X8.8654Y-1.7854
X8.8654Y-1.8854
X8.8654Y-1.9854
X9.0487Y-0.95
X9.0487Y-1.35
X9.1496Y-3.3352
X9.1496Y-3.4947
X9.1496Y-3.6541
X9.1496Y-3.8136
X9.1654Y-1.6854
X9.1654Y-1.7854
X9.1654Y-1.8854
X9.1654Y-1.9854
X9.1984Y-2.5388
X9.1984Y-2.6982
X9.1984Y-2.8577
X9.1984Y-3.0171
X9.2062Y-0.95
X9.2062Y-1.35
X9.455Y-1.875
X9.455Y-2.02
X9.46Y-1.565
X9.46Y-1.72
X9.46Y-2.17
X9.5192Y-0.95
X9.5192Y-1.35
X9.5496Y-3.3352
X9.5496Y-3.4947
X9.5496Y-3.6541
X9.5496Y-3.8136
X9.5984Y-2.5388
X9.5984Y-2.6982
X9.5984Y-2.8577
X9.5984Y-3.0171
X9.6787Y-0.95
X9.6787Y-1.35
X9.722Y-3.3321
X9.722Y-3.4321
X9.722Y-3.5321
X9.722Y-3.6321
X9.722Y-3.7321
X9.722Y-3.8321
X9.722Y-3.9321
X9.722Y-4.0321
X9.7465Y-2.4085
X9.7465Y-2.5085
X9.7465Y-2.6085
X9.7465Y-2.7085
X9.7465Y-2.8085
X9.7465Y-2.9085
X9.7465Y-3.0085
X9.7465Y-3.1085
X9.855Y-1.875
X9.855Y-2.02
X9.86Y-1.565
X9.86Y-1.72
X9.86Y-2.17
X9.972Y-0.95
X9.972Y-1.35
X10.022Y-3.3321
X10.022Y-3.4321
X10.022Y-3.5321
X10.022Y-3.6321
X10.022Y-3.7321
X10.022Y-3.8321
X10.022Y-3.9321
X10.022Y-4.0321
X10.0465Y-2.4085
X10.0465Y-2.5085
X10.0465Y-2.6085
X10.0465Y-2.7085
X10.0465Y-2.8085
X10.0465Y-2.9085
X10.0465Y-3.0085
X10.0465Y-3.1085
X10.1314Y-0.95
X10.1314Y-1.35
X10.1882Y-3.6502
X10.1882Y-3.8077
X10.1913Y-3.3352
X10.1913Y-3.4927
X10.2008Y-3.0171
X10.205Y-1.58
X10.21Y-1.75
X10.21Y-1.92
X10.21Y-2.08
X10.2126Y-2.5053
X10.2126Y-2.6628
X10.2126Y-2.8376
X10.4331Y-0.95
X10.4331Y-1.35
X10.5882Y-3.6502
X10.5882Y-3.8077
X10.5913Y-3.3352
X10.5913Y-3.4927
X10.6008Y-3.0171
X10.605Y-1.58
X10.61Y-1.75
X10.61Y-1.92
X10.61Y-2.08
X10.6126Y-2.5053
X10.6126Y-2.6628
X10.6126Y-2.8376
T3
X2.865Y-2.325
X2.865Y-2.425
X2.865Y-2.525
X2.865Y-2.625
X2.865Y-2.725
X2.865Y-2.825
X2.865Y-2.925
X2.865Y-3.025
X2.865Y-3.125
X2.865Y-3.225
X2.865Y-3.325
X2.865Y-3.425
X2.865Y-3.525
X2.865Y-3.625
X2.865Y-3.725
X2.865Y-3.825
X2.865Y-3.925
X2.865Y-4.025
X2.965Y-2.325
X2.965Y-2.425
X2.965Y-2.525
X2.965Y-2.625
X2.965Y-2.725
X2.965Y-2.825
X2.965Y-2.925
X2.965Y-3.025
X2.965Y-3.125
X2.965Y-3.225
X2.965Y-3.325
X2.965Y-3.425
X2.965Y-3.525
X2.965Y-3.625
X2.965Y-3.725
X2.965Y-3.825
X2.965Y-3.925
X2.965Y-4.025
X3.065Y-2.125
X3.165Y-2.125
X3.265Y-2.125
X3.265Y-4.025
X3.365Y-2.125
X3.365Y-4.025
X3.465Y-2.125
X3.465Y-4.025
X3.565Y-2.125
X3.565Y-4.025
X3.665Y-2.125
X3.665Y-4.025
X3.765Y-2.125
X3.765Y-4.025
X3.865Y-4.025
X3.965Y-2.125
X3.965Y-4.025
X4.06Y-3.025
X4.06Y-3.125
X4.06Y-3.225
X4.065Y-2.125
X4.16Y-3.025
X4.16Y-3.125
X4.16Y-3.225
X4.165Y-2.125
X4.165Y-4.025
X4.265Y-2.125
X4.265Y-4.025
X4.365Y-2.125
X4.365Y-4.025
X4.465Y-2.125
X4.465Y-4.025
X4.565Y-2.125
X4.565Y-4.025
X4.665Y-2.125
X4.665Y-4.025
X4.765Y-4.025
X4.865Y-2.125
X4.865Y-4.025
X4.965Y-2.125
X5.025Y-4.025
X5.065Y-2.125
X5.125Y-4.025
X5.165Y-2.125
X5.225Y-4.025
X5.265Y-2.125
X5.325Y-4.025
X5.365Y-2.125
X5.425Y-4.025
X5.465Y-2.125
X5.525Y-4.025
X5.565Y-2.125
X5.625Y-4.025
X5.725Y-4.025
X5.825Y-4.025
X5.925Y-4.025
T4
X2.9154Y-0.9531
X2.9154Y-1.3531
X2.9154Y-1.5181
X2.9154Y-1.9181
X3.4272Y-0.9531
X3.4272Y-1.3531
X3.4272Y-1.5181
X3.4272Y-1.9181
X3.8996Y-0.9531
X3.8996Y-1.3531
X3.939Y-1.515
X3.939Y-1.915
X4.4114Y-0.9531
X4.4114Y-1.3531
X4.4508Y-1.5181
X4.4508Y-1.9181
X4.9149Y-0.9561
X4.9149Y-1.3561
X4.9232Y-1.515
X4.9232Y-1.915
X5.3957Y-1.515
X5.3957Y-1.915
X5.4267Y-0.9561
X5.4267Y-1.3561
X5.8681Y-1.515
X5.8681Y-1.915
X5.8991Y-0.9561
X5.8991Y-1.3561
X6.3425Y-1.515
X6.3425Y-1.915
X6.4109Y-0.9561
X6.4109Y-1.3561
X6.9228Y-0.9561
X6.9228Y-1.3561
X7.3952Y-0.9561
X7.3952Y-1.3561
X7.907Y-0.9561
X7.907Y-1.3561
X8.4188Y-0.9561
X8.4188Y-1.3561
X8.8913Y-0.9561
X8.8913Y-1.3561
X9.3637Y-0.9561
X9.3637Y-1.3561
X9.8361Y-0.9561
X9.8361Y-1.3561
X10.2692Y-0.9561
X10.2692Y-1.3561
T5
X2.75Y-4.36
X2.7559Y-4.8031
X2.8878Y-4.36
X2.8937Y-4.8031
X3.0256Y-4.36
X3.0315Y-4.8031
X3.1634Y-4.36
X3.1693Y-4.8031
X3.3012Y-4.36
X3.3071Y-4.8031
X3.439Y-4.36
X3.4449Y-4.8031
X3.6358Y-4.36
X3.6417Y-4.8031
X3.7736Y-4.36
X3.7795Y-4.8031
X3.9114Y-4.36
X3.9173Y-4.8031
X4.0492Y-4.36
X4.0551Y-4.8031
X4.187Y-4.36
X4.1929Y-4.8031
X4.3248Y-4.36
X4.3307Y-4.8031
X4.5669Y-4.8031
X4.5807Y-4.36
X4.7047Y-4.8031
X4.7185Y-4.36
X4.8425Y-4.8031
X4.8563Y-4.36
X4.9803Y-4.8031
X4.9941Y-4.36
X5.1181Y-4.8031
X5.1319Y-4.36
X5.2559Y-4.8031
X5.2697Y-4.36
X5.4665Y-4.36
X5.4724Y-4.8031
X5.6043Y-4.36
X5.6102Y-4.8031
X5.636Y-0.655
X5.7421Y-4.36
X5.748Y-4.8031
X5.7738Y-0.655
X5.8799Y-4.36
X5.8858Y-4.8031
X5.9116Y-0.655
X6.0177Y-4.36
X6.0236Y-4.8031
X6.0494Y-0.655
X6.1555Y-4.36
X6.1614Y-4.8031
X6.1872Y-0.655
X6.325Y-0.655
X6.3917Y-4.36
X6.437Y-4.8031
X6.4628Y-0.655
X6.5295Y-4.36
X6.5748Y-4.8031
X6.6006Y-0.655
X6.6673Y-4.36
X6.7126Y-4.8031
X6.8016Y-0.655
X6.8051Y-4.36
X6.8504Y-4.8031
X6.9394Y-0.655
X6.9429Y-4.36
X6.9882Y-4.8031
X7.0772Y-0.655
X7.0807Y-4.36
X7.126Y-4.8031
X7.215Y-0.655
X7.2776Y-4.36
X7.3031Y-4.8031
X7.3528Y-0.655
X7.4154Y-4.36
X7.4409Y-4.8031
X7.4906Y-0.655
X7.5531Y-4.36
X7.5787Y-4.8031
X7.6284Y-0.655
X7.6909Y-4.36
X7.7165Y-4.8031
X7.7662Y-0.655
X7.8287Y-4.36
X7.8543Y-4.8031
X7.9616Y-0.655
X7.9665Y-4.36
X7.9921Y-4.8031
X8.0994Y-0.655
X8.189Y-4.8031
X8.2028Y-4.36
X8.2372Y-0.655
X8.3268Y-4.8031
X8.3406Y-4.36
X8.375Y-0.655
X8.4646Y-4.8031
X8.4783Y-4.36
X8.5128Y-0.655
X8.6024Y-4.8031
X8.6161Y-4.36
X8.6506Y-0.655
X8.7402Y-4.8031
X8.7539Y-4.36
X8.7884Y-0.655
X8.878Y-4.8031
X8.8917Y-4.36
X8.9262Y-0.655
X9.0689Y-4.36
X9.0748Y-4.8031
X9.2067Y-4.36
X9.2126Y-4.8031
X9.3445Y-4.36
X9.3504Y-4.8031
X9.4109Y-0.64
X9.4823Y-4.36
X9.4882Y-4.8031
X9.5487Y-0.64
X9.6201Y-4.36
X9.626Y-4.8031
X9.7579Y-4.36
X9.7638Y-4.8031
X9.7672Y-0.64
X9.905Y-0.64
X9.9803Y-4.8031
X10.1181Y-4.8031
X10.1319Y-4.36
X10.2697Y-4.36
X10.3346Y-4.8031
X10.4724Y-4.8031
T6
X0.8661Y-1.1024
X0.8661Y-4.4488
X10.6299Y-1.1024
X10.6299Y-4.4488
M30
