%TF.GenerationSoftware,KiCad,Pcbnew,7.0.10*%
%TF.CreationDate,2024-02-15T16:30:13+07:00*%
%TF.ProjectId,Arduino_IO_Board,41726475-696e-46f5-9f49-4f5f426f6172,rev?*%
%TF.SameCoordinates,Original*%
%TF.FileFunction,Soldermask,Bot*%
%TF.FilePolarity,Negative*%
%FSLAX46Y46*%
G04 Gerber Fmt 4.6, Leading zero omitted, Abs format (unit mm)*
G04 Created by KiCad (PCBNEW 7.0.10) date 2024-02-15 16:30:13*
%MOMM*%
%LPD*%
G01*
G04 APERTURE LIST*
%ADD10R,2.200000X2.200000*%
%ADD11O,2.200000X2.200000*%
%ADD12C,1.600000*%
%ADD13O,1.600000X1.600000*%
%ADD14R,1.600000X1.600000*%
%ADD15R,2.400000X2.400000*%
%ADD16C,2.400000*%
%ADD17C,3.200000*%
%ADD18O,1.727200X1.727200*%
%ADD19R,1.727200X1.727200*%
%ADD20R,2.400000X1.600000*%
%ADD21O,2.400000X1.600000*%
G04 APERTURE END LIST*
D10*
%TO.C,D7*%
X187838000Y-24284000D03*
D11*
X187838000Y-34444000D03*
%TD*%
D12*
%TO.C,R73*%
X224260000Y-76785000D03*
D13*
X214100000Y-76785000D03*
%TD*%
D12*
%TO.C,R47*%
X78000000Y-24130000D03*
D13*
X78000000Y-34290000D03*
%TD*%
D12*
%TO.C,R32*%
X121050000Y-38481000D03*
D13*
X121050000Y-48641000D03*
%TD*%
D12*
%TO.C,R86*%
X63627000Y-105845000D03*
D13*
X53467000Y-105845000D03*
%TD*%
D12*
%TO.C,R56*%
X243800000Y-64485000D03*
D13*
X233640000Y-64485000D03*
%TD*%
D12*
%TO.C,R122*%
X240284000Y-39751000D03*
D13*
X250444000Y-39751000D03*
%TD*%
D12*
%TO.C,R49*%
X269560000Y-63635000D03*
D13*
X259400000Y-63635000D03*
%TD*%
D10*
%TO.C,D6*%
X200838000Y-24284000D03*
D11*
X200838000Y-34444000D03*
%TD*%
D12*
%TO.C,R107*%
X37627000Y-54900000D03*
D13*
X27467000Y-54900000D03*
%TD*%
D12*
%TO.C,R106*%
X37627000Y-58950000D03*
D13*
X27467000Y-58950000D03*
%TD*%
D12*
%TO.C,R48*%
X70050000Y-24130000D03*
D13*
X70050000Y-34290000D03*
%TD*%
D12*
%TO.C,R55*%
X243800000Y-68535000D03*
D13*
X233640000Y-68535000D03*
%TD*%
D12*
%TO.C,R25*%
X165100000Y-38481000D03*
D13*
X165100000Y-48641000D03*
%TD*%
D12*
%TO.C,R31*%
X129000000Y-38481000D03*
D13*
X129000000Y-48641000D03*
%TD*%
D12*
%TO.C,R98*%
X64707000Y-58950000D03*
D13*
X54547000Y-58950000D03*
%TD*%
D14*
%TO.C,U4*%
X209800000Y-78875000D03*
D13*
X209800000Y-76335000D03*
X209800000Y-73795000D03*
X209800000Y-71255000D03*
X209800000Y-68715000D03*
X209800000Y-66175000D03*
X209800000Y-63635000D03*
X209800000Y-61095000D03*
X202180000Y-61095000D03*
X202180000Y-63635000D03*
X202180000Y-66175000D03*
X202180000Y-68715000D03*
X202180000Y-71255000D03*
X202180000Y-73795000D03*
X202180000Y-76335000D03*
X202180000Y-78875000D03*
%TD*%
D12*
%TO.C,R90*%
X38627000Y-82465000D03*
D13*
X28467000Y-82465000D03*
%TD*%
D12*
%TO.C,R80*%
X197880000Y-64635000D03*
D13*
X187720000Y-64635000D03*
%TD*%
D15*
%TO.C,J8*%
X230350000Y-110744000D03*
D16*
X233850000Y-110744000D03*
X237350000Y-110744000D03*
X240850000Y-110744000D03*
X244350000Y-110744000D03*
X247850000Y-110744000D03*
%TD*%
D12*
%TO.C,R87*%
X63627000Y-101795000D03*
D13*
X53467000Y-101795000D03*
%TD*%
D12*
%TO.C,R108*%
X37627000Y-50850000D03*
D13*
X27467000Y-50850000D03*
%TD*%
D12*
%TO.C,R40*%
X70050000Y-38481000D03*
D13*
X70050000Y-48641000D03*
%TD*%
D15*
%TO.C,J19*%
X70000000Y-122000000D03*
D16*
X73500000Y-122000000D03*
X77000000Y-122000000D03*
X80500000Y-122000000D03*
X84000000Y-122000000D03*
X87500000Y-122000000D03*
%TD*%
D10*
%TO.C,D9*%
X162838000Y-24284000D03*
D11*
X162838000Y-34444000D03*
%TD*%
D12*
%TO.C,R72*%
X242560000Y-84715000D03*
D13*
X232400000Y-84715000D03*
%TD*%
D12*
%TO.C,R54*%
X243800000Y-72585000D03*
D13*
X233640000Y-72585000D03*
%TD*%
D15*
%TO.C,J22*%
X257350000Y-110744000D03*
D16*
X260850000Y-110744000D03*
%TD*%
D12*
%TO.C,R24*%
X120838000Y-24284000D03*
D13*
X120838000Y-34444000D03*
%TD*%
D12*
%TO.C,R6*%
X233838000Y-24130000D03*
D13*
X233838000Y-34290000D03*
%TD*%
D12*
%TO.C,R11*%
X204788000Y-24130000D03*
D13*
X204788000Y-34290000D03*
%TD*%
D12*
%TO.C,R121*%
X240157000Y-47625000D03*
D13*
X250317000Y-47625000D03*
%TD*%
D12*
%TO.C,R3*%
X253288000Y-24130000D03*
D13*
X253288000Y-34290000D03*
%TD*%
D12*
%TO.C,R35*%
X104000000Y-38481000D03*
D13*
X104000000Y-48641000D03*
%TD*%
D12*
%TO.C,R103*%
X63547000Y-31770000D03*
D13*
X53387000Y-31770000D03*
%TD*%
D12*
%TO.C,R51*%
X269560000Y-72075000D03*
D13*
X259400000Y-72075000D03*
%TD*%
D12*
%TO.C,R74*%
X224260000Y-72735000D03*
D13*
X214100000Y-72735000D03*
%TD*%
D15*
%TO.C,J21*%
X266000000Y-122000000D03*
D16*
X262500000Y-122000000D03*
%TD*%
D15*
%TO.C,J13*%
X163500000Y-122000000D03*
D16*
X167000000Y-122000000D03*
X170500000Y-122000000D03*
X174000000Y-122000000D03*
X177500000Y-122000000D03*
X181000000Y-122000000D03*
%TD*%
D12*
%TO.C,R118*%
X240284000Y-55118000D03*
D13*
X250444000Y-55118000D03*
%TD*%
D10*
%TO.C,D19*%
X87050000Y-38561000D03*
D11*
X87050000Y-48721000D03*
%TD*%
D10*
%TO.C,D4*%
X225838000Y-24284000D03*
D11*
X225838000Y-34444000D03*
%TD*%
D12*
%TO.C,R117*%
X205867000Y-39497000D03*
D13*
X216027000Y-39497000D03*
%TD*%
D12*
%TO.C,R50*%
X269560000Y-67635000D03*
D13*
X259400000Y-67635000D03*
%TD*%
D12*
%TO.C,R115*%
X205867000Y-43434000D03*
D13*
X216027000Y-43434000D03*
%TD*%
D12*
%TO.C,R44*%
X95050000Y-24130000D03*
D13*
X95050000Y-34290000D03*
%TD*%
D12*
%TO.C,R19*%
X153788000Y-24284000D03*
D13*
X153788000Y-34444000D03*
%TD*%
D12*
%TO.C,R58*%
X224720000Y-88715000D03*
D13*
X214560000Y-88715000D03*
%TD*%
D15*
%TO.C,J5*%
X116350000Y-110744000D03*
D16*
X119850000Y-110744000D03*
X123350000Y-110744000D03*
X126850000Y-110744000D03*
X130350000Y-110744000D03*
X133850000Y-110744000D03*
%TD*%
D14*
%TO.C,D28*%
X259334000Y-52832000D03*
D13*
X269494000Y-52832000D03*
%TD*%
D12*
%TO.C,R76*%
X224260000Y-64635000D03*
D13*
X214100000Y-64635000D03*
%TD*%
D12*
%TO.C,R42*%
X107050000Y-24130000D03*
D13*
X107050000Y-34290000D03*
%TD*%
D10*
%TO.C,D21*%
X112050000Y-24210000D03*
D11*
X112050000Y-34370000D03*
%TD*%
D10*
%TO.C,D3*%
X237838000Y-24284000D03*
D11*
X237838000Y-34444000D03*
%TD*%
D10*
%TO.C,D12*%
X124838000Y-24284000D03*
D11*
X124838000Y-34444000D03*
%TD*%
D15*
%TO.C,J4*%
X138850000Y-110744000D03*
D16*
X142350000Y-110744000D03*
X145850000Y-110744000D03*
X149350000Y-110744000D03*
X152850000Y-110744000D03*
X156350000Y-110744000D03*
%TD*%
D12*
%TO.C,R46*%
X82050000Y-24130000D03*
D13*
X82050000Y-34290000D03*
%TD*%
D10*
%TO.C,D22*%
X99050000Y-24210000D03*
D11*
X99050000Y-34370000D03*
%TD*%
D12*
%TO.C,R96*%
X37627000Y-97745000D03*
D13*
X27467000Y-97745000D03*
%TD*%
D12*
%TO.C,R89*%
X38627000Y-86515000D03*
D13*
X28467000Y-86515000D03*
%TD*%
D12*
%TO.C,R71*%
X242560000Y-88765000D03*
D13*
X232400000Y-88765000D03*
%TD*%
D15*
%TO.C,J3*%
X143155000Y-16637000D03*
D16*
X146655000Y-16637000D03*
X150155000Y-16637000D03*
X153655000Y-16637000D03*
X157155000Y-16637000D03*
X160655000Y-16637000D03*
X164155000Y-16637000D03*
X167655000Y-16637000D03*
%TD*%
D12*
%TO.C,R14*%
X183838000Y-24130000D03*
D13*
X183838000Y-34290000D03*
%TD*%
D15*
%TO.C,J12*%
X185500000Y-122000000D03*
D16*
X189000000Y-122000000D03*
X192500000Y-122000000D03*
X196000000Y-122000000D03*
X199500000Y-122000000D03*
X203000000Y-122000000D03*
%TD*%
D17*
%TO.C,A1*%
X155321000Y-53975000D03*
X154051000Y-102235000D03*
D18*
X141351000Y-53975000D03*
D17*
X103251000Y-86995000D03*
X103251000Y-59055000D03*
X79121000Y-102235000D03*
X72771000Y-53975000D03*
D18*
X133731000Y-53975000D03*
X131191000Y-53975000D03*
X103124000Y-81915000D03*
X75311000Y-102235000D03*
X72771000Y-102235000D03*
X118491000Y-53975000D03*
X115951000Y-53975000D03*
X113411000Y-53975000D03*
X110871000Y-53975000D03*
X108331000Y-53975000D03*
X105791000Y-53975000D03*
X103251000Y-53975000D03*
X100711000Y-53975000D03*
X95631000Y-53975000D03*
X93091000Y-53975000D03*
X90551000Y-53975000D03*
X88011000Y-53975000D03*
X85471000Y-53975000D03*
X82931000Y-53975000D03*
X80391000Y-53975000D03*
X77851000Y-53975000D03*
X145415000Y-102235000D03*
X105791000Y-102235000D03*
X108331000Y-102235000D03*
X110871000Y-102235000D03*
X113411000Y-102235000D03*
X115951000Y-102235000D03*
X118491000Y-102235000D03*
X121031000Y-102235000D03*
X123571000Y-102235000D03*
X127635000Y-102235000D03*
X130175000Y-102235000D03*
X132715000Y-102235000D03*
X135255000Y-102235000D03*
X137795000Y-102235000D03*
X140335000Y-102235000D03*
X100711000Y-102235000D03*
X98171000Y-102235000D03*
X95631000Y-102235000D03*
X93091000Y-102235000D03*
X90551000Y-102235000D03*
X88011000Y-102235000D03*
X85471000Y-102235000D03*
X82931000Y-102235000D03*
X75311000Y-99695000D03*
X72771000Y-99695000D03*
X75311000Y-97155000D03*
X72771000Y-97155000D03*
X75311000Y-94615000D03*
X72771000Y-94615000D03*
X75311000Y-92075000D03*
X72771000Y-92075000D03*
X75311000Y-89535000D03*
X72771000Y-89535000D03*
X75311000Y-86995000D03*
X72771000Y-86995000D03*
X75311000Y-84455000D03*
X72771000Y-84455000D03*
X75311000Y-81915000D03*
X72771000Y-81915000D03*
X75311000Y-79375000D03*
X72771000Y-79375000D03*
X75311000Y-76835000D03*
X72771000Y-76835000D03*
X75311000Y-74295000D03*
X72771000Y-74295000D03*
X75311000Y-71755000D03*
X72771000Y-71755000D03*
X75311000Y-69215000D03*
X72771000Y-69215000D03*
X75311000Y-66675000D03*
X72771000Y-66675000D03*
X75311000Y-64135000D03*
X72771000Y-64135000D03*
X75311000Y-61595000D03*
X72771000Y-61595000D03*
D19*
X142875000Y-102235000D03*
X128651000Y-53975000D03*
X126111000Y-53975000D03*
X103124000Y-76835000D03*
X75311000Y-59055000D03*
X72771000Y-59055000D03*
D18*
X138811000Y-53975000D03*
X105664000Y-81915000D03*
X103124000Y-79375000D03*
X136271000Y-53975000D03*
X105664000Y-76835000D03*
X105664000Y-79375000D03*
X150495000Y-102235000D03*
X147955000Y-102235000D03*
X123571000Y-53975000D03*
%TD*%
D12*
%TO.C,R100*%
X64707000Y-50850000D03*
D13*
X54547000Y-50850000D03*
%TD*%
D15*
%TO.C,J24*%
X248087000Y-16256000D03*
D16*
X251587000Y-16256000D03*
%TD*%
D12*
%TO.C,R13*%
X192788000Y-24130000D03*
D13*
X192788000Y-34290000D03*
%TD*%
D10*
%TO.C,D2*%
X249838000Y-24284000D03*
D11*
X249838000Y-34444000D03*
%TD*%
D12*
%TO.C,R43*%
X103000000Y-24130000D03*
D13*
X103000000Y-34290000D03*
%TD*%
D12*
%TO.C,R18*%
X157838000Y-24284000D03*
D13*
X157838000Y-34444000D03*
%TD*%
D12*
%TO.C,R38*%
X82050000Y-38481000D03*
D13*
X82050000Y-48641000D03*
%TD*%
D12*
%TO.C,R67*%
X268940000Y-92715000D03*
D13*
X258780000Y-92715000D03*
%TD*%
D12*
%TO.C,R75*%
X224260000Y-68685000D03*
D13*
X214100000Y-68685000D03*
%TD*%
D15*
%TO.C,J2*%
X172761000Y-16637000D03*
D16*
X176261000Y-16637000D03*
X179761000Y-16637000D03*
X183261000Y-16637000D03*
X186761000Y-16637000D03*
X190261000Y-16637000D03*
X193761000Y-16637000D03*
X197261000Y-16637000D03*
%TD*%
D12*
%TO.C,R52*%
X269260000Y-76635000D03*
D13*
X259100000Y-76635000D03*
%TD*%
D12*
%TO.C,R37*%
X92000000Y-38481000D03*
D13*
X92000000Y-48641000D03*
%TD*%
D12*
%TO.C,R84*%
X63707000Y-74365000D03*
D13*
X53547000Y-74365000D03*
%TD*%
D12*
%TO.C,R10*%
X208838000Y-24130000D03*
D13*
X208838000Y-34290000D03*
%TD*%
D14*
%TO.C,U5*%
X49087000Y-92145000D03*
D13*
X49087000Y-89605000D03*
X49087000Y-87065000D03*
X49087000Y-84525000D03*
X49087000Y-81985000D03*
X49087000Y-79445000D03*
X49087000Y-76905000D03*
X49087000Y-74365000D03*
X41467000Y-74365000D03*
X41467000Y-76905000D03*
X41467000Y-79445000D03*
X41467000Y-81985000D03*
X41467000Y-84525000D03*
X41467000Y-87065000D03*
X41467000Y-89605000D03*
X41467000Y-92145000D03*
%TD*%
D12*
%TO.C,R29*%
X141000000Y-38481000D03*
D13*
X141000000Y-48641000D03*
%TD*%
D12*
%TO.C,R20*%
X145838000Y-24284000D03*
D13*
X145838000Y-34444000D03*
%TD*%
D12*
%TO.C,R81*%
X63707000Y-86515000D03*
D13*
X53547000Y-86515000D03*
%TD*%
D15*
%TO.C,J9*%
X208350000Y-110744000D03*
D16*
X211850000Y-110744000D03*
X215350000Y-110744000D03*
X218850000Y-110744000D03*
X222350000Y-110744000D03*
X225850000Y-110744000D03*
%TD*%
D12*
%TO.C,R34*%
X108050000Y-38481000D03*
D13*
X108050000Y-48641000D03*
%TD*%
D12*
%TO.C,R85*%
X63627000Y-109895000D03*
D13*
X53467000Y-109895000D03*
%TD*%
D12*
%TO.C,R78*%
X197880000Y-72735000D03*
D13*
X187720000Y-72735000D03*
%TD*%
D12*
%TO.C,R114*%
X205613000Y-47484000D03*
D13*
X215773000Y-47484000D03*
%TD*%
D12*
%TO.C,R5*%
X241788000Y-24130000D03*
D13*
X241788000Y-34290000D03*
%TD*%
D12*
%TO.C,R70*%
X242560000Y-92815000D03*
D13*
X232400000Y-92815000D03*
%TD*%
D12*
%TO.C,R22*%
X132838000Y-24284000D03*
D13*
X132838000Y-34444000D03*
%TD*%
D12*
%TO.C,R110*%
X37547000Y-35720000D03*
D13*
X27387000Y-35720000D03*
%TD*%
D14*
%TO.C,U7*%
X49467000Y-68630000D03*
D13*
X49467000Y-66090000D03*
X49467000Y-63550000D03*
X49467000Y-61010000D03*
X49467000Y-58470000D03*
X49467000Y-55930000D03*
X49467000Y-53390000D03*
X49467000Y-50850000D03*
X41847000Y-50850000D03*
X41847000Y-53390000D03*
X41847000Y-55930000D03*
X41847000Y-58470000D03*
X41847000Y-61010000D03*
X41847000Y-63550000D03*
X41847000Y-66090000D03*
X41847000Y-68630000D03*
%TD*%
D12*
%TO.C,R17*%
X166788000Y-24130000D03*
D13*
X166788000Y-34290000D03*
%TD*%
D10*
%TO.C,D23*%
X87050000Y-24210000D03*
D11*
X87050000Y-34370000D03*
%TD*%
D12*
%TO.C,R62*%
X197640000Y-93135000D03*
D13*
X187480000Y-93135000D03*
%TD*%
D12*
%TO.C,R91*%
X38627000Y-78415000D03*
D13*
X28467000Y-78415000D03*
%TD*%
D15*
%TO.C,J11*%
X69850000Y-110744000D03*
D16*
X73350000Y-110744000D03*
X76850000Y-110744000D03*
X80350000Y-110744000D03*
X83850000Y-110744000D03*
X87350000Y-110744000D03*
%TD*%
D14*
%TO.C,D25*%
X259207000Y-40132000D03*
D13*
X269367000Y-40132000D03*
%TD*%
D15*
%TO.C,J10*%
X92350000Y-110744000D03*
D16*
X95850000Y-110744000D03*
X99350000Y-110744000D03*
X102850000Y-110744000D03*
X106350000Y-110744000D03*
X109850000Y-110744000D03*
%TD*%
D12*
%TO.C,R92*%
X38627000Y-74365000D03*
D13*
X28467000Y-74365000D03*
%TD*%
D14*
%TO.C,U3*%
X254560000Y-102415000D03*
D13*
X254560000Y-99875000D03*
X254560000Y-97335000D03*
X254560000Y-94795000D03*
X254560000Y-92255000D03*
X254560000Y-89715000D03*
X254560000Y-87175000D03*
X254560000Y-84635000D03*
X246940000Y-84635000D03*
X246940000Y-87175000D03*
X246940000Y-89715000D03*
X246940000Y-92255000D03*
X246940000Y-94795000D03*
X246940000Y-97335000D03*
X246940000Y-99875000D03*
X246940000Y-102415000D03*
%TD*%
D15*
%TO.C,J20*%
X257000000Y-122000000D03*
D16*
X253500000Y-122000000D03*
%TD*%
D12*
%TO.C,R45*%
X91000000Y-24130000D03*
D13*
X91000000Y-34290000D03*
%TD*%
D12*
%TO.C,R104*%
X63547000Y-27770000D03*
D13*
X53387000Y-27770000D03*
%TD*%
D14*
%TO.C,U2*%
X209560000Y-102335000D03*
D13*
X209560000Y-99795000D03*
X209560000Y-97255000D03*
X209560000Y-94715000D03*
X209560000Y-92175000D03*
X209560000Y-89635000D03*
X209560000Y-87095000D03*
X209560000Y-84555000D03*
X201940000Y-84555000D03*
X201940000Y-87095000D03*
X201940000Y-89635000D03*
X201940000Y-92175000D03*
X201940000Y-94715000D03*
X201940000Y-97255000D03*
X201940000Y-99795000D03*
X201940000Y-102335000D03*
%TD*%
D12*
%TO.C,R41*%
X116000000Y-24130000D03*
D13*
X116000000Y-34290000D03*
%TD*%
D10*
%TO.C,D1*%
X260838000Y-24284000D03*
D11*
X260838000Y-34444000D03*
%TD*%
D12*
%TO.C,R119*%
X240284000Y-43688000D03*
D13*
X250444000Y-43688000D03*
%TD*%
D12*
%TO.C,R83*%
X63707000Y-78415000D03*
D13*
X53547000Y-78415000D03*
%TD*%
D12*
%TO.C,R12*%
X196838000Y-24130000D03*
D13*
X196838000Y-34290000D03*
%TD*%
D15*
%TO.C,J1*%
X202225000Y-16637000D03*
D16*
X205725000Y-16637000D03*
X209225000Y-16637000D03*
X212725000Y-16637000D03*
X216225000Y-16637000D03*
X219725000Y-16637000D03*
X223225000Y-16637000D03*
X226725000Y-16637000D03*
%TD*%
D12*
%TO.C,R63*%
X197640000Y-88765000D03*
D13*
X187480000Y-88765000D03*
%TD*%
D12*
%TO.C,R57*%
X224640000Y-84715000D03*
D13*
X214480000Y-84715000D03*
%TD*%
D12*
%TO.C,R94*%
X37627000Y-105895000D03*
D13*
X27467000Y-105895000D03*
%TD*%
D14*
%TO.C,U6*%
X49267000Y-115620000D03*
D13*
X49267000Y-113080000D03*
X49267000Y-110540000D03*
X49267000Y-108000000D03*
X49267000Y-105460000D03*
X49267000Y-102920000D03*
X49267000Y-100380000D03*
X49267000Y-97840000D03*
X41647000Y-97840000D03*
X41647000Y-100380000D03*
X41647000Y-102920000D03*
X41647000Y-105460000D03*
X41647000Y-108000000D03*
X41647000Y-110540000D03*
X41647000Y-113080000D03*
X41647000Y-115620000D03*
%TD*%
D12*
%TO.C,R2*%
X257338000Y-24130000D03*
D13*
X257338000Y-34290000D03*
%TD*%
D12*
%TO.C,R120*%
X240157000Y-51308000D03*
D13*
X250317000Y-51308000D03*
%TD*%
D14*
%TO.C,U1*%
X255180000Y-78955000D03*
D13*
X255180000Y-76415000D03*
X255180000Y-73875000D03*
X255180000Y-71335000D03*
X255180000Y-68795000D03*
X255180000Y-66255000D03*
X255180000Y-63715000D03*
X255180000Y-61175000D03*
X247560000Y-61175000D03*
X247560000Y-63715000D03*
X247560000Y-66255000D03*
X247560000Y-68795000D03*
X247560000Y-71335000D03*
X247560000Y-73875000D03*
X247560000Y-76415000D03*
X247560000Y-78955000D03*
%TD*%
D15*
%TO.C,J7*%
X162350000Y-110744000D03*
D16*
X165850000Y-110744000D03*
X169350000Y-110744000D03*
X172850000Y-110744000D03*
X176350000Y-110744000D03*
X179850000Y-110744000D03*
%TD*%
D12*
%TO.C,R33*%
X117000000Y-38481000D03*
D13*
X117000000Y-48641000D03*
%TD*%
D15*
%TO.C,J16*%
X139000000Y-122000000D03*
D16*
X142500000Y-122000000D03*
X146000000Y-122000000D03*
X149500000Y-122000000D03*
X153000000Y-122000000D03*
X156500000Y-122000000D03*
%TD*%
D12*
%TO.C,R64*%
X197640000Y-84715000D03*
D13*
X187480000Y-84715000D03*
%TD*%
D12*
%TO.C,R66*%
X269020000Y-88715000D03*
D13*
X258860000Y-88715000D03*
%TD*%
D15*
%TO.C,J14*%
X230500000Y-122000000D03*
D16*
X234000000Y-122000000D03*
X237500000Y-122000000D03*
X241000000Y-122000000D03*
X244500000Y-122000000D03*
X248000000Y-122000000D03*
%TD*%
D12*
%TO.C,R53*%
X243800000Y-76635000D03*
D13*
X233640000Y-76635000D03*
%TD*%
D15*
%TO.C,J6*%
X184850000Y-110744000D03*
D16*
X188350000Y-110744000D03*
X191850000Y-110744000D03*
X195350000Y-110744000D03*
X198850000Y-110744000D03*
X202350000Y-110744000D03*
%TD*%
D12*
%TO.C,R60*%
X224640000Y-96715000D03*
D13*
X214480000Y-96715000D03*
%TD*%
D12*
%TO.C,R116*%
X205740000Y-55118000D03*
D13*
X215900000Y-55118000D03*
%TD*%
D10*
%TO.C,D14*%
X149050000Y-38481000D03*
D11*
X149050000Y-48641000D03*
%TD*%
D12*
%TO.C,R23*%
X128788000Y-24284000D03*
D13*
X128788000Y-34444000D03*
%TD*%
D12*
%TO.C,R65*%
X269020000Y-84715000D03*
D13*
X258860000Y-84715000D03*
%TD*%
D12*
%TO.C,R97*%
X64707000Y-63000000D03*
D13*
X54547000Y-63000000D03*
%TD*%
D12*
%TO.C,R39*%
X78250000Y-38481000D03*
D13*
X78250000Y-48641000D03*
%TD*%
D12*
%TO.C,R69*%
X242560000Y-96865000D03*
D13*
X232400000Y-96865000D03*
%TD*%
D12*
%TO.C,R30*%
X133050000Y-38481000D03*
D13*
X133050000Y-48641000D03*
%TD*%
D20*
%TO.C,U9*%
X225181000Y-42809000D03*
D21*
X225181000Y-45349000D03*
X225181000Y-47889000D03*
X225181000Y-50429000D03*
X232801000Y-50429000D03*
X232801000Y-47889000D03*
X232801000Y-45349000D03*
X232801000Y-42809000D03*
%TD*%
D12*
%TO.C,R112*%
X37547000Y-27620000D03*
D13*
X27387000Y-27620000D03*
%TD*%
D12*
%TO.C,R109*%
X37547000Y-39770000D03*
D13*
X27387000Y-39770000D03*
%TD*%
D10*
%TO.C,D10*%
X149838000Y-24284000D03*
D11*
X149838000Y-34444000D03*
%TD*%
D12*
%TO.C,R88*%
X63627000Y-97745000D03*
D13*
X53467000Y-97745000D03*
%TD*%
D10*
%TO.C,D18*%
X100050000Y-38481000D03*
D11*
X100050000Y-48641000D03*
%TD*%
D12*
%TO.C,R59*%
X224640000Y-92715000D03*
D13*
X214480000Y-92715000D03*
%TD*%
D10*
%TO.C,D5*%
X213838000Y-24284000D03*
D11*
X213838000Y-34444000D03*
%TD*%
D10*
%TO.C,D24*%
X74050000Y-24210000D03*
D11*
X74050000Y-34370000D03*
%TD*%
D12*
%TO.C,R7*%
X229838000Y-24130000D03*
D13*
X229838000Y-34290000D03*
%TD*%
D12*
%TO.C,R9*%
X217788000Y-24130000D03*
D13*
X217788000Y-34290000D03*
%TD*%
D12*
%TO.C,R21*%
X141668000Y-24284000D03*
D13*
X141668000Y-34444000D03*
%TD*%
D12*
%TO.C,R36*%
X96050000Y-38481000D03*
D13*
X96050000Y-48641000D03*
%TD*%
D12*
%TO.C,R105*%
X37627000Y-63000000D03*
D13*
X27467000Y-63000000D03*
%TD*%
D15*
%TO.C,J18*%
X92500000Y-122000000D03*
D16*
X96000000Y-122000000D03*
X99500000Y-122000000D03*
X103000000Y-122000000D03*
X106500000Y-122000000D03*
X110000000Y-122000000D03*
%TD*%
D10*
%TO.C,D8*%
X175838000Y-24284000D03*
D11*
X175838000Y-34444000D03*
%TD*%
D15*
%TO.C,J23*%
X239037000Y-16256000D03*
D16*
X242537000Y-16256000D03*
%TD*%
D12*
%TO.C,R111*%
X37547000Y-31670000D03*
D13*
X27387000Y-31670000D03*
%TD*%
D12*
%TO.C,R8*%
X221838000Y-24130000D03*
D13*
X221838000Y-34290000D03*
%TD*%
D12*
%TO.C,R99*%
X64707000Y-54900000D03*
D13*
X54547000Y-54900000D03*
%TD*%
D12*
%TO.C,R68*%
X268940000Y-96715000D03*
D13*
X258780000Y-96715000D03*
%TD*%
D10*
%TO.C,D16*%
X125050000Y-38481000D03*
D11*
X125050000Y-48641000D03*
%TD*%
D10*
%TO.C,D20*%
X74050000Y-38561000D03*
D11*
X74050000Y-48721000D03*
%TD*%
D12*
%TO.C,R102*%
X63547000Y-35770000D03*
D13*
X53387000Y-35770000D03*
%TD*%
D14*
%TO.C,D27*%
X259334000Y-48768000D03*
D13*
X269494000Y-48768000D03*
%TD*%
D12*
%TO.C,R101*%
X63547000Y-39770000D03*
D13*
X53387000Y-39770000D03*
%TD*%
D12*
%TO.C,R82*%
X63707000Y-82465000D03*
D13*
X53547000Y-82465000D03*
%TD*%
D15*
%TO.C,J17*%
X116000000Y-122000000D03*
D16*
X119500000Y-122000000D03*
X123000000Y-122000000D03*
X126500000Y-122000000D03*
X130000000Y-122000000D03*
X133500000Y-122000000D03*
%TD*%
D10*
%TO.C,D11*%
X137838000Y-24284000D03*
D11*
X137838000Y-34444000D03*
%TD*%
D14*
%TO.C,U8*%
X49267000Y-45645000D03*
D13*
X49267000Y-43105000D03*
X49267000Y-40565000D03*
X49267000Y-38025000D03*
X49267000Y-35485000D03*
X49267000Y-32945000D03*
X49267000Y-30405000D03*
X49267000Y-27865000D03*
X41647000Y-27865000D03*
X41647000Y-30405000D03*
X41647000Y-32945000D03*
X41647000Y-35485000D03*
X41647000Y-38025000D03*
X41647000Y-40565000D03*
X41647000Y-43105000D03*
X41647000Y-45645000D03*
%TD*%
D12*
%TO.C,R93*%
X37627000Y-109945000D03*
D13*
X27467000Y-109945000D03*
%TD*%
D12*
%TO.C,R77*%
X197880000Y-76785000D03*
D13*
X187720000Y-76785000D03*
%TD*%
D12*
%TO.C,R1*%
X265000000Y-24130000D03*
D13*
X265000000Y-34290000D03*
%TD*%
D12*
%TO.C,R27*%
X153050000Y-38481000D03*
D13*
X153050000Y-48641000D03*
%TD*%
D12*
%TO.C,R113*%
X205486000Y-51181000D03*
D13*
X215646000Y-51181000D03*
%TD*%
D12*
%TO.C,R61*%
X197640000Y-97185000D03*
D13*
X187480000Y-97185000D03*
%TD*%
D12*
%TO.C,R95*%
X37627000Y-101845000D03*
D13*
X27467000Y-101845000D03*
%TD*%
D14*
%TO.C,D26*%
X259334000Y-44450000D03*
D13*
X269494000Y-44450000D03*
%TD*%
D12*
%TO.C,R4*%
X245838000Y-24130000D03*
D13*
X245838000Y-34290000D03*
%TD*%
D10*
%TO.C,D15*%
X137050000Y-38481000D03*
D11*
X137050000Y-48641000D03*
%TD*%
D12*
%TO.C,R15*%
X179788000Y-24130000D03*
D13*
X179788000Y-34290000D03*
%TD*%
D12*
%TO.C,R79*%
X197880000Y-68685000D03*
D13*
X187720000Y-68685000D03*
%TD*%
D12*
%TO.C,R26*%
X157100000Y-38481000D03*
D13*
X157100000Y-48641000D03*
%TD*%
D10*
%TO.C,D17*%
X113050000Y-38561000D03*
D11*
X113050000Y-48721000D03*
%TD*%
D12*
%TO.C,R28*%
X145050000Y-38481000D03*
D13*
X145050000Y-48641000D03*
%TD*%
D10*
%TO.C,D13*%
X161100000Y-38481000D03*
D11*
X161100000Y-48641000D03*
%TD*%
D12*
%TO.C,R16*%
X170838000Y-24130000D03*
D13*
X170838000Y-34290000D03*
%TD*%
D15*
%TO.C,J15*%
X208000000Y-122000000D03*
D16*
X211500000Y-122000000D03*
X215000000Y-122000000D03*
X218500000Y-122000000D03*
X222000000Y-122000000D03*
X225500000Y-122000000D03*
%TD*%
M02*
