%TF.GenerationSoftware,KiCad,Pcbnew,7.0.10*%
%TF.CreationDate,2024-02-15T16:30:13+07:00*%
%TF.ProjectId,Arduino_IO_Board,41726475-696e-46f5-9f49-4f5f426f6172,rev?*%
%TF.SameCoordinates,Original*%
%TF.FileFunction,Copper,L1,Top*%
%TF.FilePolarity,Positive*%
%FSLAX46Y46*%
G04 Gerber Fmt 4.6, Leading zero omitted, Abs format (unit mm)*
G04 Created by KiCad (PCBNEW 7.0.10) date 2024-02-15 16:30:13*
%MOMM*%
%LPD*%
G01*
G04 APERTURE LIST*
%TA.AperFunction,ComponentPad*%
%ADD10R,2.200000X2.200000*%
%TD*%
%TA.AperFunction,ComponentPad*%
%ADD11O,2.200000X2.200000*%
%TD*%
%TA.AperFunction,ComponentPad*%
%ADD12C,1.600000*%
%TD*%
%TA.AperFunction,ComponentPad*%
%ADD13O,1.600000X1.600000*%
%TD*%
%TA.AperFunction,ComponentPad*%
%ADD14R,1.600000X1.600000*%
%TD*%
%TA.AperFunction,ComponentPad*%
%ADD15R,2.400000X2.400000*%
%TD*%
%TA.AperFunction,ComponentPad*%
%ADD16C,2.400000*%
%TD*%
%TA.AperFunction,ComponentPad*%
%ADD17O,1.727200X1.727200*%
%TD*%
%TA.AperFunction,ComponentPad*%
%ADD18R,1.727200X1.727200*%
%TD*%
%TA.AperFunction,ComponentPad*%
%ADD19R,2.400000X1.600000*%
%TD*%
%TA.AperFunction,ComponentPad*%
%ADD20O,2.400000X1.600000*%
%TD*%
%TA.AperFunction,ViaPad*%
%ADD21C,0.800000*%
%TD*%
%TA.AperFunction,ViaPad*%
%ADD22C,5.000000*%
%TD*%
%TA.AperFunction,Conductor*%
%ADD23C,0.250000*%
%TD*%
%TA.AperFunction,Conductor*%
%ADD24C,1.000000*%
%TD*%
G04 APERTURE END LIST*
D10*
%TO.P,D7,1,K*%
%TO.N,Net-(D7-K)*%
X187838000Y-24284000D03*
D11*
%TO.P,D7,2,A*%
%TO.N,/A6*%
X187838000Y-34444000D03*
%TD*%
D12*
%TO.P,R73,1*%
%TO.N,/D22*%
X224260000Y-76785000D03*
D13*
%TO.P,R73,2*%
%TO.N,Net-(R73-Pad2)*%
X214100000Y-76785000D03*
%TD*%
D12*
%TO.P,R47,1*%
%TO.N,+5V*%
X78000000Y-24130000D03*
D13*
%TO.P,R47,2*%
%TO.N,/D53*%
X78000000Y-34290000D03*
%TD*%
D12*
%TO.P,R32,1*%
%TO.N,Net-(D16-K)*%
X121050000Y-38481000D03*
D13*
%TO.P,R32,2*%
%TO.N,GND1*%
X121050000Y-48641000D03*
%TD*%
D12*
%TO.P,R86,1*%
%TO.N,/D31*%
X63627000Y-105845000D03*
D13*
%TO.P,R86,2*%
%TO.N,Net-(R86-Pad2)*%
X53467000Y-105845000D03*
%TD*%
D12*
%TO.P,R56,1*%
%TO.N,Net-(J5-Pin_5)*%
X243800000Y-64485000D03*
D13*
%TO.P,R56,2*%
%TO.N,Net-(J5-Pin_4)*%
X233640000Y-64485000D03*
%TD*%
D12*
%TO.P,R122,1*%
%TO.N,Net-(R120-Pad2)*%
X240284000Y-39751000D03*
D13*
%TO.P,R122,2*%
%TO.N,/A15*%
X250444000Y-39751000D03*
%TD*%
D12*
%TO.P,R49,1*%
%TO.N,/D2*%
X269560000Y-63635000D03*
D13*
%TO.P,R49,2*%
%TO.N,Net-(R49-Pad2)*%
X259400000Y-63635000D03*
%TD*%
D10*
%TO.P,D6,1,K*%
%TO.N,Net-(D6-K)*%
X200838000Y-24284000D03*
D11*
%TO.P,D6,2,A*%
%TO.N,/A5*%
X200838000Y-34444000D03*
%TD*%
D12*
%TO.P,R107,1*%
%TO.N,Net-(J17-Pin_2)*%
X37627000Y-54900000D03*
D13*
%TO.P,R107,2*%
%TO.N,Net-(J17-Pin_1)*%
X27467000Y-54900000D03*
%TD*%
D12*
%TO.P,R106,1*%
%TO.N,Net-(J16-Pin_5)*%
X37627000Y-58950000D03*
D13*
%TO.P,R106,2*%
%TO.N,Net-(J16-Pin_4)*%
X27467000Y-58950000D03*
%TD*%
D12*
%TO.P,R48,1*%
%TO.N,Net-(D24-K)*%
X70050000Y-24130000D03*
D13*
%TO.P,R48,2*%
%TO.N,GND1*%
X70050000Y-34290000D03*
%TD*%
D12*
%TO.P,R55,1*%
%TO.N,Net-(J5-Pin_2)*%
X243800000Y-68535000D03*
D13*
%TO.P,R55,2*%
%TO.N,Net-(J5-Pin_1)*%
X233640000Y-68535000D03*
%TD*%
D12*
%TO.P,R25,1*%
%TO.N,+5V*%
X165100000Y-38481000D03*
D13*
%TO.P,R25,2*%
%TO.N,/D42*%
X165100000Y-48641000D03*
%TD*%
D12*
%TO.P,R31,1*%
%TO.N,+5V*%
X129000000Y-38481000D03*
D13*
%TO.P,R31,2*%
%TO.N,/D45*%
X129000000Y-48641000D03*
%TD*%
D12*
%TO.P,R98,1*%
%TO.N,/D35*%
X64707000Y-58950000D03*
D13*
%TO.P,R98,2*%
%TO.N,Net-(R98-Pad2)*%
X54547000Y-58950000D03*
%TD*%
D14*
%TO.P,U4,1*%
%TO.N,Net-(R73-Pad2)*%
X209800000Y-78875000D03*
D13*
%TO.P,U4,2*%
%TO.N,GND*%
X209800000Y-76335000D03*
%TO.P,U4,3*%
%TO.N,Net-(R74-Pad2)*%
X209800000Y-73795000D03*
%TO.P,U4,4*%
%TO.N,GND*%
X209800000Y-71255000D03*
%TO.P,U4,5*%
%TO.N,Net-(R75-Pad2)*%
X209800000Y-68715000D03*
%TO.P,U4,6*%
%TO.N,GND*%
X209800000Y-66175000D03*
%TO.P,U4,7*%
%TO.N,Net-(R76-Pad2)*%
X209800000Y-63635000D03*
%TO.P,U4,8*%
%TO.N,GND*%
X209800000Y-61095000D03*
%TO.P,U4,9*%
%TO.N,Net-(J11-Pin_6)*%
X202180000Y-61095000D03*
%TO.P,U4,10*%
%TO.N,Net-(J11-Pin_5)*%
X202180000Y-63635000D03*
%TO.P,U4,11*%
%TO.N,Net-(J11-Pin_3)*%
X202180000Y-66175000D03*
%TO.P,U4,12*%
%TO.N,Net-(J11-Pin_2)*%
X202180000Y-68715000D03*
%TO.P,U4,13*%
%TO.N,Net-(J10-Pin_6)*%
X202180000Y-71255000D03*
%TO.P,U4,14*%
%TO.N,Net-(J10-Pin_5)*%
X202180000Y-73795000D03*
%TO.P,U4,15*%
%TO.N,Net-(J10-Pin_3)*%
X202180000Y-76335000D03*
%TO.P,U4,16*%
%TO.N,Net-(J10-Pin_2)*%
X202180000Y-78875000D03*
%TD*%
D12*
%TO.P,R90,1*%
%TO.N,Net-(J12-Pin_5)*%
X38627000Y-82465000D03*
D13*
%TO.P,R90,2*%
%TO.N,Net-(J12-Pin_4)*%
X28467000Y-82465000D03*
%TD*%
D12*
%TO.P,R80,1*%
%TO.N,Net-(J11-Pin_5)*%
X197880000Y-64635000D03*
D13*
%TO.P,R80,2*%
%TO.N,Net-(J11-Pin_4)*%
X187720000Y-64635000D03*
%TD*%
D15*
%TO.P,J8,1,Pin_1*%
%TO.N,Net-(J8-Pin_1)*%
X230350000Y-110744000D03*
D16*
%TO.P,J8,2,Pin_2*%
%TO.N,Net-(J8-Pin_2)*%
X233850000Y-110744000D03*
%TO.P,J8,3,Pin_3*%
%TO.N,Net-(J8-Pin_3)*%
X237350000Y-110744000D03*
%TO.P,J8,4,Pin_4*%
%TO.N,Net-(J8-Pin_4)*%
X240850000Y-110744000D03*
%TO.P,J8,5,Pin_5*%
%TO.N,Net-(J8-Pin_5)*%
X244350000Y-110744000D03*
%TO.P,J8,6,Pin_6*%
%TO.N,Net-(J8-Pin_6)*%
X247850000Y-110744000D03*
%TD*%
D12*
%TO.P,R87,1*%
%TO.N,/D32*%
X63627000Y-101795000D03*
D13*
%TO.P,R87,2*%
%TO.N,Net-(R87-Pad2)*%
X53467000Y-101795000D03*
%TD*%
D12*
%TO.P,R108,1*%
%TO.N,Net-(J17-Pin_5)*%
X37627000Y-50850000D03*
D13*
%TO.P,R108,2*%
%TO.N,Net-(J17-Pin_4)*%
X27467000Y-50850000D03*
%TD*%
D12*
%TO.P,R40,1*%
%TO.N,Net-(D20-K)*%
X70050000Y-38481000D03*
D13*
%TO.P,R40,2*%
%TO.N,GND1*%
X70050000Y-48641000D03*
%TD*%
D15*
%TO.P,J19,1,Pin_1*%
%TO.N,Net-(J19-Pin_1)*%
X70000000Y-122000000D03*
D16*
%TO.P,J19,2,Pin_2*%
%TO.N,Net-(J19-Pin_2)*%
X73500000Y-122000000D03*
%TO.P,J19,3,Pin_3*%
%TO.N,Net-(J19-Pin_3)*%
X77000000Y-122000000D03*
%TO.P,J19,4,Pin_4*%
%TO.N,Net-(J19-Pin_4)*%
X80500000Y-122000000D03*
%TO.P,J19,5,Pin_5*%
%TO.N,Net-(J19-Pin_5)*%
X84000000Y-122000000D03*
%TO.P,J19,6,Pin_6*%
%TO.N,Net-(J19-Pin_6)*%
X87500000Y-122000000D03*
%TD*%
D10*
%TO.P,D9,1,K*%
%TO.N,Net-(D9-K)*%
X162838000Y-24284000D03*
D11*
%TO.P,D9,2,A*%
%TO.N,/A8*%
X162838000Y-34444000D03*
%TD*%
D12*
%TO.P,R72,1*%
%TO.N,Net-(J9-Pin_5)*%
X242560000Y-84715000D03*
D13*
%TO.P,R72,2*%
%TO.N,Net-(J9-Pin_4)*%
X232400000Y-84715000D03*
%TD*%
D12*
%TO.P,R54,1*%
%TO.N,Net-(J4-Pin_5)*%
X243800000Y-72585000D03*
D13*
%TO.P,R54,2*%
%TO.N,Net-(J4-Pin_4)*%
X233640000Y-72585000D03*
%TD*%
D15*
%TO.P,J22,1,Pin_1*%
%TO.N,Net-(A1-D21{slash}SCL)*%
X257350000Y-110744000D03*
D16*
%TO.P,J22,2,Pin_2*%
%TO.N,Net-(A1-D20{slash}SDA)*%
X260850000Y-110744000D03*
%TD*%
D12*
%TO.P,R24,1*%
%TO.N,Net-(D12-K)*%
X120838000Y-24284000D03*
D13*
%TO.P,R24,2*%
%TO.N,GND1*%
X120838000Y-34444000D03*
%TD*%
D12*
%TO.P,R6,1*%
%TO.N,Net-(D3-K)*%
X233838000Y-24130000D03*
D13*
%TO.P,R6,2*%
%TO.N,GND1*%
X233838000Y-34290000D03*
%TD*%
D12*
%TO.P,R11,1*%
%TO.N,+5V*%
X204788000Y-24130000D03*
D13*
%TO.P,R11,2*%
%TO.N,/A5*%
X204788000Y-34290000D03*
%TD*%
D12*
%TO.P,R121,1*%
%TO.N,Net-(D28-K)*%
X240157000Y-47625000D03*
D13*
%TO.P,R121,2*%
%TO.N,GND1*%
X250317000Y-47625000D03*
%TD*%
D12*
%TO.P,R3,1*%
%TO.N,+5V*%
X253288000Y-24130000D03*
D13*
%TO.P,R3,2*%
%TO.N,/A1*%
X253288000Y-34290000D03*
%TD*%
D12*
%TO.P,R35,1*%
%TO.N,+5V*%
X104000000Y-38481000D03*
D13*
%TO.P,R35,2*%
%TO.N,/D47*%
X104000000Y-48641000D03*
%TD*%
D12*
%TO.P,R103,1*%
%TO.N,/D40*%
X63547000Y-31770000D03*
D13*
%TO.P,R103,2*%
%TO.N,Net-(R103-Pad2)*%
X53387000Y-31770000D03*
%TD*%
D12*
%TO.P,R51,1*%
%TO.N,/D4*%
X269560000Y-72075000D03*
D13*
%TO.P,R51,2*%
%TO.N,Net-(R51-Pad2)*%
X259400000Y-72075000D03*
%TD*%
D12*
%TO.P,R74,1*%
%TO.N,/D23*%
X224260000Y-72735000D03*
D13*
%TO.P,R74,2*%
%TO.N,Net-(R74-Pad2)*%
X214100000Y-72735000D03*
%TD*%
D15*
%TO.P,J21,1,Pin_1*%
%TO.N,Net-(A1-D16{slash}TX2)*%
X266000000Y-122000000D03*
D16*
%TO.P,J21,2,Pin_2*%
%TO.N,Net-(A1-D17{slash}RX2)*%
X262500000Y-122000000D03*
%TD*%
D15*
%TO.P,J13,1,Pin_1*%
%TO.N,Net-(J13-Pin_1)*%
X163500000Y-122000000D03*
D16*
%TO.P,J13,2,Pin_2*%
%TO.N,Net-(J13-Pin_2)*%
X167000000Y-122000000D03*
%TO.P,J13,3,Pin_3*%
%TO.N,Net-(J13-Pin_3)*%
X170500000Y-122000000D03*
%TO.P,J13,4,Pin_4*%
%TO.N,Net-(J13-Pin_4)*%
X174000000Y-122000000D03*
%TO.P,J13,5,Pin_5*%
%TO.N,Net-(J13-Pin_5)*%
X177500000Y-122000000D03*
%TO.P,J13,6,Pin_6*%
%TO.N,Net-(J13-Pin_6)*%
X181000000Y-122000000D03*
%TD*%
D12*
%TO.P,R118,1*%
%TO.N,Net-(J24-Pin_2)*%
X240284000Y-55118000D03*
D13*
%TO.P,R118,2*%
%TO.N,Net-(D27-K)*%
X250444000Y-55118000D03*
%TD*%
D10*
%TO.P,D19,1,K*%
%TO.N,Net-(D19-K)*%
X87050000Y-38561000D03*
D11*
%TO.P,D19,2,A*%
%TO.N,/D48*%
X87050000Y-48721000D03*
%TD*%
D10*
%TO.P,D4,1,K*%
%TO.N,Net-(D4-K)*%
X225838000Y-24284000D03*
D11*
%TO.P,D4,2,A*%
%TO.N,/A3*%
X225838000Y-34444000D03*
%TD*%
D12*
%TO.P,R117,1*%
%TO.N,Net-(R115-Pad2)*%
X205867000Y-39497000D03*
D13*
%TO.P,R117,2*%
%TO.N,/A14*%
X216027000Y-39497000D03*
%TD*%
D12*
%TO.P,R50,1*%
%TO.N,/D3*%
X269560000Y-67635000D03*
D13*
%TO.P,R50,2*%
%TO.N,Net-(R50-Pad2)*%
X259400000Y-67635000D03*
%TD*%
D12*
%TO.P,R115,1*%
%TO.N,Net-(D25-K)*%
X205867000Y-43434000D03*
D13*
%TO.P,R115,2*%
%TO.N,Net-(R115-Pad2)*%
X216027000Y-43434000D03*
%TD*%
D12*
%TO.P,R44,1*%
%TO.N,Net-(D22-K)*%
X95050000Y-24130000D03*
D13*
%TO.P,R44,2*%
%TO.N,GND1*%
X95050000Y-34290000D03*
%TD*%
D12*
%TO.P,R19,1*%
%TO.N,+5V*%
X153788000Y-24284000D03*
D13*
%TO.P,R19,2*%
%TO.N,/A9*%
X153788000Y-34444000D03*
%TD*%
D12*
%TO.P,R58,1*%
%TO.N,/D7*%
X224720000Y-88715000D03*
D13*
%TO.P,R58,2*%
%TO.N,Net-(R58-Pad2)*%
X214560000Y-88715000D03*
%TD*%
D15*
%TO.P,J5,1,Pin_1*%
%TO.N,Net-(J5-Pin_1)*%
X116350000Y-110744000D03*
D16*
%TO.P,J5,2,Pin_2*%
%TO.N,Net-(J5-Pin_2)*%
X119850000Y-110744000D03*
%TO.P,J5,3,Pin_3*%
%TO.N,Net-(J5-Pin_3)*%
X123350000Y-110744000D03*
%TO.P,J5,4,Pin_4*%
%TO.N,Net-(J5-Pin_4)*%
X126850000Y-110744000D03*
%TO.P,J5,5,Pin_5*%
%TO.N,Net-(J5-Pin_5)*%
X130350000Y-110744000D03*
%TO.P,J5,6,Pin_6*%
%TO.N,Net-(J5-Pin_6)*%
X133850000Y-110744000D03*
%TD*%
D14*
%TO.P,D28,1,K*%
%TO.N,Net-(D28-K)*%
X259334000Y-52832000D03*
D13*
%TO.P,D28,2,A*%
%TO.N,GND1*%
X269494000Y-52832000D03*
%TD*%
D12*
%TO.P,R76,1*%
%TO.N,/D25*%
X224260000Y-64635000D03*
D13*
%TO.P,R76,2*%
%TO.N,Net-(R76-Pad2)*%
X214100000Y-64635000D03*
%TD*%
D12*
%TO.P,R42,1*%
%TO.N,Net-(D21-K)*%
X107050000Y-24130000D03*
D13*
%TO.P,R42,2*%
%TO.N,GND1*%
X107050000Y-34290000D03*
%TD*%
D10*
%TO.P,D21,1,K*%
%TO.N,Net-(D21-K)*%
X112050000Y-24210000D03*
D11*
%TO.P,D21,2,A*%
%TO.N,/D50*%
X112050000Y-34370000D03*
%TD*%
D10*
%TO.P,D3,1,K*%
%TO.N,Net-(D3-K)*%
X237838000Y-24284000D03*
D11*
%TO.P,D3,2,A*%
%TO.N,/A2*%
X237838000Y-34444000D03*
%TD*%
D10*
%TO.P,D12,1,K*%
%TO.N,Net-(D12-K)*%
X124838000Y-24284000D03*
D11*
%TO.P,D12,2,A*%
%TO.N,/A11*%
X124838000Y-34444000D03*
%TD*%
D15*
%TO.P,J4,1,Pin_1*%
%TO.N,Net-(J4-Pin_1)*%
X138850000Y-110744000D03*
D16*
%TO.P,J4,2,Pin_2*%
%TO.N,Net-(J4-Pin_2)*%
X142350000Y-110744000D03*
%TO.P,J4,3,Pin_3*%
%TO.N,Net-(J4-Pin_3)*%
X145850000Y-110744000D03*
%TO.P,J4,4,Pin_4*%
%TO.N,Net-(J4-Pin_4)*%
X149350000Y-110744000D03*
%TO.P,J4,5,Pin_5*%
%TO.N,Net-(J4-Pin_5)*%
X152850000Y-110744000D03*
%TO.P,J4,6,Pin_6*%
%TO.N,Net-(J4-Pin_6)*%
X156350000Y-110744000D03*
%TD*%
D12*
%TO.P,R46,1*%
%TO.N,Net-(D23-K)*%
X82050000Y-24130000D03*
D13*
%TO.P,R46,2*%
%TO.N,GND1*%
X82050000Y-34290000D03*
%TD*%
D10*
%TO.P,D22,1,K*%
%TO.N,Net-(D22-K)*%
X99050000Y-24210000D03*
D11*
%TO.P,D22,2,A*%
%TO.N,/D51*%
X99050000Y-34370000D03*
%TD*%
D12*
%TO.P,R96,1*%
%TO.N,Net-(J15-Pin_5)*%
X37627000Y-97745000D03*
D13*
%TO.P,R96,2*%
%TO.N,Net-(J15-Pin_4)*%
X27467000Y-97745000D03*
%TD*%
D12*
%TO.P,R89,1*%
%TO.N,Net-(J12-Pin_2)*%
X38627000Y-86515000D03*
D13*
%TO.P,R89,2*%
%TO.N,Net-(J12-Pin_1)*%
X28467000Y-86515000D03*
%TD*%
D12*
%TO.P,R71,1*%
%TO.N,Net-(J9-Pin_2)*%
X242560000Y-88765000D03*
D13*
%TO.P,R71,2*%
%TO.N,Net-(J9-Pin_1)*%
X232400000Y-88765000D03*
%TD*%
D15*
%TO.P,J3,1,Pin_1*%
%TO.N,Net-(D24-K)*%
X143155000Y-16637000D03*
D16*
%TO.P,J3,2,Pin_2*%
%TO.N,Net-(D23-K)*%
X146655000Y-16637000D03*
%TO.P,J3,3,Pin_3*%
%TO.N,Net-(D22-K)*%
X150155000Y-16637000D03*
%TO.P,J3,4,Pin_4*%
%TO.N,Net-(D21-K)*%
X153655000Y-16637000D03*
%TO.P,J3,5,Pin_5*%
%TO.N,Net-(D20-K)*%
X157155000Y-16637000D03*
%TO.P,J3,6,Pin_6*%
%TO.N,Net-(D19-K)*%
X160655000Y-16637000D03*
%TO.P,J3,7,Pin_7*%
%TO.N,Net-(D18-K)*%
X164155000Y-16637000D03*
%TO.P,J3,8,Pin_8*%
%TO.N,Net-(D17-K)*%
X167655000Y-16637000D03*
%TD*%
D12*
%TO.P,R14,1*%
%TO.N,Net-(D7-K)*%
X183838000Y-24130000D03*
D13*
%TO.P,R14,2*%
%TO.N,GND1*%
X183838000Y-34290000D03*
%TD*%
D15*
%TO.P,J12,1,Pin_1*%
%TO.N,Net-(J12-Pin_1)*%
X185500000Y-122000000D03*
D16*
%TO.P,J12,2,Pin_2*%
%TO.N,Net-(J12-Pin_2)*%
X189000000Y-122000000D03*
%TO.P,J12,3,Pin_3*%
%TO.N,Net-(J12-Pin_3)*%
X192500000Y-122000000D03*
%TO.P,J12,4,Pin_4*%
%TO.N,Net-(J12-Pin_4)*%
X196000000Y-122000000D03*
%TO.P,J12,5,Pin_5*%
%TO.N,Net-(J12-Pin_5)*%
X199500000Y-122000000D03*
%TO.P,J12,6,Pin_6*%
%TO.N,Net-(J12-Pin_6)*%
X203000000Y-122000000D03*
%TD*%
D17*
%TO.P,A1,*%
%TO.N,*%
X141351000Y-53975000D03*
%TO.P,A1,3V3,3.3V*%
%TO.N,unconnected-(A1-3.3V-Pad3V3)*%
X133731000Y-53975000D03*
%TO.P,A1,5V1,5V*%
%TO.N,+5V*%
X131191000Y-53975000D03*
%TO.P,A1,5V2,SPI_5V*%
%TO.N,unconnected-(A1-SPI_5V-Pad5V2)*%
X103124000Y-81915000D03*
%TO.P,A1,5V3,5V*%
%TO.N,+5V*%
X75311000Y-102235000D03*
%TO.P,A1,5V4,5V*%
X72771000Y-102235000D03*
%TO.P,A1,A0,A0*%
%TO.N,/A0*%
X118491000Y-53975000D03*
%TO.P,A1,A1,A1*%
%TO.N,/A1*%
X115951000Y-53975000D03*
%TO.P,A1,A2,A2*%
%TO.N,/A2*%
X113411000Y-53975000D03*
%TO.P,A1,A3,A3*%
%TO.N,/A3*%
X110871000Y-53975000D03*
%TO.P,A1,A4,A4*%
%TO.N,/A4*%
X108331000Y-53975000D03*
%TO.P,A1,A5,A5*%
%TO.N,/A5*%
X105791000Y-53975000D03*
%TO.P,A1,A6,A6*%
%TO.N,/A6*%
X103251000Y-53975000D03*
%TO.P,A1,A7,A7*%
%TO.N,/A7*%
X100711000Y-53975000D03*
%TO.P,A1,A8,A8*%
%TO.N,/A8*%
X95631000Y-53975000D03*
%TO.P,A1,A9,A9*%
%TO.N,/A9*%
X93091000Y-53975000D03*
%TO.P,A1,A10,A10*%
%TO.N,/A10*%
X90551000Y-53975000D03*
%TO.P,A1,A11,A11*%
%TO.N,/A11*%
X88011000Y-53975000D03*
%TO.P,A1,A12,A12*%
%TO.N,unconnected-(A1-PadA12)*%
X85471000Y-53975000D03*
%TO.P,A1,A13,A13*%
%TO.N,unconnected-(A1-PadA13)*%
X82931000Y-53975000D03*
%TO.P,A1,A14,A14*%
%TO.N,unconnected-(A1-PadA14)*%
X80391000Y-53975000D03*
%TO.P,A1,A15,A15*%
%TO.N,unconnected-(A1-PadA15)*%
X77851000Y-53975000D03*
%TO.P,A1,AREF,AREF*%
%TO.N,unconnected-(A1-PadAREF)*%
X145415000Y-102235000D03*
%TO.P,A1,D0,D0/RX0*%
%TO.N,unconnected-(A1-D0{slash}RX0-PadD0)*%
X105791000Y-102235000D03*
%TO.P,A1,D1,D1/TX0*%
%TO.N,unconnected-(A1-D1{slash}TX0-PadD1)*%
X108331000Y-102235000D03*
%TO.P,A1,D2,D2_INT0*%
%TO.N,/D2*%
X110871000Y-102235000D03*
%TO.P,A1,D3,D3_INT1*%
%TO.N,/D3*%
X113411000Y-102235000D03*
%TO.P,A1,D4,D4*%
%TO.N,/D4*%
X115951000Y-102235000D03*
%TO.P,A1,D5,D5*%
%TO.N,/D5*%
X118491000Y-102235000D03*
%TO.P,A1,D6,D6*%
%TO.N,/D6*%
X121031000Y-102235000D03*
%TO.P,A1,D7,D7*%
%TO.N,/D7*%
X123571000Y-102235000D03*
%TO.P,A1,D8,D8*%
%TO.N,/D8*%
X127635000Y-102235000D03*
%TO.P,A1,D9,D9*%
%TO.N,/D9*%
X130175000Y-102235000D03*
%TO.P,A1,D10,D10*%
%TO.N,/D10*%
X132715000Y-102235000D03*
%TO.P,A1,D11,D11*%
%TO.N,/D11*%
X135255000Y-102235000D03*
%TO.P,A1,D12,D12*%
%TO.N,/D12*%
X137795000Y-102235000D03*
%TO.P,A1,D13,D13*%
%TO.N,/D13*%
X140335000Y-102235000D03*
%TO.P,A1,D14,D14/TX3*%
%TO.N,unconnected-(A1-D14{slash}TX3-PadD14)*%
X100711000Y-102235000D03*
%TO.P,A1,D15,D15/RX3*%
%TO.N,unconnected-(A1-D15{slash}RX3-PadD15)*%
X98171000Y-102235000D03*
%TO.P,A1,D16,D16/TX2*%
%TO.N,Net-(A1-D16{slash}TX2)*%
X95631000Y-102235000D03*
%TO.P,A1,D17,D17/RX2*%
%TO.N,Net-(A1-D17{slash}RX2)*%
X93091000Y-102235000D03*
%TO.P,A1,D18,D18/TX1*%
%TO.N,Net-(A1-D18{slash}TX1)*%
X90551000Y-102235000D03*
%TO.P,A1,D19,D19/RX1*%
%TO.N,Net-(A1-D19{slash}RX1)*%
X88011000Y-102235000D03*
%TO.P,A1,D20,D20/SDA*%
%TO.N,Net-(A1-D20{slash}SDA)*%
X85471000Y-102235000D03*
%TO.P,A1,D21,D21/SCL*%
%TO.N,Net-(A1-D21{slash}SCL)*%
X82931000Y-102235000D03*
%TO.P,A1,D22,D22*%
%TO.N,/D22*%
X75311000Y-99695000D03*
%TO.P,A1,D23,D23*%
%TO.N,/D23*%
X72771000Y-99695000D03*
%TO.P,A1,D24,D24*%
%TO.N,/D24*%
X75311000Y-97155000D03*
%TO.P,A1,D25,D25*%
%TO.N,/D25*%
X72771000Y-97155000D03*
%TO.P,A1,D26,D26*%
%TO.N,/D26*%
X75311000Y-94615000D03*
%TO.P,A1,D27,D27*%
%TO.N,/D27*%
X72771000Y-94615000D03*
%TO.P,A1,D28,D28*%
%TO.N,/D28*%
X75311000Y-92075000D03*
%TO.P,A1,D29,D29*%
%TO.N,/D29*%
X72771000Y-92075000D03*
%TO.P,A1,D30,D30*%
%TO.N,/D30*%
X75311000Y-89535000D03*
%TO.P,A1,D31,D31*%
%TO.N,/D31*%
X72771000Y-89535000D03*
%TO.P,A1,D32,D32*%
%TO.N,/D32*%
X75311000Y-86995000D03*
%TO.P,A1,D33,D33*%
%TO.N,/D33*%
X72771000Y-86995000D03*
%TO.P,A1,D34,D34*%
%TO.N,/D34*%
X75311000Y-84455000D03*
%TO.P,A1,D35,D35*%
%TO.N,/D35*%
X72771000Y-84455000D03*
%TO.P,A1,D36,D36*%
%TO.N,/D36*%
X75311000Y-81915000D03*
%TO.P,A1,D37,D37*%
%TO.N,/D37*%
X72771000Y-81915000D03*
%TO.P,A1,D38,D38*%
%TO.N,/D38*%
X75311000Y-79375000D03*
%TO.P,A1,D39,D39*%
%TO.N,/D39*%
X72771000Y-79375000D03*
%TO.P,A1,D40,D40*%
%TO.N,/D40*%
X75311000Y-76835000D03*
%TO.P,A1,D41,D41*%
%TO.N,/D41*%
X72771000Y-76835000D03*
%TO.P,A1,D42,D42*%
%TO.N,/D42*%
X75311000Y-74295000D03*
%TO.P,A1,D43,D43*%
%TO.N,/D43*%
X72771000Y-74295000D03*
%TO.P,A1,D44,D44*%
%TO.N,/D44*%
X75311000Y-71755000D03*
%TO.P,A1,D45,D45*%
%TO.N,/D45*%
X72771000Y-71755000D03*
%TO.P,A1,D46,D46*%
%TO.N,/D46*%
X75311000Y-69215000D03*
%TO.P,A1,D47,D47*%
%TO.N,/D47*%
X72771000Y-69215000D03*
%TO.P,A1,D48,D48*%
%TO.N,/D48*%
X75311000Y-66675000D03*
%TO.P,A1,D49,D49*%
%TO.N,/D49*%
X72771000Y-66675000D03*
%TO.P,A1,D50,D50_MISO*%
%TO.N,/D50*%
X75311000Y-64135000D03*
%TO.P,A1,D51,D51_MOSI*%
%TO.N,/D51*%
X72771000Y-64135000D03*
%TO.P,A1,D52,D52_SCK*%
%TO.N,/D52*%
X75311000Y-61595000D03*
%TO.P,A1,D53,D53_CS*%
%TO.N,/D53*%
X72771000Y-61595000D03*
D18*
%TO.P,A1,GND1,GND*%
%TO.N,GND*%
X142875000Y-102235000D03*
%TO.P,A1,GND2,GND*%
%TO.N,GND1*%
X128651000Y-53975000D03*
%TO.P,A1,GND3,GND*%
%TO.N,unconnected-(A1-GND-PadGND3)*%
X126111000Y-53975000D03*
%TO.P,A1,GND4,SPI_GND*%
%TO.N,unconnected-(A1-SPI_GND-PadGND4)*%
X103124000Y-76835000D03*
%TO.P,A1,GND5,GND*%
%TO.N,unconnected-(A1-GND-PadGND5)*%
X75311000Y-59055000D03*
%TO.P,A1,GND6,GND*%
%TO.N,unconnected-(A1-GND-PadGND6)*%
X72771000Y-59055000D03*
D17*
%TO.P,A1,IORF,IOREF*%
%TO.N,unconnected-(A1-IOREF-PadIORF)*%
X138811000Y-53975000D03*
%TO.P,A1,MISO,SPI_MISO*%
%TO.N,unconnected-(A1-SPI_MISO-PadMISO)*%
X105664000Y-81915000D03*
%TO.P,A1,MOSI,SPI_MOSI*%
%TO.N,unconnected-(A1-SPI_MOSI-PadMOSI)*%
X103124000Y-79375000D03*
%TO.P,A1,RST1,RESET*%
%TO.N,unconnected-(A1-RESET-PadRST1)*%
X136271000Y-53975000D03*
%TO.P,A1,RST2,SPI_RESET*%
%TO.N,unconnected-(A1-SPI_RESET-PadRST2)*%
X105664000Y-76835000D03*
%TO.P,A1,SCK,SPI_SCK*%
%TO.N,unconnected-(A1-SPI_SCK-PadSCK)*%
X105664000Y-79375000D03*
%TO.P,A1,SCL,SCL*%
%TO.N,unconnected-(A1-PadSCL)*%
X150495000Y-102235000D03*
%TO.P,A1,SDA,SDA*%
%TO.N,unconnected-(A1-PadSDA)*%
X147955000Y-102235000D03*
%TO.P,A1,VIN,VIN*%
%TO.N,unconnected-(A1-PadVIN)*%
X123571000Y-53975000D03*
%TD*%
D12*
%TO.P,R100,1*%
%TO.N,/D37*%
X64707000Y-50850000D03*
D13*
%TO.P,R100,2*%
%TO.N,Net-(R100-Pad2)*%
X54547000Y-50850000D03*
%TD*%
D15*
%TO.P,J24,1,Pin_1*%
%TO.N,Net-(J24-Pin_1)*%
X248087000Y-16256000D03*
D16*
%TO.P,J24,2,Pin_2*%
%TO.N,Net-(J24-Pin_2)*%
X251587000Y-16256000D03*
%TD*%
D12*
%TO.P,R13,1*%
%TO.N,+5V*%
X192788000Y-24130000D03*
D13*
%TO.P,R13,2*%
%TO.N,/A6*%
X192788000Y-34290000D03*
%TD*%
D10*
%TO.P,D2,1,K*%
%TO.N,Net-(D2-K)*%
X249838000Y-24284000D03*
D11*
%TO.P,D2,2,A*%
%TO.N,/A1*%
X249838000Y-34444000D03*
%TD*%
D12*
%TO.P,R43,1*%
%TO.N,+5V*%
X103000000Y-24130000D03*
D13*
%TO.P,R43,2*%
%TO.N,/D51*%
X103000000Y-34290000D03*
%TD*%
D12*
%TO.P,R18,1*%
%TO.N,Net-(D9-K)*%
X157838000Y-24284000D03*
D13*
%TO.P,R18,2*%
%TO.N,GND1*%
X157838000Y-34444000D03*
%TD*%
D12*
%TO.P,R38,1*%
%TO.N,Net-(D19-K)*%
X82050000Y-38481000D03*
D13*
%TO.P,R38,2*%
%TO.N,GND1*%
X82050000Y-48641000D03*
%TD*%
D12*
%TO.P,R67,1*%
%TO.N,/D12*%
X268940000Y-92715000D03*
D13*
%TO.P,R67,2*%
%TO.N,Net-(R67-Pad2)*%
X258780000Y-92715000D03*
%TD*%
D12*
%TO.P,R75,1*%
%TO.N,/D24*%
X224260000Y-68685000D03*
D13*
%TO.P,R75,2*%
%TO.N,Net-(R75-Pad2)*%
X214100000Y-68685000D03*
%TD*%
D15*
%TO.P,J2,1,Pin_1*%
%TO.N,Net-(D16-K)*%
X172761000Y-16637000D03*
D16*
%TO.P,J2,2,Pin_2*%
%TO.N,Net-(D15-K)*%
X176261000Y-16637000D03*
%TO.P,J2,3,Pin_3*%
%TO.N,Net-(D14-K)*%
X179761000Y-16637000D03*
%TO.P,J2,4,Pin_4*%
%TO.N,Net-(D13-K)*%
X183261000Y-16637000D03*
%TO.P,J2,5,Pin_5*%
%TO.N,Net-(D12-K)*%
X186761000Y-16637000D03*
%TO.P,J2,6,Pin_6*%
%TO.N,Net-(D11-K)*%
X190261000Y-16637000D03*
%TO.P,J2,7,Pin_7*%
%TO.N,Net-(D10-K)*%
X193761000Y-16637000D03*
%TO.P,J2,8,Pin_8*%
%TO.N,Net-(D9-K)*%
X197261000Y-16637000D03*
%TD*%
D12*
%TO.P,R52,1*%
%TO.N,/D5*%
X269260000Y-76635000D03*
D13*
%TO.P,R52,2*%
%TO.N,Net-(R52-Pad2)*%
X259100000Y-76635000D03*
%TD*%
D12*
%TO.P,R37,1*%
%TO.N,+5V*%
X92000000Y-38481000D03*
D13*
%TO.P,R37,2*%
%TO.N,/D48*%
X92000000Y-48641000D03*
%TD*%
D12*
%TO.P,R84,1*%
%TO.N,/D29*%
X63707000Y-74365000D03*
D13*
%TO.P,R84,2*%
%TO.N,Net-(R84-Pad2)*%
X53547000Y-74365000D03*
%TD*%
D12*
%TO.P,R10,1*%
%TO.N,Net-(D5-K)*%
X208838000Y-24130000D03*
D13*
%TO.P,R10,2*%
%TO.N,GND1*%
X208838000Y-34290000D03*
%TD*%
D14*
%TO.P,U5,1*%
%TO.N,Net-(R81-Pad2)*%
X49087000Y-92145000D03*
D13*
%TO.P,U5,2*%
%TO.N,GND*%
X49087000Y-89605000D03*
%TO.P,U5,3*%
%TO.N,Net-(R82-Pad2)*%
X49087000Y-87065000D03*
%TO.P,U5,4*%
%TO.N,GND*%
X49087000Y-84525000D03*
%TO.P,U5,5*%
%TO.N,Net-(R83-Pad2)*%
X49087000Y-81985000D03*
%TO.P,U5,6*%
%TO.N,GND*%
X49087000Y-79445000D03*
%TO.P,U5,7*%
%TO.N,Net-(R84-Pad2)*%
X49087000Y-76905000D03*
%TO.P,U5,8*%
%TO.N,GND*%
X49087000Y-74365000D03*
%TO.P,U5,9*%
%TO.N,Net-(J13-Pin_6)*%
X41467000Y-74365000D03*
%TO.P,U5,10*%
%TO.N,Net-(J13-Pin_5)*%
X41467000Y-76905000D03*
%TO.P,U5,11*%
%TO.N,Net-(J13-Pin_3)*%
X41467000Y-79445000D03*
%TO.P,U5,12*%
%TO.N,Net-(J13-Pin_2)*%
X41467000Y-81985000D03*
%TO.P,U5,13*%
%TO.N,Net-(J12-Pin_6)*%
X41467000Y-84525000D03*
%TO.P,U5,14*%
%TO.N,Net-(J12-Pin_5)*%
X41467000Y-87065000D03*
%TO.P,U5,15*%
%TO.N,Net-(J12-Pin_3)*%
X41467000Y-89605000D03*
%TO.P,U5,16*%
%TO.N,Net-(J12-Pin_2)*%
X41467000Y-92145000D03*
%TD*%
D12*
%TO.P,R29,1*%
%TO.N,+5V*%
X141000000Y-38481000D03*
D13*
%TO.P,R29,2*%
%TO.N,/D44*%
X141000000Y-48641000D03*
%TD*%
D12*
%TO.P,R20,1*%
%TO.N,Net-(D10-K)*%
X145838000Y-24284000D03*
D13*
%TO.P,R20,2*%
%TO.N,GND1*%
X145838000Y-34444000D03*
%TD*%
D12*
%TO.P,R81,1*%
%TO.N,/D26*%
X63707000Y-86515000D03*
D13*
%TO.P,R81,2*%
%TO.N,Net-(R81-Pad2)*%
X53547000Y-86515000D03*
%TD*%
D15*
%TO.P,J9,1,Pin_1*%
%TO.N,Net-(J9-Pin_1)*%
X208350000Y-110744000D03*
D16*
%TO.P,J9,2,Pin_2*%
%TO.N,Net-(J9-Pin_2)*%
X211850000Y-110744000D03*
%TO.P,J9,3,Pin_3*%
%TO.N,Net-(J9-Pin_3)*%
X215350000Y-110744000D03*
%TO.P,J9,4,Pin_4*%
%TO.N,Net-(J9-Pin_4)*%
X218850000Y-110744000D03*
%TO.P,J9,5,Pin_5*%
%TO.N,Net-(J9-Pin_5)*%
X222350000Y-110744000D03*
%TO.P,J9,6,Pin_6*%
%TO.N,Net-(J9-Pin_6)*%
X225850000Y-110744000D03*
%TD*%
D12*
%TO.P,R34,1*%
%TO.N,Net-(D17-K)*%
X108050000Y-38481000D03*
D13*
%TO.P,R34,2*%
%TO.N,GND1*%
X108050000Y-48641000D03*
%TD*%
D12*
%TO.P,R85,1*%
%TO.N,/D30*%
X63627000Y-109895000D03*
D13*
%TO.P,R85,2*%
%TO.N,Net-(R85-Pad2)*%
X53467000Y-109895000D03*
%TD*%
D12*
%TO.P,R78,1*%
%TO.N,Net-(J10-Pin_5)*%
X197880000Y-72735000D03*
D13*
%TO.P,R78,2*%
%TO.N,Net-(J10-Pin_4)*%
X187720000Y-72735000D03*
%TD*%
D12*
%TO.P,R114,1*%
%TO.N,Net-(J23-Pin_1)*%
X205613000Y-47484000D03*
D13*
%TO.P,R114,2*%
%TO.N,Net-(D26-K)*%
X215773000Y-47484000D03*
%TD*%
D12*
%TO.P,R5,1*%
%TO.N,+5V*%
X241788000Y-24130000D03*
D13*
%TO.P,R5,2*%
%TO.N,/A2*%
X241788000Y-34290000D03*
%TD*%
D12*
%TO.P,R70,1*%
%TO.N,Net-(J8-Pin_5)*%
X242560000Y-92815000D03*
D13*
%TO.P,R70,2*%
%TO.N,Net-(J8-Pin_4)*%
X232400000Y-92815000D03*
%TD*%
D12*
%TO.P,R22,1*%
%TO.N,Net-(D11-K)*%
X132838000Y-24284000D03*
D13*
%TO.P,R22,2*%
%TO.N,GND1*%
X132838000Y-34444000D03*
%TD*%
D12*
%TO.P,R110,1*%
%TO.N,Net-(J18-Pin_5)*%
X37547000Y-35720000D03*
D13*
%TO.P,R110,2*%
%TO.N,Net-(J18-Pin_4)*%
X27387000Y-35720000D03*
%TD*%
D14*
%TO.P,U7,1*%
%TO.N,Net-(R97-Pad2)*%
X49467000Y-68630000D03*
D13*
%TO.P,U7,2*%
%TO.N,GND*%
X49467000Y-66090000D03*
%TO.P,U7,3*%
%TO.N,Net-(R98-Pad2)*%
X49467000Y-63550000D03*
%TO.P,U7,4*%
%TO.N,GND*%
X49467000Y-61010000D03*
%TO.P,U7,5*%
%TO.N,Net-(R99-Pad2)*%
X49467000Y-58470000D03*
%TO.P,U7,6*%
%TO.N,GND*%
X49467000Y-55930000D03*
%TO.P,U7,7*%
%TO.N,Net-(R100-Pad2)*%
X49467000Y-53390000D03*
%TO.P,U7,8*%
%TO.N,GND*%
X49467000Y-50850000D03*
%TO.P,U7,9*%
%TO.N,Net-(J17-Pin_6)*%
X41847000Y-50850000D03*
%TO.P,U7,10*%
%TO.N,Net-(J17-Pin_5)*%
X41847000Y-53390000D03*
%TO.P,U7,11*%
%TO.N,Net-(J17-Pin_3)*%
X41847000Y-55930000D03*
%TO.P,U7,12*%
%TO.N,Net-(J17-Pin_2)*%
X41847000Y-58470000D03*
%TO.P,U7,13*%
%TO.N,Net-(J16-Pin_6)*%
X41847000Y-61010000D03*
%TO.P,U7,14*%
%TO.N,Net-(J16-Pin_5)*%
X41847000Y-63550000D03*
%TO.P,U7,15*%
%TO.N,Net-(J16-Pin_3)*%
X41847000Y-66090000D03*
%TO.P,U7,16*%
%TO.N,Net-(J16-Pin_2)*%
X41847000Y-68630000D03*
%TD*%
D12*
%TO.P,R17,1*%
%TO.N,+5V*%
X166788000Y-24130000D03*
D13*
%TO.P,R17,2*%
%TO.N,/A8*%
X166788000Y-34290000D03*
%TD*%
D10*
%TO.P,D23,1,K*%
%TO.N,Net-(D23-K)*%
X87050000Y-24210000D03*
D11*
%TO.P,D23,2,A*%
%TO.N,/D52*%
X87050000Y-34370000D03*
%TD*%
D12*
%TO.P,R62,1*%
%TO.N,Net-(J6-Pin_5)*%
X197640000Y-93135000D03*
D13*
%TO.P,R62,2*%
%TO.N,Net-(J6-Pin_4)*%
X187480000Y-93135000D03*
%TD*%
D12*
%TO.P,R91,1*%
%TO.N,Net-(J13-Pin_2)*%
X38627000Y-78415000D03*
D13*
%TO.P,R91,2*%
%TO.N,Net-(J13-Pin_1)*%
X28467000Y-78415000D03*
%TD*%
D15*
%TO.P,J11,1,Pin_1*%
%TO.N,Net-(J11-Pin_1)*%
X69850000Y-110744000D03*
D16*
%TO.P,J11,2,Pin_2*%
%TO.N,Net-(J11-Pin_2)*%
X73350000Y-110744000D03*
%TO.P,J11,3,Pin_3*%
%TO.N,Net-(J11-Pin_3)*%
X76850000Y-110744000D03*
%TO.P,J11,4,Pin_4*%
%TO.N,Net-(J11-Pin_4)*%
X80350000Y-110744000D03*
%TO.P,J11,5,Pin_5*%
%TO.N,Net-(J11-Pin_5)*%
X83850000Y-110744000D03*
%TO.P,J11,6,Pin_6*%
%TO.N,Net-(J11-Pin_6)*%
X87350000Y-110744000D03*
%TD*%
D14*
%TO.P,D25,1,K*%
%TO.N,Net-(D25-K)*%
X259207000Y-40132000D03*
D13*
%TO.P,D25,2,A*%
%TO.N,GND1*%
X269367000Y-40132000D03*
%TD*%
D15*
%TO.P,J10,1,Pin_1*%
%TO.N,Net-(J10-Pin_1)*%
X92350000Y-110744000D03*
D16*
%TO.P,J10,2,Pin_2*%
%TO.N,Net-(J10-Pin_2)*%
X95850000Y-110744000D03*
%TO.P,J10,3,Pin_3*%
%TO.N,Net-(J10-Pin_3)*%
X99350000Y-110744000D03*
%TO.P,J10,4,Pin_4*%
%TO.N,Net-(J10-Pin_4)*%
X102850000Y-110744000D03*
%TO.P,J10,5,Pin_5*%
%TO.N,Net-(J10-Pin_5)*%
X106350000Y-110744000D03*
%TO.P,J10,6,Pin_6*%
%TO.N,Net-(J10-Pin_6)*%
X109850000Y-110744000D03*
%TD*%
D12*
%TO.P,R92,1*%
%TO.N,Net-(J13-Pin_5)*%
X38627000Y-74365000D03*
D13*
%TO.P,R92,2*%
%TO.N,Net-(J13-Pin_4)*%
X28467000Y-74365000D03*
%TD*%
D14*
%TO.P,U3,1*%
%TO.N,Net-(R65-Pad2)*%
X254560000Y-102415000D03*
D13*
%TO.P,U3,2*%
%TO.N,GND*%
X254560000Y-99875000D03*
%TO.P,U3,3*%
%TO.N,Net-(R66-Pad2)*%
X254560000Y-97335000D03*
%TO.P,U3,4*%
%TO.N,GND*%
X254560000Y-94795000D03*
%TO.P,U3,5*%
%TO.N,Net-(R67-Pad2)*%
X254560000Y-92255000D03*
%TO.P,U3,6*%
%TO.N,GND*%
X254560000Y-89715000D03*
%TO.P,U3,7*%
%TO.N,Net-(R68-Pad2)*%
X254560000Y-87175000D03*
%TO.P,U3,8*%
%TO.N,GND*%
X254560000Y-84635000D03*
%TO.P,U3,9*%
%TO.N,Net-(J9-Pin_6)*%
X246940000Y-84635000D03*
%TO.P,U3,10*%
%TO.N,Net-(J9-Pin_5)*%
X246940000Y-87175000D03*
%TO.P,U3,11*%
%TO.N,Net-(J9-Pin_3)*%
X246940000Y-89715000D03*
%TO.P,U3,12*%
%TO.N,Net-(J9-Pin_2)*%
X246940000Y-92255000D03*
%TO.P,U3,13*%
%TO.N,Net-(J8-Pin_6)*%
X246940000Y-94795000D03*
%TO.P,U3,14*%
%TO.N,Net-(J8-Pin_5)*%
X246940000Y-97335000D03*
%TO.P,U3,15*%
%TO.N,Net-(J8-Pin_3)*%
X246940000Y-99875000D03*
%TO.P,U3,16*%
%TO.N,Net-(J8-Pin_2)*%
X246940000Y-102415000D03*
%TD*%
D15*
%TO.P,J20,1,Pin_1*%
%TO.N,Net-(A1-D18{slash}TX1)*%
X257000000Y-122000000D03*
D16*
%TO.P,J20,2,Pin_2*%
%TO.N,Net-(A1-D19{slash}RX1)*%
X253500000Y-122000000D03*
%TD*%
D12*
%TO.P,R45,1*%
%TO.N,+5V*%
X91000000Y-24130000D03*
D13*
%TO.P,R45,2*%
%TO.N,/D52*%
X91000000Y-34290000D03*
%TD*%
D12*
%TO.P,R104,1*%
%TO.N,/D41*%
X63547000Y-27770000D03*
D13*
%TO.P,R104,2*%
%TO.N,Net-(R104-Pad2)*%
X53387000Y-27770000D03*
%TD*%
D14*
%TO.P,U2,1*%
%TO.N,Net-(R57-Pad2)*%
X209560000Y-102335000D03*
D13*
%TO.P,U2,2*%
%TO.N,GND*%
X209560000Y-99795000D03*
%TO.P,U2,3*%
%TO.N,Net-(R58-Pad2)*%
X209560000Y-97255000D03*
%TO.P,U2,4*%
%TO.N,GND*%
X209560000Y-94715000D03*
%TO.P,U2,5*%
%TO.N,Net-(R59-Pad2)*%
X209560000Y-92175000D03*
%TO.P,U2,6*%
%TO.N,GND*%
X209560000Y-89635000D03*
%TO.P,U2,7*%
%TO.N,Net-(R60-Pad2)*%
X209560000Y-87095000D03*
%TO.P,U2,8*%
%TO.N,GND*%
X209560000Y-84555000D03*
%TO.P,U2,9*%
%TO.N,Net-(J7-Pin_6)*%
X201940000Y-84555000D03*
%TO.P,U2,10*%
%TO.N,Net-(J7-Pin_5)*%
X201940000Y-87095000D03*
%TO.P,U2,11*%
%TO.N,Net-(J7-Pin_3)*%
X201940000Y-89635000D03*
%TO.P,U2,12*%
%TO.N,Net-(J7-Pin_2)*%
X201940000Y-92175000D03*
%TO.P,U2,13*%
%TO.N,Net-(J6-Pin_6)*%
X201940000Y-94715000D03*
%TO.P,U2,14*%
%TO.N,Net-(J6-Pin_5)*%
X201940000Y-97255000D03*
%TO.P,U2,15*%
%TO.N,Net-(J6-Pin_3)*%
X201940000Y-99795000D03*
%TO.P,U2,16*%
%TO.N,Net-(J6-Pin_2)*%
X201940000Y-102335000D03*
%TD*%
D12*
%TO.P,R41,1*%
%TO.N,+5V*%
X116000000Y-24130000D03*
D13*
%TO.P,R41,2*%
%TO.N,/D50*%
X116000000Y-34290000D03*
%TD*%
D10*
%TO.P,D1,1,K*%
%TO.N,Net-(D1-K)*%
X260838000Y-24284000D03*
D11*
%TO.P,D1,2,A*%
%TO.N,/A0*%
X260838000Y-34444000D03*
%TD*%
D12*
%TO.P,R119,1*%
%TO.N,Net-(J24-Pin_1)*%
X240284000Y-43688000D03*
D13*
%TO.P,R119,2*%
%TO.N,Net-(D28-K)*%
X250444000Y-43688000D03*
%TD*%
D12*
%TO.P,R83,1*%
%TO.N,/D28*%
X63707000Y-78415000D03*
D13*
%TO.P,R83,2*%
%TO.N,Net-(R83-Pad2)*%
X53547000Y-78415000D03*
%TD*%
D12*
%TO.P,R12,1*%
%TO.N,Net-(D6-K)*%
X196838000Y-24130000D03*
D13*
%TO.P,R12,2*%
%TO.N,GND1*%
X196838000Y-34290000D03*
%TD*%
D15*
%TO.P,J1,1,Pin_1*%
%TO.N,Net-(D8-K)*%
X202225000Y-16637000D03*
D16*
%TO.P,J1,2,Pin_2*%
%TO.N,Net-(D7-K)*%
X205725000Y-16637000D03*
%TO.P,J1,3,Pin_3*%
%TO.N,Net-(D6-K)*%
X209225000Y-16637000D03*
%TO.P,J1,4,Pin_4*%
%TO.N,Net-(D5-K)*%
X212725000Y-16637000D03*
%TO.P,J1,5,Pin_5*%
%TO.N,Net-(D4-K)*%
X216225000Y-16637000D03*
%TO.P,J1,6,Pin_6*%
%TO.N,Net-(D3-K)*%
X219725000Y-16637000D03*
%TO.P,J1,7,Pin_7*%
%TO.N,Net-(D2-K)*%
X223225000Y-16637000D03*
%TO.P,J1,8,Pin_8*%
%TO.N,Net-(D1-K)*%
X226725000Y-16637000D03*
%TD*%
D12*
%TO.P,R63,1*%
%TO.N,Net-(J7-Pin_2)*%
X197640000Y-88765000D03*
D13*
%TO.P,R63,2*%
%TO.N,Net-(J7-Pin_1)*%
X187480000Y-88765000D03*
%TD*%
D12*
%TO.P,R57,1*%
%TO.N,/D6*%
X224640000Y-84715000D03*
D13*
%TO.P,R57,2*%
%TO.N,Net-(R57-Pad2)*%
X214480000Y-84715000D03*
%TD*%
D12*
%TO.P,R94,1*%
%TO.N,Net-(J14-Pin_5)*%
X37627000Y-105895000D03*
D13*
%TO.P,R94,2*%
%TO.N,Net-(J14-Pin_4)*%
X27467000Y-105895000D03*
%TD*%
D14*
%TO.P,U6,1*%
%TO.N,Net-(R85-Pad2)*%
X49267000Y-115620000D03*
D13*
%TO.P,U6,2*%
%TO.N,GND*%
X49267000Y-113080000D03*
%TO.P,U6,3*%
%TO.N,Net-(R86-Pad2)*%
X49267000Y-110540000D03*
%TO.P,U6,4*%
%TO.N,GND*%
X49267000Y-108000000D03*
%TO.P,U6,5*%
%TO.N,Net-(R87-Pad2)*%
X49267000Y-105460000D03*
%TO.P,U6,6*%
%TO.N,GND*%
X49267000Y-102920000D03*
%TO.P,U6,7*%
%TO.N,Net-(R88-Pad2)*%
X49267000Y-100380000D03*
%TO.P,U6,8*%
%TO.N,GND*%
X49267000Y-97840000D03*
%TO.P,U6,9*%
%TO.N,Net-(J15-Pin_6)*%
X41647000Y-97840000D03*
%TO.P,U6,10*%
%TO.N,Net-(J15-Pin_5)*%
X41647000Y-100380000D03*
%TO.P,U6,11*%
%TO.N,Net-(J15-Pin_3)*%
X41647000Y-102920000D03*
%TO.P,U6,12*%
%TO.N,Net-(J15-Pin_2)*%
X41647000Y-105460000D03*
%TO.P,U6,13*%
%TO.N,Net-(J14-Pin_6)*%
X41647000Y-108000000D03*
%TO.P,U6,14*%
%TO.N,Net-(J14-Pin_5)*%
X41647000Y-110540000D03*
%TO.P,U6,15*%
%TO.N,Net-(J14-Pin_3)*%
X41647000Y-113080000D03*
%TO.P,U6,16*%
%TO.N,Net-(J14-Pin_2)*%
X41647000Y-115620000D03*
%TD*%
D12*
%TO.P,R2,1*%
%TO.N,Net-(D1-K)*%
X257338000Y-24130000D03*
D13*
%TO.P,R2,2*%
%TO.N,GND1*%
X257338000Y-34290000D03*
%TD*%
D12*
%TO.P,R120,1*%
%TO.N,Net-(D27-K)*%
X240157000Y-51308000D03*
D13*
%TO.P,R120,2*%
%TO.N,Net-(R120-Pad2)*%
X250317000Y-51308000D03*
%TD*%
D14*
%TO.P,U1,1*%
%TO.N,Net-(R49-Pad2)*%
X255180000Y-78955000D03*
D13*
%TO.P,U1,2*%
%TO.N,GND*%
X255180000Y-76415000D03*
%TO.P,U1,3*%
%TO.N,Net-(R50-Pad2)*%
X255180000Y-73875000D03*
%TO.P,U1,4*%
%TO.N,GND*%
X255180000Y-71335000D03*
%TO.P,U1,5*%
%TO.N,Net-(R51-Pad2)*%
X255180000Y-68795000D03*
%TO.P,U1,6*%
%TO.N,GND*%
X255180000Y-66255000D03*
%TO.P,U1,7*%
%TO.N,Net-(R52-Pad2)*%
X255180000Y-63715000D03*
%TO.P,U1,8*%
%TO.N,GND*%
X255180000Y-61175000D03*
%TO.P,U1,9*%
%TO.N,Net-(J5-Pin_6)*%
X247560000Y-61175000D03*
%TO.P,U1,10*%
%TO.N,Net-(J5-Pin_5)*%
X247560000Y-63715000D03*
%TO.P,U1,11*%
%TO.N,Net-(J5-Pin_3)*%
X247560000Y-66255000D03*
%TO.P,U1,12*%
%TO.N,Net-(J5-Pin_2)*%
X247560000Y-68795000D03*
%TO.P,U1,13*%
%TO.N,Net-(J4-Pin_6)*%
X247560000Y-71335000D03*
%TO.P,U1,14*%
%TO.N,Net-(J4-Pin_5)*%
X247560000Y-73875000D03*
%TO.P,U1,15*%
%TO.N,Net-(J4-Pin_3)*%
X247560000Y-76415000D03*
%TO.P,U1,16*%
%TO.N,Net-(J4-Pin_2)*%
X247560000Y-78955000D03*
%TD*%
D15*
%TO.P,J7,1,Pin_1*%
%TO.N,Net-(J7-Pin_1)*%
X162350000Y-110744000D03*
D16*
%TO.P,J7,2,Pin_2*%
%TO.N,Net-(J7-Pin_2)*%
X165850000Y-110744000D03*
%TO.P,J7,3,Pin_3*%
%TO.N,Net-(J7-Pin_3)*%
X169350000Y-110744000D03*
%TO.P,J7,4,Pin_4*%
%TO.N,Net-(J7-Pin_4)*%
X172850000Y-110744000D03*
%TO.P,J7,5,Pin_5*%
%TO.N,Net-(J7-Pin_5)*%
X176350000Y-110744000D03*
%TO.P,J7,6,Pin_6*%
%TO.N,Net-(J7-Pin_6)*%
X179850000Y-110744000D03*
%TD*%
D12*
%TO.P,R33,1*%
%TO.N,+5V*%
X117000000Y-38481000D03*
D13*
%TO.P,R33,2*%
%TO.N,/D46*%
X117000000Y-48641000D03*
%TD*%
D15*
%TO.P,J16,1,Pin_1*%
%TO.N,Net-(J16-Pin_1)*%
X139000000Y-122000000D03*
D16*
%TO.P,J16,2,Pin_2*%
%TO.N,Net-(J16-Pin_2)*%
X142500000Y-122000000D03*
%TO.P,J16,3,Pin_3*%
%TO.N,Net-(J16-Pin_3)*%
X146000000Y-122000000D03*
%TO.P,J16,4,Pin_4*%
%TO.N,Net-(J16-Pin_4)*%
X149500000Y-122000000D03*
%TO.P,J16,5,Pin_5*%
%TO.N,Net-(J16-Pin_5)*%
X153000000Y-122000000D03*
%TO.P,J16,6,Pin_6*%
%TO.N,Net-(J16-Pin_6)*%
X156500000Y-122000000D03*
%TD*%
D12*
%TO.P,R64,1*%
%TO.N,Net-(J7-Pin_5)*%
X197640000Y-84715000D03*
D13*
%TO.P,R64,2*%
%TO.N,Net-(J7-Pin_4)*%
X187480000Y-84715000D03*
%TD*%
D12*
%TO.P,R66,1*%
%TO.N,/D11*%
X269020000Y-88715000D03*
D13*
%TO.P,R66,2*%
%TO.N,Net-(R66-Pad2)*%
X258860000Y-88715000D03*
%TD*%
D15*
%TO.P,J14,1,Pin_1*%
%TO.N,Net-(J14-Pin_1)*%
X230500000Y-122000000D03*
D16*
%TO.P,J14,2,Pin_2*%
%TO.N,Net-(J14-Pin_2)*%
X234000000Y-122000000D03*
%TO.P,J14,3,Pin_3*%
%TO.N,Net-(J14-Pin_3)*%
X237500000Y-122000000D03*
%TO.P,J14,4,Pin_4*%
%TO.N,Net-(J14-Pin_4)*%
X241000000Y-122000000D03*
%TO.P,J14,5,Pin_5*%
%TO.N,Net-(J14-Pin_5)*%
X244500000Y-122000000D03*
%TO.P,J14,6,Pin_6*%
%TO.N,Net-(J14-Pin_6)*%
X248000000Y-122000000D03*
%TD*%
D12*
%TO.P,R53,1*%
%TO.N,Net-(J4-Pin_2)*%
X243800000Y-76635000D03*
D13*
%TO.P,R53,2*%
%TO.N,Net-(J4-Pin_1)*%
X233640000Y-76635000D03*
%TD*%
D15*
%TO.P,J6,1,Pin_1*%
%TO.N,Net-(J6-Pin_1)*%
X184850000Y-110744000D03*
D16*
%TO.P,J6,2,Pin_2*%
%TO.N,Net-(J6-Pin_2)*%
X188350000Y-110744000D03*
%TO.P,J6,3,Pin_3*%
%TO.N,Net-(J6-Pin_3)*%
X191850000Y-110744000D03*
%TO.P,J6,4,Pin_4*%
%TO.N,Net-(J6-Pin_4)*%
X195350000Y-110744000D03*
%TO.P,J6,5,Pin_5*%
%TO.N,Net-(J6-Pin_5)*%
X198850000Y-110744000D03*
%TO.P,J6,6,Pin_6*%
%TO.N,Net-(J6-Pin_6)*%
X202350000Y-110744000D03*
%TD*%
D12*
%TO.P,R60,1*%
%TO.N,/D9*%
X224640000Y-96715000D03*
D13*
%TO.P,R60,2*%
%TO.N,Net-(R60-Pad2)*%
X214480000Y-96715000D03*
%TD*%
D12*
%TO.P,R116,1*%
%TO.N,GND1*%
X205740000Y-55118000D03*
D13*
%TO.P,R116,2*%
%TO.N,Net-(D26-K)*%
X215900000Y-55118000D03*
%TD*%
D10*
%TO.P,D14,1,K*%
%TO.N,Net-(D14-K)*%
X149050000Y-38481000D03*
D11*
%TO.P,D14,2,A*%
%TO.N,/D43*%
X149050000Y-48641000D03*
%TD*%
D12*
%TO.P,R23,1*%
%TO.N,+5V*%
X128788000Y-24284000D03*
D13*
%TO.P,R23,2*%
%TO.N,/A11*%
X128788000Y-34444000D03*
%TD*%
D12*
%TO.P,R65,1*%
%TO.N,/D10*%
X269020000Y-84715000D03*
D13*
%TO.P,R65,2*%
%TO.N,Net-(R65-Pad2)*%
X258860000Y-84715000D03*
%TD*%
D12*
%TO.P,R97,1*%
%TO.N,/D34*%
X64707000Y-63000000D03*
D13*
%TO.P,R97,2*%
%TO.N,Net-(R97-Pad2)*%
X54547000Y-63000000D03*
%TD*%
D12*
%TO.P,R39,1*%
%TO.N,+5V*%
X78250000Y-38481000D03*
D13*
%TO.P,R39,2*%
%TO.N,/D49*%
X78250000Y-48641000D03*
%TD*%
D12*
%TO.P,R69,1*%
%TO.N,Net-(J8-Pin_2)*%
X242560000Y-96865000D03*
D13*
%TO.P,R69,2*%
%TO.N,Net-(J8-Pin_1)*%
X232400000Y-96865000D03*
%TD*%
D12*
%TO.P,R30,1*%
%TO.N,Net-(D15-K)*%
X133050000Y-38481000D03*
D13*
%TO.P,R30,2*%
%TO.N,GND1*%
X133050000Y-48641000D03*
%TD*%
D19*
%TO.P,U9,1*%
%TO.N,Net-(R115-Pad2)*%
X225181000Y-42809000D03*
D20*
%TO.P,U9,2,-*%
%TO.N,Net-(D25-K)*%
X225181000Y-45349000D03*
%TO.P,U9,3,+*%
%TO.N,Net-(D26-K)*%
X225181000Y-47889000D03*
%TO.P,U9,4,V-*%
%TO.N,GND1*%
X225181000Y-50429000D03*
%TO.P,U9,5,+*%
%TO.N,Net-(D28-K)*%
X232801000Y-50429000D03*
%TO.P,U9,6,-*%
%TO.N,Net-(D27-K)*%
X232801000Y-47889000D03*
%TO.P,U9,7*%
%TO.N,Net-(R120-Pad2)*%
X232801000Y-45349000D03*
%TO.P,U9,8,V+*%
%TO.N,+5V*%
X232801000Y-42809000D03*
%TD*%
D12*
%TO.P,R112,1*%
%TO.N,Net-(J19-Pin_5)*%
X37547000Y-27620000D03*
D13*
%TO.P,R112,2*%
%TO.N,Net-(J19-Pin_4)*%
X27387000Y-27620000D03*
%TD*%
D12*
%TO.P,R109,1*%
%TO.N,Net-(J18-Pin_2)*%
X37547000Y-39770000D03*
D13*
%TO.P,R109,2*%
%TO.N,Net-(J18-Pin_1)*%
X27387000Y-39770000D03*
%TD*%
D10*
%TO.P,D10,1,K*%
%TO.N,Net-(D10-K)*%
X149838000Y-24284000D03*
D11*
%TO.P,D10,2,A*%
%TO.N,/A9*%
X149838000Y-34444000D03*
%TD*%
D12*
%TO.P,R88,1*%
%TO.N,/D33*%
X63627000Y-97745000D03*
D13*
%TO.P,R88,2*%
%TO.N,Net-(R88-Pad2)*%
X53467000Y-97745000D03*
%TD*%
D10*
%TO.P,D18,1,K*%
%TO.N,Net-(D18-K)*%
X100050000Y-38481000D03*
D11*
%TO.P,D18,2,A*%
%TO.N,/D47*%
X100050000Y-48641000D03*
%TD*%
D12*
%TO.P,R59,1*%
%TO.N,/D8*%
X224640000Y-92715000D03*
D13*
%TO.P,R59,2*%
%TO.N,Net-(R59-Pad2)*%
X214480000Y-92715000D03*
%TD*%
D10*
%TO.P,D5,1,K*%
%TO.N,Net-(D5-K)*%
X213838000Y-24284000D03*
D11*
%TO.P,D5,2,A*%
%TO.N,/A4*%
X213838000Y-34444000D03*
%TD*%
D10*
%TO.P,D24,1,K*%
%TO.N,Net-(D24-K)*%
X74050000Y-24210000D03*
D11*
%TO.P,D24,2,A*%
%TO.N,/D53*%
X74050000Y-34370000D03*
%TD*%
D12*
%TO.P,R7,1*%
%TO.N,+5V*%
X229838000Y-24130000D03*
D13*
%TO.P,R7,2*%
%TO.N,/A3*%
X229838000Y-34290000D03*
%TD*%
D12*
%TO.P,R9,1*%
%TO.N,+5V*%
X217788000Y-24130000D03*
D13*
%TO.P,R9,2*%
%TO.N,/A4*%
X217788000Y-34290000D03*
%TD*%
D12*
%TO.P,R21,1*%
%TO.N,+5V*%
X141668000Y-24284000D03*
D13*
%TO.P,R21,2*%
%TO.N,/A10*%
X141668000Y-34444000D03*
%TD*%
D12*
%TO.P,R36,1*%
%TO.N,Net-(D18-K)*%
X96050000Y-38481000D03*
D13*
%TO.P,R36,2*%
%TO.N,GND1*%
X96050000Y-48641000D03*
%TD*%
D12*
%TO.P,R105,1*%
%TO.N,Net-(J16-Pin_2)*%
X37627000Y-63000000D03*
D13*
%TO.P,R105,2*%
%TO.N,Net-(J16-Pin_1)*%
X27467000Y-63000000D03*
%TD*%
D15*
%TO.P,J18,1,Pin_1*%
%TO.N,Net-(J18-Pin_1)*%
X92500000Y-122000000D03*
D16*
%TO.P,J18,2,Pin_2*%
%TO.N,Net-(J18-Pin_2)*%
X96000000Y-122000000D03*
%TO.P,J18,3,Pin_3*%
%TO.N,Net-(J18-Pin_3)*%
X99500000Y-122000000D03*
%TO.P,J18,4,Pin_4*%
%TO.N,Net-(J18-Pin_4)*%
X103000000Y-122000000D03*
%TO.P,J18,5,Pin_5*%
%TO.N,Net-(J18-Pin_5)*%
X106500000Y-122000000D03*
%TO.P,J18,6,Pin_6*%
%TO.N,Net-(J18-Pin_6)*%
X110000000Y-122000000D03*
%TD*%
D10*
%TO.P,D8,1,K*%
%TO.N,Net-(D8-K)*%
X175838000Y-24284000D03*
D11*
%TO.P,D8,2,A*%
%TO.N,/A7*%
X175838000Y-34444000D03*
%TD*%
D15*
%TO.P,J23,1,Pin_1*%
%TO.N,Net-(J23-Pin_1)*%
X239037000Y-16256000D03*
D16*
%TO.P,J23,2,Pin_2*%
%TO.N,Net-(J23-Pin_2)*%
X242537000Y-16256000D03*
%TD*%
D12*
%TO.P,R111,1*%
%TO.N,Net-(J19-Pin_2)*%
X37547000Y-31670000D03*
D13*
%TO.P,R111,2*%
%TO.N,Net-(J19-Pin_1)*%
X27387000Y-31670000D03*
%TD*%
D12*
%TO.P,R8,1*%
%TO.N,Net-(D4-K)*%
X221838000Y-24130000D03*
D13*
%TO.P,R8,2*%
%TO.N,GND1*%
X221838000Y-34290000D03*
%TD*%
D12*
%TO.P,R99,1*%
%TO.N,/D36*%
X64707000Y-54900000D03*
D13*
%TO.P,R99,2*%
%TO.N,Net-(R99-Pad2)*%
X54547000Y-54900000D03*
%TD*%
D12*
%TO.P,R68,1*%
%TO.N,/D13*%
X268940000Y-96715000D03*
D13*
%TO.P,R68,2*%
%TO.N,Net-(R68-Pad2)*%
X258780000Y-96715000D03*
%TD*%
D10*
%TO.P,D16,1,K*%
%TO.N,Net-(D16-K)*%
X125050000Y-38481000D03*
D11*
%TO.P,D16,2,A*%
%TO.N,/D45*%
X125050000Y-48641000D03*
%TD*%
D10*
%TO.P,D20,1,K*%
%TO.N,Net-(D20-K)*%
X74050000Y-38561000D03*
D11*
%TO.P,D20,2,A*%
%TO.N,/D49*%
X74050000Y-48721000D03*
%TD*%
D12*
%TO.P,R102,1*%
%TO.N,/D39*%
X63547000Y-35770000D03*
D13*
%TO.P,R102,2*%
%TO.N,Net-(R102-Pad2)*%
X53387000Y-35770000D03*
%TD*%
D14*
%TO.P,D27,1,K*%
%TO.N,Net-(D27-K)*%
X259334000Y-48768000D03*
D13*
%TO.P,D27,2,A*%
%TO.N,GND1*%
X269494000Y-48768000D03*
%TD*%
D12*
%TO.P,R101,1*%
%TO.N,/D38*%
X63547000Y-39770000D03*
D13*
%TO.P,R101,2*%
%TO.N,Net-(R101-Pad2)*%
X53387000Y-39770000D03*
%TD*%
D12*
%TO.P,R82,1*%
%TO.N,/D27*%
X63707000Y-82465000D03*
D13*
%TO.P,R82,2*%
%TO.N,Net-(R82-Pad2)*%
X53547000Y-82465000D03*
%TD*%
D15*
%TO.P,J17,1,Pin_1*%
%TO.N,Net-(J17-Pin_1)*%
X116000000Y-122000000D03*
D16*
%TO.P,J17,2,Pin_2*%
%TO.N,Net-(J17-Pin_2)*%
X119500000Y-122000000D03*
%TO.P,J17,3,Pin_3*%
%TO.N,Net-(J17-Pin_3)*%
X123000000Y-122000000D03*
%TO.P,J17,4,Pin_4*%
%TO.N,Net-(J17-Pin_4)*%
X126500000Y-122000000D03*
%TO.P,J17,5,Pin_5*%
%TO.N,Net-(J17-Pin_5)*%
X130000000Y-122000000D03*
%TO.P,J17,6,Pin_6*%
%TO.N,Net-(J17-Pin_6)*%
X133500000Y-122000000D03*
%TD*%
D10*
%TO.P,D11,1,K*%
%TO.N,Net-(D11-K)*%
X137838000Y-24284000D03*
D11*
%TO.P,D11,2,A*%
%TO.N,/A10*%
X137838000Y-34444000D03*
%TD*%
D14*
%TO.P,U8,1*%
%TO.N,Net-(R101-Pad2)*%
X49267000Y-45645000D03*
D13*
%TO.P,U8,2*%
%TO.N,GND*%
X49267000Y-43105000D03*
%TO.P,U8,3*%
%TO.N,Net-(R102-Pad2)*%
X49267000Y-40565000D03*
%TO.P,U8,4*%
%TO.N,GND*%
X49267000Y-38025000D03*
%TO.P,U8,5*%
%TO.N,Net-(R103-Pad2)*%
X49267000Y-35485000D03*
%TO.P,U8,6*%
%TO.N,GND*%
X49267000Y-32945000D03*
%TO.P,U8,7*%
%TO.N,Net-(R104-Pad2)*%
X49267000Y-30405000D03*
%TO.P,U8,8*%
%TO.N,GND*%
X49267000Y-27865000D03*
%TO.P,U8,9*%
%TO.N,Net-(J19-Pin_6)*%
X41647000Y-27865000D03*
%TO.P,U8,10*%
%TO.N,Net-(J19-Pin_5)*%
X41647000Y-30405000D03*
%TO.P,U8,11*%
%TO.N,Net-(J19-Pin_3)*%
X41647000Y-32945000D03*
%TO.P,U8,12*%
%TO.N,Net-(J19-Pin_2)*%
X41647000Y-35485000D03*
%TO.P,U8,13*%
%TO.N,Net-(J18-Pin_6)*%
X41647000Y-38025000D03*
%TO.P,U8,14*%
%TO.N,Net-(J18-Pin_5)*%
X41647000Y-40565000D03*
%TO.P,U8,15*%
%TO.N,Net-(J18-Pin_3)*%
X41647000Y-43105000D03*
%TO.P,U8,16*%
%TO.N,Net-(J18-Pin_2)*%
X41647000Y-45645000D03*
%TD*%
D12*
%TO.P,R93,1*%
%TO.N,Net-(J14-Pin_2)*%
X37627000Y-109945000D03*
D13*
%TO.P,R93,2*%
%TO.N,Net-(J14-Pin_1)*%
X27467000Y-109945000D03*
%TD*%
D12*
%TO.P,R77,1*%
%TO.N,Net-(J10-Pin_2)*%
X197880000Y-76785000D03*
D13*
%TO.P,R77,2*%
%TO.N,Net-(J10-Pin_1)*%
X187720000Y-76785000D03*
%TD*%
D12*
%TO.P,R1,1*%
%TO.N,+5V*%
X265000000Y-24130000D03*
D13*
%TO.P,R1,2*%
%TO.N,/A0*%
X265000000Y-34290000D03*
%TD*%
D12*
%TO.P,R27,1*%
%TO.N,+5V*%
X153050000Y-38481000D03*
D13*
%TO.P,R27,2*%
%TO.N,/D43*%
X153050000Y-48641000D03*
%TD*%
D12*
%TO.P,R113,1*%
%TO.N,Net-(J23-Pin_2)*%
X205486000Y-51181000D03*
D13*
%TO.P,R113,2*%
%TO.N,Net-(D25-K)*%
X215646000Y-51181000D03*
%TD*%
D12*
%TO.P,R61,1*%
%TO.N,Net-(J6-Pin_2)*%
X197640000Y-97185000D03*
D13*
%TO.P,R61,2*%
%TO.N,Net-(J6-Pin_1)*%
X187480000Y-97185000D03*
%TD*%
D12*
%TO.P,R95,1*%
%TO.N,Net-(J15-Pin_2)*%
X37627000Y-101845000D03*
D13*
%TO.P,R95,2*%
%TO.N,Net-(J15-Pin_1)*%
X27467000Y-101845000D03*
%TD*%
D14*
%TO.P,D26,1,K*%
%TO.N,Net-(D26-K)*%
X259334000Y-44450000D03*
D13*
%TO.P,D26,2,A*%
%TO.N,GND1*%
X269494000Y-44450000D03*
%TD*%
D12*
%TO.P,R4,1*%
%TO.N,Net-(D2-K)*%
X245838000Y-24130000D03*
D13*
%TO.P,R4,2*%
%TO.N,GND1*%
X245838000Y-34290000D03*
%TD*%
D10*
%TO.P,D15,1,K*%
%TO.N,Net-(D15-K)*%
X137050000Y-38481000D03*
D11*
%TO.P,D15,2,A*%
%TO.N,/D44*%
X137050000Y-48641000D03*
%TD*%
D12*
%TO.P,R15,1*%
%TO.N,+5V*%
X179788000Y-24130000D03*
D13*
%TO.P,R15,2*%
%TO.N,/A7*%
X179788000Y-34290000D03*
%TD*%
D12*
%TO.P,R79,1*%
%TO.N,Net-(J11-Pin_2)*%
X197880000Y-68685000D03*
D13*
%TO.P,R79,2*%
%TO.N,Net-(J11-Pin_1)*%
X187720000Y-68685000D03*
%TD*%
D12*
%TO.P,R26,1*%
%TO.N,Net-(D13-K)*%
X157100000Y-38481000D03*
D13*
%TO.P,R26,2*%
%TO.N,GND1*%
X157100000Y-48641000D03*
%TD*%
D10*
%TO.P,D17,1,K*%
%TO.N,Net-(D17-K)*%
X113050000Y-38561000D03*
D11*
%TO.P,D17,2,A*%
%TO.N,/D46*%
X113050000Y-48721000D03*
%TD*%
D12*
%TO.P,R28,1*%
%TO.N,Net-(D14-K)*%
X145050000Y-38481000D03*
D13*
%TO.P,R28,2*%
%TO.N,GND1*%
X145050000Y-48641000D03*
%TD*%
D10*
%TO.P,D13,1,K*%
%TO.N,Net-(D13-K)*%
X161100000Y-38481000D03*
D11*
%TO.P,D13,2,A*%
%TO.N,/D42*%
X161100000Y-48641000D03*
%TD*%
D12*
%TO.P,R16,1*%
%TO.N,Net-(D8-K)*%
X170838000Y-24130000D03*
D13*
%TO.P,R16,2*%
%TO.N,GND1*%
X170838000Y-34290000D03*
%TD*%
D15*
%TO.P,J15,1,Pin_1*%
%TO.N,Net-(J15-Pin_1)*%
X208000000Y-122000000D03*
D16*
%TO.P,J15,2,Pin_2*%
%TO.N,Net-(J15-Pin_2)*%
X211500000Y-122000000D03*
%TO.P,J15,3,Pin_3*%
%TO.N,Net-(J15-Pin_3)*%
X215000000Y-122000000D03*
%TO.P,J15,4,Pin_4*%
%TO.N,Net-(J15-Pin_4)*%
X218500000Y-122000000D03*
%TO.P,J15,5,Pin_5*%
%TO.N,Net-(J15-Pin_5)*%
X222000000Y-122000000D03*
%TO.P,J15,6,Pin_6*%
%TO.N,Net-(J15-Pin_6)*%
X225500000Y-122000000D03*
%TD*%
D21*
%TO.N,Net-(D28-K)*%
X234500000Y-52400000D03*
X236200000Y-50700000D03*
%TO.N,Net-(D25-K)*%
X221300000Y-45200000D03*
X220100000Y-47900000D03*
D22*
%TO.N,*%
X270000000Y-113000000D03*
X22000000Y-113000000D03*
X22000000Y-28000000D03*
X270000000Y-28000000D03*
D21*
%TO.N,Net-(J19-Pin_5)*%
X45244500Y-113745200D03*
%TO.N,Net-(J19-Pin_4)*%
X45048200Y-115162200D03*
%TO.N,Net-(J18-Pin_6)*%
X32350700Y-51943000D03*
%TO.N,Net-(J18-Pin_5)*%
X43940800Y-46634600D03*
%TO.N,Net-(J17-Pin_6)*%
X31818800Y-70888800D03*
%TO.N,Net-(J16-Pin_6)*%
X54093700Y-72023200D03*
%TO.N,Net-(J16-Pin_5)*%
X50985500Y-71876900D03*
%TO.N,Net-(J13-Pin_6)*%
X59578200Y-78796800D03*
%TO.N,Net-(J13-Pin_5)*%
X59680700Y-84931000D03*
%TO.N,Net-(J13-Pin_4)*%
X32512600Y-109895000D03*
%TO.N,Net-(J12-Pin_6)*%
X59460900Y-116706900D03*
%TO.N,Net-(J12-Pin_5)*%
X50459100Y-117900900D03*
%TO.N,Net-(J12-Pin_4)*%
X70021300Y-99097800D03*
%TO.N,Net-(J5-Pin_6)*%
X208537600Y-108822000D03*
%TO.N,Net-(J4-Pin_4)*%
X182289000Y-82362500D03*
%TO.N,Net-(R87-Pad2)*%
X55004200Y-104081400D03*
%TO.N,Net-(J18-Pin_3)*%
X49947800Y-124035300D03*
X31237100Y-64989000D03*
%TO.N,Net-(J18-Pin_1)*%
X43056700Y-117144000D03*
%TO.N,Net-(J17-Pin_3)*%
X30668300Y-73077200D03*
%TO.N,Net-(J17-Pin_2)*%
X34367000Y-107353900D03*
%TO.N,Net-(J16-Pin_3)*%
X48816900Y-71694100D03*
%TO.N,Net-(J16-Pin_2)*%
X47306900Y-73172300D03*
%TO.N,Net-(J15-Pin_3)*%
X29296700Y-99723800D03*
%TO.N,Net-(J13-Pin_3)*%
X50709300Y-91536200D03*
%TO.N,Net-(J13-Pin_2)*%
X59556200Y-93310400D03*
%TO.N,Net-(J13-Pin_1)*%
X140708000Y-123571500D03*
%TO.N,Net-(J12-Pin_3)*%
X51499300Y-118942400D03*
%TO.N,Net-(J12-Pin_2)*%
X59932700Y-95389000D03*
%TO.N,Net-(J12-Pin_1)*%
X140718500Y-120202700D03*
%TO.N,Net-(J11-Pin_1)*%
X126896400Y-72964000D03*
%TO.N,Net-(J8-Pin_2)*%
X239912400Y-101762500D03*
%TO.N,Net-(J4-Pin_3)*%
X184718500Y-83638800D03*
%TO.N,Net-(J4-Pin_1)*%
X179578100Y-84384700D03*
%TO.N,/D43*%
X123959700Y-73104500D03*
%TO.N,/D42*%
X124274300Y-74295000D03*
%TO.N,Net-(A1-D19{slash}RX1)*%
X205224300Y-105317600D03*
%TO.N,/D13*%
X145317700Y-99652800D03*
%TO.N,/D12*%
X140965500Y-104587000D03*
%TO.N,/D8*%
X144920100Y-94261900D03*
%TO.N,/A9*%
X132434300Y-37077200D03*
%TO.N,/A1*%
X248242800Y-41577400D03*
%TD*%
D23*
%TO.N,Net-(D28-K)*%
X234500000Y-52400000D02*
X232801000Y-50701000D01*
X232801000Y-50701000D02*
X232801000Y-50429000D01*
X236200000Y-50700000D02*
X234500000Y-52400000D01*
%TO.N,Net-(D27-K)*%
X237300000Y-50100000D02*
X237300000Y-48600000D01*
X237300000Y-48600000D02*
X236800000Y-48100000D01*
X240157000Y-51308000D02*
X238508000Y-51308000D01*
X238508000Y-51308000D02*
X237300000Y-50100000D01*
X236800000Y-48100000D02*
X233012000Y-48100000D01*
X233012000Y-48100000D02*
X232801000Y-47889000D01*
%TO.N,Net-(D25-K)*%
X226649000Y-45349000D02*
X225181000Y-45349000D01*
X239504700Y-46619000D02*
X227919000Y-46619000D01*
X255696500Y-42515600D02*
X243608100Y-42515600D01*
X227919000Y-46619000D02*
X226649000Y-45349000D01*
X258080100Y-40132000D02*
X255696500Y-42515600D01*
X243608100Y-42515600D02*
X239504700Y-46619000D01*
X259207000Y-40132000D02*
X258080100Y-40132000D01*
X221300000Y-45200000D02*
X225032000Y-45200000D01*
X225032000Y-45200000D02*
X225181000Y-45349000D01*
%TO.N,Net-(D26-K)*%
X223689000Y-47889000D02*
X225181000Y-47889000D01*
X217983900Y-46400000D02*
X222200000Y-46400000D01*
X222200000Y-46400000D02*
X223689000Y-47889000D01*
X216899900Y-47484000D02*
X217983900Y-46400000D01*
X215773000Y-47484000D02*
X216899900Y-47484000D01*
D24*
%TO.N,*%
X275000000Y-12000000D02*
X275000000Y-22000000D01*
X265000000Y-12000000D02*
X275000000Y-12000000D01*
X275000000Y-130000000D02*
X275000000Y-120000000D01*
X265000000Y-130000000D02*
X275000000Y-130000000D01*
X17000000Y-130000000D02*
X27000000Y-130000000D01*
X17000000Y-120000000D02*
X17000000Y-130000000D01*
X17000000Y-12000000D02*
X27000000Y-12000000D01*
X17000000Y-22000000D02*
X17000000Y-12000000D01*
D23*
%TO.N,Net-(R115-Pad2)*%
X223029100Y-43434000D02*
X216027000Y-43434000D01*
X223654100Y-42809000D02*
X223029100Y-43434000D01*
X225181000Y-42809000D02*
X223654100Y-42809000D01*
%TO.N,Net-(D28-K)*%
X250444000Y-43688000D02*
X249317100Y-43688000D01*
X239893000Y-47889000D02*
X240157000Y-47625000D01*
X245380100Y-47625000D02*
X249317100Y-43688000D01*
X240157000Y-47625000D02*
X245380100Y-47625000D01*
X251570900Y-43942000D02*
X251570900Y-43688000D01*
X259334000Y-51705100D02*
X251570900Y-43942000D01*
X259334000Y-52832000D02*
X259334000Y-51705100D01*
X250444000Y-43688000D02*
X251570900Y-43688000D01*
%TO.N,Net-(D27-K)*%
X245507100Y-51308000D02*
X249317100Y-55118000D01*
X240157000Y-51308000D02*
X245507100Y-51308000D01*
X250444000Y-55118000D02*
X249317100Y-55118000D01*
%TO.N,Net-(D25-K)*%
X215646000Y-51181000D02*
X216772900Y-51181000D01*
X216772900Y-51181000D02*
X220064900Y-47889000D01*
%TO.N,Net-(J19-Pin_5)*%
X81680900Y-119680900D02*
X84000000Y-122000000D01*
X51180200Y-119680900D02*
X81680900Y-119680900D01*
X45244500Y-113745200D02*
X51180200Y-119680900D01*
%TO.N,Net-(J19-Pin_4)*%
X45403400Y-115162200D02*
X45048200Y-115162200D01*
X50714300Y-120473100D02*
X45403400Y-115162200D01*
X78973100Y-120473100D02*
X50714300Y-120473100D01*
X80500000Y-122000000D02*
X78973100Y-120473100D01*
%TO.N,Net-(J18-Pin_6)*%
X41413500Y-39151900D02*
X41647000Y-39151900D01*
X32350700Y-48214700D02*
X41413500Y-39151900D01*
X32350700Y-51943000D02*
X32350700Y-48214700D01*
X41647000Y-38025000D02*
X41647000Y-39151900D01*
%TO.N,Net-(J18-Pin_5)*%
X41647000Y-40565000D02*
X41647000Y-41691900D01*
X43940800Y-43752200D02*
X43940800Y-46634600D01*
X41880500Y-41691900D02*
X43940800Y-43752200D01*
X41647000Y-41691900D02*
X41880500Y-41691900D01*
%TO.N,Net-(J17-Pin_6)*%
X40044200Y-50850000D02*
X41847000Y-50850000D01*
X32270700Y-58623500D02*
X40044200Y-50850000D01*
X32270700Y-70436900D02*
X32270700Y-58623500D01*
X31818800Y-70888800D02*
X32270700Y-70436900D01*
%TO.N,Net-(J16-Pin_6)*%
X42973900Y-61243500D02*
X42973900Y-61010000D01*
X49162800Y-67432400D02*
X42973900Y-61243500D01*
X50331700Y-67432400D02*
X49162800Y-67432400D01*
X54093700Y-71194400D02*
X50331700Y-67432400D01*
X54093700Y-72023200D02*
X54093700Y-71194400D01*
X41847000Y-61010000D02*
X42973900Y-61010000D01*
%TO.N,Net-(J16-Pin_5)*%
X42973900Y-64264500D02*
X42973900Y-63550000D01*
X50586300Y-71876900D02*
X42973900Y-64264500D01*
X50985500Y-71876900D02*
X50586300Y-71876900D01*
X41847000Y-63550000D02*
X42973900Y-63550000D01*
%TO.N,Net-(J15-Pin_6)*%
X43975500Y-99041600D02*
X42773900Y-97840000D01*
X50376200Y-99041600D02*
X43975500Y-99041600D01*
X52799700Y-96618100D02*
X50376200Y-99041600D01*
X60243800Y-96618100D02*
X52799700Y-96618100D01*
X65934100Y-102308400D02*
X60243800Y-96618100D01*
X71160800Y-102308400D02*
X65934100Y-102308400D01*
X77038100Y-108185700D02*
X71160800Y-102308400D01*
X110876800Y-108185700D02*
X77038100Y-108185700D01*
X115551700Y-112860600D02*
X110876800Y-108185700D01*
X216360600Y-112860600D02*
X115551700Y-112860600D01*
X225500000Y-122000000D02*
X216360600Y-112860600D01*
X41647000Y-97840000D02*
X42773900Y-97840000D01*
%TO.N,Net-(J15-Pin_5)*%
X41647000Y-100380000D02*
X42773900Y-100380000D01*
X43900800Y-101506900D02*
X42773900Y-100380000D01*
X51585200Y-101506900D02*
X43900800Y-101506900D01*
X53060200Y-102981900D02*
X51585200Y-101506900D01*
X54436700Y-102981900D02*
X53060200Y-102981900D01*
X54516000Y-102902600D02*
X54436700Y-102981900D01*
X55492500Y-102902600D02*
X54516000Y-102902600D01*
X55800300Y-103210400D02*
X55492500Y-102902600D01*
X69498800Y-103210400D02*
X55800300Y-103210400D01*
X75016500Y-108728100D02*
X69498800Y-103210400D01*
X110055100Y-108728100D02*
X75016500Y-108728100D01*
X114838300Y-113511300D02*
X110055100Y-108728100D01*
X213511300Y-113511300D02*
X114838300Y-113511300D01*
X222000000Y-122000000D02*
X213511300Y-113511300D01*
%TO.N,Net-(J15-Pin_4)*%
X27467000Y-97745000D02*
X27467000Y-98871900D01*
X211033300Y-114533300D02*
X218500000Y-122000000D01*
X93207400Y-114533300D02*
X211033300Y-114533300D01*
X89469300Y-110795200D02*
X93207400Y-114533300D01*
X89469300Y-110696700D02*
X89469300Y-110795200D01*
X87989700Y-109217100D02*
X89469300Y-110696700D01*
X70294800Y-109217100D02*
X87989700Y-109217100D01*
X64740000Y-103662300D02*
X70294800Y-109217100D01*
X55613100Y-103662300D02*
X64740000Y-103662300D01*
X55305300Y-103354500D02*
X55613100Y-103662300D01*
X54703200Y-103354500D02*
X55305300Y-103354500D01*
X53999500Y-104058200D02*
X54703200Y-103354500D01*
X37078700Y-104058200D02*
X53999500Y-104058200D01*
X34380600Y-101360100D02*
X37078700Y-104058200D01*
X29905000Y-101360100D02*
X34380600Y-101360100D01*
X27467000Y-98922100D02*
X29905000Y-101360100D01*
X27467000Y-98871900D02*
X27467000Y-98922100D01*
%TO.N,Net-(J14-Pin_6)*%
X41647000Y-108000000D02*
X42773900Y-108000000D01*
X44043900Y-109270000D02*
X42773900Y-108000000D01*
X51248300Y-109270000D02*
X44043900Y-109270000D01*
X57461700Y-115483400D02*
X51248300Y-109270000D01*
X59904500Y-115483400D02*
X57461700Y-115483400D01*
X60115200Y-115694100D02*
X59904500Y-115483400D01*
X204557200Y-115694100D02*
X60115200Y-115694100D01*
X209590700Y-120727600D02*
X204557200Y-115694100D01*
X209590700Y-122276300D02*
X209590700Y-120727600D01*
X210891500Y-123577100D02*
X209590700Y-122276300D01*
X226127300Y-123577100D02*
X210891500Y-123577100D01*
X228378500Y-121325900D02*
X226127300Y-123577100D01*
X228378500Y-121210300D02*
X228378500Y-121325900D01*
X229588200Y-120000600D02*
X228378500Y-121210300D01*
X246000600Y-120000600D02*
X229588200Y-120000600D01*
X248000000Y-122000000D02*
X246000600Y-120000600D01*
%TO.N,Net-(J14-Pin_5)*%
X41647000Y-110540000D02*
X40520100Y-110540000D01*
X242963500Y-120463500D02*
X244500000Y-122000000D01*
X240338000Y-120463500D02*
X242963500Y-120463500D01*
X239250000Y-121551500D02*
X240338000Y-120463500D01*
X239250000Y-122447700D02*
X239250000Y-121551500D01*
X235544200Y-126153500D02*
X239250000Y-122447700D01*
X47715700Y-126153500D02*
X235544200Y-126153500D01*
X31783800Y-110221600D02*
X47715700Y-126153500D01*
X31783800Y-109544300D02*
X31783800Y-110221600D01*
X32164000Y-109164100D02*
X31783800Y-109544300D01*
X33611300Y-109164100D02*
X32164000Y-109164100D01*
X35522000Y-111074800D02*
X33611300Y-109164100D01*
X39985300Y-111074800D02*
X35522000Y-111074800D01*
X40520100Y-110540000D02*
X39985300Y-111074800D01*
%TO.N,Net-(J14-Pin_4)*%
X27467000Y-105895000D02*
X27467000Y-107021900D01*
X236388100Y-126611900D02*
X241000000Y-122000000D01*
X47057000Y-126611900D02*
X236388100Y-126611900D01*
X27467000Y-107021900D02*
X47057000Y-126611900D01*
%TO.N,Net-(J13-Pin_6)*%
X54005300Y-73223900D02*
X59578200Y-78796800D01*
X48405000Y-73223900D02*
X54005300Y-73223900D01*
X47263900Y-74365000D02*
X48405000Y-73223900D01*
X41467000Y-74365000D02*
X47263900Y-74365000D01*
%TO.N,Net-(J13-Pin_5)*%
X47004300Y-76905000D02*
X41467000Y-76905000D01*
X48137500Y-78038200D02*
X47004300Y-76905000D01*
X50728800Y-78038200D02*
X48137500Y-78038200D01*
X51989500Y-76777500D02*
X50728800Y-78038200D01*
X54172600Y-76777500D02*
X51989500Y-76777500D01*
X59680700Y-82285600D02*
X54172600Y-76777500D01*
X59680700Y-84931000D02*
X59680700Y-82285600D01*
%TO.N,Net-(J13-Pin_4)*%
X169445600Y-117445600D02*
X174000000Y-122000000D01*
X54253600Y-117445600D02*
X169445600Y-117445600D01*
X51158000Y-114350000D02*
X54253600Y-117445600D01*
X47404300Y-114350000D02*
X51158000Y-114350000D01*
X44865600Y-111811300D02*
X47404300Y-114350000D01*
X34428900Y-111811300D02*
X44865600Y-111811300D01*
X32512600Y-109895000D02*
X34428900Y-111811300D01*
%TO.N,Net-(J12-Pin_6)*%
X197706900Y-116706900D02*
X59460900Y-116706900D01*
X203000000Y-122000000D02*
X197706900Y-116706900D01*
%TO.N,Net-(J12-Pin_5)*%
X38627000Y-83379800D02*
X38627000Y-82465000D01*
X41185300Y-85938100D02*
X38627000Y-83379800D01*
X41467000Y-85938100D02*
X41185300Y-85938100D01*
X41467000Y-87065000D02*
X41467000Y-85938100D01*
X132030700Y-117900900D02*
X50459100Y-117900900D01*
X138433800Y-124304000D02*
X132030700Y-117900900D01*
X188925600Y-124304000D02*
X138433800Y-124304000D01*
X190909300Y-122320300D02*
X188925600Y-124304000D01*
X190909300Y-121415900D02*
X190909300Y-122320300D01*
X191852100Y-120473100D02*
X190909300Y-121415900D01*
X197973100Y-120473100D02*
X191852100Y-120473100D01*
X199500000Y-122000000D02*
X197973100Y-120473100D01*
%TO.N,Net-(J12-Pin_4)*%
X54835900Y-83912400D02*
X70021300Y-99097800D01*
X54835900Y-78089500D02*
X54835900Y-83912400D01*
X54028800Y-77282400D02*
X54835900Y-78089500D01*
X52854200Y-77282400D02*
X54028800Y-77282400D01*
X49548800Y-80587800D02*
X52854200Y-77282400D01*
X45639800Y-80587800D02*
X49548800Y-80587800D01*
X43364700Y-78312700D02*
X45639800Y-80587800D01*
X40529500Y-78312700D02*
X43364700Y-78312700D01*
X36377200Y-82465000D02*
X40529500Y-78312700D01*
X28467000Y-82465000D02*
X36377200Y-82465000D01*
%TO.N,Net-(J11-Pin_5)*%
X200053100Y-64635000D02*
X201053100Y-63635000D01*
X197880000Y-64635000D02*
X200053100Y-64635000D01*
X202180000Y-63635000D02*
X201053100Y-63635000D01*
%TO.N,Net-(J8-Pin_5)*%
X245953100Y-96208100D02*
X242560000Y-92815000D01*
X246940000Y-96208100D02*
X245953100Y-96208100D01*
X246940000Y-97335000D02*
X246940000Y-96208100D01*
%TO.N,Net-(J5-Pin_6)*%
X135772000Y-108822000D02*
X208537600Y-108822000D01*
X133850000Y-110744000D02*
X135772000Y-108822000D01*
%TO.N,Net-(J5-Pin_5)*%
X245663100Y-64485000D02*
X246433100Y-63715000D01*
X243800000Y-64485000D02*
X245663100Y-64485000D01*
X247560000Y-63715000D02*
X246433100Y-63715000D01*
%TO.N,Net-(J4-Pin_5)*%
X245143100Y-72585000D02*
X246433100Y-73875000D01*
X243800000Y-72585000D02*
X245143100Y-72585000D01*
X247560000Y-73875000D02*
X246433100Y-73875000D01*
%TO.N,Net-(J4-Pin_4)*%
X233640000Y-72585000D02*
X232513100Y-72585000D01*
X184422800Y-80228700D02*
X182289000Y-82362500D01*
X218357900Y-80228700D02*
X184422800Y-80228700D01*
X223383300Y-75203300D02*
X218357900Y-80228700D01*
X229894800Y-75203300D02*
X223383300Y-75203300D01*
X232513100Y-72585000D02*
X229894800Y-75203300D01*
%TO.N,GND1*%
X248237800Y-33017100D02*
X246964900Y-34290000D01*
X254938200Y-33017100D02*
X248237800Y-33017100D01*
X256211100Y-34290000D02*
X254938200Y-33017100D01*
X257338000Y-34290000D02*
X256211100Y-34290000D01*
X245838000Y-34290000D02*
X246964900Y-34290000D01*
X145050000Y-48641000D02*
X143923100Y-48641000D01*
X133050000Y-48641000D02*
X134176900Y-48641000D01*
X170838000Y-34290000D02*
X169711100Y-34290000D01*
X157838000Y-34444000D02*
X157838000Y-33317100D01*
X207581500Y-53276500D02*
X205740000Y-55118000D01*
X220806600Y-53276500D02*
X207581500Y-53276500D01*
X223654100Y-50429000D02*
X220806600Y-53276500D01*
X225181000Y-50429000D02*
X223654100Y-50429000D01*
X135604300Y-50068400D02*
X134176900Y-48641000D01*
X142495700Y-50068400D02*
X135604300Y-50068400D01*
X143923100Y-48641000D02*
X142495700Y-50068400D01*
X82050000Y-34290000D02*
X80923100Y-34290000D01*
X70050000Y-34290000D02*
X71176900Y-34290000D01*
X70050000Y-48641000D02*
X71176900Y-48641000D01*
X82050000Y-48641000D02*
X80923100Y-48641000D01*
X76050000Y-43767900D02*
X80923100Y-48641000D01*
X76050000Y-43767900D02*
X71176900Y-48641000D01*
X76050000Y-35829000D02*
X76050000Y-43767900D01*
X79384100Y-35829000D02*
X76050000Y-35829000D01*
X80923100Y-34290000D02*
X79384100Y-35829000D01*
X72715900Y-35829000D02*
X71176900Y-34290000D01*
X76050000Y-35829000D02*
X72715900Y-35829000D01*
X84546000Y-47271900D02*
X83176900Y-48641000D01*
X93554000Y-47271900D02*
X84546000Y-47271900D01*
X94923100Y-48641000D02*
X93554000Y-47271900D01*
X96050000Y-48641000D02*
X94923100Y-48641000D01*
X82050000Y-48641000D02*
X83176900Y-48641000D01*
X135452000Y-35931100D02*
X133964900Y-34444000D01*
X143224000Y-35931100D02*
X135452000Y-35931100D01*
X144711100Y-34444000D02*
X143224000Y-35931100D01*
X145838000Y-34444000D02*
X144711100Y-34444000D01*
X132838000Y-34444000D02*
X133964900Y-34444000D01*
X157838000Y-32982200D02*
X157838000Y-33317100D01*
X168403300Y-32982200D02*
X157838000Y-32982200D01*
X169711100Y-34290000D02*
X168403300Y-32982200D01*
X148426700Y-32982200D02*
X146964900Y-34444000D01*
X157838000Y-32982200D02*
X148426700Y-32982200D01*
X145838000Y-34444000D02*
X146964900Y-34444000D01*
X231397900Y-32976800D02*
X232711100Y-34290000D01*
X224278100Y-32976800D02*
X231397900Y-32976800D01*
X222964900Y-34290000D02*
X224278100Y-32976800D01*
X221838000Y-34290000D02*
X222964900Y-34290000D01*
X233838000Y-34290000D02*
X232711100Y-34290000D01*
X221838000Y-34290000D02*
X220711100Y-34290000D01*
X84683800Y-35796900D02*
X83176900Y-34290000D01*
X92416200Y-35796900D02*
X84683800Y-35796900D01*
X93923100Y-34290000D02*
X92416200Y-35796900D01*
X95050000Y-34290000D02*
X93923100Y-34290000D01*
X82050000Y-34290000D02*
X83176900Y-34290000D01*
X109525300Y-32941600D02*
X108176900Y-34290000D01*
X118208700Y-32941600D02*
X109525300Y-32941600D01*
X119711100Y-34444000D02*
X118208700Y-32941600D01*
X120838000Y-34444000D02*
X119711100Y-34444000D01*
X107050000Y-34290000D02*
X108176900Y-34290000D01*
X196838000Y-34290000D02*
X197964900Y-34290000D01*
X199282600Y-32972300D02*
X197964900Y-34290000D01*
X208083700Y-32972300D02*
X199282600Y-32972300D01*
X208838000Y-33726600D02*
X208083700Y-32972300D01*
X208838000Y-34290000D02*
X208838000Y-33726600D01*
X219423100Y-33002000D02*
X220711100Y-34290000D01*
X209562600Y-33002000D02*
X219423100Y-33002000D01*
X208838000Y-33726600D02*
X209562600Y-33002000D01*
X194438200Y-33017100D02*
X195711100Y-34290000D01*
X186237800Y-33017100D02*
X194438200Y-33017100D01*
X184964900Y-34290000D02*
X186237800Y-33017100D01*
X183838000Y-34290000D02*
X184964900Y-34290000D01*
X196838000Y-34290000D02*
X195711100Y-34290000D01*
%TO.N,Net-(R104-Pad2)*%
X50393900Y-29636200D02*
X52260100Y-27770000D01*
X50393900Y-30405000D02*
X50393900Y-29636200D01*
X53387000Y-27770000D02*
X52260100Y-27770000D01*
X49267000Y-30405000D02*
X50393900Y-30405000D01*
%TO.N,Net-(R88-Pad2)*%
X49267000Y-100380000D02*
X50393900Y-100380000D01*
X53467000Y-97745000D02*
X52340100Y-97745000D01*
X52340100Y-98433800D02*
X52340100Y-97745000D01*
X50393900Y-100380000D02*
X52340100Y-98433800D01*
%TO.N,Net-(R87-Pad2)*%
X49267000Y-105460000D02*
X50393900Y-105460000D01*
X54527700Y-104557900D02*
X55004200Y-104081400D01*
X51296000Y-104557900D02*
X54527700Y-104557900D01*
X50393900Y-105460000D02*
X51296000Y-104557900D01*
%TO.N,Net-(R84-Pad2)*%
X50213900Y-76571200D02*
X52420100Y-74365000D01*
X50213900Y-76905000D02*
X50213900Y-76571200D01*
X53547000Y-74365000D02*
X52420100Y-74365000D01*
X49087000Y-76905000D02*
X50213900Y-76905000D01*
%TO.N,Net-(R83-Pad2)*%
X52657000Y-79541900D02*
X53547000Y-79541900D01*
X50213900Y-81985000D02*
X52657000Y-79541900D01*
X49087000Y-81985000D02*
X50213900Y-81985000D01*
X53547000Y-78415000D02*
X53547000Y-79541900D01*
%TO.N,Net-(R76-Pad2)*%
X211973100Y-63635000D02*
X212973100Y-64635000D01*
X209800000Y-63635000D02*
X211973100Y-63635000D01*
X214100000Y-64635000D02*
X212973100Y-64635000D01*
%TO.N,Net-(R75-Pad2)*%
X212943100Y-68715000D02*
X212973100Y-68685000D01*
X209800000Y-68715000D02*
X212943100Y-68715000D01*
X214100000Y-68685000D02*
X212973100Y-68685000D01*
%TO.N,Net-(R74-Pad2)*%
X214100000Y-72735000D02*
X212973100Y-72735000D01*
X211913100Y-73795000D02*
X209800000Y-73795000D01*
X212973100Y-72735000D02*
X211913100Y-73795000D01*
%TO.N,Net-(R67-Pad2)*%
X257193100Y-92255000D02*
X257653100Y-92715000D01*
X254560000Y-92255000D02*
X257193100Y-92255000D01*
X258780000Y-92715000D02*
X257653100Y-92715000D01*
%TO.N,Net-(R59-Pad2)*%
X214480000Y-92715000D02*
X213353100Y-92715000D01*
X212813100Y-92175000D02*
X210686900Y-92175000D01*
X213353100Y-92715000D02*
X212813100Y-92175000D01*
X209560000Y-92175000D02*
X210686900Y-92175000D01*
%TO.N,Net-(R50-Pad2)*%
X255843100Y-70065000D02*
X258273100Y-67635000D01*
X254818600Y-70065000D02*
X255843100Y-70065000D01*
X254013900Y-70869700D02*
X254818600Y-70065000D01*
X254013900Y-72708900D02*
X254013900Y-70869700D01*
X255180000Y-73875000D02*
X254013900Y-72708900D01*
X259400000Y-67635000D02*
X258273100Y-67635000D01*
%TO.N,Net-(J18-Pin_3)*%
X41647000Y-43105000D02*
X41647000Y-44231900D01*
X31237100Y-54408300D02*
X31237100Y-64989000D01*
X41413500Y-44231900D02*
X31237100Y-54408300D01*
X41647000Y-44231900D02*
X41413500Y-44231900D01*
X97464700Y-124035300D02*
X49947800Y-124035300D01*
X99500000Y-122000000D02*
X97464700Y-124035300D01*
%TO.N,Net-(J18-Pin_1)*%
X92500000Y-122000000D02*
X90973100Y-122000000D01*
X46688700Y-117144000D02*
X43056700Y-117144000D01*
X53109300Y-123564600D02*
X46688700Y-117144000D01*
X89408500Y-123564600D02*
X53109300Y-123564600D01*
X90973100Y-122000000D02*
X89408500Y-123564600D01*
%TO.N,Net-(J17-Pin_3)*%
X41847000Y-55930000D02*
X41847000Y-57056900D01*
X32764300Y-70981200D02*
X30668300Y-73077200D01*
X32764300Y-65906100D02*
X32764300Y-70981200D01*
X41613500Y-57056900D02*
X32764300Y-65906100D01*
X41847000Y-57056900D02*
X41613500Y-57056900D01*
%TO.N,Net-(J17-Pin_2)*%
X41847000Y-58470000D02*
X41847000Y-59596900D01*
X31381600Y-107353900D02*
X34367000Y-107353900D01*
X26294000Y-102266300D02*
X31381600Y-107353900D01*
X26294000Y-83013100D02*
X26294000Y-102266300D01*
X40432400Y-68874700D02*
X26294000Y-83013100D01*
X40432400Y-60778000D02*
X40432400Y-68874700D01*
X41613500Y-59596900D02*
X40432400Y-60778000D01*
X41847000Y-59596900D02*
X41613500Y-59596900D01*
%TO.N,Net-(J16-Pin_3)*%
X48578000Y-71694100D02*
X42973900Y-66090000D01*
X48816900Y-71694100D02*
X48578000Y-71694100D01*
X41847000Y-66090000D02*
X42973900Y-66090000D01*
%TO.N,Net-(J16-Pin_2)*%
X42973900Y-68839300D02*
X42973900Y-68630000D01*
X47306900Y-73172300D02*
X42973900Y-68839300D01*
X41847000Y-68630000D02*
X42973900Y-68630000D01*
%TO.N,Net-(J15-Pin_3)*%
X41647000Y-102920000D02*
X40520100Y-102920000D01*
X37323900Y-99723800D02*
X29296700Y-99723800D01*
X40520100Y-102920000D02*
X37323900Y-99723800D01*
%TO.N,Net-(J15-Pin_2)*%
X41647000Y-105460000D02*
X42773900Y-105460000D01*
X44043900Y-106730000D02*
X42773900Y-105460000D01*
X52758300Y-106730000D02*
X44043900Y-106730000D01*
X61270500Y-115242200D02*
X52758300Y-106730000D01*
X204877400Y-115242200D02*
X61270500Y-115242200D01*
X211500000Y-121864800D02*
X204877400Y-115242200D01*
X211500000Y-122000000D02*
X211500000Y-121864800D01*
%TO.N,Net-(J15-Pin_1)*%
X208000000Y-122000000D02*
X206473100Y-122000000D01*
X31472000Y-101845000D02*
X27467000Y-101845000D01*
X39040100Y-109413100D02*
X31472000Y-101845000D01*
X43104200Y-109413100D02*
X39040100Y-109413100D01*
X43981000Y-110289900D02*
X43104200Y-109413100D01*
X44620100Y-110289900D02*
X43981000Y-110289900D01*
X46140200Y-111810000D02*
X44620100Y-110289900D01*
X51359700Y-111810000D02*
X46140200Y-111810000D01*
X55485000Y-115935300D02*
X51359700Y-111810000D01*
X59717300Y-115935300D02*
X55485000Y-115935300D01*
X59928000Y-116146000D02*
X59717300Y-115935300D01*
X200619100Y-116146000D02*
X59928000Y-116146000D01*
X206473100Y-122000000D02*
X200619100Y-116146000D01*
%TO.N,Net-(J14-Pin_3)*%
X41413500Y-114206900D02*
X41647000Y-114206900D01*
X40497600Y-115122800D02*
X41413500Y-114206900D01*
X40497600Y-116254600D02*
X40497600Y-115122800D01*
X49932600Y-125689600D02*
X40497600Y-116254600D01*
X233810400Y-125689600D02*
X49932600Y-125689600D01*
X237500000Y-122000000D02*
X233810400Y-125689600D01*
X41647000Y-113080000D02*
X41647000Y-114206900D01*
%TO.N,Net-(J14-Pin_2)*%
X41647000Y-115620000D02*
X41647000Y-116746900D01*
X41647000Y-116764700D02*
X41647000Y-116746900D01*
X50108100Y-125225800D02*
X41647000Y-116764700D01*
X230774200Y-125225800D02*
X50108100Y-125225800D01*
X234000000Y-122000000D02*
X230774200Y-125225800D01*
%TO.N,Net-(J13-Pin_3)*%
X41467000Y-79445000D02*
X41467000Y-80571900D01*
X49905000Y-90731900D02*
X50709300Y-91536200D01*
X48600000Y-90731900D02*
X49905000Y-90731900D01*
X46882900Y-89014800D02*
X48600000Y-90731900D01*
X46882900Y-88343500D02*
X46882900Y-89014800D01*
X41794400Y-83255000D02*
X46882900Y-88343500D01*
X41090500Y-83255000D02*
X41794400Y-83255000D01*
X40298800Y-82463300D02*
X41090500Y-83255000D01*
X40298800Y-81458400D02*
X40298800Y-82463300D01*
X41185300Y-80571900D02*
X40298800Y-81458400D01*
X41467000Y-80571900D02*
X41185300Y-80571900D01*
%TO.N,Net-(J13-Pin_2)*%
X41467000Y-81985000D02*
X42593900Y-81985000D01*
X54802600Y-88556800D02*
X59556200Y-93310400D01*
X53316200Y-88556800D02*
X54802600Y-88556800D01*
X50554400Y-85795000D02*
X53316200Y-88556800D01*
X46403900Y-85795000D02*
X50554400Y-85795000D01*
X42593900Y-81985000D02*
X46403900Y-85795000D01*
%TO.N,Net-(J13-Pin_1)*%
X163500000Y-122000000D02*
X161973100Y-122000000D01*
X160401600Y-123571500D02*
X140708000Y-123571500D01*
X161973100Y-122000000D02*
X160401600Y-123571500D01*
%TO.N,Net-(J12-Pin_3)*%
X109366400Y-118942400D02*
X51499300Y-118942400D01*
X115183900Y-124759900D02*
X109366400Y-118942400D01*
X189740100Y-124759900D02*
X115183900Y-124759900D01*
X192500000Y-122000000D02*
X189740100Y-124759900D01*
%TO.N,Net-(J12-Pin_2)*%
X45837900Y-95389000D02*
X42593900Y-92145000D01*
X59932700Y-95389000D02*
X45837900Y-95389000D01*
X41467000Y-92145000D02*
X42593900Y-92145000D01*
%TO.N,Net-(J12-Pin_1)*%
X185500000Y-122000000D02*
X183973100Y-122000000D01*
X170899400Y-120202700D02*
X140718500Y-120202700D01*
X172250000Y-121553300D02*
X170899400Y-120202700D01*
X172250000Y-122451400D02*
X172250000Y-121553300D01*
X173325500Y-123526900D02*
X172250000Y-122451400D01*
X182446200Y-123526900D02*
X173325500Y-123526900D01*
X183973100Y-122000000D02*
X182446200Y-123526900D01*
%TO.N,Net-(J11-Pin_1)*%
X182314100Y-72964000D02*
X186593100Y-68685000D01*
X126896400Y-72964000D02*
X182314100Y-72964000D01*
X187720000Y-68685000D02*
X186593100Y-68685000D01*
%TO.N,Net-(J8-Pin_2)*%
X246940000Y-102415000D02*
X245813100Y-102415000D01*
X245160600Y-101762500D02*
X239912400Y-101762500D01*
X245813100Y-102415000D02*
X245160600Y-101762500D01*
%TO.N,Net-(J5-Pin_2)*%
X246173100Y-68535000D02*
X246433100Y-68795000D01*
X243800000Y-68535000D02*
X246173100Y-68535000D01*
X247560000Y-68795000D02*
X246433100Y-68795000D01*
%TO.N,Net-(J4-Pin_3)*%
X247560000Y-76415000D02*
X246433100Y-76415000D01*
X245521500Y-75503400D02*
X246433100Y-76415000D01*
X243072400Y-75503400D02*
X245521500Y-75503400D01*
X236538000Y-82037800D02*
X243072400Y-75503400D01*
X186319500Y-82037800D02*
X236538000Y-82037800D01*
X184718500Y-83638800D02*
X186319500Y-82037800D01*
%TO.N,Net-(J4-Pin_2)*%
X244113100Y-76635000D02*
X246433100Y-78955000D01*
X243800000Y-76635000D02*
X244113100Y-76635000D01*
X247560000Y-78955000D02*
X246433100Y-78955000D01*
%TO.N,Net-(J4-Pin_1)*%
X233640000Y-76635000D02*
X232513100Y-76635000D01*
X182677500Y-84384700D02*
X179578100Y-84384700D01*
X185476300Y-81585900D02*
X182677500Y-84384700D01*
X227562200Y-81585900D02*
X185476300Y-81585900D01*
X232513100Y-76635000D02*
X227562200Y-81585900D01*
%TO.N,Net-(D24-K)*%
X83049900Y-16637000D02*
X75476900Y-24210000D01*
X143155000Y-16637000D02*
X83049900Y-16637000D01*
X74050000Y-24210000D02*
X75476900Y-24210000D01*
X72543100Y-24130000D02*
X72623100Y-24210000D01*
X70050000Y-24130000D02*
X72543100Y-24130000D01*
X74050000Y-24210000D02*
X72623100Y-24210000D01*
%TO.N,Net-(D23-K)*%
X85543100Y-24130000D02*
X85623100Y-24210000D01*
X82050000Y-24130000D02*
X85543100Y-24130000D01*
X87050000Y-24210000D02*
X85623100Y-24210000D01*
%TO.N,Net-(D22-K)*%
X99050000Y-24210000D02*
X100476900Y-24210000D01*
X148176200Y-18615800D02*
X150155000Y-16637000D01*
X106071100Y-18615800D02*
X148176200Y-18615800D01*
X100476900Y-24210000D02*
X106071100Y-18615800D01*
X97543100Y-24130000D02*
X97623100Y-24210000D01*
X95050000Y-24130000D02*
X97543100Y-24130000D01*
X99050000Y-24210000D02*
X97623100Y-24210000D01*
%TO.N,Net-(D21-K)*%
X112050000Y-24210000D02*
X113476900Y-24210000D01*
X153132900Y-16637000D02*
X153655000Y-16637000D01*
X150702200Y-19067700D02*
X153132900Y-16637000D01*
X118619200Y-19067700D02*
X150702200Y-19067700D01*
X113476900Y-24210000D02*
X118619200Y-19067700D01*
X110543100Y-24130000D02*
X110623100Y-24210000D01*
X107050000Y-24130000D02*
X110543100Y-24130000D01*
X112050000Y-24210000D02*
X110623100Y-24210000D01*
%TO.N,Net-(D20-K)*%
X72543100Y-38481000D02*
X72623100Y-38561000D01*
X70050000Y-38481000D02*
X72543100Y-38481000D01*
X74050000Y-38561000D02*
X72623100Y-38561000D01*
%TO.N,Net-(D19-K)*%
X85543100Y-38481000D02*
X85623100Y-38561000D01*
X82050000Y-38481000D02*
X85543100Y-38481000D01*
X87050000Y-38561000D02*
X85623100Y-38561000D01*
%TO.N,Net-(D18-K)*%
X96050000Y-38481000D02*
X100050000Y-38481000D01*
%TO.N,Net-(D17-K)*%
X111543100Y-38481000D02*
X111623100Y-38561000D01*
X108050000Y-38481000D02*
X111543100Y-38481000D01*
X113050000Y-38561000D02*
X111623100Y-38561000D01*
%TO.N,Net-(D16-K)*%
X121050000Y-38481000D02*
X125050000Y-38481000D01*
%TO.N,Net-(D15-K)*%
X133050000Y-38481000D02*
X137050000Y-38481000D01*
%TO.N,Net-(D14-K)*%
X145050000Y-38481000D02*
X149050000Y-38481000D01*
%TO.N,Net-(D13-K)*%
X157100000Y-38481000D02*
X161100000Y-38481000D01*
%TO.N,Net-(D12-K)*%
X124838000Y-24284000D02*
X126264900Y-24284000D01*
X185234100Y-18163900D02*
X186761000Y-16637000D01*
X152470000Y-18163900D02*
X185234100Y-18163900D01*
X151114300Y-19519600D02*
X152470000Y-18163900D01*
X131029300Y-19519600D02*
X151114300Y-19519600D01*
X126264900Y-24284000D02*
X131029300Y-19519600D01*
X120838000Y-24284000D02*
X124838000Y-24284000D01*
%TO.N,Net-(D11-K)*%
X137838000Y-24284000D02*
X139264900Y-24284000D01*
X188282200Y-18615800D02*
X190261000Y-16637000D01*
X152657300Y-18615800D02*
X188282200Y-18615800D01*
X151301600Y-19971500D02*
X152657300Y-18615800D01*
X143577400Y-19971500D02*
X151301600Y-19971500D01*
X139264900Y-24284000D02*
X143577400Y-19971500D01*
X132838000Y-24284000D02*
X137838000Y-24284000D01*
%TO.N,Net-(D10-K)*%
X149838000Y-24284000D02*
X151264900Y-24284000D01*
X191330300Y-19067700D02*
X193761000Y-16637000D01*
X156481200Y-19067700D02*
X191330300Y-19067700D01*
X151264900Y-24284000D02*
X156481200Y-19067700D01*
X145838000Y-24284000D02*
X149838000Y-24284000D01*
%TO.N,Net-(D9-K)*%
X168316000Y-20232900D02*
X164264900Y-24284000D01*
X193665100Y-20232900D02*
X168316000Y-20232900D01*
X197261000Y-16637000D02*
X193665100Y-20232900D01*
X162838000Y-24284000D02*
X164264900Y-24284000D01*
X157838000Y-24284000D02*
X162838000Y-24284000D01*
%TO.N,Net-(D8-K)*%
X202225000Y-16637000D02*
X200698100Y-16637000D01*
X175838000Y-24284000D02*
X177264900Y-24284000D01*
X174257100Y-24130000D02*
X174411100Y-24284000D01*
X170838000Y-24130000D02*
X174257100Y-24130000D01*
X175838000Y-24284000D02*
X174411100Y-24284000D01*
X179143700Y-22405200D02*
X177264900Y-24284000D01*
X194929900Y-22405200D02*
X179143700Y-22405200D01*
X200698100Y-16637000D02*
X194929900Y-22405200D01*
%TO.N,Net-(D7-K)*%
X186257100Y-24130000D02*
X186411100Y-24284000D01*
X183838000Y-24130000D02*
X186257100Y-24130000D01*
X187838000Y-24284000D02*
X186411100Y-24284000D01*
%TO.N,Net-(D6-K)*%
X199257100Y-24130000D02*
X199411100Y-24284000D01*
X196838000Y-24130000D02*
X199257100Y-24130000D01*
X200838000Y-24284000D02*
X199411100Y-24284000D01*
%TO.N,Net-(D5-K)*%
X212257100Y-24130000D02*
X212411100Y-24284000D01*
X208838000Y-24130000D02*
X212257100Y-24130000D01*
X213838000Y-24284000D02*
X212411100Y-24284000D01*
%TO.N,Net-(D4-K)*%
X224257100Y-24130000D02*
X224411100Y-24284000D01*
X221838000Y-24130000D02*
X224257100Y-24130000D01*
X225838000Y-24284000D02*
X224411100Y-24284000D01*
%TO.N,Net-(D3-K)*%
X236257100Y-24130000D02*
X236411100Y-24284000D01*
X233838000Y-24130000D02*
X236257100Y-24130000D01*
X237838000Y-24284000D02*
X236411100Y-24284000D01*
%TO.N,Net-(D2-K)*%
X248257100Y-24130000D02*
X248411100Y-24284000D01*
X245838000Y-24130000D02*
X248257100Y-24130000D01*
X249838000Y-24284000D02*
X248411100Y-24284000D01*
%TO.N,Net-(D1-K)*%
X260838000Y-24284000D02*
X259411100Y-24284000D01*
X259257100Y-24130000D02*
X259411100Y-24284000D01*
X257338000Y-24130000D02*
X259257100Y-24130000D01*
X232471300Y-22383300D02*
X226725000Y-16637000D01*
X255591300Y-22383300D02*
X232471300Y-22383300D01*
X257338000Y-24130000D02*
X255591300Y-22383300D01*
%TO.N,GND*%
X212722400Y-84555000D02*
X209560000Y-84555000D01*
X214050000Y-85882600D02*
X212722400Y-84555000D01*
X252185500Y-85882600D02*
X214050000Y-85882600D01*
X253433100Y-84635000D02*
X252185500Y-85882600D01*
X254560000Y-84635000D02*
X253433100Y-84635000D01*
X49267000Y-97840000D02*
X50393900Y-97840000D01*
X142875000Y-102235000D02*
X142875000Y-101044500D01*
X209560000Y-99795000D02*
X208433100Y-99795000D01*
X142875000Y-102235000D02*
X141684500Y-102235000D01*
X207242500Y-98604400D02*
X208433100Y-99795000D01*
X145315100Y-98604400D02*
X207242500Y-98604400D01*
X142875000Y-101044500D02*
X145315100Y-98604400D01*
X49500500Y-39151900D02*
X49267000Y-39151900D01*
X50416400Y-40067800D02*
X49500500Y-39151900D01*
X50416400Y-41110400D02*
X50416400Y-40067800D01*
X49548700Y-41978100D02*
X50416400Y-41110400D01*
X49267000Y-41978100D02*
X49548700Y-41978100D01*
X49267000Y-43105000D02*
X49267000Y-41978100D01*
X49267000Y-38025000D02*
X49267000Y-39151900D01*
X255413500Y-72461900D02*
X255180000Y-72461900D01*
X256329400Y-73377800D02*
X255413500Y-72461900D01*
X256329400Y-74420400D02*
X256329400Y-73377800D01*
X255461700Y-75288100D02*
X256329400Y-74420400D01*
X255180000Y-75288100D02*
X255461700Y-75288100D01*
X255180000Y-76415000D02*
X255180000Y-75288100D01*
X255180000Y-71335000D02*
X255180000Y-72461900D01*
X255180000Y-61175000D02*
X254053100Y-61175000D01*
X209800000Y-61095000D02*
X210926900Y-61095000D01*
X255180000Y-66255000D02*
X255180000Y-65128100D01*
X254930700Y-65128100D02*
X255180000Y-65128100D01*
X252912700Y-63110100D02*
X254930700Y-65128100D01*
X252912700Y-62315400D02*
X252912700Y-63110100D01*
X254053100Y-61175000D02*
X252912700Y-62315400D01*
X212147300Y-62315400D02*
X210926900Y-61095000D01*
X252912700Y-62315400D02*
X212147300Y-62315400D01*
X60662800Y-95833800D02*
X60380700Y-96115900D01*
X60662800Y-95008600D02*
X60662800Y-95833800D01*
X59998800Y-94344600D02*
X60662800Y-95008600D01*
X59561000Y-94344600D02*
X59998800Y-94344600D01*
X54821400Y-89605000D02*
X59561000Y-94344600D01*
X49087000Y-89605000D02*
X54821400Y-89605000D01*
X52118000Y-96115900D02*
X60380700Y-96115900D01*
X50393900Y-97840000D02*
X52118000Y-96115900D01*
X141684500Y-102607100D02*
X141684500Y-102235000D01*
X140372300Y-103919300D02*
X141684500Y-102607100D01*
X100639100Y-103919300D02*
X140372300Y-103919300D01*
X99441000Y-102721200D02*
X100639100Y-103919300D01*
X99441000Y-101817700D02*
X99441000Y-102721200D01*
X97326300Y-99703000D02*
X99441000Y-101817700D01*
X77380700Y-99703000D02*
X97326300Y-99703000D01*
X76164600Y-100919100D02*
X77380700Y-99703000D01*
X65183900Y-100919100D02*
X76164600Y-100919100D01*
X60380700Y-96115900D02*
X65183900Y-100919100D01*
%TO.N,/D53*%
X75556900Y-34290000D02*
X75476900Y-34370000D01*
X78000000Y-34290000D02*
X75556900Y-34290000D01*
X74050000Y-34370000D02*
X75476900Y-34370000D01*
%TO.N,/D52*%
X88556900Y-34290000D02*
X88476900Y-34370000D01*
X91000000Y-34290000D02*
X88556900Y-34290000D01*
X87050000Y-34370000D02*
X88476900Y-34370000D01*
%TO.N,/D51*%
X100556900Y-34290000D02*
X100476900Y-34370000D01*
X103000000Y-34290000D02*
X100556900Y-34290000D01*
X99050000Y-34370000D02*
X100476900Y-34370000D01*
%TO.N,/D50*%
X113556900Y-34290000D02*
X113476900Y-34370000D01*
X116000000Y-34290000D02*
X113556900Y-34290000D01*
X112050000Y-34370000D02*
X113476900Y-34370000D01*
%TO.N,/D49*%
X75297900Y-51395800D02*
X74050000Y-50147900D01*
X75297900Y-56048300D02*
X75297900Y-51395800D01*
X73961500Y-57384700D02*
X75297900Y-56048300D01*
X73961500Y-64666100D02*
X73961500Y-57384700D01*
X73143100Y-65484500D02*
X73961500Y-64666100D01*
X72771000Y-65484500D02*
X73143100Y-65484500D01*
X72771000Y-66675000D02*
X72771000Y-65484500D01*
X74050000Y-48721000D02*
X74050000Y-50147900D01*
X75556900Y-48641000D02*
X75476900Y-48721000D01*
X78250000Y-48641000D02*
X75556900Y-48641000D01*
X74050000Y-48721000D02*
X75476900Y-48721000D01*
%TO.N,/D48*%
X88556900Y-48641000D02*
X88476900Y-48721000D01*
X92000000Y-48641000D02*
X88556900Y-48641000D01*
X87050000Y-48721000D02*
X88476900Y-48721000D01*
X84201000Y-52996900D02*
X87050000Y-50147900D01*
X84201000Y-56966500D02*
X84201000Y-52996900D01*
X75683000Y-65484500D02*
X84201000Y-56966500D01*
X75311000Y-65484500D02*
X75683000Y-65484500D01*
X75311000Y-66675000D02*
X75311000Y-65484500D01*
X87050000Y-48721000D02*
X87050000Y-50147900D01*
%TO.N,/D47*%
X104000000Y-48641000D02*
X100050000Y-48641000D01*
%TO.N,/D46*%
X114556900Y-48641000D02*
X114476900Y-48721000D01*
X117000000Y-48641000D02*
X114556900Y-48641000D01*
X113050000Y-48721000D02*
X114476900Y-48721000D01*
%TO.N,/D45*%
X129000000Y-48641000D02*
X125050000Y-48641000D01*
%TO.N,/D44*%
X141000000Y-48641000D02*
X137050000Y-48641000D01*
%TO.N,/D43*%
X153050000Y-48641000D02*
X149050000Y-48641000D01*
X72771000Y-74295000D02*
X73961500Y-74295000D01*
X74779900Y-73104500D02*
X123959700Y-73104500D01*
X73961500Y-73922900D02*
X74779900Y-73104500D01*
X73961500Y-74295000D02*
X73961500Y-73922900D01*
%TO.N,/D42*%
X165100000Y-48641000D02*
X161100000Y-48641000D01*
X75311000Y-74295000D02*
X76501500Y-74295000D01*
X76501500Y-74295000D02*
X124274300Y-74295000D01*
%TO.N,/D40*%
X75311000Y-76835000D02*
X74120500Y-76835000D01*
X67326900Y-35549900D02*
X63547000Y-31770000D01*
X67326900Y-70541500D02*
X67326900Y-35549900D01*
X72429900Y-75644500D02*
X67326900Y-70541500D01*
X73302100Y-75644500D02*
X72429900Y-75644500D01*
X74120500Y-76462900D02*
X73302100Y-75644500D01*
X74120500Y-76835000D02*
X74120500Y-76462900D01*
%TO.N,/D38*%
X66424600Y-42647600D02*
X63547000Y-39770000D01*
X66424600Y-72193500D02*
X66424600Y-42647600D01*
X72415600Y-78184500D02*
X66424600Y-72193500D01*
X73302100Y-78184500D02*
X72415600Y-78184500D01*
X74120500Y-79002900D02*
X73302100Y-78184500D01*
X74120500Y-79375000D02*
X74120500Y-79002900D01*
X75311000Y-79375000D02*
X74120500Y-79375000D01*
%TO.N,/D36*%
X75311000Y-81915000D02*
X74120500Y-81915000D01*
X74120500Y-81542900D02*
X74120500Y-81915000D01*
X73302100Y-80724500D02*
X74120500Y-81542900D01*
X72429900Y-80724500D02*
X73302100Y-80724500D01*
X66353800Y-74648400D02*
X72429900Y-80724500D01*
X66353800Y-73295200D02*
X66353800Y-74648400D01*
X65901900Y-72843300D02*
X66353800Y-73295200D01*
X65901900Y-56094900D02*
X65901900Y-72843300D01*
X64707000Y-54900000D02*
X65901900Y-56094900D01*
%TO.N,/D34*%
X64707000Y-72495100D02*
X64707000Y-63000000D01*
X65451500Y-73239600D02*
X64707000Y-72495100D01*
X65451500Y-76286000D02*
X65451500Y-73239600D01*
X72430000Y-83264500D02*
X65451500Y-76286000D01*
X73302100Y-83264500D02*
X72430000Y-83264500D01*
X74120500Y-84082900D02*
X73302100Y-83264500D01*
X74120500Y-84455000D02*
X74120500Y-84082900D01*
X75311000Y-84455000D02*
X74120500Y-84455000D01*
%TO.N,/D29*%
X72401000Y-90884500D02*
X72771000Y-90884500D01*
X65244000Y-83727500D02*
X72401000Y-90884500D01*
X65244000Y-82021400D02*
X65244000Y-83727500D01*
X62570100Y-79347500D02*
X65244000Y-82021400D01*
X62570100Y-75501900D02*
X62570100Y-79347500D01*
X63707000Y-74365000D02*
X62570100Y-75501900D01*
X72771000Y-92075000D02*
X72771000Y-90884500D01*
%TO.N,/D28*%
X63707000Y-79710600D02*
X63707000Y-78415000D01*
X72261400Y-88265000D02*
X63707000Y-79710600D01*
X73204200Y-88265000D02*
X72261400Y-88265000D01*
X74120500Y-89181300D02*
X73204200Y-88265000D01*
X74120500Y-90066100D02*
X74120500Y-89181300D01*
X74938900Y-90884500D02*
X74120500Y-90066100D01*
X75311000Y-90884500D02*
X74938900Y-90884500D01*
X75311000Y-92075000D02*
X75311000Y-90884500D01*
%TO.N,/D27*%
X62565900Y-83606100D02*
X63707000Y-82465000D01*
X62565900Y-87008900D02*
X62565900Y-83606100D01*
X70172000Y-94615000D02*
X62565900Y-87008900D01*
X72771000Y-94615000D02*
X70172000Y-94615000D01*
%TO.N,/D26*%
X75311000Y-94615000D02*
X74120500Y-94615000D01*
X70616500Y-93424500D02*
X63707000Y-86515000D01*
X73302100Y-93424500D02*
X70616500Y-93424500D01*
X74120500Y-94242900D02*
X73302100Y-93424500D01*
X74120500Y-94615000D02*
X74120500Y-94242900D01*
%TO.N,/D25*%
X72771000Y-97155000D02*
X73961500Y-97155000D01*
X73961500Y-96785000D02*
X73961500Y-97155000D01*
X74861500Y-95885000D02*
X73961500Y-96785000D01*
X77531400Y-95885000D02*
X74861500Y-95885000D01*
X98280600Y-75135800D02*
X77531400Y-95885000D01*
X187913000Y-75135800D02*
X98280600Y-75135800D01*
X195603800Y-67445000D02*
X187913000Y-75135800D01*
X221450000Y-67445000D02*
X195603800Y-67445000D01*
X224260000Y-64635000D02*
X221450000Y-67445000D01*
%TO.N,/D24*%
X75311000Y-97155000D02*
X76501500Y-97155000D01*
X78496800Y-97155000D02*
X76501500Y-97155000D01*
X100064100Y-75587700D02*
X78496800Y-97155000D01*
X196097400Y-75587700D02*
X100064100Y-75587700D01*
X197072000Y-74613100D02*
X196097400Y-75587700D01*
X197711000Y-74613100D02*
X197072000Y-74613100D01*
X199726700Y-72597400D02*
X197711000Y-74613100D01*
X212230400Y-72597400D02*
X199726700Y-72597400D01*
X216142800Y-68685000D02*
X212230400Y-72597400D01*
X224260000Y-68685000D02*
X216142800Y-68685000D01*
%TO.N,/D23*%
X221930000Y-75065000D02*
X224260000Y-72735000D01*
X197896000Y-75065000D02*
X221930000Y-75065000D01*
X194210500Y-78750500D02*
X197896000Y-75065000D01*
X115069100Y-78750500D02*
X194210500Y-78750500D01*
X95315100Y-98504500D02*
X115069100Y-78750500D01*
X74779900Y-98504500D02*
X95315100Y-98504500D01*
X73961500Y-99322900D02*
X74779900Y-98504500D01*
X73961500Y-99695000D02*
X73961500Y-99322900D01*
X72771000Y-99695000D02*
X73961500Y-99695000D01*
%TO.N,/D22*%
X75311000Y-99695000D02*
X76501500Y-99695000D01*
X220364400Y-80680600D02*
X224260000Y-76785000D01*
X184999200Y-80680600D02*
X220364400Y-80680600D01*
X182547700Y-83132100D02*
X184999200Y-80680600D01*
X116768000Y-83132100D02*
X182547700Y-83132100D01*
X100681400Y-99218700D02*
X116768000Y-83132100D01*
X76977800Y-99218700D02*
X100681400Y-99218700D01*
X76501500Y-99695000D02*
X76977800Y-99218700D01*
%TO.N,Net-(A1-D21{slash}SCL)*%
X82931000Y-102235000D02*
X84121500Y-102235000D01*
X257350000Y-110744000D02*
X255823100Y-110744000D01*
X253174100Y-108095000D02*
X255823100Y-110744000D01*
X201450600Y-108095000D02*
X253174100Y-108095000D01*
X201000200Y-107644600D02*
X201450600Y-108095000D01*
X89163300Y-107644600D02*
X201000200Y-107644600D01*
X84121500Y-102602800D02*
X89163300Y-107644600D01*
X84121500Y-102235000D02*
X84121500Y-102602800D01*
%TO.N,Net-(A1-D20{slash}SDA)*%
X85471000Y-102235000D02*
X86661500Y-102235000D01*
X257749100Y-107643100D02*
X260850000Y-110744000D01*
X201640600Y-107643100D02*
X257749100Y-107643100D01*
X201190100Y-107192600D02*
X201640600Y-107643100D01*
X91247100Y-107192600D02*
X201190100Y-107192600D01*
X86661500Y-102607000D02*
X91247100Y-107192600D01*
X86661500Y-102235000D02*
X86661500Y-102607000D01*
%TO.N,Net-(A1-D19{slash}RX1)*%
X88011000Y-102235000D02*
X89201500Y-102235000D01*
X99461300Y-105317600D02*
X205224300Y-105317600D01*
X96980500Y-102836800D02*
X99461300Y-105317600D01*
X96980500Y-101873400D02*
X96980500Y-102836800D01*
X96105700Y-100998600D02*
X96980500Y-101873400D01*
X90065900Y-100998600D02*
X96105700Y-100998600D01*
X89201500Y-101863000D02*
X90065900Y-100998600D01*
X89201500Y-102235000D02*
X89201500Y-101863000D01*
%TO.N,Net-(A1-D18{slash}TX1)*%
X262385000Y-115088100D02*
X257000000Y-120473100D01*
X262385000Y-110115800D02*
X262385000Y-115088100D01*
X259458900Y-107189700D02*
X262385000Y-110115800D01*
X202047000Y-107189700D02*
X259458900Y-107189700D01*
X201593600Y-106736300D02*
X202047000Y-107189700D01*
X95870800Y-106736300D02*
X201593600Y-106736300D01*
X91741500Y-102607000D02*
X95870800Y-106736300D01*
X91741500Y-102235000D02*
X91741500Y-102607000D01*
X90551000Y-102235000D02*
X91741500Y-102235000D01*
X257000000Y-122000000D02*
X257000000Y-120473100D01*
%TO.N,Net-(A1-D17{slash}RX2)*%
X93091000Y-102235000D02*
X94281500Y-102235000D01*
X94281500Y-102581100D02*
X94281500Y-102235000D01*
X97984800Y-106284400D02*
X94281500Y-102581100D01*
X201780900Y-106284400D02*
X97984800Y-106284400D01*
X202234300Y-106737800D02*
X201780900Y-106284400D01*
X259651900Y-106737800D02*
X202234300Y-106737800D01*
X262846300Y-109932200D02*
X259651900Y-106737800D01*
X262846300Y-121653700D02*
X262846300Y-109932200D01*
X262500000Y-122000000D02*
X262846300Y-121653700D01*
%TO.N,Net-(A1-D16{slash}TX2)*%
X99225500Y-105829500D02*
X95631000Y-102235000D01*
X203241900Y-105829500D02*
X99225500Y-105829500D01*
X203698300Y-106285900D02*
X203241900Y-105829500D01*
X259847200Y-106285900D02*
X203698300Y-106285900D01*
X266000000Y-112438700D02*
X259847200Y-106285900D01*
X266000000Y-122000000D02*
X266000000Y-112438700D01*
%TO.N,/D13*%
X155308800Y-99652800D02*
X145317700Y-99652800D01*
X156579700Y-100923700D02*
X155308800Y-99652800D01*
X239723000Y-100923700D02*
X156579700Y-100923700D01*
X242041700Y-98605000D02*
X239723000Y-100923700D01*
X267050000Y-98605000D02*
X242041700Y-98605000D01*
X268940000Y-96715000D02*
X267050000Y-98605000D01*
%TO.N,/D12*%
X141189200Y-104810700D02*
X140965500Y-104587000D01*
X160599000Y-104810700D02*
X141189200Y-104810700D01*
X161792500Y-103617200D02*
X160599000Y-104810700D01*
X263711800Y-103617200D02*
X161792500Y-103617200D01*
X270069400Y-97259600D02*
X263711800Y-103617200D01*
X270069400Y-93844400D02*
X270069400Y-97259600D01*
X268940000Y-92715000D02*
X270069400Y-93844400D01*
%TO.N,/D11*%
X135255000Y-102235000D02*
X136445500Y-102235000D01*
X136445500Y-101675900D02*
X136445500Y-102235000D01*
X147081600Y-91039800D02*
X136445500Y-101675900D01*
X266695200Y-91039800D02*
X147081600Y-91039800D01*
X269020000Y-88715000D02*
X266695200Y-91039800D01*
%TO.N,/D10*%
X132715000Y-102235000D02*
X133905500Y-102235000D01*
X267020000Y-86715000D02*
X269020000Y-84715000D01*
X258451600Y-86715000D02*
X267020000Y-86715000D01*
X256649200Y-88517400D02*
X258451600Y-86715000D01*
X245085800Y-88517400D02*
X256649200Y-88517400D01*
X243703600Y-89899600D02*
X245085800Y-88517400D01*
X213151900Y-89899600D02*
X243703600Y-89899600D01*
X211750700Y-88498400D02*
X213151900Y-89899600D01*
X200064900Y-88498400D02*
X211750700Y-88498400D01*
X198116700Y-90446600D02*
X200064900Y-88498400D01*
X145321900Y-90446600D02*
X198116700Y-90446600D01*
X133905500Y-101863000D02*
X145321900Y-90446600D01*
X133905500Y-102235000D02*
X133905500Y-101863000D01*
%TO.N,/D9*%
X130175000Y-102235000D02*
X131365500Y-102235000D01*
X223459800Y-95534800D02*
X224640000Y-96715000D01*
X213390700Y-95534800D02*
X223459800Y-95534800D01*
X212940500Y-95985000D02*
X213390700Y-95534800D01*
X144863600Y-95985000D02*
X212940500Y-95985000D01*
X139065000Y-101783600D02*
X144863600Y-95985000D01*
X139065000Y-102649400D02*
X139065000Y-101783600D01*
X138268700Y-103445700D02*
X139065000Y-102649400D01*
X132204200Y-103445700D02*
X138268700Y-103445700D01*
X131365500Y-102607000D02*
X132204200Y-103445700D01*
X131365500Y-102235000D02*
X131365500Y-102607000D01*
%TO.N,/D8*%
X200592900Y-94261900D02*
X144920100Y-94261900D01*
X201290600Y-93564200D02*
X200592900Y-94261900D01*
X213285400Y-93564200D02*
X201290600Y-93564200D01*
X213598300Y-93877100D02*
X213285400Y-93564200D01*
X223477900Y-93877100D02*
X213598300Y-93877100D01*
X224640000Y-92715000D02*
X223477900Y-93877100D01*
%TO.N,/D7*%
X123571000Y-102235000D02*
X124761500Y-102235000D01*
X216243300Y-88715000D02*
X224720000Y-88715000D01*
X213492000Y-85963700D02*
X216243300Y-88715000D01*
X185072100Y-85963700D02*
X213492000Y-85963700D01*
X184395400Y-86640400D02*
X185072100Y-85963700D01*
X140356100Y-86640400D02*
X184395400Y-86640400D01*
X124761500Y-102235000D02*
X140356100Y-86640400D01*
%TO.N,/D6*%
X121031000Y-102235000D02*
X122221500Y-102235000D01*
X223323500Y-83398500D02*
X224640000Y-84715000D01*
X187131600Y-83398500D02*
X223323500Y-83398500D01*
X186349200Y-84180900D02*
X187131600Y-83398500D01*
X186349200Y-84314300D02*
X186349200Y-84180900D01*
X185394000Y-85269500D02*
X186349200Y-84314300D01*
X185127200Y-85269500D02*
X185394000Y-85269500D01*
X184208200Y-86188500D02*
X185127200Y-85269500D01*
X137896000Y-86188500D02*
X184208200Y-86188500D01*
X122221500Y-101863000D02*
X137896000Y-86188500D01*
X122221500Y-102235000D02*
X122221500Y-101863000D01*
%TO.N,/D5*%
X118491000Y-102235000D02*
X119681500Y-102235000D01*
X262948400Y-82946600D02*
X269260000Y-76635000D01*
X186944400Y-82946600D02*
X262948400Y-82946600D01*
X185897300Y-83993700D02*
X186944400Y-82946600D01*
X185897300Y-84127100D02*
X185897300Y-83993700D01*
X185206800Y-84817600D02*
X185897300Y-84127100D01*
X184940000Y-84817600D02*
X185206800Y-84817600D01*
X184021000Y-85736600D02*
X184940000Y-84817600D01*
X135807900Y-85736600D02*
X184021000Y-85736600D01*
X119681500Y-101863000D02*
X135807900Y-85736600D01*
X119681500Y-102235000D02*
X119681500Y-101863000D01*
%TO.N,/D4*%
X115951000Y-102235000D02*
X117141500Y-102235000D01*
X261137100Y-72075000D02*
X269560000Y-72075000D01*
X255454700Y-77757400D02*
X261137100Y-72075000D01*
X252161300Y-77757400D02*
X255454700Y-77757400D01*
X247427200Y-82491500D02*
X252161300Y-77757400D01*
X186760400Y-82491500D02*
X247427200Y-82491500D01*
X185445400Y-83806500D02*
X186760400Y-82491500D01*
X185445400Y-83939900D02*
X185445400Y-83806500D01*
X185019600Y-84365700D02*
X185445400Y-83939900D01*
X184752800Y-84365700D02*
X185019600Y-84365700D01*
X183833800Y-85284700D02*
X184752800Y-84365700D01*
X133719800Y-85284700D02*
X183833800Y-85284700D01*
X117141500Y-101863000D02*
X133719800Y-85284700D01*
X117141500Y-102235000D02*
X117141500Y-101863000D01*
%TO.N,/D2*%
X110871000Y-102235000D02*
X112061500Y-102235000D01*
X267560000Y-65635000D02*
X269560000Y-63635000D01*
X258991600Y-65635000D02*
X267560000Y-65635000D01*
X256958500Y-67668100D02*
X258991600Y-65635000D01*
X254713200Y-67668100D02*
X256958500Y-67668100D01*
X252316300Y-70065000D02*
X254713200Y-67668100D01*
X242803800Y-70065000D02*
X252316300Y-70065000D01*
X238258800Y-74610000D02*
X242803800Y-70065000D01*
X233206600Y-74610000D02*
X238258800Y-74610000D01*
X226684100Y-81132500D02*
X233206600Y-74610000D01*
X185290600Y-81132500D02*
X226684100Y-81132500D01*
X182839100Y-83584000D02*
X185290600Y-81132500D01*
X130340400Y-83584000D02*
X182839100Y-83584000D01*
X112061500Y-101862900D02*
X130340400Y-83584000D01*
X112061500Y-102235000D02*
X112061500Y-101862900D01*
%TO.N,/A11*%
X124838000Y-34444000D02*
X128788000Y-34444000D01*
%TO.N,/A10*%
X141668000Y-34444000D02*
X137838000Y-34444000D01*
%TO.N,/A9*%
X153788000Y-34444000D02*
X149838000Y-34444000D01*
X149838000Y-34444000D02*
X148411100Y-34444000D01*
X132855000Y-36656500D02*
X132434300Y-37077200D01*
X146198600Y-36656500D02*
X132855000Y-36656500D01*
X148411100Y-34444000D02*
X146198600Y-36656500D01*
%TO.N,/A8*%
X95631000Y-53975000D02*
X96821500Y-53975000D01*
X162838000Y-34444000D02*
X164264900Y-34444000D01*
X166639500Y-35416900D02*
X166271000Y-35785400D01*
X166788000Y-35416900D02*
X166639500Y-35416900D01*
X165606300Y-35785400D02*
X164264900Y-34444000D01*
X166271000Y-35785400D02*
X165606300Y-35785400D01*
X166788000Y-34290000D02*
X166788000Y-35416900D01*
X98012000Y-52784500D02*
X96821500Y-53975000D01*
X101450200Y-52784500D02*
X98012000Y-52784500D01*
X113666700Y-40568000D02*
X101450200Y-52784500D01*
X164687600Y-40568000D02*
X113666700Y-40568000D01*
X166271000Y-38984600D02*
X164687600Y-40568000D01*
X166271000Y-35785400D02*
X166271000Y-38984600D01*
%TO.N,/A7*%
X177418900Y-34290000D02*
X177264900Y-34444000D01*
X179788000Y-34290000D02*
X177418900Y-34290000D01*
X175838000Y-34444000D02*
X177264900Y-34444000D01*
X167664300Y-41190800D02*
X174411100Y-34444000D01*
X113906500Y-41190800D02*
X167664300Y-41190800D01*
X101901500Y-53195800D02*
X113906500Y-41190800D01*
X101901500Y-53975000D02*
X101901500Y-53195800D01*
X100711000Y-53975000D02*
X101901500Y-53975000D01*
X175838000Y-34444000D02*
X174411100Y-34444000D01*
%TO.N,/A6*%
X103251000Y-53975000D02*
X104441500Y-53975000D01*
X192788000Y-34290000D02*
X191661100Y-34290000D01*
X191507100Y-34444000D02*
X191661100Y-34290000D01*
X187838000Y-34444000D02*
X191507100Y-34444000D01*
X104441500Y-53605000D02*
X104441500Y-53975000D01*
X105984200Y-52062300D02*
X104441500Y-53605000D01*
X107541700Y-52062300D02*
X105984200Y-52062300D01*
X115347100Y-44256900D02*
X107541700Y-52062300D01*
X176598200Y-44256900D02*
X115347100Y-44256900D01*
X186411100Y-34444000D02*
X176598200Y-44256900D01*
X187838000Y-34444000D02*
X186411100Y-34444000D01*
%TO.N,/A5*%
X105791000Y-53975000D02*
X106981500Y-53975000D01*
X200838000Y-34444000D02*
X199411100Y-34444000D01*
X202418900Y-34290000D02*
X202264900Y-34444000D01*
X204788000Y-34290000D02*
X202418900Y-34290000D01*
X200838000Y-34444000D02*
X202264900Y-34444000D01*
X106981500Y-53602900D02*
X106981500Y-53975000D01*
X110060900Y-50523500D02*
X106981500Y-53602900D01*
X117474400Y-50523500D02*
X110060900Y-50523500D01*
X123289100Y-44708800D02*
X117474400Y-50523500D01*
X189142000Y-44708800D02*
X123289100Y-44708800D01*
X199406800Y-34444000D02*
X189142000Y-44708800D01*
X199411100Y-34444000D02*
X199406800Y-34444000D01*
%TO.N,/A4*%
X215418900Y-34290000D02*
X215264900Y-34444000D01*
X217788000Y-34290000D02*
X215418900Y-34290000D01*
X213838000Y-34444000D02*
X215264900Y-34444000D01*
X108331000Y-53975000D02*
X109521500Y-53975000D01*
X213838000Y-34444000D02*
X212411100Y-34444000D01*
X109521500Y-53603000D02*
X109521500Y-53975000D01*
X112146900Y-50977600D02*
X109521500Y-53603000D01*
X128339100Y-50977600D02*
X112146900Y-50977600D01*
X134099800Y-45216900D02*
X128339100Y-50977600D01*
X189273000Y-45216900D02*
X134099800Y-45216900D01*
X197351000Y-37138900D02*
X189273000Y-45216900D01*
X209716200Y-37138900D02*
X197351000Y-37138900D01*
X212411100Y-34444000D02*
X209716200Y-37138900D01*
%TO.N,/A3*%
X227418900Y-34290000D02*
X227264900Y-34444000D01*
X229838000Y-34290000D02*
X227418900Y-34290000D01*
X225838000Y-34444000D02*
X227264900Y-34444000D01*
X110871000Y-53975000D02*
X112061500Y-53975000D01*
X225838000Y-34444000D02*
X224411100Y-34444000D01*
X112061500Y-53603000D02*
X112061500Y-53975000D01*
X114179000Y-51485500D02*
X112061500Y-53603000D01*
X151797100Y-51485500D02*
X114179000Y-51485500D01*
X153214700Y-50067900D02*
X151797100Y-51485500D01*
X192825700Y-50067900D02*
X153214700Y-50067900D01*
X201909700Y-40983900D02*
X192825700Y-50067900D01*
X216907900Y-40983900D02*
X201909700Y-40983900D01*
X222856700Y-35035100D02*
X216907900Y-40983900D01*
X223820000Y-35035100D02*
X222856700Y-35035100D01*
X224411100Y-34444000D02*
X223820000Y-35035100D01*
%TO.N,/A2*%
X239418900Y-34290000D02*
X239264900Y-34444000D01*
X241788000Y-34290000D02*
X239418900Y-34290000D01*
X238551500Y-34444000D02*
X239264900Y-34444000D01*
X113411000Y-53975000D02*
X114601500Y-53975000D01*
X238551500Y-34444000D02*
X237838000Y-34444000D01*
X237838000Y-34444000D02*
X236411100Y-34444000D01*
X114601500Y-53605000D02*
X114601500Y-53975000D01*
X116213200Y-51993300D02*
X114601500Y-53605000D01*
X152411200Y-51993300D02*
X116213200Y-51993300D01*
X153884700Y-50519800D02*
X152411200Y-51993300D01*
X193328900Y-50519800D02*
X153884700Y-50519800D01*
X202372900Y-41475800D02*
X193328900Y-50519800D01*
X217058400Y-41475800D02*
X202372900Y-41475800D01*
X218109000Y-40425200D02*
X217058400Y-41475800D01*
X230429900Y-40425200D02*
X218109000Y-40425200D01*
X236411100Y-34444000D02*
X230429900Y-40425200D01*
%TO.N,/A1*%
X251418900Y-34290000D02*
X251264900Y-34444000D01*
X253288000Y-34290000D02*
X251418900Y-34290000D01*
X249838000Y-34444000D02*
X251264900Y-34444000D01*
X117141500Y-54345000D02*
X117141500Y-53975000D01*
X119325600Y-56529100D02*
X117141500Y-54345000D01*
X198159500Y-56529100D02*
X119325600Y-56529100D01*
X205292600Y-49396000D02*
X198159500Y-56529100D01*
X212267300Y-49396000D02*
X205292600Y-49396000D01*
X217656600Y-44006700D02*
X212267300Y-49396000D01*
X235513400Y-44006700D02*
X217656600Y-44006700D01*
X237942700Y-41577400D02*
X235513400Y-44006700D01*
X248242800Y-41577400D02*
X237942700Y-41577400D01*
X115951000Y-53975000D02*
X117141500Y-53975000D01*
%TO.N,/A0*%
X262418900Y-34290000D02*
X262264900Y-34444000D01*
X265000000Y-34290000D02*
X262418900Y-34290000D01*
X260838000Y-34444000D02*
X262264900Y-34444000D01*
X256899100Y-36956000D02*
X259411100Y-34444000D01*
X239571000Y-36956000D02*
X256899100Y-36956000D01*
X234844900Y-41682100D02*
X239571000Y-36956000D01*
X220413800Y-41682100D02*
X234844900Y-41682100D01*
X219788800Y-42307100D02*
X220413800Y-41682100D01*
X209018400Y-42307100D02*
X219788800Y-42307100D01*
X199877400Y-51448100D02*
X209018400Y-42307100D01*
X154274400Y-51448100D02*
X199877400Y-51448100D01*
X152938000Y-52784500D02*
X154274400Y-51448100D01*
X120872000Y-52784500D02*
X152938000Y-52784500D01*
X119681500Y-53975000D02*
X120872000Y-52784500D01*
X118491000Y-53975000D02*
X119681500Y-53975000D01*
X260838000Y-34444000D02*
X259411100Y-34444000D01*
%TO.N,+5V*%
X168376600Y-25718600D02*
X166788000Y-24130000D01*
X178199400Y-25718600D02*
X168376600Y-25718600D01*
X179788000Y-24130000D02*
X178199400Y-25718600D01*
X219060900Y-22857100D02*
X217788000Y-24130000D01*
X228565100Y-22857100D02*
X219060900Y-22857100D01*
X229838000Y-24130000D02*
X228565100Y-22857100D01*
X216515100Y-22857100D02*
X217788000Y-24130000D01*
X206060900Y-22857100D02*
X216515100Y-22857100D01*
X204788000Y-24130000D02*
X206060900Y-22857100D01*
X252015100Y-22857100D02*
X253288000Y-24130000D01*
X243060900Y-22857100D02*
X252015100Y-22857100D01*
X241788000Y-24130000D02*
X243060900Y-22857100D01*
X194060900Y-22857100D02*
X192788000Y-24130000D01*
X203515100Y-22857100D02*
X194060900Y-22857100D01*
X204788000Y-24130000D02*
X203515100Y-22857100D01*
X181060900Y-22857100D02*
X179788000Y-24130000D01*
X191515100Y-22857100D02*
X181060900Y-22857100D01*
X192788000Y-24130000D02*
X191515100Y-22857100D01*
X118426900Y-39907900D02*
X117000000Y-38481000D01*
X127573100Y-39907900D02*
X118426900Y-39907900D01*
X129000000Y-38481000D02*
X127573100Y-39907900D01*
X129000000Y-38481000D02*
X130214900Y-37266100D01*
X130214900Y-37266100D02*
X130214900Y-25710900D01*
X140241100Y-25710900D02*
X130214900Y-25710900D01*
X141668000Y-24284000D02*
X140241100Y-25710900D01*
X130214900Y-25710900D02*
X128788000Y-24284000D01*
X155214900Y-25710900D02*
X153788000Y-24284000D01*
X165207100Y-25710900D02*
X155214900Y-25710900D01*
X166788000Y-24130000D02*
X165207100Y-25710900D01*
X143094900Y-25710900D02*
X141668000Y-24284000D01*
X152361100Y-25710900D02*
X143094900Y-25710900D01*
X153788000Y-24284000D02*
X152361100Y-25710900D01*
X90653100Y-37134100D02*
X92000000Y-38481000D01*
X79596900Y-37134100D02*
X90653100Y-37134100D01*
X78250000Y-38481000D02*
X79596900Y-37134100D01*
X93426900Y-37054100D02*
X92000000Y-38481000D01*
X102573100Y-37054100D02*
X93426900Y-37054100D01*
X104000000Y-38481000D02*
X102573100Y-37054100D01*
X115574600Y-37055600D02*
X105425400Y-37055600D01*
X117000000Y-38481000D02*
X115574600Y-37055600D01*
X105425400Y-37055600D02*
X104000000Y-38481000D01*
X113574600Y-26555400D02*
X105425400Y-26555400D01*
X116000000Y-24130000D02*
X113574600Y-26555400D01*
X105425400Y-37055600D02*
X105425400Y-26555400D01*
X105425400Y-26555400D02*
X103000000Y-24130000D01*
X139573100Y-39907900D02*
X141000000Y-38481000D01*
X132856700Y-39907900D02*
X139573100Y-39907900D01*
X130214900Y-37266100D02*
X132856700Y-39907900D01*
X154476900Y-39907900D02*
X153050000Y-38481000D01*
X163673100Y-39907900D02*
X154476900Y-39907900D01*
X165100000Y-38481000D02*
X163673100Y-39907900D01*
X151623100Y-39907900D02*
X153050000Y-38481000D01*
X142426900Y-39907900D02*
X151623100Y-39907900D01*
X141000000Y-38481000D02*
X142426900Y-39907900D01*
%TD*%
M02*
